<svg width="132" height="228" viewBox="0 0 132 228" fill="none" xmlns="http://www.w3.org/2000/svg">
<path d="M37.6085 13.056C37.8189 13.2428 38.0536 13.3435 38.3963 13.4087C39.1071 13.5473 39.8145 13.6971 40.5211 13.856C40.8444 13.9308 41.1682 13.977 41.4962 14.0155C41.6325 14.031 41.7624 14.0401 41.9002 14.0396C41.9301 14.0391 41.9538 14.0195 41.9831 14.0132C42.022 14.0261 42.0468 14.0549 42.0972 14.0552C42.4286 14.047 42.6239 13.6998 42.3573 13.4537C42.2826 13.3833 42.2407 13.1876 41.9732 13.0332C41.7007 12.8726 41.4299 12.7409 41.1357 12.6264C40.3227 12.3092 38.2173 11.3278 37.5024 12.2056C37.2969 12.4555 37.3616 12.8669 37.5944 13.0363C37.6028 13.044 37.5978 13.0481 37.6085 13.056Z" fill="#5B5853"/>
<path d="M34.6337 17.65C35.6912 17.7648 36.5763 17.2637 37.6952 17.4911C39.0065 17.7577 40.3066 18.3791 41.5487 18.9351C41.5613 19.221 41.7242 19.4353 41.9208 19.7056C42.2352 20.1342 42.5766 20.5448 42.8761 20.9857C43.1343 21.3664 43.6451 21.0095 43.4616 20.6153C43.2611 20.1839 43.0234 19.7925 42.7596 19.3986C42.6866 19.2871 42.6212 19.1798 42.5579 19.0739C42.7752 18.8802 42.8225 18.5095 42.4832 18.3379C40.8538 17.5137 39.3818 16.4982 37.5799 16.0694C36.4728 15.803 34.6487 15.9138 34.4004 17.2729C34.3745 17.423 34.4578 17.6296 34.6337 17.65Z" fill="#5B5853"/>
<path d="M34.39 20.2022C34.9096 20.2053 35.2522 19.8435 35.6707 19.5855C36.2567 19.222 36.9215 19.2082 37.5732 19.3641C38.1618 19.5093 38.3716 18.6079 37.79 18.4507C36.7306 18.166 34.0072 18.2703 34.0364 19.8708C34.0396 20.0628 34.2053 20.2016 34.39 20.2022Z" fill="#5B5853"/>
<path d="M33.7236 24.5633C34.4066 24.3722 35.3869 24.204 36.0743 24.454C36.6119 24.6517 36.9425 23.7597 36.4293 23.523C35.4174 23.0558 34.2092 22.767 33.1521 23.326C32.4396 23.7037 32.9982 24.7653 33.7236 24.5633Z" fill="#5B5853"/>
<path d="M38.9094 25.1261C38.2013 25.6132 37.4682 26.0624 36.7251 26.4956C36.0564 26.8833 35.0581 27.2494 34.7018 27.9679C34.5649 28.2451 34.7578 28.6597 35.1052 28.6163C35.8357 28.5273 36.4304 27.9317 37.0314 27.5318C37.8297 27.0017 38.646 26.4998 39.4226 25.9332C39.9184 25.577 39.4221 24.7739 38.9094 25.1261Z" fill="#5B5853"/>
<path d="M41.1993 34.6298C42.4104 32.8679 43.2262 30.8372 43.9151 28.8263C44.1151 28.2407 43.183 28.0279 42.9826 28.6054C42.4179 30.2346 41.7334 31.796 40.8771 33.2949C39.9962 34.835 38.7088 35.6875 37.6324 36.993C37.3762 37.3045 37.6523 37.6904 38.0254 37.6185C39.4287 37.3374 40.4425 35.7286 41.1993 34.6298Z" fill="#5B5853"/>
<path d="M43.0632 36.924C43.9107 36.3126 44.1604 35.2005 44.516 34.2512C45.0443 32.8446 45.483 31.4041 45.9747 29.9847C46.1491 29.4851 45.3535 29.3096 45.1768 29.7963C44.7317 31.0308 44.3179 32.2729 43.8274 33.4903C43.4126 34.5176 42.6252 35.5526 42.5836 36.6723C42.5751 36.9033 42.8768 37.0598 43.0632 36.924Z" fill="#5B5853"/>
<path d="M47.3161 35.3365C47.6563 34.4167 47.4214 33.3312 47.3736 32.3637C47.3188 31.2428 47.2744 30.1218 47.2253 29.0014C47.2008 28.447 46.351 28.4763 46.365 29.032C46.3946 30.1527 46.4264 31.2737 46.4544 32.3977C46.4801 33.3678 46.3171 34.4619 46.7219 35.3572C46.8537 35.6442 47.2073 35.6313 47.3161 35.3365Z" fill="#5B5853"/>
<path d="M48.8182 32.4158C49.0651 31.9151 48.9571 31.3457 48.9338 30.8018C48.9087 30.1819 48.8825 29.5619 48.8586 28.9421C48.8377 28.4328 48.0523 28.4603 48.0674 28.9701C48.0838 29.5135 48.1005 30.0533 48.117 30.5955C48.1355 31.201 48.0409 31.8954 48.354 32.433C48.4534 32.6044 48.7299 32.5932 48.8182 32.4158Z" fill="#5B5853"/>
<path d="M51.9061 38.1209C52.4911 39.0519 54.2889 39.3919 54.5213 38.0072C54.5455 37.8638 54.4948 37.7108 54.359 37.6438C54.0232 37.4725 53.7638 37.3648 53.3818 37.3991C53.1824 37.4189 53.0669 37.3079 52.951 37.1532C52.3415 36.3575 52.4334 35.1682 52.5108 34.2356C52.5593 33.6493 51.5441 33.5489 51.4807 34.1339C51.3409 35.4036 51.1895 36.9843 51.9061 38.1209Z" fill="#5B5853"/>
<path d="M57.605 38.3704C58.16 38.2449 58.0842 37.5443 57.7074 37.2864C56.652 36.5556 55.965 35.5998 55.5751 34.3593C55.3077 33.5152 54.0024 33.9228 54.2598 34.7752C54.645 36.0519 55.8861 38.7702 57.605 38.3704Z" fill="#5B5853"/>
<path d="M58.9668 34.1888C59.1069 33.9739 58.9339 33.7449 58.7356 33.6707C58.2891 33.5047 57.7689 33.6025 57.3032 33.4692C56.7344 33.3098 56.3041 32.8563 56.0736 32.3313C55.8631 31.8496 55.0866 32.0696 55.2808 32.5784C55.5695 33.3328 56.0539 34.0212 56.7629 34.4294C57.436 34.8157 58.4942 34.911 58.9668 34.1888Z" fill="#5B5853"/>
<path d="M60.935 27.125C60.2445 26.8471 59.6457 26.4278 59.191 25.8353C58.823 25.3556 58.0222 25.851 58.3889 26.3443C58.9037 27.0276 59.5257 27.5272 60.2942 27.901C60.8392 28.1648 61.7939 28.654 62.3604 28.3139C62.5164 28.2199 62.5294 28.0376 62.4565 27.8894C62.2156 27.4013 61.4046 27.3126 60.935 27.125Z" fill="#5B5853"/>
<path d="M61.8209 23.1201C61.8562 22.8963 61.6069 22.7563 61.4378 22.9155C60.8931 23.4334 60.2626 23.532 59.5344 23.5616C58.9975 23.5832 59.0268 24.409 59.5634 24.3908C60.5134 24.3585 61.646 24.2532 61.8209 23.1201Z" fill="#5B5853"/>
<path d="M59.1388 20.1813C58.6571 20.5227 58.993 21.4068 59.5958 21.1666C60.5543 20.7839 62.012 20.2842 62.0376 19.0437C62.049 18.51 61.4319 18.2805 61.0174 18.5079C60.6577 18.7027 60.4249 19.0808 60.1431 19.3727C59.8513 19.6728 59.4803 19.9377 59.1388 20.1813Z" fill="#5B5853"/>
<path d="M57.7552 17.9311C58.5081 18.2644 59.2039 17.9998 59.6507 17.3188C60.0694 16.6786 60.537 15.5565 59.9432 14.9069C59.8415 14.795 59.67 14.7772 59.5312 14.812C59.0438 14.9383 58.8511 15.3891 58.6911 15.8213C58.6075 16.0462 58.5243 16.2654 58.4185 16.4813C58.3754 16.5713 58.3291 16.6586 58.2771 16.7454C58.2771 16.7454 58.2782 16.7467 58.2779 16.7489C58.2595 16.738 58.2523 16.7292 58.2166 16.7189C57.5079 16.5105 57.0737 17.6312 57.7552 17.9311Z" fill="#5B5853"/>
<path d="M53.0251 18.8737C53.863 15.4609 56.1685 13.0862 57.5589 9.96661C57.6497 9.76305 57.3995 9.56099 57.2358 9.73457C54.9364 12.165 53.1116 15.4572 52.3594 18.7188C52.2606 19.1477 52.9193 19.3031 53.0251 18.8737Z" fill="#5B5853"/>
<path d="M51.7509 17.6762C52.0333 15.6548 52.7699 13.7196 53.5025 11.8255C53.9062 10.7833 54.7962 9.44602 54.6187 8.30066C54.5921 8.12479 54.3941 8.02304 54.2554 8.16459C53.425 9.01409 53.159 10.438 52.7439 11.5399C52.0184 13.4669 51.3023 15.4522 51.0476 17.5073C50.9898 17.9631 51.6856 18.1393 51.7509 17.6762Z" fill="#5B5853"/>
<path d="M51.0258 5.78249C51.0281 5.77009 51.0383 5.7596 51.0418 5.74731C51.0357 5.75131 51.0224 5.75806 51.0175 5.76103C51.0243 5.76169 51.0296 5.76679 51.0258 5.78249Z" fill="#5B5853"/>
<path d="M50.8253 11.8989C51.1788 10.4605 51.6474 9.05496 51.9717 7.60915C52.1725 6.71838 52.3911 5.73867 51.5674 5.44911C51.3444 5.36905 51.1174 5.54455 51.0405 5.74716C51.0588 5.7363 51.0696 5.73158 51.1011 5.71397C50.8859 5.83895 50.8241 6.06255 50.7457 6.27994C50.5583 6.79439 50.5663 7.48494 50.4772 8.02725C50.2762 9.24166 50.1133 10.4655 49.8919 11.6768C49.7819 12.2813 50.6767 12.4997 50.8253 11.8989Z" fill="#5B5853"/>
<path d="M48.2553 11.2709C48.4639 11.6778 49.0188 11.4823 49.1348 11.1251C49.3703 10.3972 49.0335 9.36848 48.8915 8.65122C48.7172 7.77015 48.6538 6.83437 48.0665 6.14068C47.7862 5.81062 47.2418 6.05188 47.1513 6.41959C46.9614 7.18516 47.305 8.08487 47.5102 8.88398C47.7119 9.68277 47.8776 10.5343 48.2553 11.2709Z" fill="#5B5853"/>
<path d="M44.3222 10.9521C44.9718 11.475 45.4194 12.153 45.6821 12.9393C45.9149 13.6309 46.9623 13.3027 46.7639 12.5995C46.4984 11.6649 46.0157 10.8275 45.3092 10.1567C44.6845 9.56503 43.5551 8.8649 42.6715 9.2318C42.4239 9.3353 42.3696 9.59978 42.5432 9.79903C43.0044 10.3245 43.7778 10.5162 44.3222 10.9521Z" fill="#5B5853"/>
<path d="M41.6132 10.5675C41.3801 10.1398 41.1537 9.71511 40.9749 9.26056C40.8174 8.85972 40.7817 8.45687 40.4556 8.14879C40.3314 8.03236 40.0961 8.02111 39.9856 8.16653C39.3223 9.02183 40.262 10.3682 40.6878 11.153C41.025 11.7732 41.9494 11.1864 41.6132 10.5675Z" fill="#5B5853"/>
<path d="M40.8287 28.7877C39.6141 29.2776 38.3958 29.7121 37.2176 30.3007C36.6006 30.605 35.8119 31.1302 36.0901 31.9456C36.1662 32.1687 36.3838 32.2678 36.6059 32.2146C36.7857 32.1711 36.972 32.2029 37.1506 32.1478C37.5318 32.0274 37.8952 31.6401 38.219 31.412C39.1605 30.7546 40.1799 30.1104 41.2089 29.6049C41.6702 29.3797 41.3041 28.5949 40.8287 28.7877Z" fill="#5B5853"/>
<path d="M40.3977 32.2019C40.8278 31.8842 41.2282 31.5407 41.6807 31.2527C42.1787 30.9335 41.7097 30.2386 41.201 30.4913C40.7789 30.703 40.3847 30.9462 39.9881 31.2017C39.5846 31.4589 39.1718 31.621 39.0442 32.1103C38.9927 32.3107 39.1276 32.4948 39.3174 32.5498C39.7512 32.6812 40.0499 32.4644 40.3977 32.2019Z" fill="#5B5853"/>
<path d="M59.1802 28.1596C59.1993 28.7227 59.227 29.3635 59.6325 29.7998C60.0422 30.2399 60.9261 30.5352 61.303 29.9243C61.3656 29.8236 61.3527 29.6835 61.292 29.5869C61.0641 29.2126 60.7088 29.3619 60.4141 29.1223C60.1743 28.9304 60.225 28.3936 60.2154 28.1252C60.1893 27.4559 59.1552 27.4915 59.1802 28.1596Z" fill="#5B5853"/>
<path d="M48.297 20.0549C48.661 20.3862 49.1719 19.8375 48.8157 19.4967C48.1947 18.9031 47.57 18.3125 46.953 17.7124C46.4366 17.2126 45.8849 16.4718 45.1707 16.2847C44.9647 16.2315 44.7662 16.4442 44.8351 16.6459C45.0708 17.3435 45.8501 17.8423 46.3857 18.3221C47.026 18.8947 47.6608 19.4759 48.297 20.0549Z" fill="#5B5853"/>
<path d="M48.1389 18.7611C48.413 19.2627 49.1358 18.7896 48.8822 18.29C48.6778 17.8869 48.5294 17.4743 48.392 17.0433C48.2498 16.6026 48.1548 16.2663 47.6842 16.1359C47.4885 16.0826 47.3262 16.2184 47.2669 16.3929C47.1184 16.825 47.3788 17.1004 47.5539 17.4857C47.7503 17.9121 47.9149 18.3469 48.1389 18.7611Z" fill="#5B5853"/>
<path d="M42.8492 22.1137C42.6641 22.3552 42.6745 22.6156 42.8749 22.8461C43.1835 23.1927 43.4798 23.1662 43.9117 23.1035C44.3882 23.0301 44.8472 22.9482 45.3287 22.9178C46.0025 22.8692 45.9671 21.8695 45.292 21.8721C44.8718 21.8728 44.4752 21.8323 44.0572 21.7988C43.5696 21.7609 43.1776 21.684 42.8492 22.1137Z" fill="#5B5853"/>
<path d="M41.4943 24.8614C41.9533 25.0996 42.3952 25.1469 42.905 25.0974C43.5908 25.0316 43.5529 24.057 42.8667 24.032C42.5508 24.0222 42.3331 23.9714 42.0709 23.7865C41.4421 23.3448 40.7831 24.4886 41.4943 24.8614Z" fill="#5B5853"/>
<path d="M47.835 23.1414C48.2367 23.6886 48.7078 24.2414 49.2356 24.6711C49.6201 24.9803 50.2929 24.515 49.9433 24.0818C49.5098 23.543 49.2769 22.8525 48.7681 22.3696C48.2717 21.8993 47.4182 22.5732 47.835 23.1414Z" fill="#5B5853"/>
<path d="M46.7996 27.086C46.5186 27.0359 46.3835 27.3419 46.5555 27.5456C47.5677 28.7474 49.3053 28.5938 50.6539 28.118C50.8975 28.0313 50.9938 27.8306 50.9868 27.6302C51.3168 27.8733 51.8512 27.7114 51.8971 27.1649C51.9026 27.0954 51.9091 27.0283 51.9239 26.9586C52.1483 25.9301 50.4057 25.9926 50.7018 27.0036C50.7182 27.0591 50.7274 27.1185 50.7367 27.1768C50.6314 27.1139 50.5013 27.0944 50.3481 27.1485C49.7768 27.347 49.2233 27.4577 48.6172 27.4462C48.0111 27.4359 47.3955 27.1906 46.7996 27.086Z" fill="#5B5853"/>
<path d="M45.6187 26.9284C45.4632 26.9937 45.199 27.2931 45.0676 27.3114C44.3317 27.4205 44.5045 28.4483 45.2406 28.3128C45.6016 28.2467 45.7358 27.975 46.0322 27.8165C46.5212 27.555 46.1365 26.7133 45.6187 26.9284Z" fill="#5B5853"/>
<path d="M51.8447 30.198C51.9731 30.1989 52.1017 30.1987 52.2311 30.202C52.9363 30.2322 52.8937 29.0333 52.1918 29.1113C52.0628 29.1276 51.9347 29.1347 51.8063 29.1452C51.1278 29.1945 51.1632 30.1953 51.8447 30.198Z" fill="#5B5853"/>
<path d="M49.1393 36.2849C48.9212 36.2972 48.7023 36.3059 48.4842 36.3181C47.8051 36.3501 47.8031 37.3094 48.4006 37.4222C48.3357 37.4997 48.2899 37.594 48.2945 37.7241C48.295 37.7425 48.2385 37.7807 48.1941 37.8246C47.8445 38.1535 48.2602 38.5908 48.6352 38.5226C49.0357 38.4522 49.2291 38.0657 49.2493 37.6901C49.2565 37.5794 49.2206 37.4991 49.1721 37.4313C49.1745 37.4303 49.1769 37.4294 49.1803 37.4297C49.9166 37.4113 49.8761 36.2493 49.1393 36.2849Z" fill="#5B5853"/>
<path d="M55.2368 27.7914C55.6456 26.7313 55.3698 25.6889 54.3405 25.1156C54.0999 24.981 53.8456 25.178 53.8364 25.4273C53.816 26.0187 54.3233 26.6255 54.1001 27.1778C53.7916 27.948 54.9386 28.5614 55.2368 27.7914Z" fill="#5B5853"/>
<path d="M53.0223 24.108C52.4615 24.0321 52.1825 23.8192 51.7424 23.4921C51.0946 23.0095 50.3232 23.8073 50.8808 24.4155C51.3917 24.9721 52.1646 25.2533 52.9172 25.1607C53.4726 25.0903 53.6564 24.1968 53.0223 24.108Z" fill="#5B5853"/>
<path d="M57.3117 23.705C57.9248 23.3097 58.3601 22.2017 57.6712 21.6692C57.5354 21.5654 57.3299 21.5066 57.1776 21.6227C56.8849 21.8481 56.8076 22.1264 56.6723 22.4577C56.5414 22.779 56.3702 22.6385 56.1407 22.4477C55.5887 21.9835 54.8271 22.7868 55.3739 23.2689C55.8763 23.7122 56.6569 24.1273 57.3117 23.705Z" fill="#5B5853"/>
<path d="M55.0257 17.8754C54.7275 17.8856 54.6214 18.1405 54.3385 18.1465C54.3178 18.1468 54.3055 18.1548 54.288 18.1577C54.2545 18.1246 54.2348 18.0791 54.1939 18.0511C54.0172 17.9192 53.8086 17.9048 53.6423 18.0701C52.8538 18.8433 53.8096 19.8916 54.4204 20.4005C55.0023 20.8882 55.7413 20.093 55.2203 19.5458C55.1162 19.4347 55.0122 19.3237 54.9202 19.2058C55.3396 19.0466 55.7262 18.7396 55.5767 18.2672C55.4919 18.0042 55.309 17.866 55.0257 17.8754Z" fill="#5B5853"/>
<path d="M32.2935 56.4721C32.5981 57.3945 32.898 58.3186 33.225 59.2351C33.3857 59.6868 34.121 59.6315 34.1464 59.1657C34.2458 59.4565 34.3389 59.7524 34.4204 60.0495C34.6116 60.7554 35.6513 60.4116 35.4927 59.7123C35.2278 58.5459 34.8184 57.4367 34.137 56.4458C33.9093 56.1174 33.6171 55.7563 33.2811 55.4438C33.2755 55.4192 33.2673 55.3966 33.2617 55.372C32.9637 54.3217 32.8576 52.9594 32.0862 52.1527C31.8383 51.8912 31.4227 52.0703 31.3342 52.3808C31.1227 53.1213 31.391 53.9082 31.6647 54.6519C31.5894 54.647 31.5134 54.6373 31.4359 54.6436C31.1452 54.6706 31.0305 54.9442 31.1467 55.1907C31.3864 55.7039 31.8378 56.0919 32.2935 56.4721Z" fill="#5B5853"/>
<path d="M27.6263 58.8289C28.392 59.184 29.0945 59.3379 29.9297 59.2935C30.5656 59.2573 30.5044 58.3699 29.8947 58.3248C29.6096 58.3054 29.2478 58.0707 28.9891 57.9562C28.5636 57.7636 28.159 57.5433 27.7656 57.2907C27.354 57.0248 26.379 56.4842 26.1551 57.258C25.9189 58.0753 27.076 58.5727 27.6263 58.8289Z" fill="#5B5853"/>
<path d="M26.3152 61.8116C27.0955 61.9443 27.8433 62.2701 28.5447 62.6259C29.1321 62.9259 29.5313 62.1071 29.0173 61.7488C27.9128 60.9799 25.6569 59.8806 24.3686 60.7663C24.1264 60.9334 24.1507 61.264 24.3907 61.4169C24.9449 61.763 25.6842 61.7024 26.3152 61.8116Z" fill="#5B5853"/>
<path d="M21.396 65.6889C22.1704 65.6202 22.8311 65.1136 23.5912 64.9195C24.4519 64.7065 25.1784 65.1348 25.6433 65.8361C25.9318 66.2714 26.5591 65.8603 26.3194 65.4067C25.8335 64.4841 25.1334 63.9839 24.0966 63.8929C23.0985 63.8058 21.6196 64.347 21.1009 65.214C20.9781 65.4167 21.1574 65.7107 21.396 65.6889Z" fill="#5B5853"/>
<path d="M24.028 69.3793C24.482 69.3485 24.4575 68.6747 24.0027 68.6779C23.4852 68.6773 22.9688 68.6757 22.4535 68.6167C21.9959 68.5657 21.4414 68.2814 21.0005 68.45C20.8729 68.4997 20.7536 68.6534 20.8188 68.7986C21.2485 69.7445 23.1972 69.4368 24.028 69.3793Z" fill="#5B5853"/>
<path d="M22.8708 70.7665C22.3734 70.8425 22.3961 71.4989 22.8981 71.5416C23.0234 71.5514 23.1481 71.5439 23.2723 71.541C23.7883 71.5219 23.7601 70.7204 23.2427 70.7416C23.1185 70.7445 22.9944 70.7463 22.8708 70.7665Z" fill="#5B5853"/>
<path d="M24.4887 77.07C24.5377 77.1447 24.63 77.1995 24.7213 77.1934C25.4387 77.133 25.8713 75.9811 26.2064 75.4694C26.4405 75.1133 26.6812 74.76 26.9189 74.4019C28.2516 74.4239 29.669 73.7355 30.6748 72.9936C31.2061 72.603 30.6908 71.7579 30.1222 72.1196C29.457 72.5432 28.7221 72.7488 27.9494 72.859C28.153 72.5562 28.356 72.2487 28.5598 71.9447C28.7581 71.6505 28.2655 71.2965 28.0564 71.5839C27.719 72.0472 27.3633 72.4983 27.0089 72.9473C26.4313 72.9742 25.8493 72.9983 25.3124 73.1978C25.0682 73.2902 24.9151 73.6633 25.1647 73.8481C25.4229 74.0395 25.6993 74.1603 25.9829 74.2542C25.8061 74.4805 25.6264 74.7007 25.4528 74.9295C25.0905 75.4019 24.0555 76.398 24.4887 77.07Z" fill="#5B5853"/>
<path d="M28.0153 79.7358C28.1299 80.2243 28.8649 80.2677 29.0777 79.8349C29.6086 78.758 29.8925 77.6124 30.1869 76.4529C30.3505 75.8053 29.4274 75.6301 29.2076 76.2184C29.0548 76.6248 28.8319 77.0073 28.6138 77.388C27.9677 77.8742 27.4082 78.4388 26.9063 79.0732C26.5286 79.5498 25.5787 80.4956 25.8536 81.1316C25.9004 81.2417 25.9899 81.325 26.119 81.3191C26.7613 81.2881 27.0368 80.408 27.3387 79.9322C27.5323 79.6261 27.7528 79.3397 27.9793 79.0621C27.9585 79.2781 27.9612 79.4999 28.0153 79.7358Z" fill="#5B5853"/>
<path d="M30.0163 83.6247C30.2144 83.8906 30.5414 83.8556 30.7246 83.5989C31.111 83.0566 30.9917 82.2704 31.1579 81.6311C31.3695 80.8183 31.8287 80.0924 32.2492 79.3744C32.4194 79.0855 32.2094 78.8357 31.9566 78.7907C32.0098 78.502 32.0472 78.2095 32.0428 77.9221C32.0335 77.1144 30.8208 77.1695 30.8025 77.9654C30.7904 78.5312 30.6074 79.0231 30.2527 79.464C29.8848 79.922 30.1366 80.3928 30.5208 80.5504C29.9171 81.6088 29.4359 82.8364 30.0163 83.6247Z" fill="#5B5853"/>
<path d="M35.3776 77.0159C35.3791 77 35.3844 76.9925 35.3843 76.9706C35.3689 76.1187 34.0123 76.1668 34.0658 77.0155C34.0888 77.3954 34.1591 77.7373 34.5102 77.9399C34.4211 78.007 34.357 78.1122 34.359 78.2581C34.3685 79.3241 34.2565 80.3658 34.0634 81.4145C33.9182 82.2051 33.5989 83.0041 33.7641 83.8016C33.8378 84.168 34.2975 84.1022 34.4626 83.8656C34.9607 83.1643 34.9392 82.0913 35.0279 81.2563C35.1332 80.2484 35.2099 79.2401 35.1788 78.2306C35.1764 78.1132 35.1314 78.032 35.072 77.97C35.1101 77.9553 35.1537 77.9561 35.1893 77.932L35.189 77.9354C35.6537 77.7932 35.6533 77.2985 35.3776 77.0159Z" fill="#5B5853"/>
<path d="M36.8822 84.238C37.3171 83.775 37.1699 83.1479 37.1183 82.553C37.0534 81.7869 37.0046 81.0201 36.9641 80.2507C36.9322 79.6657 36.0467 79.6961 36.0555 80.2823C36.0684 81.0525 36.0745 81.8209 36.0645 82.5912C36.056 83.1895 35.9534 83.8247 36.419 84.2564C36.551 84.3759 36.7595 84.3673 36.8822 84.238Z" fill="#5B5853"/>
<path d="M39.6159 84.5652C40.1596 84.7818 40.9797 84.3594 40.6985 83.6701C40.4836 83.15 40.0526 82.7882 39.7555 82.3108C39.4346 81.7943 39.2268 81.1889 39.125 80.5914C39.1116 80.5155 39.0859 80.4488 39.0538 80.3894C39.2981 80.3671 39.5345 80.2132 39.6311 79.9138C39.7601 79.5165 39.6761 79.0791 39.6503 78.6692C39.6176 78.1392 39.6358 77.6188 39.8368 77.1171C40.1186 76.4098 39.0866 75.8292 38.7784 76.5489C38.5535 77.0713 38.4468 77.5935 38.3865 78.1593C38.3269 78.7411 38.1413 79.3912 38.3689 79.9583C38.3994 80.0347 38.4578 80.0714 38.5041 80.1275C38.294 80.1634 38.1061 80.3266 38.0883 80.6302C38.0196 81.8402 38.2882 84.0399 39.6159 84.5652Z" fill="#5B5853"/>
<path d="M42.8778 82.3575C43.3691 82.2018 43.4694 81.6858 43.3078 81.2558C43.2131 80.9999 43.0418 80.7779 42.9388 80.5247C42.7643 80.0969 42.6671 79.6778 42.6222 79.2156C42.5338 78.2888 41.1519 78.3242 41.1674 79.2691C41.1825 80.1474 41.3556 82.836 42.8778 82.3575Z" fill="#5B5853"/>
<path d="M45.7851 76.9442C46.6154 77.4261 47.1082 78.3964 47.6207 79.1747C48.0041 79.7569 48.8331 79.2068 48.5218 78.6029C48.0209 77.6329 47.1769 76.686 46.1612 76.246C45.6975 76.044 45.3397 76.6831 45.7851 76.9442Z" fill="#5B5853"/>
<path d="M40.6631 71.0518C40.3712 70.747 40.3207 70.3542 40.1381 69.9876C40.0503 69.815 39.7386 69.8217 39.6658 70.0052C39.4073 70.6493 39.6138 71.1972 40.0702 71.6889C40.4532 72.0966 41.0523 71.4555 40.6631 71.0518Z" fill="#5B5853"/>
<path d="M38.4138 72.274C38.4626 71.6027 37.4413 71.6602 37.3797 72.3096C37.35 72.6178 36.9247 72.6364 36.7906 72.884C36.6938 73.0663 36.7142 73.2359 36.809 73.4069C36.9271 73.6214 37.1868 73.6775 37.404 73.6273C38.0292 73.4764 38.3702 72.8804 38.4138 72.274Z" fill="#5B5853"/>
<path d="M31.1378 74.4592C31.0123 74.2726 30.7277 74.2841 30.6202 74.4826C30.4468 74.8045 30.3477 75.1174 30.3265 75.4792C30.3033 75.8867 30.7924 76.2059 31.1603 76.0682C31.5255 75.9358 31.6769 75.6394 31.8344 75.3034C32.078 74.7898 31.5514 74.3476 31.1378 74.4592Z" fill="#5B5853"/>
<path d="M19.919 74.5401C19.9785 74.5654 20.0362 74.5858 20.0958 74.61L19.994 74.5359C20.0762 74.6115 20.1712 74.662 20.2813 74.6864C20.5516 74.7515 20.8228 74.6767 21.0847 74.6148C21.8294 74.4388 22.6032 74.2461 23.3629 74.1518C24.0158 74.0703 23.9937 73.1465 23.3265 73.1257C22.553 73.1015 21.8155 73.1084 21.0516 73.2458C20.6172 73.3232 20.2022 73.3899 19.9498 73.7098C19.8978 73.7484 19.8449 73.7858 19.8021 73.8367C19.6413 74.0393 19.6314 74.4274 19.919 74.5401Z" fill="#5B5853"/>
<path d="M27.6964 68.6088C28.4708 68.5171 29.2342 68.3486 29.9648 68.0806C30.6049 67.8463 30.3007 66.8482 29.6452 67.0638C28.9041 67.3102 28.1663 67.4272 27.3874 67.4702C26.7655 67.5043 26.2281 67.3755 25.7447 67.8177C25.576 67.9725 25.5875 68.3053 25.7679 68.4455C26.3295 68.8934 27.0229 68.6895 27.6964 68.6088Z" fill="#5B5853"/>
<path d="M30.3271 63.2227C30.2443 63.2606 30.0748 63.2809 30.005 63.3017C29.7178 63.2212 29.3866 63.2879 29.2553 63.6012C29.0881 64.0017 29.1893 64.3443 29.5593 64.5775C29.9954 64.8514 30.46 64.498 30.825 64.2956C31.4072 63.9708 30.9482 62.9475 30.3271 63.2227Z" fill="#5B5853"/>
<path d="M32.2872 72.4894C32.2868 73.0873 32.5207 73.5541 33.2116 73.4945C33.8283 73.4428 34.024 72.5216 33.4703 72.3132C33.2857 71.6814 32.286 71.7524 32.2872 72.4894Z" fill="#5B5853"/>
<path d="M37.7028 78.9644C37.5214 78.7988 37.3391 78.6297 37.1578 78.463C36.6083 77.9497 35.8208 78.7953 36.364 79.3149C36.5415 79.4858 36.7227 79.6537 36.9025 79.8237C37.4527 80.3428 38.258 79.4783 37.7028 78.9644Z" fill="#5B5853"/>
<path d="M32.6764 64.6524C32.8871 65.1444 33.5727 65.5091 34.1143 65.3318C34.6939 65.1421 34.8422 64.6159 34.8226 64.0585C34.8152 63.8259 34.6949 63.6812 34.5402 63.6077C34.5532 63.5917 34.5703 63.5808 34.5843 63.5661C35.0039 63.1199 34.3346 62.5147 33.8978 62.9259C33.6946 63.1175 33.4318 63.3905 33.1757 63.5104C32.9015 63.64 32.8615 63.9243 32.9392 64.1774C32.9332 64.1802 32.9288 64.1775 32.9218 64.1791C32.7446 64.2435 32.5918 64.4583 32.6764 64.6524Z" fill="#5B5853"/>
<path d="M30.258 59.9645C30.2598 59.9578 30.2415 59.9445 30.1419 59.9188C30.3642 59.9816 30.2667 59.9814 30.143 59.8593C30.0404 59.7575 29.8508 59.7599 29.7572 59.8736C29.6733 59.97 29.6283 60.0667 29.5662 60.1755C29.4305 60.416 29.5277 60.7525 29.7775 60.8753C29.9823 60.9777 30.181 60.9762 30.4053 60.9589C31.0474 60.9061 31.0119 59.9776 30.3694 59.9638C30.2997 59.9605 30.2755 59.9616 30.258 59.9645Z" fill="#5B5853"/>
<path d="M37.1654 53.9114C37.0864 53.6949 36.8937 53.6109 36.6772 53.6543C35.8938 53.8151 35.9517 55.4263 35.9271 56.0024C35.8962 56.7271 35.8319 57.7963 36.3452 58.3887C36.5816 58.6618 37.0509 58.271 36.8316 57.987C36.5183 57.5825 36.8075 56.3698 36.8699 55.9144C36.9451 55.3731 37.3623 54.44 37.1654 53.9114Z" fill="#5B5853"/>
<path d="M39.0817 57.2814C38.6246 57.795 38.7719 58.5519 38.7296 59.2043C38.6738 60.0792 38.592 60.9619 38.7028 61.8357C38.7819 62.4792 39.6303 62.4291 39.6887 61.8001C39.765 60.9742 39.9072 60.1546 40.0267 59.3329C40.1294 58.6267 40.35 57.8159 39.821 57.2552C39.6297 57.0496 39.2641 57.0798 39.0817 57.2814Z" fill="#5B5853"/>
<path d="M47.4706 63.7507C47.5464 63.6307 47.5492 63.4117 47.4545 63.2993L47.4367 63.293C47.3855 63.0505 47.0924 62.8534 46.8511 62.8795C46.0026 62.9663 45.7837 63.7601 45.852 64.5024C45.9025 65.0616 46.8277 65.2266 46.8923 64.6051C46.8998 64.4795 46.9186 64.3563 46.9499 64.2342C46.9976 63.9897 47.1517 64.0218 46.8921 64.0599C47.0189 64.0423 47.1167 64.0047 47.2015 63.9463C47.3079 63.9141 47.4014 63.8611 47.4706 63.7507Z" fill="#5B5853"/>
<path d="M44.4078 56.4711C44.5676 55.9815 43.9794 55.7136 43.6078 55.9015C42.7864 56.3134 42.1969 57.5695 41.7042 58.3093C41.39 58.7817 41.0898 59.2645 40.7832 59.7411C40.6898 59.8882 40.4089 60.4923 40.2852 60.5251C39.7394 60.6744 40.0049 61.4782 40.5447 61.3559C41.2628 61.1934 41.8871 60.0887 42.2827 59.5576C42.6926 59.0084 43.0705 58.4355 43.4774 57.8825C43.8062 57.4368 44.2338 57.0018 44.4078 56.4711Z" fill="#5B5853"/>
<path d="M45.9443 61.9633C46.4528 61.3685 47.2467 61.0871 47.7226 60.496C47.8791 60.3023 47.8072 60.0245 47.56 59.957C47.2584 59.8716 46.9545 59.9169 46.6605 60.0251C47.2331 59.0394 47.8854 58.0728 48.1292 57.0095C48.2009 56.695 47.8598 56.4716 47.5913 56.6258C46.1931 57.4251 45.5478 59.3059 44.97 60.7261C44.7535 61.2561 44.575 61.7978 44.4074 62.3452C44.1454 62.8834 43.9558 63.4562 43.8445 64.0377C43.8216 64.156 43.8465 64.2548 43.8913 64.3383C43.7603 64.934 43.6378 65.5373 43.5314 66.14C43.4364 66.6725 44.2101 66.8608 44.3483 66.3336C44.6905 65.0352 45.1082 63.7637 45.5707 62.5045C45.6948 62.3249 45.7982 62.1329 45.9443 61.9633Z" fill="#5B5853"/>
<path d="M50.6136 68.5063C50.6 68.3144 50.4528 68.1866 50.2651 68.1811C49.9684 68.1754 49.7475 68.3113 49.5319 68.4764C49.4514 68.4423 49.3702 68.4149 49.2833 68.4237C49.2323 68.4292 49.1836 68.4336 49.1326 68.439C48.973 68.4523 48.9456 68.4508 49.0524 68.4382C48.941 67.927 48.0809 68.0747 48.1457 68.5928C48.1747 68.8275 48.2892 69.0084 48.4308 69.1586C48.2345 69.2418 48.0323 69.3153 47.8028 69.339C47.1454 69.4075 47.1648 70.3953 47.8383 70.3731C48.4175 70.3544 48.929 70.1915 49.445 69.9349C49.968 69.6778 50.6562 69.1347 50.6136 68.5063Z" fill="#5B5853"/>
<path d="M35.7152 65.9856C36.1038 66.2998 36.669 66.2109 37.1497 66.2848C37.5773 66.3491 38.0045 66.4064 38.4327 66.4408C38.4539 66.6965 38.5826 66.9213 38.9292 67.0041C39.5855 67.1604 40.253 66.9046 40.8172 66.5769C41.4653 66.1999 40.962 65.0644 40.2587 65.3707C40.0145 65.4756 39.7742 65.5867 39.535 65.6991C39.4653 65.7314 39.3972 65.7592 39.3277 65.7892C39.257 65.6412 39.119 65.5257 38.9089 65.5261C38.326 65.5249 37.7539 65.3997 37.1812 65.3043C36.7472 65.2348 36.1431 65.0365 35.7753 65.3395C35.5869 65.4958 35.4882 65.8042 35.7152 65.9856Z" fill="#5B5853"/>
<path d="M41.9619 72.1495C41.967 72.9052 43.217 72.7011 42.9738 71.9752C42.8721 71.6727 42.533 71.4529 42.4809 71.1724C42.3839 70.6546 41.489 70.8058 41.5637 71.3283C41.5872 71.489 41.6033 71.6788 41.7065 71.8104C41.7677 71.8897 41.9606 72.0438 41.9619 72.1495Z" fill="#5B5853"/>
<path d="M42.5437 74.6089C43.0547 74.0832 42.2586 73.3888 41.7288 73.8484C41.7232 73.8938 41.7168 73.9368 41.71 73.9832C41.3457 73.5486 40.5987 74.0573 40.7921 74.5626C41.1313 75.4481 42.0226 75.1439 42.5437 74.6089Z" fill="#5B5853"/>
<path d="M35.6776 77.0243C35.5037 77.4115 35.7501 77.7831 36.1677 77.8096C37.2174 77.8731 37.7177 76.4833 37.6984 75.6378C37.6829 74.9661 36.6778 75.0102 36.6631 75.6733C36.6473 76.4201 35.9444 76.4245 35.6776 77.0243Z" fill="#5B5853"/>
<path d="M44.1717 72.4877C44.1707 72.5221 44.1685 72.5574 44.1674 72.5918C43.9494 72.9128 44.1518 73.4316 44.61 73.4173C45.0684 73.4007 45.2333 72.8691 44.9942 72.5637C44.9884 72.5287 44.9849 72.494 44.9814 72.4592C44.9261 71.9374 44.1914 71.9628 44.1717 72.4877Z" fill="#5B5853"/>
<path d="M49.7319 75.8091C49.7477 75.6809 49.747 75.581 49.7204 75.4522C49.6572 75.1683 49.3351 74.9731 49.0575 74.9842C48.6861 75.0023 48.3153 75.0514 47.9512 75.1253C47.8611 75.143 47.7724 75.1585 47.6804 75.1726C47.578 74.7828 46.9295 74.6169 46.7285 75.0577C45.9973 76.6514 48.2113 76.4255 49.1038 76.3235C49.3765 76.2924 49.6929 76.1175 49.7319 75.8091Z" fill="#5B5853"/>
<path d="M46.815 71.5599C46.73 70.7999 45.5917 70.8209 45.6136 71.6046C45.6309 72.1744 45.7908 72.7293 46.2584 73.0923C46.7306 73.4558 47.5284 73.5742 47.8735 72.9831C47.9492 72.8527 47.9329 72.6893 47.8589 72.5639C47.5494 72.0371 46.8922 72.2583 46.815 71.5599Z" fill="#5B5853"/>
<path d="M51.5779 62.5611C51.1076 61.0018 49.6121 61.2041 48.6654 62.2007C47.753 63.1628 47.3021 64.3978 46.9342 65.6283C46.8219 66.0077 47.3596 66.1675 47.551 65.8611C47.9539 65.2194 48.4314 64.422 48.8815 63.7309C49.1575 63.3087 49.4909 62.899 49.9189 62.627C50.3491 62.3552 50.8234 62.649 51.194 62.8764C51.4007 63.0065 51.6421 62.7762 51.5779 62.5611Z" fill="#5B5853"/>
<path d="M44.2433 110.964C40.652 108.314 37.0911 105.658 33.807 102.631C31.4558 100.462 30.5253 97.9389 35.2743 101.591C37.2083 103.076 38.7303 105.014 40.6274 106.548C40.8041 106.691 41.0924 106.487 40.9469 106.282C38.0955 102.232 34.1747 98.8341 29.3017 97.6669C28.9941 97.5948 28.6733 97.9701 28.8862 98.2489C37.7754 109.768 52.2992 114.948 60.1238 127.496C60.2533 127.7 60.5461 127.508 60.4392 127.296C56.8243 120.289 50.4552 115.549 44.2433 110.964Z" fill="#5B5853"/>
<path d="M83.8534 55.8181C85.3333 58.2381 86.0084 61.16 87.6484 63.4554C87.7677 63.623 88.1126 63.5691 88.0719 63.3253C87.6082 60.5432 86.0045 57.7531 84.4059 55.4686C84.166 55.1241 83.6325 55.4548 83.8534 55.8181Z" fill="#5B5853"/>
<path d="M91.2539 143.612C91.2746 143.279 90.9466 143.074 90.658 143.056C85.8242 142.802 78.3219 144.854 74.965 149.215C75.4663 143.749 76.0844 138.285 76.8018 132.828C83.9467 132.897 90.3827 127.886 92.0105 120.904C92.1149 120.452 91.6893 120.093 91.2586 120.203C86.4112 121.47 80.5699 122.996 77.7119 127.171C77.6849 127.069 77.6671 126.969 77.639 126.868C78.3708 121.737 79.1504 116.609 80.0354 111.497C80.2281 111.545 80.4574 111.477 80.5166 111.244C80.5262 111.204 80.5311 111.165 80.5407 111.125C80.7654 111.068 80.8109 110.764 80.6447 110.606C80.6839 110.426 80.6932 110.235 80.7268 110.053C87.8135 109.393 92.7483 98.9248 92.8111 92.8766C92.8161 92.5041 92.3687 92.2991 92.0694 92.4871C87.7486 95.1814 84.2785 98.5513 81.6783 102.753C82.5013 98.4497 83.3622 94.1565 84.3274 89.8895C84.6861 88.3012 85.0685 86.7187 85.4396 85.1339C92.2707 84.5057 97.1513 76.3574 98.3154 70.3031C98.412 69.8016 97.9179 69.5107 97.4928 69.7175C93.0181 71.8897 89.6458 74.4839 87.0452 78.2625C87.9061 74.6362 88.7659 71.0086 89.5819 67.371C89.6899 67.3585 89.7948 67.3181 89.8668 67.2023C90.7455 65.7801 91.1303 64.1359 91.1433 62.3971C96.0059 61.9369 100.841 57.1724 102.416 52.9597C102.585 52.5077 102.061 52.2138 101.694 52.2862C98.0536 52.9953 93.9818 54.1688 91.7087 57.0517C92.3109 53.8927 92.8738 50.7254 93.3209 47.5331C93.3077 47.836 93.2845 48.1356 93.291 48.4369C93.2969 48.768 93.7607 48.791 93.8492 48.492C94.0789 47.7176 94.2856 46.9204 94.487 46.1181C99.557 41.2752 100.627 32.9059 99.9303 26.3047C99.8925 25.9349 99.5653 25.6749 99.1922 25.7823C92.163 27.8204 90.0454 40.3041 92.6391 46.5583C92.5323 46.6903 92.4288 46.8226 92.3194 46.9578C92.1047 47.2194 92.3274 47.5876 92.6179 47.5628C91.9844 51.1044 91.2882 54.6307 90.5449 58.1456C89.0162 52.7827 84.8834 47.4909 80.8851 45.6565C80.5598 45.5069 80.1974 45.7175 80.1976 46.0836C80.1855 52.6291 81.7464 63.1381 88.8767 65.7351C87.6965 70.9455 86.4602 76.1436 85.2249 81.3418C85.1626 81.4643 85.0945 81.5748 85.0334 81.6963C84.9673 81.8345 84.9908 81.9596 85.0534 82.0598C84.8875 82.7565 84.7239 83.4523 84.5577 84.1513C84.526 84.1585 84.4941 84.1681 84.4624 84.1754C84.2515 80.3445 83.0505 76.1886 81.9484 72.8628C80.8327 69.499 78.79 65.3593 74.7713 65.2456C74.5937 65.2434 74.3999 65.3957 74.3724 65.5733C73.3332 72.1412 76.4317 84.2471 83.4885 86.8095C83.5257 86.9944 83.5578 87.1846 83.5975 87.3686C83.6184 87.4613 83.6759 87.5311 83.7472 87.577C83.5858 88.2627 83.4196 88.9491 83.2592 89.636C82.2656 93.9003 81.367 98.191 80.5316 102.494C79.1467 95.9624 74.9422 89.5825 69.253 87.2991C68.9027 87.1585 68.6022 87.2993 68.472 87.6494C65.7349 95.0532 70.6207 108.738 78.9848 110.895C78.1966 115.421 77.4852 119.961 76.8053 124.506C74.807 119.883 70.8458 115.69 66.4599 114.28C66.2178 112.674 65.9911 111.064 65.7655 109.453C65.8716 109.436 65.9676 109.381 65.9975 109.238C66.366 107.395 66.7279 105.62 67.3859 103.88C68.229 106.132 66.9286 108.521 66.1379 110.648C66.0664 110.842 66.3351 111.02 66.4923 110.901C68.7597 109.206 69.1865 104.929 67.6918 102.625C67.5328 102.382 67.1016 102.355 66.9743 102.651C66.316 104.18 65.7996 105.795 65.5393 107.446C65.5211 107.456 65.5035 107.46 65.4896 107.473C64.7273 101.935 64.0134 96.3951 63.2048 90.8619C63.4656 86.5911 63.7952 82.3327 64.7582 78.0999C66.7038 69.5501 69.5272 61.1343 71.6906 52.6227C75.5096 37.5912 79.5731 21.8453 77.2973 6.24711C77.2379 5.85116 76.6874 5.63275 76.4779 6.05554C69.3436 20.464 64.5502 35.7102 62.5356 51.6792C61.5924 59.154 60.0709 67.5669 60.5128 75.5197C59.2654 69.9188 57.7451 64.3628 56.3206 58.7885C56.3567 58.7598 56.3998 58.741 56.4225 58.6962C57.6439 56.0664 57.9185 52.2951 56.741 49.6311C56.6245 49.364 56.2253 49.2543 56.0725 49.5655C55.4502 50.8517 55.1865 52.347 55.094 53.8278C53.9754 49.1392 53.0027 44.4257 52.4091 39.6604C52.3739 39.3712 51.9489 39.3749 51.9508 39.677C51.9643 42.2113 52.2217 44.752 52.6282 47.2945C52.1022 45.848 50.6341 44.7548 49.1444 44.5169C48.7113 44.4498 48.405 44.8644 48.6163 45.2555C49.2862 46.484 50.0164 47.7298 50.9979 48.7381C51.3246 49.075 51.8093 49.4167 52.2972 49.2607C52.5151 49.1911 52.6395 49.0079 52.7219 48.7967C52.7814 48.7508 52.8297 48.69 52.8338 48.6124C52.8354 48.5838 52.8286 48.5591 52.8291 48.5304C54.4439 57.5422 57.8811 66.544 59.6653 75.299C60.5608 79.6952 61.3025 84.1144 61.9778 88.5444C61.6664 93.1374 61.7251 97.7833 61.5221 102.324C61.5044 102.744 62.2066 102.818 62.2644 102.398C62.5948 99.986 62.7852 97.5735 62.94 95.1621C63.8173 101.458 64.6329 107.763 65.5674 114.049C65.4034 114.013 65.2388 113.958 65.0741 113.928C64.8296 113.882 64.5189 113.973 64.412 114.225C63.0433 117.452 65.2801 121.127 67.1442 123.788C68.2781 130.101 69.6451 136.354 71.1625 142.57C71.1386 142.52 71.1138 142.469 71.091 142.419C65.9773 131.393 62.1844 119.834 57.1928 108.767C56.7483 107.784 56.3379 106.792 55.9255 105.797C56.0617 105.765 56.1917 105.691 56.2469 105.535C57.2529 102.711 57.0335 99.0875 56.3562 96.2125C56.2232 95.6522 55.485 95.7967 55.3324 96.248C54.8735 97.6131 54.7612 99.038 54.7882 100.471C54.7891 100.473 54.7857 100.473 54.7865 100.476C54.7868 100.484 54.7885 100.491 54.7888 100.499C54.8097 101.495 54.8934 102.495 54.9869 103.476C51.5289 94.6905 48.8479 85.6298 44.165 77.3456C43.9808 77.019 43.5078 77.3292 43.6773 77.6543C46.5817 83.2234 48.7964 89.076 50.9452 94.959C49.8258 93.4404 48.0251 92.4172 46.2105 93.0833C45.8679 93.2086 45.7814 93.5457 45.9269 93.8571C46.4923 95.0502 48.6734 98.5766 50.3967 97.4299C50.6495 97.2604 50.4624 96.797 50.164 96.9277C49.6653 97.1481 48.8615 96.165 48.5622 95.8411C48.0279 95.265 47.5268 94.6301 47.1354 93.9416C49.2358 93.7266 50.6304 96.3644 51.6295 97.8921C51.7238 98.0332 51.9335 98.0247 52.0263 97.9075C53.387 101.645 54.7645 105.376 56.316 109.04C58.2668 113.644 59.8613 118.492 61.4812 123.337C57.511 117.086 52.7028 111.276 47.9246 105.976C38.6315 95.6685 27.3493 86.7759 14.6719 81.0414C14.383 80.9079 13.9017 81.0898 13.9664 81.4783C15.8663 92.7442 26.7962 101.077 35.3617 107.473C40.7916 111.526 46.6011 114.87 51.4553 119.668C56.6953 124.846 60.8885 130.832 66.1238 135.986C66.8734 137.755 67.6586 139.502 68.5379 141.188C69.8884 143.784 71.3063 146.347 72.7593 148.892C72.999 149.809 73.2573 150.724 73.5041 151.638C69.9338 146.476 62.1647 144.029 56.3094 144.891C55.8727 144.957 55.6127 145.368 55.842 145.775C58.922 151.272 66.6694 156.917 73.3074 155.555C73.0275 159.939 72.8638 164.322 72.7587 168.704C71.4095 166.487 69.0187 164.621 67.2 163.32C63.3561 160.576 57.7381 158.078 52.9219 159.163C52.5794 159.239 52.4794 159.669 52.6368 159.94C56.4127 166.445 63.0616 174.433 71.389 173.487C71.4572 173.53 71.5166 173.58 71.5848 173.622C71.7717 173.731 71.9303 173.587 71.9504 173.414C72.1055 173.389 72.2574 173.384 72.4131 173.353C72.4551 173.346 72.4674 173.314 72.4966 173.296C72.411 173.493 72.3376 173.695 72.2928 173.897C72.2248 174.186 72.4365 174.347 72.6556 174.348C72.6352 177.211 72.6419 180.077 72.6835 182.94C70.0907 178.863 64.8318 176.176 60.2483 176.634C59.8738 176.674 59.5526 177.029 59.6928 177.419C61.5705 182.637 66.9596 184.642 72.0592 185.447C71.9965 185.621 72.0342 185.825 72.2476 185.945C72.4098 186.037 72.5742 186.105 72.7386 186.173C73.0202 198.64 73.8729 211.123 75.1149 223.639C75.1456 223.952 75.5969 223.937 75.6033 223.621C75.835 211.581 74.4499 199.571 73.8716 187.539C74.0827 187.48 74.2649 187.305 74.2338 187.068C74.2065 186.863 74.1601 186.666 74.1187 186.466C77.0783 186.564 80.1796 183.579 81.2193 181.155C81.3704 180.803 81.2153 180.484 80.8615 180.355C77.7246 179.228 74.8875 182.009 73.9433 184.787C73.9223 184.85 73.9239 184.904 73.9362 184.955C73.877 184.962 73.819 184.969 73.7597 184.977C73.6999 183.42 73.6515 181.865 73.632 180.308C73.6045 178.179 73.6218 176.05 73.6492 173.924C73.7351 174.009 73.8358 174.083 73.9672 174.125C75.5678 174.629 77.7021 174.135 79.6012 173.271C83.4678 187.502 86.017 201.755 87.3773 216.53C87.4067 216.843 87.8649 216.829 87.8656 216.512C87.9308 201.654 84.7676 187.092 80.8316 172.641C81.7235 172.129 82.5196 171.562 83.0902 171.002C83.3845 170.711 83.3216 170.245 83.0533 169.969C82.2341 169.122 81.0595 168.806 79.7843 168.854C78.5655 164.514 77.2987 160.184 76.0441 155.858C76.2956 155.844 76.5468 155.834 76.803 155.808C85.6052 170.654 94.7864 185.294 98.6288 202.415C98.674 202.614 99.011 202.558 98.9825 202.354C96.5213 185.383 86.6369 170.548 78.0687 155.608C84.1026 154.381 90.9051 149.33 91.2539 143.612ZM90.5872 121.594C89.1671 126.293 86.0676 128.773 82.1533 130.217C83.0893 129.604 83.9638 128.904 84.742 128.131C85.0137 127.861 84.6171 127.368 84.3093 127.608C82.4251 129.078 80.2513 129.981 78.1575 131.055C78.1916 130.191 78.1269 129.303 77.9739 128.403C80.5933 124.275 85.853 122.805 90.5872 121.594ZM96.2128 29.063C97.2666 27.6463 98.8136 26.0304 98.981 28.5291C99.1289 30.7413 98.9114 32.9584 98.5475 35.1349C98.0248 38.2545 96.7684 40.8189 95.1322 43.2399C95.5799 40.9796 95.9022 38.6877 96.0156 36.4548C96.0391 35.9854 95.3272 36.0245 95.2935 36.4804C95.0653 39.4976 94.004 42.4549 93.5236 45.4454C93.5025 45.4732 93.484 45.499 93.463 45.5257C93.3891 45.4589 93.2999 45.4319 93.2058 45.4435C92.4016 39.9003 92.813 33.6298 96.2128 29.063ZM91.321 59.0698C93.0255 55.6925 97.2172 54.3354 100.838 53.5993C99.8239 55.534 98.4416 57.1439 96.6751 58.5125C96.2185 58.8667 95.749 59.1645 95.2714 59.4271C96.0916 58.564 96.7147 57.4719 97.0008 56.5297C97.1287 56.1082 96.4842 55.9713 96.3455 56.3745C96.0056 57.3506 95.3964 58.1331 94.6388 58.8232C93.9053 59.4903 92.9846 59.8491 92.2354 60.4769C92.1483 60.5465 92.1454 60.6483 92.1777 60.741C91.8147 60.8632 91.4504 60.9875 91.0838 61.1105C91.0674 60.9357 91.0547 60.7588 91.0326 60.5834C91.134 60.0802 91.222 59.5722 91.321 59.0698ZM82.8455 56.4852C82.1639 54.5578 81.7574 52.5387 81.4454 50.5276C81.387 50.1581 81.2471 46.8633 81.1953 46.8411C86.5002 49.3847 89.1227 55.7817 89.484 61.6918C89.2086 61.858 89.2564 62.1955 89.5074 62.3414C89.5117 62.5105 89.524 62.6804 89.525 62.8481C89.368 63.5594 89.2074 64.2716 89.0458 64.9825C85.7751 63.1012 84.083 59.9779 82.8455 56.4852ZM86.4829 80.6633C88.9891 76.3522 92.3863 73.2863 96.9444 71.1658C95.7907 75.0554 93.8052 78.3953 90.954 80.8103C92.0212 79.66 92.7569 78.2447 93.0249 76.6936C93.0998 76.2624 92.4531 76.1013 92.3595 76.5364C92.025 78.0868 91.2019 79.2653 90.09 80.3688C89.0717 81.3815 87.6527 82.0513 86.7562 83.1699C86.7014 83.2381 86.6845 83.319 86.6887 83.3941C86.3754 83.5245 86.0809 83.674 85.7555 83.7872C85.9983 82.7466 86.2367 81.7034 86.4829 80.6633ZM82.9239 85.5005C82.944 85.4474 82.9607 85.3927 82.9486 85.3284C82.4733 82.6187 80.9418 79.8299 79.8826 77.2956C79.728 76.9237 79.1462 77.0891 79.2778 77.4851C80.0286 79.7658 80.6666 82.4901 81.8758 84.659C79.4874 82.483 78.0265 79.3545 76.886 76.367C76.0628 74.2067 75.5512 71.9215 75.2244 69.6358C74.8957 67.3339 75.6167 65.3938 77.9456 67.556C82.635 71.9088 82.3365 79.7442 83.3063 85.7842C83.1712 85.6977 83.0539 85.5923 82.9239 85.5005ZM81.0078 106.227C81.0639 105.919 81.1279 105.613 81.1854 105.303C83.6983 100.554 87.2421 96.814 91.7354 93.8666C91.2798 97.4322 89.7779 100.78 87.6803 103.688C86.4318 105.421 84.9874 106.639 83.3422 107.547C84.7638 105.793 85.8253 103.465 86.6991 101.724C86.9121 101.302 86.275 100.958 86.0555 101.378C85.3651 102.692 84.6468 103.985 83.8305 105.225C83.0559 106.4 82.001 107.388 81.1907 108.529C81.1051 108.56 81.0238 108.594 80.9369 108.626C81.0093 107.84 81.0395 107.041 81.0078 106.227ZM78.7626 109.285C78.7611 109.277 78.7664 109.269 78.765 109.26C77.9455 106.193 76.097 102.919 74.3998 100.253C74.1816 99.9098 73.6831 100.235 73.8717 100.587C75.3851 103.421 76.2161 107.082 78.3399 109.526C78.3873 109.583 78.4426 109.604 78.4987 109.605C78.4892 109.704 78.5053 109.798 78.5634 109.874C71.5995 106.884 67.8683 96.268 69.0486 89.4038C69.4107 87.3062 72.4485 90.3874 73.234 91.0956C75.2043 92.8708 76.5382 95.3651 77.6131 97.7482C78.9652 100.744 79.4895 103.848 79.6734 107.02C79.5444 107.726 79.4212 108.431 79.2966 109.139C79.1187 109.187 78.9461 109.239 78.7626 109.285ZM52.133 48.524C52.1654 48.4617 52.1205 48.4873 51.9937 48.4096C51.6024 48.171 51.2928 47.6694 51.0327 47.308C50.7 46.8432 50.3933 46.3579 50.0965 45.8656C51.062 46.3983 51.6222 47.3362 52.1895 48.3665C52.172 48.4176 52.1597 48.4738 52.133 48.524ZM55.6422 56.0786C55.6476 56.0585 55.6659 56.0476 55.6671 56.0236C55.6722 54.3301 55.7711 52.4493 56.3452 50.8061C56.8689 52.9432 56.2262 54.9161 55.8721 57.0144C55.7932 56.7026 55.7199 56.3914 55.6422 56.0786ZM62.4835 83.7819C62.729 73.6425 64.6097 63.9455 66.9833 54.0069C69.3358 44.1547 72.9987 35.02 73.0109 24.7525C73.0115 24.2475 72.2948 24.098 72.0658 24.5327C69.8732 28.6858 69.9066 33.1549 69.3226 37.7296C69.2713 38.1298 69.8252 38.2774 69.9397 37.8764C70.6625 35.3821 70.9582 32.8903 71.2924 30.3195C71.4468 29.1132 71.7392 27.9386 72.1681 26.8013C72.1654 28.8497 71.9896 30.8849 71.6414 32.9103C70.7464 39.3396 68.4379 45.5853 66.6789 51.8095C64.4069 59.8527 62.5361 68.2938 61.9392 76.7466C61.9091 76.3454 61.8762 75.9486 61.8508 75.5467C61.2879 66.85 62.7252 58.2866 63.8169 49.7014C64.735 42.4859 66.4539 35.3924 68.5564 28.4393C69.7901 24.3635 71.3037 20.3709 72.8924 16.4223C73.7017 14.4116 74.5704 12.4272 75.4403 10.443C76.506 8.01169 76.598 7.34342 76.8531 10.2649C78.208 25.773 73.38 41.4956 69.5982 56.3563C67.5769 64.2997 64.9665 72.1025 63.1396 80.0887C62.8603 81.3059 62.6571 82.5419 62.4835 83.7819ZM65.2923 117.363C64.9443 115.986 65.2162 115.488 65.7687 115.436C66.0472 117.271 66.3523 119.104 66.6621 120.936C66.0644 119.755 65.5931 118.551 65.2923 117.363ZM43.5332 111.72C33.7368 105.366 23.3883 97.8341 17.2622 87.6763C16.0027 85.5886 13.3457 81.4046 17.5229 83.4434C20.3737 84.8353 23.0824 86.5109 25.7476 88.2212C31.9695 92.2146 37.5915 97.1084 42.8669 102.264C51.8946 111.088 58.532 121.038 64.4595 131.826C64.7763 132.669 65.1018 133.506 65.4369 134.339C58.3344 126.52 52.5992 117.604 43.5332 111.72ZM61.1569 177.803C65.9844 177.683 69.3709 180.648 71.7644 184.447C67.5825 183.171 63.0966 182.024 61.1569 177.803ZM72.6624 172.97C72.6458 172.999 72.6292 173.029 72.6162 173.056C72.5976 172.904 72.4882 172.753 72.3091 172.755C72.0634 172.755 71.8343 172.727 71.5941 172.718C70.2028 170.533 67.3779 168.991 65.1292 167.996C64.7061 167.813 64.3658 168.425 64.785 168.637C66.0851 169.293 67.2507 170.095 68.3929 170.996C69.0413 171.508 69.6321 172.093 70.257 172.634C65.9431 172.143 62.5112 170.077 59.2492 166.939C57.6949 165.444 56.3798 163.719 55.1399 161.963C53.4769 159.608 54.5493 159.746 57.0308 160.137C63.1801 161.103 71.2455 165.844 72.6648 172.339C72.663 172.548 72.6644 172.759 72.6624 172.97ZM79.9117 181.23C79.2711 182.325 78.3926 183.199 77.3135 183.914C76.4565 184.481 75.6042 184.714 74.7216 184.856C75.6145 182.931 77.6564 180.791 79.9117 181.23ZM81.384 170.426C81.0573 170.636 80.7251 170.831 80.3853 171.01C80.3009 170.707 80.2165 170.405 80.131 170.102C80.6071 170.116 81.0307 170.222 81.384 170.426ZM66.6626 115.604C67.2226 115.808 67.8568 116.157 68.4271 116.48C70.3617 117.566 71.8935 119.39 73.1762 121.154C74.7029 123.256 75.5837 125.544 76.3137 127.922C76.2885 128.088 76.2656 128.253 76.2428 128.419C75.255 126.881 74.0155 125.43 73.0915 124.052C72.831 123.659 72.2557 124.031 72.4816 124.437C73.2155 125.763 73.9964 127.054 74.7788 128.354C75.1787 129.015 75.5533 129.711 75.9601 130.384C75.9529 130.435 75.9457 130.486 75.9383 130.538C72.8433 128.965 69.9431 126.193 67.8904 123.06C67.4459 120.58 67.0454 118.094 66.6626 115.604ZM68.7266 127.476C68.5902 126.797 68.4687 126.118 68.3394 125.436C70.197 127.879 72.8754 130.795 75.8029 131.477C75.7906 131.569 75.7769 131.663 75.7636 131.754C75.5911 131.781 75.4196 131.81 75.2449 131.836C74.7827 131.903 74.6047 132.666 75.1563 132.73C75.3105 132.75 75.4642 132.751 75.6178 132.765C75.5325 133.351 75.445 133.936 75.3653 134.524C74.7509 139.021 74.2606 143.517 73.8616 148.007C73.817 147.922 73.7681 147.834 73.7224 147.749C71.8323 140.994 70.082 134.242 68.7266 127.476ZM57.3017 145.943C63.212 145.413 70.006 148.249 73.0205 153.438C72.2845 152.965 71.4143 152.683 70.6028 152.374C69.2943 151.876 67.9557 151.475 66.634 151.018C66.2518 150.887 66.0114 151.523 66.3817 151.682C67.5219 152.163 68.6617 152.65 69.8048 153.126C70.9575 153.61 72.1297 154.32 73.3716 154.532C73.3673 154.636 73.3605 154.743 73.354 154.845C67.0127 154.383 60.7959 151.395 57.3017 145.943ZM79.1228 171.593C78.1696 171.98 77.1717 172.246 76.1545 172.416C76.4152 172.248 76.6415 172.032 76.817 171.747C76.9216 171.579 76.7036 171.401 76.5473 171.497C76.2043 171.71 75.8673 171.919 75.4797 172.047C75.2817 172.112 74.9496 172.212 74.6899 172.227C75.8253 171.356 77.3364 170.576 78.7437 170.253C78.8727 170.7 78.9982 171.147 79.1228 171.593ZM78.0521 167.799C78.1741 168.212 78.2821 168.627 78.4017 169.04C76.6763 169.424 74.9396 170.365 73.7443 171.548C73.7277 171.387 73.7263 171.223 73.697 171.062C73.8145 165.982 74.0555 160.906 74.4227 155.842C74.4979 155.849 74.5779 155.852 74.6531 155.858C75.7533 159.845 76.878 163.828 78.0521 167.799ZM76.7814 153.333C77.7058 152.9 78.583 152.29 79.3375 151.751C80.7625 150.733 81.9216 149.426 82.7043 147.858C82.9232 147.422 82.2899 147.086 82.0432 147.502C81.141 149.012 79.8494 150.157 78.4038 151.139C77.7269 151.599 76.9612 151.947 76.2191 152.321C75.8572 151.671 75.4861 151.021 75.1326 150.367C78.1111 146.134 85.6019 144.177 90.1185 144.174C90.4214 144.176 88.0934 148.102 87.9093 148.321C86.6834 149.785 85.061 150.885 83.4509 151.882C81.5797 153.04 79.5198 153.857 77.3939 154.431C77.1847 154.065 76.9884 153.697 76.7814 153.333Z" fill="#5B5853"/>
<path d="M79.905 134.9C79.0096 137.66 77.0853 140.008 76.389 142.835C76.3361 143.05 76.6329 143.15 76.7421 142.97C78.2491 140.485 79.3584 137.744 80.191 134.969C80.2453 134.787 79.9621 134.724 79.905 134.9Z" fill="#5B5853"/>
<path d="M125.73 61.3256C123.801 62.4558 122.113 64.3346 120.672 66.0112C120.593 66.1035 118.84 68.4719 119.986 68.0694C120.134 68.0172 120.169 67.8506 120.122 67.7245C120.145 67.7175 120.187 67.6745 120.293 67.5539C120.478 67.3411 120.685 67.1418 120.874 66.9305C121.405 66.3287 121.97 65.7486 122.532 65.175C123.303 64.3841 124.114 63.5488 125.001 62.8436C124.708 63.4202 124.357 63.9568 123.98 64.4759C123.799 64.6719 123.616 64.8631 123.433 65.0566C123.43 65.0598 123.426 65.0582 123.424 65.0604C123.408 65.0771 123.396 65.0955 123.379 65.1123C121.972 66.5924 120.487 67.9938 118.993 69.3956C118.716 69.6558 118.854 69.9767 119.111 70.1163C117.928 71.5423 116.772 72.9997 115.623 74.4646C115.776 73.6668 115.847 72.8335 115.859 71.9831C115.978 70.4485 115.931 68.9037 115.753 67.3555C115.744 67.2731 115.695 67.219 115.635 67.1823C115.626 67.0333 115.614 66.8795 115.606 66.7342C115.58 66.229 114.92 66.2123 114.768 66.651C113.831 69.3747 114.274 72.405 114.403 75.2226C114.411 75.392 114.504 75.4939 114.616 75.5633C114.619 75.621 114.62 75.6785 114.625 75.7352C112.897 77.9751 111.224 80.256 109.591 82.5649C109.576 82.5565 109.564 82.5438 109.549 82.532C109.55 81.0229 109.367 79.5051 109.09 78.0161C109.136 76.4895 108.874 74.9584 108.301 73.4524C108.154 73.0698 107.64 73.0914 107.521 73.4793C106.867 75.6049 106.463 78.6108 107.379 80.8592C107.403 81.1462 107.417 81.4299 107.463 81.7236C107.508 82.0057 107.854 82.2169 108.092 82.0953C108.297 82.3526 108.518 82.5955 108.782 82.8103C108.812 83.0543 108.855 83.2972 108.891 83.5417C108.298 84.3923 107.725 85.2517 107.148 86.1095C106.879 86.2386 106.621 86.3835 106.383 86.5729C106.216 86.7071 106.272 86.9948 106.512 86.9871C106.526 86.9872 106.54 86.984 106.554 86.9842C105.511 88.55 104.487 90.1245 103.5 91.7095C101.5 94.9264 99.52 98.152 97.5429 101.381C97.5653 100.923 97.5612 100.466 97.5602 100.013C97.652 99.9538 97.7215 99.8641 97.7436 99.7181C98.2297 96.5973 98.0846 93.4879 97.3494 90.4156C97.2535 90.0173 96.5747 90.0229 96.5236 90.4449C96.4285 91.2047 96.3734 91.9649 96.3352 92.7291C96.2896 92.7855 96.2535 92.8509 96.2424 92.9416C96.238 92.9871 96.233 93.0268 96.2286 93.0723L96.2298 93.0724C96.0384 94.8765 95.9363 96.5997 96.331 98.3124C96.3579 99.3778 96.3856 100.446 96.3882 101.512C96.3885 101.925 96.9782 101.88 97.0124 101.491C97.0281 101.328 97.0322 101.167 97.0434 101.003C97.0656 101.165 97.0858 101.325 97.1102 101.488C97.1315 101.635 97.2534 101.693 97.3605 101.677C96.9793 102.297 96.598 102.918 96.2166 103.54C96.0442 103.625 95.9572 103.79 95.9498 103.973C95.4159 104.843 94.8832 105.712 94.3471 106.582C93.1057 108.598 91.9621 110.98 90.7195 113.282C90.5335 113.331 90.3481 113.385 90.1715 113.454C90.1695 113.428 90.171 113.4 90.1677 113.375C90.1621 111.614 89.8536 109.876 89.1883 108.231C89.0557 107.905 88.4744 107.827 88.4189 108.259C88.3201 109.021 88.2998 109.779 88.32 110.532C88.3097 111.114 88.3471 111.69 88.4452 112.255C88.5104 112.757 88.5895 113.257 88.6927 113.757C88.7197 113.894 88.8092 113.941 88.9064 113.956C88.9562 114.094 89.0104 114.235 89.0601 114.374C89.0514 114.393 89.0389 114.403 89.0313 114.423C88.9194 114.666 89.0751 114.944 89.3532 114.94C89.3612 114.94 89.3708 114.937 89.3799 114.938C89.498 115.021 89.6307 115.062 89.7614 115.027C88.7885 116.688 87.7252 118.238 86.4829 119.48C86.2007 119.763 86.6369 120.143 86.9274 119.892C88.4774 118.543 89.5519 116.639 90.512 114.719C91.1505 114.524 91.7985 114.256 92.4143 114.131C93.6564 113.878 94.7225 113.618 95.7782 112.895C96.148 112.644 96.0008 111.968 95.5061 112.017C94.4461 112.118 93.2272 112.369 92.2939 112.976C92.0886 113.01 91.8822 113.044 91.6788 113.082C91.5516 113.104 91.4159 113.13 91.279 113.158C91.5266 112.65 91.7735 112.149 92.0249 111.673C93.305 109.244 94.7463 106.868 96.2297 104.51C96.3053 104.547 96.3912 104.572 96.4936 104.558C98.2108 104.319 99.5576 105.05 101.208 105.161C101.522 105.182 101.709 104.699 101.452 104.51C101.176 104.308 100.886 104.144 100.589 104.001C101.878 103.886 103.159 103.733 104.395 103.253C104.841 103.08 104.818 102.481 104.363 102.338C102.811 101.854 100.99 101.705 99.3799 101.897C98.6366 101.988 97.733 102.407 98.3772 103.165C97.8964 103.212 97.418 103.281 96.9434 103.37C98.5677 100.824 100.235 98.299 101.819 95.7777C102.035 95.4359 102.268 95.1027 102.487 94.7611C102.556 94.8068 102.618 94.8552 102.722 94.863C105.317 95.0171 108.718 94.3435 110.462 92.2704C110.711 91.9708 110.527 91.4812 110.11 91.4995C108.345 91.5782 105.761 91.4308 104.056 92.3818C105.308 90.524 106.58 88.6899 107.889 86.8835C109.459 86.6976 111.052 86.3236 112.601 86.1207C114.273 85.9011 115.839 85.4531 117.292 84.5926C117.606 84.4049 117.56 83.799 117.153 83.7586C115.054 83.5456 112.856 83.6548 110.784 84.0459C110.404 84.1182 109.958 84.2714 109.642 84.4818C111.705 81.6923 113.801 78.9335 115.887 76.1658C115.868 76.2706 115.864 76.3805 115.886 76.4974C115.942 76.7989 116.466 76.7094 116.421 76.4055C116.359 75.9933 117.429 75.6937 118.682 75.4887C117.571 76.0518 116.494 76.7201 115.412 77.1942C114.812 77.4565 115.104 78.4419 115.723 78.1791C117.585 77.3971 119.421 76.5552 121.244 75.6844C119.807 77.0401 118.172 77.9048 116.425 79.0021C116.212 79.1353 116.316 79.4817 116.57 79.4717C119.177 79.3539 121.509 77.225 123.053 75.2932C123.324 74.9556 123.145 74.532 122.756 74.4417C122.675 74.2743 122.526 74.1383 122.326 74.1511C121.45 74.2077 117.883 74.4154 116.466 75.4022C118.118 73.2019 119.757 70.9936 121.355 68.7491C123.092 67.2182 124.687 65.4956 126.021 63.6089C126.029 63.5982 126.038 63.5912 126.047 63.5793L126.044 63.5791C126.068 63.5435 126.095 63.5128 126.118 63.4795C126.29 63.2332 126.14 62.9697 125.916 62.846C126.074 62.4985 126.225 62.1469 126.355 61.7738C126.48 61.4049 126.015 61.158 125.73 61.3256ZM101.167 102.698C101.489 102.722 101.817 102.774 102.144 102.819C101.063 102.983 99.9673 103.029 98.8718 103.119C98.9248 103.009 98.9404 102.883 98.8399 102.771C98.7858 102.713 100.937 102.679 101.167 102.698ZM108.919 92.4117C107.252 93.5983 105.059 93.6528 103.047 93.9073C103.164 93.7315 103.28 93.5533 103.397 93.3764C103.524 93.4621 103.703 93.4829 103.852 93.3595C105.009 92.3901 107.181 92.3943 108.919 92.4117ZM110.693 84.8438C111.406 84.6705 112.185 84.6678 112.915 84.6176C113.641 84.5684 114.381 84.5458 115.12 84.5516C113.643 85.0403 112.089 85.1967 110.505 85.3812C110.424 85.3929 110.339 85.4008 110.257 85.4101C110.27 85.3058 110.246 85.199 110.143 85.1236C109.814 84.8796 110.411 84.9096 110.693 84.8438Z" fill="#5B5853"/>
<path d="M101.005 85.8906C100.709 87.7375 100.51 89.6751 101.213 91.453C101.344 91.7848 101.903 91.9444 102.068 91.5333C102.154 91.3167 102.22 91.0981 102.284 90.8782C102.497 91.1466 102.758 91.3635 103.092 91.4956C103.407 91.6179 103.659 91.1934 103.348 91.0222C103.025 90.8475 102.824 90.547 102.688 90.1964C102.738 90.1599 102.776 90.1085 102.775 90.0234C102.762 89.3737 102.706 88.7405 102.602 88.1153C102.563 86.9489 102.356 85.7742 102.145 84.613C102.059 84.1422 101.234 84.2829 101.311 84.7563C101.347 84.9825 101.369 85.2497 101.383 85.5403C101.203 85.578 101.036 85.7008 101.005 85.8906Z" fill="#5B5853"/>
<path d="M58.366 137.352C58.2122 137.281 58.045 137.217 57.8827 137.151C57.8918 137.152 57.903 137.154 57.9122 137.154C58.1408 137.152 58.2927 136.982 58.3503 136.789C58.3907 136.823 58.4292 136.84 58.4679 136.855C58.6104 136.973 58.7505 137.09 58.892 137.206C59.108 137.513 59.3415 137.804 59.6069 138.063C59.7202 138.173 59.8634 138.164 59.9688 138.095C63.3856 140.912 66.6851 143.899 69.7088 147.328C69.8576 147.5 70.1248 147.264 70.0071 147.08C67.2334 142.821 63.5879 139.328 59.5965 136.162C59.5463 136.016 59.5017 135.872 59.4492 135.726C59.4665 135.607 59.4179 135.503 59.3364 135.432C58.6922 133.688 57.9225 131.948 57.2158 130.292C56.9614 129.694 56.1325 129.958 56.2582 130.594C56.4837 131.717 56.7467 133.048 57.1437 134.284C55.1943 132.84 53.1941 131.446 51.19 130.069C51.2682 129.983 51.3121 129.862 51.2959 129.697C51.2842 129.592 51.2595 129.491 51.2454 129.388C51.3192 129.467 51.3701 129.558 51.4478 129.633C51.7801 129.96 52.2717 129.433 51.942 129.104C51.9398 129.102 51.9389 129.1 51.9357 129.097C51.9403 129.061 51.9507 129.025 51.9311 128.979C51.5889 128.172 51.1259 127.416 50.6153 126.689C50.3509 125.897 50.0371 125.117 49.6797 124.337C49.4857 123.91 48.8809 124.088 48.9814 124.556C48.9883 124.592 49.0009 124.628 49.0087 124.666C48.6077 124.456 47.9829 124.734 48.2116 125.255C48.8005 126.584 49.3848 127.915 49.9824 129.238C46.754 127.026 43.5513 124.819 40.6062 122.43C39.5649 121.412 38.5 120.447 37.2293 119.723C37.213 119.713 37.197 119.713 37.1805 119.705C36.2767 118.819 35.3565 117.949 34.3836 117.136C33.9578 116.78 33.4547 117.259 33.676 117.725C34.0135 118.438 36.2955 122.583 37.6567 122.061C38.8318 123.583 40.2049 124.923 41.8225 126C41.8246 126.003 41.8266 126.005 41.8275 126.007L41.83 126.005C41.8665 126.032 41.8969 126.061 41.9349 126.084C42.3462 126.354 42.7156 125.915 42.6487 125.527C42.8833 125.64 43.1192 125.753 43.3711 125.83C43.5741 125.891 43.7518 125.632 43.6329 125.461C43.5534 125.345 43.4542 125.243 43.3673 125.132C45.2969 126.711 47.2538 128.221 49.2154 129.717C49.1772 129.721 49.1381 129.721 49.0975 129.726C47.0492 128.914 44.787 128.783 42.6025 128.822C41.9452 128.831 41.923 129.726 42.4937 129.913C42.9409 130.061 43.3951 130.183 43.8501 130.297C42.4647 130.368 41.0864 130.51 39.7162 130.841C39.1276 130.982 39.301 131.92 39.8948 131.88C41.9354 131.75 43.9938 131.661 46.0093 131.339C46.6735 131.33 47.3385 131.325 48.008 131.31C48.3566 131.301 48.5256 131.049 48.5249 130.782C48.8979 130.676 49.271 130.556 49.6399 130.421C49.7493 130.381 49.8113 130.297 49.8467 130.204C51.6795 131.597 53.5131 132.98 55.3299 134.383C53.8512 133.686 52.236 133.298 50.5845 133.404C50.238 133.427 50.1088 133.825 50.3355 134.069C52.4184 136.283 55.4213 136.694 58.1146 137.816C58.4259 137.944 58.6794 137.494 58.366 137.352Z" fill="#5B5853"/>
<path d="M62.9041 141.957C62.8608 141.954 62.8187 141.95 62.7755 141.946L62.7709 141.946C60.5751 141.722 58.3962 141.549 56.2038 141.909C55.7802 141.98 55.6175 142.489 56.0115 142.735C58.1853 144.09 60.7015 144.645 62.7338 142.913C62.758 142.912 62.7833 142.911 62.8098 142.91C62.9803 142.904 63.1024 142.804 63.1803 142.675L63.1849 142.674C63.4166 142.605 63.4169 142.293 63.2224 142.191C63.1709 142.07 63.0723 141.975 62.9041 141.957ZM57.6771 142.649C58.0821 142.627 58.485 142.627 58.8895 142.633C58.9221 142.854 59.0818 143.055 59.3731 143.045C60.0224 143.024 60.671 143.023 61.3145 142.979C60.1374 143.45 58.8765 143.208 57.6771 142.649Z" fill="#5B5853"/>
</svg>
