<svg width="289" height="154" viewBox="0 0 289 154" fill="none" xmlns="http://www.w3.org/2000/svg">
<path d="M267.802 60.4542C263.321 60.7889 258.838 61.6953 254.501 62.7082C250.136 63.728 245.867 65.0097 241.671 66.4854C241.006 66.7197 240.35 66.978 239.689 67.2221C241.456 65.8573 243.107 64.3576 244.413 62.6188C245.707 60.8963 246.637 58.9494 246.925 56.8692C247.059 55.8993 247.068 54.9165 246.9 53.9474C246.744 53.0434 246.518 52.0461 245.862 51.3151C245.749 51.1883 245.597 51.1824 245.484 51.2427C245.338 51.181 245.156 51.1963 245.029 51.3074C244.669 51.6216 244.592 52.103 244.392 52.5068C244.18 52.9341 243.924 53.3438 243.634 53.7326C243.023 54.5486 242.269 55.2714 241.478 55.9477C239.864 57.3278 238.087 58.5465 236.684 60.116C235.469 61.4756 234.478 63.0091 233.791 64.644C233.12 66.2419 232.495 68.127 232.711 69.8572C232.718 69.917 232.755 69.9577 232.788 69.9981C228.703 71.7932 224.731 73.793 220.911 76.0024C223.872 72.6609 225.306 68.1889 224.686 63.9072C224.423 62.0907 223.815 60.3382 222.988 58.6623C222.922 58.5294 222.821 58.4514 222.711 58.4115C222.652 58.1718 222.571 57.9423 222.454 57.7329C222.352 57.5472 222.052 57.6368 222.004 57.8046C221.888 58.2105 221.895 58.6488 221.924 59.0881C221.185 61.1041 219.818 62.8103 218.296 64.4143C216.663 66.1351 215.008 67.8163 213.685 69.7531C212.402 71.6326 211.427 73.72 211.104 75.9257C210.956 76.9319 210.929 77.9572 211.07 78.9681C211.199 79.8964 211.402 80.966 211.965 81.7737C206.854 85.4011 202.071 89.4014 197.73 93.7633C197.033 94.4643 196.349 95.1743 195.673 95.8915C196.104 95.0405 196.467 94.1619 196.799 93.272C199.43 91.0235 201.097 87.8412 201.409 84.5895C201.774 80.7814 200.213 76.9253 197.394 74.0599C197.397 73.608 196.59 73.4741 196.475 73.9712C195.584 77.8105 192.928 81.1241 192.295 85.0312C192.015 86.7611 192.181 88.4899 192.989 90.1029C193.658 91.441 194.484 92.6786 195.047 94.0358C195.006 94.1304 195.05 94.2281 195.145 94.2918C195.226 94.5025 195.32 94.7064 195.386 94.9251C194.981 95.8506 194.537 96.7648 194.051 97.6638C189.694 102.499 185.804 107.682 182.442 113.123C181.57 114.534 180.743 115.967 179.944 117.413C179.965 117.346 179.975 117.275 179.995 117.207C184.504 108.592 188.587 99.1702 187.961 89.4848C187.328 79.6889 180.871 71.5981 175.046 63.6492C171.876 59.3228 168.85 54.8565 166.972 49.9484C166.462 49.5548 165.885 49.2421 165.252 49.0366C164.986 48.9501 164.711 48.8895 164.434 48.8331C163.633 58.7578 159.286 68.2314 159.884 78.2929C160.022 80.5961 160.401 82.8985 161.149 85.1159C161.968 87.5394 163.253 89.8102 164.792 91.9319C167.913 96.2338 171.981 99.9184 175.018 104.269C176.478 106.361 177.721 108.592 178.464 110.97C178.944 112.507 179.1 114.018 179.085 115.547C179.028 115.722 178.976 115.899 178.917 116.072C178.741 116.597 178.562 117.121 178.387 117.646C178.062 118.615 177.749 119.587 177.429 120.558C176.778 122.54 176.126 124.522 175.478 126.504C175.417 126.69 175.353 126.874 175.292 127.059C174.174 129.723 173.177 132.43 172.329 135.177C172.035 136.128 171.816 137.086 171.63 138.06C171.627 138.077 171.637 138.087 171.638 138.101C171.617 138.199 171.587 138.297 171.571 138.396C171.531 138.625 171.891 138.761 172.01 138.538C172.486 137.645 172.766 136.669 173.104 135.728C173.464 134.722 173.825 133.717 174.184 132.712C174.885 130.74 175.574 128.764 176.296 126.798C176.466 126.333 176.636 125.868 176.806 125.402C177.093 124.768 177.373 124.13 177.674 123.499C178.762 122.261 179.912 121.058 181.126 119.913C183.181 122.312 186.645 123.807 189.792 124.572C193.579 125.492 197.532 125.428 201.347 124.78C210.081 123.296 217.625 118.888 225.852 116.142C228.416 115.285 231.101 114.594 233.775 114.723C233.794 114.701 233.816 114.68 233.835 114.658C233.847 114.643 233.872 114.613 233.886 114.595C233.952 114.51 234.013 114.425 234.07 114.334C234.129 114.239 234.184 114.142 234.234 114.042C234.234 114.042 234.28 113.941 234.286 113.928C234.303 113.885 234.32 113.842 234.335 113.799C234.369 113.7 234.402 113.582 234.43 113.47C234.389 113.297 234.263 113.146 234.025 113.112C233.942 113.101 233.86 113.089 233.777 113.078C233.108 112.655 232.435 112.238 231.766 111.823C229.887 110.659 227.973 109.55 225.997 108.526C222.209 106.562 218.19 104.893 213.943 103.937C206.111 102.175 197.611 102.864 191.181 107.434C187.53 110.028 184.746 113.396 182.131 116.828C181.714 116.72 181.276 117.379 181.116 117.633C180.82 118.104 180.506 118.565 180.168 119.013C179.976 119.265 179.763 119.504 179.558 119.748C180.212 118.503 180.882 117.265 181.59 116.045C184.952 110.253 188.927 104.769 193.44 99.6606C193.455 99.6539 193.471 99.6567 193.484 99.6455C194.397 98.9083 195.345 98.2138 196.312 97.5448C196.419 97.5396 196.524 97.509 196.604 97.44C196.718 97.343 196.818 97.2361 196.912 97.1243C196.933 97.1102 196.954 97.0947 196.974 97.0806C199.694 99.1792 203.607 99.6896 207.051 99.3499C211.386 98.924 215.346 97.1318 219.095 95.263C220.212 94.7058 221.317 94.1274 222.441 93.5788C223.027 93.2922 223.622 93.0178 224.236 92.7805C224.777 92.5723 225.337 92.4445 225.777 92.0838C225.98 91.9172 225.844 91.5422 225.567 91.5139C225.535 91.5111 225.503 91.5192 225.47 91.5185C224.596 89.8182 222.434 88.8719 220.543 88.3578C218.45 87.7886 216.23 87.5486 214.054 87.5759C209.674 87.6304 205.398 88.8869 201.85 91.1508C205.55 87.8009 209.512 84.6917 213.691 81.8288C213.732 81.8475 213.781 81.8575 213.84 81.8424C215.635 81.3914 217.412 80.8854 219.199 80.4223C223.071 80.4669 226.334 83.3613 230.054 84.1092C232.242 84.5493 234.346 84.0651 236.44 83.536C237.459 83.2788 238.484 83.0221 239.542 82.9257C240.683 82.8226 241.665 83.067 242.785 83.1788C243.195 83.2193 243.594 82.7576 243.225 82.4658C243.267 82.4066 243.292 82.3373 243.27 82.2566C242.829 80.6277 241.609 79.1871 240.293 78.0264C238.939 76.8314 237.274 75.8455 235.52 75.1981C231.983 73.894 227.978 74.1809 224.616 75.6874C222.683 76.5533 220.993 77.8344 219.731 79.4066C219.681 79.4694 219.652 79.5334 219.634 79.599C219.146 79.7346 218.66 79.8695 218.176 80.0141C218.013 80.0469 217.851 80.0734 217.687 80.1191C217.647 80.1302 217.634 80.1558 217.609 80.176C216.632 80.478 215.662 80.7994 214.702 81.1448C215.087 80.8877 215.46 80.618 215.848 80.3655C223.049 75.6778 230.846 71.7182 239.054 68.6144C241.936 67.5244 244.877 66.5448 247.857 65.6639C248.398 66.8942 249.828 67.8394 251.089 68.3874C252.769 69.118 254.614 69.3242 256.452 69.3659C258.367 69.4091 260.289 69.2652 262.201 69.4288C263.12 69.5082 264.035 69.6593 264.916 69.916C265.844 70.1852 266.648 70.6273 267.49 71.0581C267.641 71.1354 267.775 71.1188 267.875 71.056C268.046 71.0895 268.229 71.0165 268.224 70.8073C268.215 70.4838 268.147 70.163 268.053 69.8459C268.057 69.7827 268.044 69.7194 268.007 69.6621C268.004 69.6575 267.998 69.6541 267.995 69.6495C267.542 68.3344 266.473 67.1155 265.405 66.2326C263.942 65.0223 262.12 64.1558 260.2 63.715C259.095 63.4607 257.955 63.3559 256.815 63.3521C259.422 62.7741 262.048 62.2692 264.686 61.8426C265.783 61.6657 266.876 61.4937 267.968 61.2962C268.502 61.1978 268.336 60.4143 267.802 60.4542ZM197.278 75.0883C199.688 77.7994 200.883 81.2894 200.554 84.7323C200.297 87.4111 199.104 89.8522 197.288 91.8959C198.512 87.9763 198.842 83.7953 198.35 79.7933C198.241 78.9006 198.108 78.0081 197.901 77.128C197.743 76.458 197.584 75.7365 197.278 75.0883ZM193.952 90.3651C193.001 88.6148 192.75 86.7935 193.119 84.89C193.557 82.6292 194.656 80.5757 195.672 78.494C195.501 79.0389 195.325 79.5819 195.169 80.1296C194.708 81.7594 194.333 83.4154 194.148 85.0929C193.986 86.5609 193.977 88.0419 194.177 89.5114C194.261 90.1252 194.368 90.757 194.528 91.3738C194.331 91.0362 194.135 90.7 193.952 90.3651ZM195.596 93.5134C195.598 93.5055 195.61 93.5022 195.607 93.4933C195.307 92.0492 194.791 90.6635 194.644 89.1849C194.499 87.7223 194.545 86.2415 194.728 84.787C194.92 83.2488 195.267 81.7312 195.687 80.2336C195.909 79.4403 196.155 78.6549 196.405 77.8691C196.564 77.3679 196.79 76.8328 196.9 76.3C197.01 76.7117 197.127 77.1211 197.213 77.52C197.44 78.5686 197.628 79.6197 197.733 80.6838C197.935 82.7428 197.912 84.8185 197.657 86.8676C197.391 89.0082 196.846 91.0807 196.107 93.0959C195.945 93.2437 195.77 93.381 195.601 93.5232C195.599 93.5194 195.598 93.5164 195.596 93.5134ZM181.304 74.0828C183.937 78.2278 186.05 82.676 186.741 87.4239C187.434 92.1849 186.855 96.9943 185.567 101.614C184.969 103.758 184.209 105.843 183.363 107.899C184.585 102.923 184.682 97.7022 184.025 92.641C182.976 84.5475 179.999 76.7866 176.434 69.3094C175.379 67.0973 174.293 64.8978 173.159 62.7172C173.157 62.7142 173.155 62.7103 173.154 62.7073C175.902 66.4853 178.827 70.1817 181.304 74.0828ZM169.227 56.9017C170.006 58.653 171.076 60.3377 171.985 62.0316C173.022 63.9627 174.046 65.9004 175.032 67.8523C176.969 71.6881 178.69 75.6207 180.108 79.6319C182.639 86.7953 184.081 94.3183 183.517 101.819C183.221 105.754 182.352 109.612 180.945 113.333C180.878 113.475 180.815 113.618 180.748 113.76C181.108 111.549 181.272 109.302 181.307 107.127C181.379 102.639 180.827 98.1588 179.928 93.7396C178.965 89.0036 177.604 84.3387 176.17 79.6979C174.655 74.7929 173.07 69.9051 171.493 65.0157C170.425 61.7042 169.325 58.397 168.157 55.1094C168.496 55.7149 168.862 56.3076 169.227 56.9017ZM177.469 106.277C174.98 101.83 171.173 98.1603 167.864 94.2096C166.037 92.0299 164.325 89.7367 163.126 87.2234C162.076 85.0233 161.436 82.6846 161.136 80.3153C160.524 75.4818 161.274 70.6309 162.293 65.9013C162.784 63.6249 163.335 61.358 163.856 59.087C163.421 64.4786 163.362 69.907 164.453 75.2079C165.362 79.6265 167.218 83.7492 169.483 87.7504C171.811 91.8639 174.452 95.8414 176.425 100.108C177.42 102.257 178.248 104.475 178.762 106.753C179.022 107.909 179.166 109.056 179.231 110.208C178.755 108.825 178.146 107.487 177.469 106.277ZM179.937 112.948C180.432 109.279 179.429 105.385 178.074 101.947C176.444 97.8086 174.052 93.9639 171.755 90.0986C169.314 85.9897 167.004 81.8068 165.762 77.27C164.634 73.1473 164.234 68.8781 164.321 64.6523C164.416 60.064 165.059 55.5049 165.728 50.9654C168.575 59.9095 171.756 68.772 174.586 77.7218C177.417 86.6768 180.191 95.78 180.46 105.121C180.53 107.549 180.433 109.981 180.116 112.39C180.081 112.659 180.03 112.924 179.987 113.192C179.977 113.11 179.951 113.03 179.937 112.948ZM190.695 109.287C193.749 106.81 197.424 105.143 201.492 104.488C209.396 103.215 217.412 105.521 224.348 108.917C226.397 109.92 228.38 111.029 230.344 112.163C229.587 111.839 228.808 111.553 228.051 111.273C226.52 110.707 224.964 110.196 223.383 109.758C220.156 108.864 216.836 108.273 213.481 107.989C206.724 107.417 199.569 107.959 193.216 110.108C190.911 110.888 188.454 111.98 186.44 113.46C187.741 111.975 189.13 110.556 190.695 109.287ZM187.77 113.272C189.296 112.302 190.972 111.521 192.708 110.895C195.918 109.736 199.358 109.06 202.799 108.715C209.193 108.076 215.723 108.617 221.926 110.233C223.646 110.681 225.346 111.207 226.998 111.835C227.355 111.97 227.707 112.12 228.057 112.271C225.726 111.939 223.396 111.599 221.072 111.207C216.973 110.516 212.859 109.856 208.699 109.591C204.786 109.341 200.82 109.455 196.991 110.211C192.945 111.009 189.172 112.636 185.866 114.851C185.59 115.036 185.327 115.235 185.059 115.43C185.895 114.65 186.763 113.911 187.77 113.272ZM196.296 111.344C204.049 109.567 212.161 110.916 219.894 112.261C222.411 112.698 224.955 113.199 227.513 113.565C227.03 113.571 226.551 113.583 226.086 113.597C224.468 113.644 222.857 113.785 221.258 113.993C218.064 114.408 214.926 115.082 211.819 115.84C205.289 117.433 198.734 119.568 191.925 120C188.6 120.211 185.467 119.833 182.354 118.806C186.275 115.366 190.846 112.594 196.296 111.344ZM181.954 119.156C184.438 120.319 187.412 120.65 190.157 120.655C193.314 120.659 196.459 120.212 199.534 119.633C206.26 118.365 212.734 116.217 219.507 115.126C221.377 114.825 223.266 114.609 225.166 114.515C225.979 114.474 226.79 114.491 227.601 114.514C223.802 115.609 220.18 117.246 216.59 118.77C209.163 121.923 201.001 125.325 192.511 124.223C190.377 123.946 188.273 123.402 186.331 122.54C184.544 121.747 183.055 120.653 181.583 119.48C181.705 119.369 181.833 119.265 181.954 119.156ZM220.132 93.7211C218.244 94.7049 216.353 95.6935 214.375 96.528C210.729 98.0656 206.721 99.0665 202.649 98.5193C201.046 98.3044 199.528 97.795 198.105 97.1067C200.082 97.4138 202.177 97.191 204.12 96.8936C206.33 96.555 208.488 96.0062 210.619 95.3994C212.906 94.7482 215.17 94.0323 217.48 93.4467C218.676 93.144 219.881 92.8805 221.106 92.6902C221.569 92.6182 222.035 92.5689 222.501 92.5189C221.7 92.9025 220.915 93.3121 220.132 93.7211ZM222.946 91.8308C222.426 91.8921 221.909 91.9673 221.393 92.052C220.256 92.2391 219.13 92.4835 218.014 92.7519C215.647 93.3202 213.332 94.0433 211.002 94.7189C208.822 95.3504 206.619 95.9358 204.361 96.3114C202.092 96.6883 199.859 96.6876 197.566 96.694C200.023 95.1174 202.66 93.7902 205.542 92.8546C209.61 91.534 213.971 90.9687 218.307 91.2029C219.49 91.2666 220.67 91.3895 221.839 91.5618C222.258 91.6234 222.699 91.7148 223.141 91.8035C223.077 91.8125 223.011 91.8234 222.946 91.8308ZM206.863 89.6539C210.627 88.3063 214.825 87.9617 218.821 88.6879C221.027 89.0892 223.077 89.7796 224.491 91.3077C223.873 91.1041 223.195 90.9958 222.582 90.8916C221.531 90.7135 220.472 90.5852 219.408 90.5049C217.164 90.3359 214.901 90.368 212.671 90.603C208.003 91.0969 203.474 92.489 199.478 94.6876C199.079 94.9073 198.698 95.1496 198.312 95.3849C198.402 95.2829 198.484 95.1752 198.576 95.0755C199.318 94.2744 200.134 93.5274 201.012 92.847C202.745 91.5046 204.734 90.4162 206.863 89.6539ZM235.913 82.1379C234.02 82.7054 232.26 82.9542 230.33 82.28C228.608 81.6785 227.116 80.6629 225.444 79.9719C224.919 79.7547 224.287 79.5507 223.638 79.4312C225.068 79.174 226.516 78.9849 227.998 78.9315C230.449 78.8426 232.876 79.1273 235.224 79.7964C236.374 80.1239 237.49 80.5423 238.56 81.0484C238.751 81.1386 238.931 81.2437 239.117 81.3413C238.014 81.4194 236.848 81.8569 235.913 82.1379ZM232.335 75.5319C234.558 75.7751 236.725 76.5499 238.505 77.7875C240.213 78.9748 241.343 80.4625 242.459 82.0696C242.211 81.981 241.952 81.9147 241.683 81.8698C241.261 81.3928 240.579 81.0537 240.03 80.7594C239.191 80.31 238.317 79.9146 237.417 79.5755C235.573 78.8827 233.633 78.4307 231.649 78.2472C228.233 77.9336 224.833 78.3572 221.536 79.1125C224.256 76.4955 228.313 75.0916 232.335 75.5319ZM221.079 79.9577C221.085 79.9583 221.09 79.963 221.097 79.9629C222.002 79.9334 222.825 79.8267 223.732 79.9859C224.564 80.1314 225.41 80.3763 226.179 80.7027C227.784 81.3828 229.228 82.348 230.92 82.8616C231.988 83.1864 233.038 83.2092 234.091 83.0841C232.771 83.3587 231.436 83.4955 230.039 83.2059C226.967 82.5703 224.106 80.4919 221.001 79.9748C221.028 79.9692 221.054 79.9635 221.079 79.9577ZM213.249 80.7362C213.142 80.8483 213.035 80.9626 212.927 81.0739C212.843 81.1331 212.761 81.1968 212.676 81.2566C212.403 80.2812 212.034 79.3785 211.954 78.3497C211.875 77.3369 211.956 76.3228 212.17 75.3303C212.646 73.1283 213.775 71.091 215.166 69.2519C216.528 67.4501 218.192 65.8663 219.679 64.1524C220.317 63.4174 220.913 62.6413 221.399 61.8195L221.399 61.821C221.231 62.2441 221.024 62.6566 220.797 63.0566C220.309 63.9143 219.698 64.708 219.056 65.4758C217.819 66.9548 216.473 68.3711 215.455 69.9875C214.468 71.5538 213.753 73.26 213.364 75.0303C212.978 76.7865 212.804 78.7466 213.113 80.5288C213.129 80.6219 213.181 80.6899 213.249 80.7362ZM213.746 80.213C213.521 78.3875 213.483 76.6532 213.913 74.8366C214.354 72.976 215.152 71.194 216.304 69.6029C217.465 67.9982 218.918 66.5854 220.122 65.0066C220.665 64.2939 221.172 63.5497 221.551 62.7527C221.685 62.4717 221.834 62.1459 221.95 61.8122C221.943 62.0853 221.945 62.3584 221.927 62.6313C221.82 64.3451 221.528 66.048 221.079 67.7121C220.201 70.9611 218.687 74.0375 216.639 76.8165C215.765 78.0027 214.771 79.1229 213.746 80.213ZM215.473 79.3554C217.182 77.582 218.574 75.5443 219.689 73.4387C221.357 70.2889 222.422 66.8705 222.768 63.3828C222.862 62.4448 222.902 61.503 222.876 60.5598C222.875 60.5323 222.875 60.5019 222.874 60.4744C224.235 63.6119 224.297 67.2324 223.27 70.4093C222.277 73.4802 220.174 76.0529 217.498 78.057C216.818 78.4829 216.142 78.9163 215.473 79.3554ZM233.887 67.291C234.121 66.3919 234.441 65.5161 234.84 64.6666C235.637 62.9669 236.742 61.397 238.132 60.0424C239.664 58.549 241.519 57.358 243.072 55.8823C243.379 55.5903 243.669 55.2839 243.947 54.9685C242.819 57.0116 241.567 58.997 240.168 60.9005C239.128 62.3143 238.009 63.6764 236.833 65.0012C235.808 66.1584 234.682 67.2441 233.654 68.3975C233.725 68.0274 233.792 67.6576 233.887 67.291ZM235.865 68.3059C235.418 68.4999 234.949 68.6537 234.467 68.7601C234.331 68.7896 234.194 68.8095 234.057 68.828C235.272 67.8518 236.341 66.7114 237.37 65.5841C238.554 64.2854 239.657 62.9218 240.698 61.5269C242.669 58.8878 244.368 56.0917 245.81 53.1867C245.899 53.5063 245.977 53.8294 246.018 54.1629C246.126 55.0628 246.096 55.9751 245.939 56.8649C245.597 58.8047 244.685 60.6167 243.431 62.2084C242.066 63.9414 240.344 65.4371 238.495 66.75C237.674 67.3349 236.81 67.8958 235.865 68.3059ZM263.482 68.6439C261.695 68.3842 259.888 68.4464 258.09 68.481C256.236 68.516 254.363 68.5103 252.564 68.0301C251.659 67.7881 250.777 67.4187 250.02 66.9035C249.58 66.6041 249.234 66.2594 248.913 65.8915C249.015 65.8628 249.115 65.8244 249.215 65.7934C249.261 65.84 249.321 65.8748 249.407 65.8721C250.991 65.8181 252.539 65.6441 254.133 65.7109C255.788 65.7801 257.438 66.0128 259.044 66.3933C260.612 66.7649 262.137 67.293 263.588 67.9519C264.297 68.2738 264.987 68.6273 265.657 69.0122C265.824 69.1082 265.99 69.2194 266.161 69.3344C265.303 68.9838 264.358 68.7716 263.482 68.6439ZM259.572 64.5035C261.419 64.8543 263.175 65.6248 264.603 66.7461C265.229 67.2378 265.767 67.7991 266.243 68.41C266.211 68.3927 266.174 68.3737 266.143 68.3558C265.408 67.9436 264.648 67.5696 263.868 67.2329C262.373 66.5882 260.805 66.0868 259.201 65.7194C257.6 65.3523 255.959 65.1334 254.311 65.0619C253.351 65.0209 252.346 65.0187 251.359 65.0967C252.162 64.8663 252.98 64.6689 253.808 64.5238C255.696 64.1928 257.676 64.1435 259.572 64.5035Z" fill="#5B5853"/>
<path d="M242.452 98.7772C241.771 97.9446 240.977 97.1878 240.093 96.5269C238.333 95.21 236.216 94.2478 233.985 93.8206C231.771 93.3977 229.458 93.4982 227.3 94.0577C226.217 94.339 225.168 94.7406 224.192 95.2449C223.391 95.658 222.364 96.2126 221.811 96.9245C221.676 96.8652 221.485 96.9594 221.537 97.1295C222.646 100.884 227.514 101.789 231.192 101.605C233.38 101.495 235.531 101.102 237.715 100.97C238.771 100.906 239.84 100.899 240.892 101.037C241.712 101.144 242.484 101.376 243.271 101.575C243.436 101.66 243.597 101.743 243.765 101.828C244.099 101.998 244.442 101.674 244.377 101.395C244.377 101.307 244.352 101.219 244.264 101.15C244.121 101.04 243.964 100.946 243.806 100.855C243.488 100.107 242.967 99.4066 242.452 98.7772ZM238.883 100.007C236.827 100.05 234.835 100.442 232.814 100.721C230.778 101.003 228.666 101.16 226.649 100.638C226.483 100.585 226.315 100.533 226.162 100.467C225.737 100.288 225.33 100.071 224.954 99.8169C224.584 99.5673 224.24 99.2838 223.923 98.9812C223.807 98.8695 223.7 98.753 223.592 98.6377C223.59 98.6354 223.589 98.6317 223.588 98.6287C223.549 98.5771 223.499 98.5324 223.452 98.4866C224.38 99.0275 225.533 99.3348 226.514 99.4571C228.495 99.7042 230.471 99.3605 232.432 99.1738C234.42 98.9839 236.428 99.0475 238.375 99.522C238.925 99.6564 239.444 99.8283 239.949 100.019C239.586 100.01 239.22 100 238.883 100.007ZM239.357 99.237C237.574 98.8092 235.703 98.5934 233.865 98.6611C231.827 98.7367 229.821 99.154 227.776 99.1238C226.747 99.1082 225.698 98.9597 224.737 98.6045C223.989 98.3275 223.439 97.9412 222.891 97.4838C223.523 97.5015 224.285 97.1973 224.849 97.0904C225.763 96.9175 226.693 96.8035 227.625 96.7431C229.486 96.6225 231.367 96.7119 233.209 97.0095C235.019 97.302 236.789 97.7913 238.469 98.4749C239.29 98.8093 240.088 99.1885 240.857 99.6112C240.903 99.6361 240.943 99.667 240.989 99.6925C240.443 99.5218 239.895 99.3653 239.357 99.237ZM242.367 99.7581C241.995 99.5313 241.612 99.32 241.248 99.1177C240.422 98.6583 239.562 98.25 238.676 97.8941C236.941 97.1962 235.111 96.6917 233.245 96.3978C231.379 96.104 229.474 96.0119 227.592 96.1499C226.673 96.2165 225.759 96.3362 224.857 96.5051C224.487 96.575 223.947 96.6394 223.46 96.7704C223.465 96.7665 223.471 96.762 223.476 96.7582C223.881 96.4861 224.303 96.235 224.737 96.003C225.633 95.5233 226.591 95.1476 227.589 94.874C229.625 94.3146 231.823 94.1876 233.926 94.564C236.049 94.9437 238.032 95.8258 239.701 97.0786C240.533 97.7034 241.29 98.4137 241.94 99.1954C242.092 99.3771 242.231 99.5663 242.367 99.7581Z" fill="#5B5853"/>
<path d="M263.211 49.0117C262.393 48.9845 261.572 49.0487 260.774 49.2007C259.182 49.5041 257.655 50.1462 256.413 51.0863C255.18 52.0192 254.232 53.2357 253.639 54.5799C253.341 55.2544 253.134 55.9644 253.022 56.6849C252.93 57.2757 252.827 58.0435 253.031 58.6419C252.935 58.6837 252.91 58.8225 253.038 58.8729C255.869 59.9885 258.564 57.9268 260.057 55.9811C260.945 54.8241 261.64 53.5578 262.512 52.3928C262.934 51.8294 263.397 51.2849 263.943 50.8138C264.37 50.4463 264.852 50.1591 265.319 49.849C265.444 49.8032 265.567 49.7587 265.694 49.7124C265.946 49.6189 265.893 49.3011 265.69 49.2085C265.636 49.1689 265.57 49.1428 265.488 49.1567C265.357 49.1794 265.23 49.2177 265.104 49.2568C264.496 49.0802 263.83 49.0322 263.211 49.0117ZM262.42 51.3696C261.547 52.4307 260.922 53.6143 260.213 54.7637C259.499 55.9208 258.674 57.0608 257.466 57.8498C257.359 57.9103 257.254 57.9708 257.146 58.0203C256.849 58.1556 256.534 58.2648 256.212 58.3413C255.894 58.4167 255.567 58.4645 255.239 58.4904C255.119 58.4995 255 58.5014 254.88 58.5047C254.877 58.5044 254.873 58.5034 254.873 58.5034C254.824 58.4998 254.773 58.5063 254.724 58.5085C255.468 58.2806 256.164 57.8328 256.669 57.3908C257.69 56.4974 258.338 55.3434 259.08 54.2659C259.831 53.1732 260.749 52.1843 261.897 51.4104C262.221 51.1924 262.555 51.0057 262.895 50.8356C262.729 51.0143 262.562 51.1953 262.42 51.3696ZM262.145 50.7847C261.098 51.4969 260.145 52.3481 259.384 53.3106C258.539 54.3763 257.923 55.5797 257.011 56.6024C256.551 57.1174 256 57.5816 255.358 57.9092C254.857 58.1648 254.376 58.271 253.85 58.3436C254.138 58.0308 254.28 57.5091 254.46 57.1753C254.752 56.6347 255.086 56.1138 255.456 55.6143C256.195 54.6178 257.073 53.7048 258.065 52.9041C259.039 52.1179 260.119 51.4397 261.281 50.8945C261.849 50.628 262.434 50.3935 263.036 50.1925C263.072 50.1803 263.109 50.1734 263.145 50.162C262.799 50.3621 262.461 50.5702 262.145 50.7847ZM263.787 49.4929C263.483 49.5797 263.184 49.6792 262.897 49.7741C262.249 49.9871 261.618 50.2408 261.008 50.5306C259.813 51.0976 258.697 51.7995 257.699 52.6134C256.699 53.4271 255.809 54.3515 255.071 55.367C254.711 55.8631 254.386 56.3789 254.098 56.9111C253.98 57.1297 253.783 57.4323 253.652 57.7377C253.653 57.7334 253.652 57.7289 253.652 57.7246C253.658 57.3981 253.687 57.0715 253.732 56.7484C253.824 56.0807 254.008 55.4274 254.273 54.7987C254.813 53.5176 255.695 52.3469 256.849 51.4492C258.015 50.5431 259.433 49.9323 260.946 49.6466C261.701 49.504 262.475 49.4385 263.248 49.4574C263.429 49.4608 263.609 49.4758 263.787 49.4929Z" fill="#5B5853"/>
<path d="M21.3303 57.0163C22.4136 57.2559 23.4994 57.4702 24.588 57.6893C27.2071 58.2169 29.8107 58.8238 32.3928 59.5021C31.2543 59.4617 30.112 59.5221 28.9982 59.7332C27.0651 60.0988 25.2141 60.894 23.7074 62.0457C22.6079 62.8859 21.4939 64.0623 20.9936 65.3572C20.9907 65.3616 20.9844 65.3648 20.9815 65.3693C20.9422 65.4251 20.9265 65.4878 20.9285 65.551C20.8237 65.8648 20.7432 66.1817 20.7223 66.5045C20.7086 66.7139 20.8903 66.7938 21.0612 66.7663C21.1604 66.8329 21.2923 66.8547 21.4462 66.7834C22.3023 66.3858 23.1225 65.9756 24.0585 65.7427C24.9487 65.5207 25.8674 65.4053 26.7886 65.3617C28.7046 65.2711 30.6174 65.4902 32.5324 65.522C34.3694 65.5525 36.2204 65.4174 37.9248 64.753C39.205 64.2548 40.6689 63.3657 41.2544 62.1589C44.1977 63.1542 47.0984 64.2465 49.9363 65.4469C58.0187 68.8647 65.6581 73.1212 72.6754 78.081C73.053 78.3481 73.4172 78.6318 73.7903 78.9036C72.844 78.5215 71.8878 78.1628 70.9231 77.8233C70.8995 77.8029 70.8876 77.7768 70.8476 77.7636C70.6843 77.7123 70.5237 77.6795 70.3626 77.6396C69.8851 77.4765 69.404 77.3229 68.9222 77.1686C68.9072 77.1031 68.8802 77.0374 68.8324 76.9727C67.6296 75.3545 65.9902 74.009 64.0924 73.0693C60.7896 71.4353 56.8001 70.9919 53.2191 72.1568C51.4431 72.7346 49.7444 73.6543 48.347 74.7958C46.9893 75.9037 45.7176 77.2949 45.2168 78.9043C45.1917 78.984 45.2141 79.0542 45.2537 79.1149C44.8742 79.3927 45.255 79.8693 45.6673 79.844C46.7892 79.7766 47.7789 79.5707 48.9146 79.7171C49.9688 79.8537 50.9823 80.1506 51.9903 80.447C54.0625 81.0566 56.1466 81.6224 58.3466 81.2672C62.0895 80.6633 65.4567 77.8997 69.3252 78.0069C71.0923 78.5395 72.8481 79.1137 74.6241 79.6329C74.6828 79.6503 74.7312 79.6415 74.7736 79.6251C78.841 82.6461 82.6823 85.9046 86.2529 89.3933C82.7934 86.9942 78.5694 85.5736 74.1979 85.3499C72.0251 85.2381 69.7991 85.3916 67.6877 85.8787C65.7804 86.3188 63.5852 87.1806 62.6497 88.8437C62.6177 88.8438 62.5858 88.8331 62.553 88.8353C62.2758 88.852 62.126 89.2212 62.322 89.3962C62.7476 89.7734 63.303 89.9228 63.8348 90.1518C64.439 90.4119 65.0229 90.7103 65.5985 91.0186C66.6994 91.6093 67.7812 92.2298 68.877 92.8301C72.5526 94.8425 76.4407 96.7843 80.7539 97.3786C84.1805 97.8501 88.1075 97.4937 90.9022 95.5037C90.9223 95.5186 90.9425 95.5349 90.9626 95.5498C91.0533 95.6642 91.1494 95.7749 91.2587 95.877C91.3365 95.9482 91.4396 95.9836 91.5459 95.993C92.4874 96.6985 93.4094 97.428 94.2929 98.2004C94.3056 98.212 94.3214 98.2084 94.3356 98.2171C98.6535 103.494 102.42 109.123 105.562 115.038C106.223 116.284 106.847 117.546 107.453 118.814C107.257 118.563 107.053 118.315 106.872 118.056C106.551 117.597 106.254 117.124 105.976 116.642C105.825 116.382 105.412 115.708 104.992 115.798C102.508 112.27 99.8533 108.799 96.3034 106.067C90.0514 101.254 81.5864 100.237 73.7001 101.691C69.4241 102.48 65.348 103.991 61.4905 105.806C59.4789 106.752 57.5261 107.785 55.6069 108.874C54.9227 109.263 54.2353 109.653 53.5515 110.049C53.4686 110.057 53.3856 110.066 53.3027 110.074C53.0636 110.098 52.9316 110.245 52.8852 110.415C52.9085 110.529 52.9369 110.648 52.9675 110.748C52.9812 110.792 52.9957 110.835 53.0111 110.879C53.0182 110.891 53.0602 110.995 53.0602 110.995C53.1061 111.097 53.1574 111.196 53.2135 111.293C53.2668 111.384 53.3256 111.473 53.3859 111.56C53.3989 111.577 53.4232 111.609 53.4353 111.625C53.4542 111.647 53.4739 111.67 53.4928 111.692C56.1679 111.668 58.8231 112.463 61.3527 113.416C69.4661 116.478 76.837 121.172 85.505 122.993C89.2908 123.788 93.2361 124.005 97.0529 123.234C100.225 122.593 103.738 121.235 105.881 118.919C107.05 120.109 108.154 121.354 109.196 122.633C109.472 123.274 109.728 123.922 109.992 124.567C110.144 125.039 110.296 125.509 110.449 125.981C111.096 127.972 111.711 129.972 112.339 131.968C112.658 132.986 112.982 134.004 113.305 135.022C113.607 135.974 113.851 136.96 114.293 137.87C114.403 138.097 114.769 137.976 114.737 137.745C114.723 137.645 114.698 137.547 114.681 137.448C114.683 137.433 114.694 137.424 114.69 137.408C114.54 136.429 114.357 135.463 114.099 134.501C113.355 131.725 112.459 128.985 111.442 126.28C111.388 126.093 111.331 125.907 111.277 125.719C110.703 123.714 110.125 121.71 109.549 119.706C109.267 118.725 108.99 117.741 108.701 116.761C108.544 116.23 108.387 115.699 108.23 115.168C108.178 114.993 108.132 114.815 108.082 114.637C108.122 113.11 108.334 111.608 108.871 110.091C109.702 107.745 111.026 105.566 112.562 103.534C115.757 99.3053 119.957 95.7839 123.234 91.6108C124.85 89.552 126.217 87.3343 127.125 84.9461C127.956 82.7617 128.42 80.4781 128.642 78.182C129.614 68.1584 125.625 58.5298 125.194 48.5884C124.916 48.6332 124.638 48.6838 124.37 48.7598C123.73 48.9405 123.143 49.2296 122.618 49.6035C120.56 54.4316 117.371 58.7733 114.044 62.9704C107.931 70.6824 101.181 78.5103 100.184 88.2673C99.199 97.9144 102.927 107.481 107.11 116.259C107.127 116.327 107.136 116.399 107.153 116.466C106.408 114.991 105.637 113.528 104.819 112.086C101.662 106.524 97.971 101.198 93.7995 96.1988C93.3479 95.2815 92.9382 94.3529 92.5678 93.4123C92.6405 93.1972 92.743 92.9965 92.8322 92.7893C92.9298 92.73 92.9773 92.6342 92.9389 92.5374C93.5524 91.204 94.4227 90.0003 95.141 88.6901C96.0075 87.1108 96.2374 85.3903 96.0228 83.6527C95.536 79.7267 93.0065 76.3148 92.2592 72.4464C92.1625 71.9464 91.3521 72.0481 91.3377 72.4994C88.418 75.2512 86.7146 79.0418 86.937 82.8579C87.1277 86.117 88.6732 89.3587 91.2173 91.706C91.5157 92.6075 91.8463 93.4996 92.2445 94.3655C91.596 93.6231 90.9382 92.8868 90.269 92.1605C86.0958 87.6364 81.4675 83.4563 76.4972 79.6351C77.0908 78.8512 77.3326 77.7909 77.4965 76.8689C77.6742 75.865 77.6856 74.8402 77.5758 73.8297C77.3357 71.6153 76.4393 69.4931 75.2269 67.5658C73.9792 65.5812 72.3869 63.8382 70.8203 62.0558C69.3601 60.3951 68.0597 58.639 67.3964 56.5972C67.4428 56.1595 67.4644 55.7223 67.3641 55.3124C67.3223 55.143 67.0271 55.0425 66.9172 55.2234C66.7934 55.4286 66.7036 55.6546 66.6353 55.891C66.5235 55.9266 66.4194 55.9999 66.3491 56.1306C65.4613 57.7721 64.7884 59.4984 64.4582 61.3021C63.6799 65.5535 64.9464 70.0747 67.7788 73.5263C64.046 71.1719 60.1532 69.0208 56.1403 67.0697C56.1766 67.0306 56.2128 66.9915 56.2222 66.932C56.5018 65.212 55.9489 63.3061 55.3377 61.6844C54.7123 60.0253 53.78 58.4548 52.6167 57.0507C51.2742 55.429 49.5444 54.1431 47.9837 52.7023C47.2194 51.9963 46.4918 51.2461 45.9132 50.4068C45.6378 50.0074 45.3975 49.5897 45.2019 49.1534C45.0164 48.7417 44.9576 48.2586 44.6102 47.931C44.4873 47.8151 44.3056 47.7928 44.1581 47.8487C44.0485 47.7833 43.8954 47.7841 43.7773 47.9063C43.0967 48.6115 42.8322 49.5987 42.6428 50.4945C42.4386 51.4565 42.4121 52.4389 42.51 53.4111C42.7197 55.4995 43.5759 57.4796 44.8042 59.2499C46.0446 61.0369 47.6379 62.5985 49.3512 64.0299C48.6999 63.7591 48.0552 63.4771 47.3989 63.2173C43.2637 61.5809 39.0479 60.1354 34.7257 58.9476C30.4329 57.7685 25.9886 56.6888 21.5272 56.1813C20.9988 56.1235 20.8032 56.8994 21.3303 57.0163ZM90.7224 75.546C90.4834 76.4168 90.3175 77.3028 90.1748 78.19C89.5348 82.1671 89.7079 86.3556 90.786 90.3163C89.0492 88.2043 87.947 85.7212 87.7907 83.0364C87.5892 79.5863 88.9125 76.147 91.4207 73.5334C91.0898 74.1696 90.9044 74.8838 90.7224 75.546ZM93.5608 89.9029C93.7425 89.2925 93.8744 88.6665 93.9808 88.0568C94.2351 86.5971 94.2815 85.1186 94.1743 83.6458C94.0526 81.9628 93.7387 80.2954 93.3385 78.6501C93.2043 78.0964 93.0488 77.5473 92.8971 76.9973C93.8342 79.1154 94.8556 81.2086 95.209 83.4831C95.5066 85.399 95.1887 87.2071 94.1734 88.918C93.9788 89.2453 93.7698 89.5734 93.5608 89.9029ZM92.4099 92.0067C92.2467 91.8582 92.0773 91.7143 91.921 91.5605C91.257 89.5194 90.7898 87.4295 90.604 85.281C90.425 83.2242 90.4791 81.1507 90.7585 79.1032C90.9026 78.0447 91.1295 77.0039 91.395 75.9641C91.4959 75.5692 91.6276 75.1649 91.7527 74.758C91.8435 75.2943 92.05 75.8367 92.1896 76.344C92.4097 77.1384 92.625 77.933 92.8181 78.733C93.1817 80.2447 93.471 81.7744 93.6071 83.317C93.7352 84.7766 93.7274 86.2576 93.5273 87.7118C93.3257 89.1826 92.7573 90.547 92.405 91.9767C92.4023 91.9854 92.4137 91.9892 92.415 91.9971C92.4128 92.0008 92.4113 92.0037 92.4099 92.0067ZM115.974 62.1081C115.973 62.1111 115.971 62.1148 115.969 62.1178C114.755 64.2512 113.589 66.4054 112.453 68.5733C108.614 75.9013 105.352 83.5362 104.004 91.5765C103.16 96.6049 103.062 101.822 104.098 106.838C103.329 104.753 102.648 102.64 102.131 100.477C101.016 95.8137 100.617 90.988 101.485 86.2615C102.351 81.5466 104.628 77.1876 107.411 73.1501C110.03 69.3508 113.088 65.7733 115.974 62.1081ZM121.247 54.7151C119.959 57.9527 118.738 61.2116 117.547 64.4776C115.79 69.2987 114.026 74.118 112.33 78.957C110.725 83.5355 109.193 88.1408 108.055 92.8325C106.993 97.2104 106.275 101.663 106.18 106.147C106.134 108.32 106.215 110.57 106.491 112.792C106.43 112.648 106.372 112.502 106.311 112.359C105.043 108.588 104.319 104.702 104.171 100.762C103.887 93.2499 105.607 85.7945 108.401 78.739C109.965 74.7879 111.831 70.9285 113.908 67.1735C114.966 65.2627 116.06 63.3674 117.168 61.4794C118.14 59.8239 119.27 58.1825 120.113 56.464C120.498 55.8836 120.886 55.3059 121.247 54.7151ZM108.139 109.304C108.247 108.157 108.433 107.016 108.736 105.873C109.334 103.617 110.243 101.435 111.316 99.3281C113.446 95.1445 116.232 91.2747 118.711 87.2581C121.121 83.3505 123.128 79.3059 124.2 74.9289C125.485 69.6781 125.629 64.2546 125.395 58.8546C125.831 61.1425 126.298 63.4275 126.703 65.7197C127.545 70.482 128.115 75.3542 127.323 80.1577C126.934 82.5113 126.209 84.8224 125.079 86.9785C123.788 89.4417 121.992 91.6645 120.087 93.7708C116.635 97.5873 112.696 101.103 110.046 105.448C109.323 106.629 108.664 107.94 108.139 109.304ZM107.271 112.254C107.238 111.985 107.196 111.719 107.171 111.448C106.945 109.03 106.938 106.598 107.098 104.176C107.713 94.8599 110.823 85.8782 113.984 77.0446C117.143 68.2169 120.649 59.4915 123.826 50.6708C124.324 55.2297 124.796 59.8079 124.721 64.3925C124.651 68.6155 124.093 72.8631 122.813 76.936C121.404 81.4173 118.942 85.5058 116.35 89.5133C113.913 93.284 111.382 97.0309 109.599 101.1C108.118 104.48 106.971 108.329 107.329 112.012C107.314 112.094 107.285 112.173 107.271 112.254ZM100.819 112.271C98.8616 110.715 96.4495 109.529 94.1757 108.661C87.911 106.267 80.785 105.449 74.0153 105.758C70.6548 105.911 67.3167 106.373 64.061 107.141C62.466 107.517 60.8929 107.967 59.3421 108.472C58.5762 108.723 57.7865 108.977 57.0191 109.272C59.022 108.216 61.0431 107.185 63.1282 106.263C70.181 103.142 78.2725 101.151 86.12 102.728C90.1577 103.541 93.7655 105.347 96.7244 107.939C98.2394 109.267 99.5733 110.738 100.819 112.271ZM102.121 114.291C101.861 114.086 101.606 113.877 101.337 113.681C98.1179 111.341 94.4112 109.57 90.399 108.616C86.603 107.712 82.6468 107.444 78.7291 107.542C74.5648 107.646 70.4318 108.145 66.3118 108.676C63.9757 108.977 61.6374 109.227 59.2962 109.467C59.6516 109.33 60.0087 109.194 60.3698 109.072C62.0432 108.51 63.7601 108.05 65.4952 107.67C71.7505 106.298 78.2922 106.011 84.6538 106.897C88.0783 107.373 91.4889 108.184 94.6513 109.465C96.361 110.158 98.0064 111.003 99.4947 112.03C100.478 112.709 101.317 113.48 102.121 114.291ZM104.701 117.768C101.552 118.673 98.4102 118.928 95.0978 118.588C88.3132 117.893 81.8453 115.507 75.3841 113.663C72.3088 112.785 69.1997 111.99 66.0259 111.452C64.4366 111.182 62.8317 110.978 61.2187 110.869C60.755 110.837 60.277 110.807 59.7945 110.782C62.3627 110.515 64.9209 110.114 67.4522 109.775C75.2257 108.733 83.3775 107.701 91.0545 109.776C96.449 111.235 100.911 114.18 104.701 117.768ZM105.444 118.471C103.931 119.586 102.404 120.621 100.588 121.342C98.6174 122.126 96.4957 122.589 94.3539 122.783C85.8337 123.554 77.809 119.84 70.5081 116.403C66.98 114.741 63.423 112.967 59.6695 111.726C60.4798 111.734 61.2912 111.748 62.1004 111.82C63.9935 111.989 65.8734 112.278 67.7292 112.65C74.4533 114.002 80.8393 116.398 87.5093 117.926C90.5591 118.624 93.6833 119.192 96.8364 119.31C99.5781 119.414 102.561 119.197 105.085 118.132C105.203 118.247 105.327 118.355 105.444 118.471ZM65.5823 89.9604C66.0456 90.0285 66.5105 90.0965 66.9695 90.1857C68.1865 90.4225 69.3797 90.7332 70.5622 91.0818C72.8481 91.7562 75.082 92.5583 77.342 93.2979C79.4484 93.9873 81.5827 94.6184 83.7774 95.0423C85.707 95.4146 87.7906 95.7185 89.7764 95.4885C88.329 96.1199 86.7944 96.5697 85.1858 96.7227C81.0987 97.1111 77.1336 95.9561 73.5493 94.2792C71.6043 93.3699 69.7518 92.3093 67.9035 91.2522C67.1352 90.8142 66.3669 90.3747 65.5823 89.9604ZM64.9669 89.2215C65.4126 89.1493 65.855 89.0758 66.2766 89.0307C67.4513 88.9046 68.6351 88.827 69.8168 88.8093C74.1566 88.7444 78.4913 89.4781 82.5052 90.9547C85.3479 92.0001 87.9326 93.4284 90.3274 95.0975C88.0384 95.0013 85.8069 94.9161 83.5553 94.4517C81.3152 93.9897 79.1353 93.319 76.9817 92.6038C74.6802 91.8387 72.3952 91.0268 70.0516 90.3674C68.9466 90.0569 67.8325 89.7691 66.7032 89.5374C66.1913 89.4328 65.6767 89.3369 65.1605 89.2562C65.0974 89.2462 65.0317 89.2328 64.9669 89.2215ZM87.0306 91.1223C87.8819 91.8357 88.668 92.6141 89.3799 93.4421C89.4683 93.5452 89.5469 93.6566 89.6322 93.7613C89.2555 93.5113 88.8841 93.2546 88.4938 93.0197C84.585 90.6707 80.1137 89.1034 75.4704 88.4296C73.2511 88.1077 70.9928 87.9885 68.7451 88.0696C67.6785 88.1078 66.617 88.1954 65.5608 88.3325C64.944 88.4127 64.2639 88.4938 63.6383 88.6739C65.1076 87.2029 67.1808 86.593 69.3983 86.278C73.4173 85.7071 77.5964 86.215 81.3057 87.7067C83.4033 88.5505 85.3499 89.7146 87.0306 91.1223ZM49.4019 78.1529C49.5909 78.0633 49.7753 77.9646 49.9694 77.882C51.0568 77.4196 52.1867 77.0436 53.3477 76.7613C55.7179 76.1849 58.1518 75.9942 60.5966 76.1781C62.075 76.2895 63.5122 76.5347 64.9316 76.8462C64.2795 76.9404 63.641 77.1196 63.1086 77.3161C61.4123 77.942 59.884 78.8968 58.1425 79.4312C56.1912 80.0288 54.4413 79.7127 52.5718 79.0726C51.6486 78.7571 50.501 78.2751 49.4019 78.1529ZM67.043 76.611C63.779 75.7288 60.3973 75.1732 56.9751 75.3545C54.987 75.4593 53.0327 75.8353 51.1655 76.457C50.2534 76.76 49.3655 77.1209 48.5113 77.5378C47.9528 77.8104 47.2585 78.1225 46.8197 78.5823C46.549 78.6167 46.2885 78.673 46.0372 78.7518C47.2118 77.1904 48.3957 75.7487 50.1464 74.63C51.969 73.4641 54.1627 72.7737 56.3917 72.6172C60.4246 72.3329 64.424 73.8922 67.043 76.611ZM67.5439 77.4929C64.4241 77.8888 61.4908 79.853 58.3972 80.3686C56.9913 80.6035 55.6632 80.4151 54.3553 80.0897C55.4015 80.2554 56.4513 80.2734 57.5305 79.9906C59.2393 79.5434 60.7174 78.6356 62.3452 78.0188C63.1253 77.7227 63.9801 77.5117 64.8163 77.398C65.7281 77.2743 66.5459 77.4127 67.4484 77.4773C67.4556 77.4777 67.4602 77.4731 67.4666 77.4728C67.4934 77.4795 67.5186 77.4862 67.5439 77.4929ZM75.4027 78.3537C75.7773 76.586 75.6774 74.622 75.3569 72.8534C75.0347 71.0697 74.3835 69.3391 73.4558 67.7367C72.4988 66.0831 71.2084 64.6159 70.0262 63.091C69.4134 62.2994 68.8328 61.4832 68.3772 60.6078C68.1647 60.2004 67.9748 59.7796 67.822 59.3506L67.8219 59.3492C68.2771 60.1886 68.8438 60.9867 69.4532 61.7454C70.8755 63.5152 72.4775 65.1606 73.7714 67.0127C75.0923 68.9032 76.1441 70.9813 76.5367 73.1985C76.714 74.1979 76.7575 75.2137 76.641 76.222C76.5229 77.2454 76.1205 78.1333 75.8114 79.0966C75.7285 79.0336 75.6509 78.9667 75.5672 78.9045C75.4636 78.7892 75.3614 78.6709 75.2586 78.5548C75.329 78.5105 75.383 78.4446 75.4027 78.3537ZM72.0194 74.5085C70.0774 71.654 68.6794 68.5233 67.9232 65.2449C67.5356 63.5659 67.308 61.8533 67.2647 60.1378C67.2572 59.8647 67.2705 59.5919 67.2718 59.3191C67.3753 59.6575 67.5128 59.9879 67.6357 60.2736C67.9842 61.0842 68.4639 61.8476 68.9795 62.5798C70.1232 64.2022 71.5211 65.6701 72.6213 67.3176C73.7127 68.9511 74.4429 70.7608 74.8145 72.6364C75.1771 74.4678 75.0736 76.1975 74.7818 78.0116C73.7994 76.884 72.8482 75.7268 72.0194 74.5085ZM71.1163 75.713C68.5179 73.608 66.5138 70.958 65.6359 67.8524C64.7279 64.6402 64.9244 61.0274 66.4006 57.9472C66.3989 57.9746 66.3974 58.005 66.3958 58.0324C66.3348 58.9732 66.3396 59.9153 66.398 60.8555C66.6142 64.3516 67.5512 67.8064 69.0998 71.0164C70.1354 73.1622 71.4492 75.2509 73.0902 77.0881C72.4376 76.6244 71.7788 76.1654 71.1163 75.713ZM55.3394 65.4412C54.3558 64.2496 53.2715 63.1203 52.2902 61.9264C51.1658 60.5579 50.0971 59.1551 49.1123 57.7023C47.786 55.7473 46.6087 53.7168 45.5589 51.6322C45.8244 51.9579 46.1023 52.2759 46.3986 52.5786C47.8949 54.1124 49.7019 55.3731 51.1775 56.9244C52.5157 58.3303 53.5609 59.9415 54.2937 61.6697C54.6605 62.5335 54.9476 63.4204 55.1476 64.3273C55.2288 64.6971 55.2821 65.0689 55.3394 65.4412ZM50.5661 63.6103C48.7689 62.2276 47.1051 60.6665 45.8056 58.8837C44.6121 57.2456 43.7692 55.4009 43.5001 53.4507C43.3769 52.5552 43.3802 51.6431 43.5217 50.7495C43.5741 50.4181 43.6649 50.0985 43.7656 49.7828C45.0976 52.7395 46.6902 55.5975 48.5607 58.3093C49.5493 59.7418 50.598 61.1462 51.7338 62.4897C52.7191 63.6554 53.7446 64.8357 54.9214 65.8576C54.7853 65.8338 54.6484 65.8093 54.5149 65.7739C54.0371 65.6489 53.5743 65.4771 53.1357 65.2661C52.2057 64.8177 51.3636 64.2241 50.5661 63.6103ZM22.84 65.1144C23.0126 65.0061 23.1847 64.9016 23.3552 64.8122C24.0379 64.4538 24.7402 64.1276 25.4603 63.8337C26.9334 63.2328 28.4751 62.764 30.057 62.4538C31.6754 62.1361 33.3312 61.9678 34.9875 61.9629C36.5812 61.9581 38.1204 62.1927 39.7009 62.3072C39.7863 62.3133 39.8477 62.2809 39.8957 62.2361C39.9956 62.2717 40.0925 62.3132 40.1938 62.3458C39.8597 62.7014 39.5009 63.0315 39.0503 63.3134C38.2761 63.7978 37.3803 64.1331 36.4676 64.3397C34.6532 64.7494 32.7828 64.6823 30.9325 64.5755C29.1369 64.4718 27.3357 64.3389 25.5408 64.5288C24.6602 64.623 23.7088 64.7983 22.84 65.1144ZM35.3552 60.7909C36.1767 60.968 36.986 61.1968 37.7794 61.458C36.7962 61.3418 35.7926 61.3051 34.8323 61.3087C33.1842 61.3161 31.538 61.4702 29.9245 61.7755C28.3094 62.0807 26.7244 62.5199 25.2071 63.1056C24.4155 63.4116 23.6421 63.7555 22.8934 64.1386C22.8623 64.1545 22.8248 64.1721 22.7912 64.1888C23.2884 63.5981 23.8477 63.0577 24.4914 62.591C25.959 61.5268 27.7415 60.8256 29.5995 60.547C31.5059 60.261 33.4816 60.3871 35.3552 60.7909Z" fill="#5B5853"/>
<path d="M44.0581 97.5241C43.8966 97.6087 43.7369 97.6961 43.59 97.8008C43.4982 97.8669 43.4695 97.953 43.468 98.0406C43.3925 98.317 43.7226 98.654 44.0622 98.4969C44.232 98.4191 44.3963 98.3408 44.5645 98.263C45.3582 98.0954 46.1366 97.8933 46.9592 97.8176C48.0144 97.7205 49.0815 97.7685 50.1327 97.8733C52.3069 98.0908 54.4396 98.5658 56.6197 98.7593C60.2834 99.0855 65.177 98.3696 66.4248 94.6629C66.4815 94.4944 66.2947 94.393 66.1586 94.4476C65.6335 93.7153 64.6295 93.121 63.8453 92.6782C62.8887 92.1376 61.8589 91.6959 60.7878 91.3725C58.6538 90.7297 56.3499 90.5392 54.1242 90.8775C51.8811 91.218 49.7319 92.0972 47.9257 93.3445C47.0195 93.9704 46.1991 94.6962 45.4872 95.5007C44.9466 96.1096 44.4003 96.7891 44.0581 97.5241ZM47.9359 96.8388C48.4472 96.6683 48.9707 96.5159 49.5251 96.4036C51.4859 96.0043 53.4924 96.0197 55.4698 96.2848C57.4207 96.5476 59.3787 96.9665 61.3664 96.7969C62.3499 96.7126 63.5129 96.4503 64.4591 95.9459C64.4115 95.9905 64.3598 96.0332 64.318 96.0826C64.3157 96.0849 64.3151 96.0885 64.3128 96.0908C64.2013 96.2024 64.0906 96.3147 63.9701 96.4217C63.6425 96.7117 63.2876 96.9808 62.9093 97.2158C62.5241 97.4548 62.1106 97.6557 61.6791 97.8187C61.5225 97.8773 61.3542 97.9234 61.1866 97.9703C59.1535 98.4133 57.0512 98.1751 55.0297 97.8153C53.0235 97.4583 51.0502 96.9899 48.9996 96.8676C48.6638 96.8472 48.2986 96.8427 47.9359 96.8388ZM46.9094 96.4723C46.9549 96.4478 46.9978 96.4185 47.0443 96.3961C47.8281 96.0029 48.639 95.655 49.4699 95.3536C51.1731 94.7349 52.9586 94.3147 54.7749 94.0932C56.6251 93.8664 58.506 93.8506 60.3585 94.0428C61.2883 94.1391 62.21 94.2889 63.1157 94.4968C63.6753 94.6254 64.4234 94.9595 65.0557 94.9654C64.4921 95.401 63.9285 95.7656 63.171 96.0133C62.1995 96.3317 61.1472 96.4394 60.1196 96.4153C58.077 96.3665 56.0911 95.8715 54.0594 95.7181C52.2258 95.5795 50.3519 95.7227 48.5558 96.081C48.0147 96.1877 47.4608 96.3221 46.9094 96.4723ZM45.9801 95.9361C46.659 95.1813 47.4405 94.5004 48.2953 93.9093C50.0079 92.7225 52.0204 91.9181 54.1538 91.6209C56.2674 91.3269 58.4565 91.5387 60.4669 92.1753C61.4523 92.4878 62.3939 92.9 63.271 93.4129C63.6956 93.6614 64.1085 93.9277 64.5011 94.2158C64.5061 94.2199 64.5119 94.2246 64.5169 94.2287C64.0357 94.0791 63.4992 93.9939 63.132 93.9098C62.2392 93.7055 61.3309 93.5514 60.4158 93.4494C58.5417 93.2396 56.6379 93.2572 54.7643 93.4787C52.8908 93.7001 51.0447 94.134 49.2873 94.7632C48.3907 95.0851 47.5161 95.459 46.6745 95.8859C46.304 96.074 45.9133 96.2701 45.5338 96.4823C45.6747 96.2975 45.8205 96.1139 45.9801 95.9361Z" fill="#5B5853"/>
<path d="M24.5685 45.1316C24.4443 45.0869 24.3179 45.0445 24.1875 45.0167C24.1055 44.999 24.0398 45.0232 23.9838 45.0606C23.7784 45.1444 23.7134 45.4605 23.9617 45.5637C24.0862 45.6156 24.2074 45.6648 24.3311 45.7146C24.7873 46.0424 25.2599 46.3476 25.6709 46.7312C26.1994 47.2229 26.6431 47.7852 27.0433 48.3635C27.8712 49.5614 28.5202 50.8519 29.3654 52.0417C30.7861 54.0425 33.4032 56.2056 36.2735 55.2012C36.4035 55.1558 36.3837 55.0162 36.2895 54.9708C36.5152 54.3812 36.4408 53.6097 36.3701 53.017C36.2841 52.2939 36.1037 51.5761 35.8307 50.891C35.2872 49.5258 34.384 48.2744 33.1864 47.295C31.9795 46.3081 30.4767 45.6072 28.8971 45.2432C28.1049 45.0605 27.2864 44.9654 26.4685 44.96C25.8474 44.9575 25.1801 44.9796 24.5685 45.1316ZM26.7166 46.7944C27.0499 46.9782 27.3776 47.1768 27.6936 47.407C28.8125 48.2243 29.6922 49.248 30.4036 50.3675C31.1053 51.4723 31.711 52.6497 32.6984 53.5813C33.187 54.0423 33.8666 54.5165 34.6009 54.7722C34.5521 54.7673 34.5023 54.7603 34.4521 54.7612C34.4489 54.7614 34.4449 54.7623 34.4449 54.7623C34.3254 54.7543 34.2069 54.7485 34.0862 54.734C33.7601 54.6962 33.4342 54.6352 33.1197 54.5475C32.7994 54.458 32.4909 54.3367 32.1979 54.1908C32.0919 54.1372 31.9883 54.072 31.8849 54.0082C30.7066 53.1735 29.9233 52.0031 29.2525 50.8201C28.5862 49.6448 28.0046 48.4387 27.1717 47.3454C27.0346 47.1665 26.8751 46.9794 26.7166 46.7944ZM26.4914 46.1121C26.527 46.1241 26.5639 46.1332 26.5995 46.1467C27.1927 46.3701 27.7694 46.6283 28.3275 46.9157C29.4691 47.5052 30.523 48.2249 31.4681 49.047C32.4297 49.8849 33.2739 50.8307 33.9755 51.8543C34.3272 52.3675 34.6429 52.9013 34.9143 53.4517C35.0822 53.7913 35.2048 54.3185 35.4811 54.6419C34.9582 54.5492 34.4802 54.4238 33.9901 54.1498C33.36 53.7978 32.8261 53.3115 32.386 52.7808C31.5107 51.7236 30.9386 50.4988 30.1345 49.4012C29.409 48.4106 28.4883 47.5244 27.4672 46.7719C27.1589 46.5463 26.829 46.3254 26.4914 46.1121ZM26.4136 45.4038C27.1865 45.4142 27.9581 45.5102 28.7068 45.6812C30.2082 46.0251 31.6028 46.69 32.7346 47.6399C33.8554 48.581 34.6941 49.7834 35.1867 51.0844C35.4286 51.7225 35.5884 52.3811 35.6558 53.0522C35.6893 53.3773 35.7051 53.7047 35.6997 54.0302C35.7 54.0345 35.6995 54.0396 35.6989 54.0432C35.579 53.734 35.3942 53.4234 35.2843 53.2006C35.0158 52.658 34.7102 52.1295 34.3677 51.6209C33.6681 50.5784 32.8119 49.6216 31.8431 48.7695C30.8735 47.9182 29.7841 47.1741 28.612 46.5615C28.0134 46.2486 27.3911 45.9715 26.7517 45.733C26.4694 45.6286 26.1736 45.5161 25.8729 45.4176C26.0521 45.409 26.233 45.4017 26.4136 45.4038Z" fill="#5B5853"/>
</svg>
