<svg width="95" height="228" viewBox="0 0 95 228" fill="none" xmlns="http://www.w3.org/2000/svg">
<path d="M94.3519 70.6331C93.2378 68.192 90.213 67.569 87.2721 67.7303C87.6444 67.5699 88.0157 67.4066 88.3601 67.2619C89.9217 66.6017 93.068 65.4339 93.1848 63.3282C93.3256 60.8019 89.2301 61.5726 88.035 61.9971C87.4901 62.1907 86.8959 62.4538 86.2959 62.7599C87.7138 61.1247 88.7729 59.194 89.2677 56.8135C89.3082 56.6257 89.1848 56.4281 88.9812 56.4311C86.1908 56.4682 84.391 58.2551 83.111 60.5222C83.602 57.6624 82.5805 54.7498 80.4922 51.9516C80.3698 51.7863 80.0669 51.714 79.9598 51.9516C78.9991 54.0916 78.5535 56.3029 78.3731 58.5505C78.079 57.9969 77.7751 57.4492 77.507 56.878C77.4414 56.7372 77.2899 56.6863 77.1404 56.6795C77.0826 56.6286 77.017 56.5885 76.9427 56.5973C76.881 56.6071 76.8212 56.611 76.7604 56.6081C76.6196 56.6081 76.5067 56.7029 76.4633 56.836C75.3097 60.4322 74.9721 65.4906 77.9912 68.2546C77.9603 68.3768 77.9574 68.5098 78.0307 68.6419C76.1132 69.5534 74.2526 70.6576 72.4402 71.8938C72.2386 71.9212 72.0563 71.9789 71.9087 72.0816C71.8181 72.1452 71.7949 72.2411 71.82 72.3261C70.3491 73.3599 68.909 74.4739 67.4998 75.6485C68.3717 74.2314 68.8212 72.4308 68.064 71.0165C67.9801 70.8601 67.7448 70.8268 67.6252 70.9588C66.3905 72.3173 65.7327 74.3399 66.2584 76.1288C66.1378 76.3586 66.0288 76.5904 65.9439 76.8261C65.9237 76.8818 65.9314 76.9288 65.9459 76.9718C61.8591 80.5387 58.0086 84.4929 54.3125 88.0892C54.2266 88.1303 54.1436 88.1752 54.0578 88.2134C53.9797 88.2496 53.9681 88.3308 53.9893 88.4022C53.5302 88.8472 53.073 89.2892 52.6177 89.7215C52.039 90.1773 51.5085 90.6878 51.0581 91.2864C50.6983 91.6551 50.3221 92.0111 49.9729 92.3867C51.8509 88.943 53.0065 85.1199 54.0106 81.2899C54.5555 79.2115 55.1564 77.0686 55.7159 74.8945C56.555 74.6656 57.3614 73.7903 57.9073 73.1516C58.5179 72.4367 58.9018 71.5594 58.841 70.6058C58.8256 70.3603 58.5806 70.2009 58.3597 70.3251C57.5591 70.775 56.8695 71.5975 56.3447 72.3594C57.045 69.3744 57.6054 66.3503 57.78 63.3663C57.9556 63.4534 58.1861 63.4407 58.3269 63.2333C58.486 62.9986 58.6384 62.7639 58.7879 62.5262C58.9635 62.2514 59.1149 61.9638 59.277 61.6812C63.4033 60.5486 67.5982 55.7748 66.0201 51.4978C65.9256 51.2426 65.5234 51.3462 65.6112 51.6123C66.948 55.6212 63.2509 58.8644 59.8384 60.6572C60.0592 60.2219 60.2743 59.7847 60.4701 59.3358C60.5608 59.2106 60.6206 59.0639 60.6794 58.8615C60.6987 58.796 60.6766 58.7431 60.6621 58.6893C63.6908 56.6003 65.5456 52.5512 65.1636 48.9657C65.1463 48.7945 65.0122 48.6684 64.8347 48.7124C63.5528 49.0293 62.7619 49.8489 62.0944 50.8582C62.1687 49.4518 62.1378 48.0874 62.0722 46.9304C62.0635 46.769 61.9034 46.5998 61.7317 46.6673C59.8615 47.4057 58.6008 48.9676 58.1128 50.8875C57.6112 49.9623 55.4053 46.7817 54.6337 48.6459C54.5507 48.3163 54.4832 47.9896 54.4504 47.6708C54.4234 47.395 54.1417 47.2659 53.9266 47.4507C51.2953 49.7139 51.4825 57.148 54.6442 59.3661C53.2543 58.974 51.9927 58.2463 50.9655 57.2017C50.2681 56.4927 49.835 55.5606 49.7173 54.5728C49.5717 53.3649 50.3125 52.4495 50.8034 51.446C50.8642 51.3228 50.734 51.1506 50.6028 51.2416C48.8145 52.4749 48.7673 54.8202 49.727 56.6003C50.7986 58.5886 53.0913 59.7065 55.2365 59.8503C55.3059 59.8542 55.3455 59.8092 55.3677 59.7554C55.5442 59.8248 55.7159 59.8982 55.9059 59.9383C56.1162 60.7002 56.2531 61.4797 56.3525 62.2836C56.3988 62.6631 56.9042 62.7746 57.0296 62.3766C57.0344 62.3619 57.0383 62.3462 57.0421 62.3316C57.1173 62.3286 57.1868 62.2973 57.2369 62.2357C56.747 67.9064 55.6705 73.938 53.9951 79.7495C54.298 77.6036 54.2555 75.4246 53.918 73.1663C53.1627 68.1294 48.8541 65.9992 46.6829 61.7956C46.5584 61.554 46.1967 61.7232 46.2594 61.9756C47.4574 66.7552 46.8845 71.6982 47.4709 76.5611C48.0921 81.7173 50.5806 85.8201 49.6807 91.2238C49.0798 92.4835 48.4509 93.7139 47.7757 94.8914C45.6122 97.5253 43.7198 100.333 42.0964 103.296C41.6527 99.5078 41.2553 95.7159 40.8965 91.9202C42.0251 90.3377 42.6125 88.096 42.2141 86.2475C42.1601 85.9991 41.8717 85.9786 41.7087 86.1116C41.2804 86.4578 40.8531 87.027 40.5097 87.6755C40.1249 83.0963 39.8162 78.5093 39.633 73.9096C39.5876 72.777 39.5597 71.6474 39.5481 70.5207C41.1251 69.0556 41.944 66.3963 41.8514 64.318C41.8399 64.0588 41.5408 63.9248 41.3508 64.1077C40.5011 64.9263 39.9156 65.9337 39.5519 67.0271C39.5732 65.5297 39.6204 64.0373 39.686 62.5457C39.7005 62.5223 39.7198 62.5027 39.7217 62.4685C40.1596 53.7277 44.4904 45.7225 49.183 38.5476C52.72 33.141 57.562 28.7447 59.9444 22.6555C60.0747 23.6218 59.9686 24.5714 59.6011 25.5025C59.3059 26.6556 58.9587 27.7911 58.5574 28.911C57.4617 32.2109 55.8104 35.3475 54.0106 38.2992C50.9626 43.297 46.3404 47.0077 42.8536 51.6465C42.7205 51.8245 43.0012 52.0221 43.1487 51.8773C51.8943 43.3332 60.0969 33.2858 61.0113 20.4852C61.0296 20.229 60.663 20.0686 60.4971 20.27C56.4615 25.1544 51.4014 29.0088 47.5509 34.0623C43.7477 39.0552 41.8312 45.567 41.1386 51.7433C41.1261 51.8577 41.2081 51.9262 41.3026 51.9546C40.8396 53.1947 40.4268 54.4564 40.122 55.7621C40.7451 48.0013 41.7608 40.2924 42.6636 32.5415C43.9069 31.2201 44.8917 29.2875 45.1232 27.5144C45.154 27.2796 44.8647 27.1799 44.6968 27.2669C44.012 27.6161 43.4969 28.1912 43.086 28.8396C43.3011 26.8679 43.497 24.8903 43.6793 22.9098C43.7709 22.8579 43.8403 22.7689 43.8114 22.6359C43.7873 22.5322 43.7555 22.4295 43.7294 22.3268C43.7458 22.1459 43.7612 21.9659 43.7767 21.786C45.4203 21.164 46.8497 19.739 47.1979 17.9932C47.305 17.9638 47.4121 17.9227 47.5201 17.8914C51.2674 20.8216 56.5328 17.2596 60.7103 17.6997C60.9543 17.7262 61.0894 17.4543 61.0508 17.2479C60.5579 14.6072 57.7713 13.9832 55.4468 14.1289C57.6604 12.4741 58.7523 10.0789 60.093 7.71397C60.2271 7.47533 60.0515 7.21224 59.7979 7.19463C57.5177 7.04402 55.0899 6.96773 53.3305 8.48075C53.8003 6.8846 53.9392 5.26496 53.6315 3.77932C53.6054 3.64631 53.4125 3.55535 53.3016 3.6424C53.126 3.77639 53.0392 3.84387 52.965 3.90158C52.9679 3.88593 52.9688 3.87028 52.9717 3.85463C53.1318 2.99787 53.6016 2.84334 53.5514 2.17534C53.5408 2.03352 53.4637 1.89953 53.3161 1.86335C50.6279 1.19926 48.882 3.02134 47.7776 5.25029C47.5182 3.57882 47.0359 1.92985 46.7957 0.238821C46.7706 0.061796 46.5517 -0.0320931 46.3983 0.00996252C43.4265 0.827603 42.7147 3.74607 42.6366 6.55304C41.673 4.22922 40.2156 2.0834 38.4909 0.292613C38.3241 0.118523 38.055 0.215348 37.9836 0.428561C36.9245 3.56415 36.7171 6.69486 37.6952 9.52726C36.1461 7.9888 34.299 6.73593 32.3757 5.85179C32.1625 5.753 31.9416 5.95448 32.0545 6.17943C33.5457 9.1468 33.5524 12.4721 35.4893 15.2595C36.448 16.6405 38.0907 17.6117 39.6841 18.5125C39.8471 19.3243 40.1451 20.1126 40.667 20.7278C41.238 21.4006 42.2045 22.1665 43.1381 22.0892C43.1391 22.097 43.141 22.1039 43.1439 22.1117C42.4215 27.6122 41.6392 33.0999 40.9187 38.5887C40.5252 37.1969 40.0304 35.8629 39.876 34.4281C40.2744 35.4824 40.2975 36.617 40.6679 37.73C40.7306 37.9168 40.9824 37.8757 40.9978 37.685C41.1155 36.1632 40.6911 34.3372 39.7902 33.1048C39.6301 32.8848 39.2934 32.9532 39.278 33.2457C39.169 35.37 39.8259 37.5764 40.8078 39.4474C40.067 45.1416 39.4092 50.8416 39.0031 56.567C38.6482 56.0741 38.1669 55.719 37.5476 55.6731C37.3788 55.6613 37.2264 55.8286 37.2312 55.9939C37.2689 57.4159 37.8524 58.9153 38.3742 60.2161C38.4697 60.4508 38.5816 60.7618 38.7446 61.0063C38.6105 63.8593 38.544 66.72 38.5748 69.5915C38.6028 72.2137 38.6887 74.8338 38.8092 77.454C38.3868 76.3645 37.782 75.361 37.0412 74.6333C36.8599 74.4544 36.4741 74.5688 36.502 74.8593C36.7509 77.4129 37.7077 79.8111 38.9674 82.0195C38.9925 82.0625 39.0301 82.0723 39.0629 82.0928C39.551 89.6961 40.3516 97.2837 41.2775 104.852C41.1039 105.193 40.9284 105.533 40.7605 105.879C39.3291 99.0217 36.0034 92.5882 32.6419 86.4128C32.6689 86.3581 32.6737 86.2984 32.6477 86.2348C32.9853 85.3781 32.9043 84.1751 32.8647 83.3438C32.8117 82.264 32.557 81.1197 31.7719 80.3461C31.5886 80.1661 31.2636 80.2424 31.197 80.5006C30.953 81.4503 30.8884 82.4596 31.0166 83.4357C30.7282 82.9066 30.4408 82.3784 30.1582 81.8522C28.5204 78.8125 27.0687 75.7356 25.7473 72.6235C25.7753 72.6156 25.8033 72.6068 25.8245 72.5882C27.2067 71.4009 27.0755 68.5441 26.9067 66.9039C26.8835 66.6721 26.572 66.4511 26.3887 66.6858C25.4039 67.9445 25.0876 69.5544 25.1329 71.1427C22.138 63.8172 19.905 56.2755 18.1659 48.418L18.1698 48.4151C18.2991 48.2028 18.4216 47.9867 18.5383 47.7666C18.9877 47.393 19.3321 46.8326 19.4575 46.3348C21.2573 46.1313 23.1035 45.5083 24.6776 44.7259C25.5756 44.2789 27.877 42.2661 25.9663 41.4054C25.8312 41.3448 25.6383 41.4446 25.6952 41.6167C25.9614 42.4246 26.3019 42.7581 25.5708 43.4857C24.9313 44.1205 23.9745 44.4912 23.1585 44.81C21.9952 45.2648 20.7046 45.6814 19.4285 45.8682C21.1088 45.2442 22.762 44.1655 23.9677 43.1483C25.9624 41.4671 27.5028 39.4288 27.8076 36.7588C27.8278 36.5867 27.6581 36.4752 27.5144 36.4605C25.1367 36.2306 23.7353 37.2781 22.6029 38.7403C23.4391 36.7314 23.7854 34.5465 23.362 32.2569C23.3292 32.0808 23.0861 32.03 22.9723 32.1522C21.7039 33.5107 20.6796 34.9318 19.7632 36.5485C19.5858 34.3978 18.8662 32.2647 17.7078 30.336C17.621 30.1903 17.4184 30.16 17.2979 30.2822C15.6427 31.9547 15.0418 34.3137 15.2395 36.6385C14.1235 35.0208 12.8185 33.5049 11.9022 32.1669C11.8018 32.0202 11.5655 31.9459 11.4353 32.1053C9.37601 34.612 9.80428 38.2024 11.5443 40.8489C9.75412 40.0078 7.79994 39.5149 6.35697 39.3877C6.14284 39.3682 5.99044 39.6117 6.04349 39.8054C7.36782 44.678 11.9726 46.7866 16.5706 47.306C16.6323 47.3128 16.6757 47.2815 16.7085 47.2375C16.7664 47.258 16.8243 47.2913 16.885 47.303C17.0586 47.3343 17.2274 47.1191 17.0712 46.9773C16.7751 46.7084 16.5002 46.3504 16.2349 45.9739C16.2291 45.9103 16.2098 45.8497 16.2002 45.7861C16.5513 46.1147 16.8812 46.4678 17.1918 46.8551C17.2014 46.8668 17.212 46.8707 17.2207 46.8795C17.2217 46.8971 17.2236 46.9128 17.2236 46.9294C17.2275 47.1905 17.4088 47.3275 17.6046 47.3519C17.6287 47.4683 17.6528 47.5847 17.6769 47.7021C17.6412 47.7803 17.6046 47.8585 17.5689 47.9368C17.5631 47.9495 17.5535 47.9573 17.5496 47.97C17.5477 47.973 17.5506 47.9769 17.5496 47.9808C17.5419 47.9984 17.5332 48.016 17.5255 48.0326C17.3885 48.33 17.6171 48.5862 17.8573 48.594C18.6174 52.2881 19.4729 55.9352 20.4712 59.5324C20.4471 59.5217 20.4317 59.504 20.3989 59.504C18.9984 59.5001 17.5834 58.347 17.5563 56.8956C17.9875 57.1929 18.3801 57.5294 18.736 57.9265C19.145 58.3813 19.4391 58.9485 19.9282 59.3221C20.0835 59.4415 20.2841 59.2458 20.2388 59.0796C20.0758 58.4615 19.5848 57.9519 19.171 57.4854C18.6801 56.9308 18.0965 56.4545 17.4454 56.1083C17.293 56.0281 17.0529 56.0878 17.0191 56.2843C16.6777 58.261 18.4312 60.1408 20.3989 59.8796C20.4712 59.8708 20.5127 59.8278 20.5416 59.7779C22.0868 65.2921 23.9812 70.686 26.4592 75.9263C25.2294 74.3125 23.9851 72.6773 22.7071 71.0684C17.9364 62.6651 11.0042 54.6882 0.700853 54.5161C0.499262 54.5131 0.451032 54.8329 0.652622 54.877C5.91231 56.0389 10.3107 57.3025 14.464 60.9858C16.8947 63.1414 18.8074 65.7762 20.5956 68.4942C15.3099 62.2377 9.25352 56.788 0.91981 55.1215C0.745227 55.0863 0.683492 55.3259 0.846501 55.3885C7.10739 57.8101 12.1626 60.4635 16.9989 65.252C19.0215 67.256 20.8686 69.4497 22.6608 71.6914C22.68 71.7207 22.6993 71.7501 22.7177 71.7784C20.1491 69.0409 16.4722 67.7039 13.1879 66.0491C8.05361 63.4632 4.25715 59.1725 0.26488 55.142C0.121163 54.9963 -0.0920135 55.2154 0.0430234 55.3679C2.95307 58.6757 5.97308 61.822 9.50912 64.4432C13.7097 67.5572 18.7013 69.1123 22.8315 72.3956C22.9299 72.4738 23.0408 72.4396 23.0948 72.3662C23.1286 72.4191 23.1633 72.4728 23.198 72.5266C23.2405 72.5931 23.306 72.599 23.362 72.5775C24.6323 74.1844 25.8862 75.804 27.1478 77.3963C30.2392 83.642 33.5303 89.5895 36.2542 95.8069C35.2973 94.601 33.6614 93.6327 32.2551 93.5662C31.9889 93.5545 31.8471 93.8645 31.9619 94.0836C32.7991 95.6592 34.6135 97.1341 36.45 97.095C36.6004 97.092 36.667 96.9659 36.6535 96.8446C36.6651 96.8436 36.6718 96.8377 36.6834 96.8328C38.0742 100.101 39.3137 103.445 40.258 106.96C39.4188 108.797 38.6945 110.691 38.0415 112.617C38.2585 111.008 38.1215 109.161 36.8657 108.1C36.6901 107.953 36.3718 107.982 36.3168 108.248C35.9947 109.821 36.3226 112.089 37.537 113.282C37.5515 113.371 37.5573 113.467 37.5756 113.556C37.5881 113.614 37.6306 113.641 37.6769 113.657C36.9322 115.994 36.3188 118.389 35.8432 120.839C35.6754 121.709 35.5346 122.582 35.4044 123.458C35.5462 121.482 35.605 119.501 35.5896 117.487C35.552 112.789 33.9354 108.733 33.13 104.174C33.0692 103.834 32.5493 103.856 32.4741 104.174C30.3048 113.304 31.5963 122.575 34.7495 131.289C34.5797 138.808 35.6407 146.384 37.4174 153.673C34.6993 148.656 30.6858 144.144 26.789 140.003C26.6877 138.987 26.5681 137.972 26.4447 136.958C27.5211 133.922 29.2602 130.618 27.9658 127.493C27.8539 127.225 27.5346 127.222 27.4227 127.493C27.0408 128.431 26.5363 129.282 26.0685 130.162C26.1331 128.468 26.138 126.776 26.2035 125.167C26.2122 124.963 25.9807 124.759 25.7811 124.84C23.3813 125.831 22.3675 128.392 22.4563 130.968C21.1098 129.116 19.252 127.606 17.2583 126.584C17.0664 126.485 16.8358 126.605 16.831 126.832C16.7847 128.882 17.6943 130.991 18.6309 132.818C18.5614 132.768 18.4814 132.71 18.4167 132.664C17.1802 131.776 14.5489 130.193 13.0905 131.547C11.0013 133.487 13.2419 135.239 15.8424 136.347C15.4382 136.341 15.0591 136.353 14.7283 136.385C11.8192 136.659 11.5626 139.138 12.6236 141.435C12.7413 141.694 13.0847 141.63 13.2188 141.435C15.2067 138.544 20.585 139.635 23.4604 140.114C23.6591 140.146 23.7237 139.891 23.5424 139.813C20.7403 138.62 15.4112 138.097 13.0297 140.59C12.6748 139.633 12.4259 138.556 13.2004 137.754C13.9634 136.962 15.4585 137.079 16.4384 137.159C18.5682 137.33 20.2127 138.419 22.1698 139.055C22.2171 139.07 22.2624 139.062 22.3029 139.042C23.2694 139.606 24.3101 140.051 25.2949 140.133L25.3335 140.25C25.4358 140.558 25.783 140.568 25.9586 140.399C26.0309 140.474 26.1312 140.517 26.2354 140.518C26.2691 140.666 26.2903 140.819 26.3289 140.966C26.409 141.273 26.9144 141.218 26.8864 140.889C26.8826 140.836 26.8739 140.784 26.8691 140.731C28.8599 142.998 30.7668 145.347 32.5657 147.757C34.7649 150.703 36.3583 153.992 38.3077 157.083C38.3762 157.328 38.4388 157.574 38.5083 157.818C38.9163 159.261 39.3725 160.678 39.8548 162.082C35.0967 154.626 27.3369 147.206 19.4883 147.374C19.1758 147.38 19.0263 147.756 19.2385 147.986C22.735 151.758 25.0789 156.992 29.1676 160.19C32.5377 162.827 36.8406 164.361 40.1422 167.078C40.7596 167.877 41.3798 168.674 42.0164 169.463C42.1119 169.579 42.2787 169.431 42.216 169.306C42.1379 169.154 42.0511 169.007 41.9691 168.857C42.3009 169.24 42.6183 169.639 42.9086 170.071C44.1856 173.18 45.5071 176.256 46.7349 179.364C46.4938 179.225 46.2536 179.086 46.0115 178.946C45.4608 177.945 44.5985 177.025 43.8818 176.195C43.0812 175.268 42.1379 174.317 40.9313 173.994C40.6747 173.925 40.3516 174.184 40.4634 174.469C41.5061 177.138 44.2879 179.378 47.0205 180.108C48.8936 184.913 50.5256 189.799 51.3908 195.01C51.3542 195.887 51.2944 196.762 51.2404 197.635C50.7291 195.443 49.6942 193.275 47.9551 192.523C47.6291 192.383 47.3388 192.608 47.3899 192.965C47.7892 195.754 48.4721 199.485 50.977 201.173C50.2314 209.713 48.7161 218.189 46.4263 226.824C46.3395 227.149 46.7899 227.254 46.9066 226.959C49.3932 220.744 50.9828 214.338 51.9098 207.812C54.541 205.615 57.1212 201.433 56.6824 198.04C56.6524 197.803 56.4026 197.565 56.1596 197.736C54.0781 199.193 53.4106 201.493 52.4113 203.65C52.9698 198.034 53.0855 192.343 52.8791 186.618C54.7803 184.382 55.4313 181.151 55.9367 178.344C55.9869 178.065 55.7052 177.766 55.4294 177.949C54.897 178.304 53.5447 180.408 52.6718 182.383C52.6467 181.968 52.6245 181.553 52.5975 181.139C53.0595 175.795 53.6807 170.506 54.4378 165.254C58.1398 161.071 61.1309 156.242 64.3004 151.654C68.9003 144.994 73.3623 138.517 76.7083 131.088C76.8337 130.811 76.6302 130.457 76.3032 130.552C67.1718 133.182 60.747 140.874 57.1135 149.665C57.8813 145.79 58.7368 141.929 59.6426 138.07C59.6493 138.099 59.6512 138.128 59.658 138.157C59.6898 138.299 59.9117 138.299 59.9425 138.157C60.1017 137.426 60.1711 136.635 60.1634 135.828C60.7045 133.59 61.2726 131.351 61.8581 129.113C63.8104 128.133 65.6469 126.293 66.4764 124.417C66.5998 124.139 66.4021 123.858 66.0954 123.917C64.8077 124.164 63.6155 125.051 62.6712 126.099C63.0947 124.529 63.5133 122.959 63.9599 121.388C63.9656 121.386 63.9695 121.386 63.9753 121.382C65.0874 120.645 66.0896 119.773 67.0812 118.885C66.977 119.038 66.8728 119.193 66.7792 119.356C66.7011 119.49 66.8593 119.663 66.9944 119.574C67.3098 119.367 67.574 119.086 67.8103 118.779C70.8284 118.91 74.5275 116.431 76.445 114.858C76.6659 114.677 76.4807 114.293 76.2183 114.303C74.378 114.365 72.4508 114.881 70.5892 115.535C72.8704 113.65 74.867 111.377 76.2936 108.861C76.4074 108.659 76.2608 108.415 76.036 108.408C73.3671 108.332 71.3618 109.628 69.7057 111.423C70.4744 108.891 70.4252 106.157 69.1964 103.924C69.0932 103.735 68.8472 103.723 68.6977 103.859C67.0783 105.333 65.9459 107.34 65.2639 109.515C64.9765 108.365 64.5058 107.271 63.7901 106.315C63.2528 105.596 60.4113 102.95 59.6078 104.707C58.5594 107.002 59.3908 109.701 60.202 111.957C58.8777 110.946 57.2823 110.372 55.8789 110.773C55.7303 110.817 55.6242 110.957 55.6223 111.115C55.5905 114.729 59.0976 118.595 62.7571 118.728C62.9645 119.419 63.2008 120.1 63.4612 120.78C63.4785 120.827 63.5114 120.852 63.5461 120.872C63.5441 120.901 63.5413 120.931 63.548 120.96C63.5191 121.03 63.5085 121.103 63.522 121.171C62.841 123.307 62.1784 125.461 61.5273 127.628L61.508 127.658C61.48 127.703 61.4742 127.753 61.4771 127.8C61.3951 128.076 61.316 128.355 61.2331 128.633C60.9466 128.839 60.6611 129.05 60.3814 129.274C60.2087 129.414 60.3968 129.688 60.5878 129.634C60.72 129.596 60.8502 129.537 60.9833 129.491C60.6042 130.772 60.2232 132.048 59.8586 133.337C59.5451 132.003 58.9973 130.747 58.1784 129.78C58.0414 129.619 57.7501 129.704 57.7057 129.906C57.2775 131.898 58.0858 134.356 59.0464 136.237C58.3886 138.639 57.7617 141.057 57.1656 143.483C57.073 141.7 56.6438 139.899 55.6705 138.53C55.5586 138.372 55.278 138.315 55.1777 138.53C54.2199 140.597 55.1902 143.754 56.6341 145.504C56.638 145.55 56.6457 145.593 56.6496 145.639C55.1844 151.825 53.9479 158.073 53.0576 164.346C52.5647 165.515 52.0313 166.669 51.3956 167.781C51.2471 168.041 51.6445 168.275 51.7921 168.014C51.9213 167.787 52.0332 167.549 52.1567 167.317C52.2387 167.413 52.3766 167.451 52.4962 167.333C52.5502 167.278 52.5994 167.22 52.6534 167.167C52.3776 169.381 52.1451 171.597 51.9628 173.811C51.1429 165.885 49.9286 157.964 48.6775 150.162C48.6824 150.157 48.6852 150.152 48.6891 150.148C48.7229 150.116 48.747 150.086 48.7624 150.046C50.3906 147.696 51.495 144.131 50.4774 141.539C50.3896 141.314 50.0723 141.148 49.8832 141.379C48.9717 142.503 48.2647 143.976 47.9291 145.514C47.0185 139.856 46.1273 134.275 45.3971 128.818C44.9959 125.812 44.5956 122.808 44.1953 119.802C45.5756 118.091 46.4649 115.483 46.2932 113.338C46.272 113.059 45.9093 112.824 45.6923 113.086C44.9264 114.006 44.1528 115.232 43.7593 116.508C43.2616 112.706 42.7735 108.906 42.3163 105.099C43.6638 102.492 45.2148 99.989 46.952 97.6016C47.0214 97.6348 47.1063 97.6466 47.1844 97.584C47.9657 96.9659 49.3894 96.7898 50.4552 96.9179C50.0819 97.3933 49.6652 97.8148 49.1396 98.1434C48.3332 98.6461 47.551 98.5395 46.6694 98.6549C46.4485 98.6843 46.2874 99.008 46.5401 99.1332C48.3255 100.011 50.4147 98.2755 51.3233 96.8573C51.4342 96.6842 51.3281 96.426 51.1323 96.3781C50.0559 96.1189 48.584 96.2294 47.5278 96.8192C48.8464 95.0685 50.2652 93.3813 51.7892 91.7754C52.665 90.8512 53.5755 89.9592 54.4967 89.077C56.4653 87.965 58.6944 87.2256 60.7855 86.405C65.7414 84.4587 70.3519 83.1863 75.6724 82.6317C75.8962 82.6092 75.9058 82.2796 75.6724 82.2718C69.9844 82.0684 64.8395 84.1819 59.6483 86.3033C58.3983 86.8148 57.0566 87.297 55.7708 87.875C55.7901 87.8584 55.8075 87.8427 55.8239 87.8261C58.6934 86.4647 61.2736 84.5966 64.0631 83.0425C67.3609 81.2038 71.1911 80.9192 74.867 80.9192C76.7565 80.9192 85.9256 80.5602 81.5783 83.2371C76.0254 86.6554 71.2094 87.653 64.8009 87.7879C60.609 87.875 56.8087 88.4608 53.155 90.6301C52.9987 90.723 53.1039 91.0057 53.2823 90.9353C59.4323 88.4873 65.3922 88.7161 71.8431 88.1557C76.6717 87.7371 80.8829 84.3091 84.9774 82.0312C85.2378 81.8865 85.2089 81.4082 84.8906 81.3544C79.5103 80.4536 74.2536 79.7612 68.828 80.6825C64.6023 81.4004 61.0739 84.1164 57.4222 86.3737C59.7458 84.2572 62.1002 82.1701 64.3688 80.0077C66.5854 77.8941 68.828 75.8725 71.1805 74.0035C72.1614 74.3477 73.2022 74.7262 74.2497 74.5678C74.8284 74.4798 75.8412 73.9389 75.7187 73.2132C75.6097 72.5716 74.7734 72.3105 74.2506 72.154C74.1204 72.1149 73.9651 72.0718 73.7983 72.0317C75.1785 71.0429 76.6003 70.106 78.0876 69.2453C78.1628 69.3372 78.269 69.4028 78.4098 69.4028C78.5226 69.4028 78.6336 69.3881 78.7474 69.3852C79.1072 69.6571 79.5074 69.8634 79.9627 70.0141C80.1035 70.06 80.1971 70.0072 80.2656 69.928C80.3128 69.9495 80.364 69.9652 80.418 69.97C80.4855 69.9759 80.553 69.9896 80.6205 69.9974C82.8959 74.0719 86.4541 77.9616 91.3618 77.9851C91.6415 77.9861 91.7505 77.6985 91.653 77.4706C90.8679 75.6212 89.9072 73.844 88.3774 72.5902C90.6489 72.6499 92.8829 72.1393 94.3123 71.0175C94.4175 70.9178 94.4039 70.7476 94.3519 70.6331ZM56.5193 73.1477C56.5724 73.0479 56.6322 72.957 56.6968 72.8641C56.881 72.5971 57.0961 72.3516 57.3141 72.11C57.5668 71.8273 57.8485 71.5261 58.1523 71.2679C58.0308 71.8655 57.7057 72.3819 57.2871 72.868C57.1096 73.0734 56.9023 73.2465 56.6891 73.4137C56.7016 73.3052 56.6428 73.1809 56.5155 73.1878C56.4972 73.1888 56.4914 73.1917 56.4798 73.1937C56.4933 73.1839 56.5068 73.1712 56.5193 73.1477ZM62.0144 51.9194C62.2169 51.5712 62.4195 51.222 62.6413 50.8807C62.6558 50.8592 64.6486 48.7877 64.6389 49.5672C64.6177 51.136 64.2058 52.605 63.549 54.0114C62.7465 55.7327 61.5215 56.9602 60.093 57.9783C61.2669 56.3352 61.8031 54.1287 62.0144 51.9194ZM58.4147 50.8846C58.7262 50.3144 59.1265 49.487 58.9432 49.9144C59.0619 49.7021 59.1825 49.4899 59.303 49.2796C59.793 48.3661 60.5405 47.7862 61.5446 47.5417C61.562 48.8337 61.5225 50.1296 61.425 51.4176C61.2061 54.3459 60.256 56.4565 58.5275 58.3725C58.5295 58.2502 58.5362 58.1299 58.5352 58.0076C59.5798 56.0809 59.2799 53.4911 58.4041 51.5008C58.432 51.3472 58.46 51.1937 58.4851 51.0401C58.4976 50.9648 58.461 50.9159 58.4147 50.8846ZM56.3014 59.0062C56.1789 58.6854 56.038 58.3676 55.8692 58.0556C55.7033 57.7534 55.1757 57.9636 55.3088 58.2942C55.4747 58.7118 55.6368 59.1314 55.7979 59.551C52.4297 58.2962 51.8239 51.0342 53.9498 48.3368C54.1803 49.6493 54.6616 50.8719 55.1883 52.1071C56.2232 54.5337 56.7827 56.476 56.3014 59.0062ZM56.9765 59.8845C56.9592 59.8992 56.9466 59.9129 56.9293 59.9275C56.854 59.9921 56.8608 60.0889 56.9071 60.1603C56.8782 60.2826 56.8454 60.4058 56.8145 60.5281C56.7508 60.3481 56.6872 60.1681 56.6206 59.9892C56.691 59.9148 56.6582 59.7681 56.5357 59.7358C56.5328 59.7231 56.5271 59.7114 56.5242 59.6977C58.7166 56.4379 55.7853 52.5443 54.7552 49.1124C54.7966 49.0958 54.8323 49.0654 54.8497 49.0107C55.3879 47.26 58.106 52.2597 58.2275 52.6138C58.7426 54.1121 58.6568 55.5577 58.2179 56.9406C58.0607 56.9162 57.8871 56.9944 57.8061 57.191C57.4501 58.0654 57.2061 58.972 56.9765 59.8845ZM41.2476 65.0838C41.1859 66.0129 40.9525 66.8873 40.5724 67.7665C40.3294 68.3299 39.9889 68.8385 39.6638 69.3529C39.7622 67.7871 40.259 66.2799 41.2476 65.0838ZM47.1015 35.7984C50.3665 30.4768 55.5529 26.686 59.7139 22.14C55.0031 32.1503 46.0569 40.4695 41.7781 50.7193C42.6414 45.4144 44.2715 40.4108 47.1015 35.7984ZM45.7839 17.9707C45.3335 18.4744 44.9718 19.0299 44.6776 19.6568C44.9679 18.8734 45.2939 18.1135 45.7347 17.421C45.7916 17.3975 45.8476 17.3731 45.9035 17.3486C45.8736 17.5589 45.8466 17.7702 45.7839 17.9707ZM58.2189 15.0268C58.4716 15.1001 61.4771 17.0787 60.0043 16.8909C59.2789 16.798 58.5189 16.9222 57.8022 17.0181C54.3674 17.4777 51.6368 18.7208 48.3149 17.6362C50.6356 16.9046 52.8724 15.8904 54.8767 14.5045C54.9105 14.5642 54.9626 14.6121 55.0581 14.6101C56.1374 14.5915 57.1772 14.7236 58.2189 15.0268ZM58.514 7.77852C59.521 7.81667 59.1275 7.98293 58.679 8.7683C58.1735 9.65635 57.6961 10.5444 57.1328 11.3973C54.9529 14.7021 50.8767 15.862 47.3658 17.3271C47.3465 17.331 47.331 17.3398 47.3127 17.3477C47.2925 17.3565 47.2712 17.3653 47.251 17.3731C47.1854 17.1657 46.9529 17.0767 46.7436 17.1256C46.7485 17.066 46.7349 17.0014 46.7369 16.9418C49.509 15.4131 51.9127 12.4418 53.0663 9.2759C54.5237 7.76483 56.556 7.70126 58.514 7.77852ZM52.8888 4.4483C53.5688 4.13435 52.9746 7.47827 52.9129 7.73158C52.5589 9.15365 51.821 10.4544 51.0523 11.6809C49.9344 13.4639 48.4779 14.883 46.8102 16.0381C48.6563 14.5172 50.2411 12.6267 51.4738 10.6011C52.1133 9.54975 52.4644 8.34872 52.583 7.12519C52.6737 6.22637 52.7557 5.33734 52.8888 4.4483ZM47.822 8.85534C47.9802 7.94381 47.9725 7.0538 47.8895 6.17063C48.7692 4.67521 49.5302 3.11817 51.2471 2.38757C53.3681 1.4868 52.1075 4.71433 52.0216 5.39504C51.6599 8.2871 51.0774 10.1982 49.2486 12.5171C48.2975 13.723 47.142 14.7216 46.0183 15.7515C46.0164 15.7525 46.0144 15.7535 46.0144 15.7535C46.0115 15.7554 46.0106 15.7574 46.0086 15.7593C45.6489 16.0899 45.3016 16.4312 44.9534 16.7755C46.3202 14.2971 47.3301 11.6701 47.822 8.85534ZM37.5929 6.55695C37.4917 5.42732 37.6585 4.25074 37.8418 3.14653C38.1939 1.03593 38.4302 0.996802 39.8905 2.92549C42.9356 6.94915 43.3156 11.4452 42.7803 16.2845C42.5507 15.6586 42.2392 15.0659 41.7752 14.5289C41.6026 14.3284 41.2341 14.483 41.2524 14.749C41.2611 14.8781 41.2804 15.0023 41.293 15.1295C40.7219 13.4296 39.7728 11.8824 38.598 10.5121C38.0501 9.29546 37.7222 7.98196 37.5929 6.55695ZM39.9426 17.153C39.9329 16.8821 39.523 16.8792 39.5259 17.153C39.5288 17.3369 39.5519 17.5276 39.5674 17.7154C38.5073 17.0249 37.4415 16.3452 36.4789 15.506C34.9414 14.1661 34.3511 12.0672 33.836 10.1698C33.6807 9.59963 33.2592 6.89242 32.8011 6.63617C34.8739 7.80004 36.7162 9.26221 38.2498 11.0951C38.4311 11.3132 38.5999 11.5332 38.76 11.7582C38.8816 11.9518 39.0031 12.1455 39.1381 12.3362C40.0554 13.8179 40.5937 15.4395 41.075 17.1159C40.9776 17.1765 40.9023 17.2821 40.9342 17.4112C41.0431 17.8494 41.1521 18.3746 41.3007 18.8988C40.8927 18.5956 40.4721 18.31 40.0487 18.0293C39.9898 17.7418 39.9532 17.4484 39.9426 17.153ZM42.789 21.2755C42.6887 21.2481 42.5883 21.2207 42.4871 21.1884C41.9575 21.0202 41.5187 20.6378 41.1473 20.2378C40.7721 19.8338 40.4924 19.3624 40.2937 18.8577C40.7171 19.0974 41.1319 19.335 41.5187 19.5766C41.7897 20.3013 42.1794 20.9468 42.8073 21.2569C42.8015 21.2627 42.7967 21.2706 42.789 21.2755ZM42.8941 16.621C43.0234 16.6777 43.2066 16.6415 43.2577 16.4811C44.2059 13.5177 44.0062 10.4828 43.0542 7.66213C43.1362 6.39949 43.2481 5.15249 43.5317 3.91233C43.5616 3.77737 46.0887 -0.334309 46.2691 1.34401C46.3433 2.03254 46.5517 2.77879 46.707 3.45168C47.7815 8.11399 46.3424 11.7445 44.7258 15.7877C44.7123 15.7124 44.7065 15.638 44.693 15.5627C44.61 15.1588 43.9812 15.1637 43.8953 15.5627C43.6821 16.5437 43.4921 17.5286 43.3262 18.5154C43.2163 17.8699 43.089 17.2322 42.8941 16.621ZM42.9597 29.9732C43.3455 29.3032 43.8355 28.6186 44.4191 28.1423C44.0911 29.3061 43.4121 30.248 42.816 31.2612C42.8652 30.8319 42.9115 30.4025 42.9597 29.9732ZM37.292 75.9449C38.1534 77.2349 38.3434 78.7157 38.6916 80.2199C38.081 78.8428 37.5679 77.4276 37.292 75.9449ZM38.8102 59.6224C38.7321 59.3945 38.6491 59.1676 38.5739 58.9378C38.3115 58.1328 38.0135 57.2663 37.9084 56.4066C38.5517 56.6257 38.7919 57.2702 38.9076 57.9998C38.8739 58.5407 38.8391 59.0815 38.8102 59.6224ZM40.6168 88.9753C40.8676 88.2242 41.2631 87.4994 41.7068 86.9762C41.8408 88.3709 41.3248 89.5396 40.7866 90.7485C40.7316 90.1568 40.6679 89.567 40.6168 88.9753ZM26.4862 36.9935C27.8876 36.8849 26.4206 39.3897 26.0666 39.9775C25.3432 41.1795 24.2455 42.1615 23.1556 43.0085C22.0203 43.8906 20.7876 44.4491 19.526 44.9655C19.6051 44.5743 19.6494 44.1772 19.6735 43.7762C21.9865 41.4407 22.7177 37.2859 26.4862 36.9935ZM19.7874 36.9192C19.8645 36.9515 19.9562 36.9456 20.0121 36.8517C20.4558 36.1045 22.9357 31.7923 23.1247 33.9851C23.2732 35.7279 22.6916 37.417 21.9489 38.9515C21.2978 40.2993 20.3661 41.4152 19.3765 42.4823C19.2347 42.4666 19.0813 42.5136 18.9829 42.6495C18.9868 42.361 18.9887 42.0734 18.9916 41.7859C19.6436 40.2152 19.8732 38.5662 19.7874 36.9192ZM6.82863 40.1144C9.70203 40.4734 12.6072 41.8338 14.4949 44.0608C14.3743 44.187 14.3145 44.3826 14.4138 44.5381C14.7784 45.1191 15.3736 46.1949 16.0584 46.8238C12.151 46.0492 8.18672 44.098 6.82863 40.1144ZM16.3372 43.1151C16.206 43.6197 16.2185 44.1078 16.3073 44.5841C16.286 44.6457 16.2658 44.7083 16.2417 44.7709C16.0883 44.6555 15.9321 44.5449 15.7681 44.4413C15.6697 44.2476 15.5578 44.0589 15.4334 43.876C15.4729 43.787 15.4565 43.6608 15.3389 43.6109C15.2771 43.5855 15.2221 43.5493 15.1623 43.5209C14.5122 42.7023 13.6239 42.0011 12.6265 41.4201C12.0092 40.6113 11.5221 39.688 11.1479 38.7364C10.7949 37.8366 10.6656 36.8644 10.6338 35.903C10.6087 35.1988 11.0833 32.0789 12.0517 33.4139C13.214 35.0169 14.5672 36.6072 15.5134 38.3041C15.7391 39.2039 16.0893 40.0665 16.5349 40.8568C16.6757 41.4856 16.7346 42.1341 16.6854 42.808C16.5281 42.8304 16.3844 42.9331 16.3372 43.1151ZM17.43 43.6315C17.4001 43.565 17.3625 43.4994 17.3326 43.4329C17.4541 42.8921 17.4821 42.3532 17.4406 41.8172C17.4667 41.7751 17.4773 41.7262 17.4377 41.6685C17.43 41.6588 17.4252 41.647 17.4184 41.6363C17.2737 40.2543 16.6622 38.8948 15.8587 37.5911C15.5636 35.7103 15.7661 33.7484 16.5735 32.0515C17.9644 29.1281 19.1614 35.4599 19.2665 36.527C19.4228 38.0909 19.0823 39.5481 18.6106 40.978C18.4582 40.9575 18.2991 41.0015 18.2142 41.1668C17.8081 41.9649 17.5718 42.7894 17.43 43.6315ZM26.3174 67.9328C26.3174 68.5714 26.2903 69.2082 26.1958 69.8448C26.1109 70.416 25.893 70.952 25.7203 71.4958C25.7058 70.2615 25.782 69.0253 26.3174 67.9328ZM32.0227 84.8421C31.6417 83.734 31.5221 82.5554 31.7082 81.3857C32.3255 82.4146 32.1307 83.643 32.0227 84.8421ZM32.9535 94.3672C34.163 94.7105 34.9327 95.7335 35.9436 96.4534C34.7678 96.0162 33.7048 95.3805 32.9535 94.3672ZM36.857 109.076C37.4164 109.9 37.4222 110.949 37.4454 111.984C37.0297 111.068 36.7779 110.094 36.857 109.076ZM34.4649 127.329C34.0974 123.83 33.4772 120.388 33.5804 116.842C33.5901 116.541 33.1319 116.542 33.1232 116.842C33.0055 120.757 33.536 124.701 34.3183 128.529C34.3241 128.558 34.3424 128.576 34.3617 128.591C34.3569 128.661 34.3501 128.731 34.3443 128.799C32.2445 121.424 31.3677 113.803 32.7152 106.155C32.721 106.121 33.8225 109.688 33.8476 109.775C34.6106 112.291 34.789 114.871 34.8903 117.486C35.0147 120.764 34.7369 124.055 34.4649 127.329ZM24.043 127.091C24.5648 126.138 25.5351 125.153 25.4657 126.898C25.4194 128.039 25.3721 129.182 25.3113 130.324C25.2371 131.7 25.0519 133.062 24.8831 134.425C24.8647 134.403 24.8493 134.381 24.831 134.358C24.6217 134.123 24.2851 134.327 24.2638 134.597C24.2609 134.632 24.2658 134.666 24.2638 134.701C24.0333 133.822 23.6841 132.984 23.2433 132.195C22.9781 130.447 23.2048 128.62 24.043 127.091ZM24.2378 137.388C24.1809 137.39 24.1269 137.416 24.0941 137.467C23.8992 137.24 23.7044 137.014 23.4941 136.802C23.3494 136.356 23.28 135.881 23.2617 135.41C23.5086 135.711 23.714 136.03 23.905 136.354C24.0092 136.7 24.1182 137.045 24.2378 137.388ZM17.4184 127.345C19.145 128.346 20.6603 129.581 21.8351 131.236C22.191 131.736 22.4727 132.259 22.7119 132.797C22.8575 133.403 23.0659 133.983 23.3292 134.524C23.281 134.47 23.2347 134.416 23.1835 134.365C22.9665 134.158 22.6569 134.317 22.6318 134.597C22.5913 135.068 22.6048 135.57 22.6742 136.067C22.3588 135.812 22.0251 135.578 21.6702 135.367C21.0693 134.676 20.313 134.061 19.5954 133.521C19.334 133.015 19.1209 132.551 18.9685 132.239C18.2537 130.789 17.5187 129.021 17.4184 127.345ZM19.9562 137.051C19.2154 136.78 18.4032 136.599 17.6104 136.486C16.9583 136.238 16.3198 135.958 15.7285 135.681C14.9694 135.322 14.2479 134.878 13.6133 134.324C12.5446 133.395 12.8822 131.956 14.3357 131.763C16.0777 131.533 18.0608 133.233 19.2877 134.268C19.3958 134.359 19.4874 134.464 19.5915 134.557C20.0786 135.34 20.7095 136.123 21.4637 136.442C21.5689 136.554 21.675 136.668 21.783 136.782C21.8563 136.882 21.9161 136.992 21.9923 137.091C21.4329 136.922 20.8474 136.835 20.2185 136.873C20.1086 136.881 20.0131 136.957 19.9562 137.051ZM21.1888 137.557C21.8679 137.666 22.4958 137.921 23.0958 138.258C23.4999 138.599 23.932 138.908 24.4365 139.127C24.531 139.167 24.6178 139.167 24.6921 139.141C24.7847 139.158 24.8773 139.14 24.9583 139.09C25.0152 139.274 25.0712 139.456 25.131 139.637C23.7758 139.272 22.3492 138.425 21.1888 137.557ZM25.6827 138.825C25.5978 138.556 25.5062 138.289 25.4097 138.026C25.2872 137.598 25.185 137.166 25.103 136.73C25.1503 136.582 25.1975 136.434 25.24 136.282C25.4666 136.823 25.6103 137.401 25.7058 137.989C25.7 138.011 25.6923 138.035 25.6865 138.057C25.6663 138.139 25.7001 138.195 25.7483 138.238C25.7811 138.482 25.8071 138.728 25.8225 138.973C25.7762 138.924 25.7299 138.875 25.6827 138.825ZM26.1389 134.412C26.1109 134.177 25.8621 134.107 25.7135 134.201C25.8708 133.239 25.9528 132.254 26.0145 131.266C26.0232 131.259 26.0328 131.261 26.0405 131.254C26.8604 130.509 27.3581 129.578 27.6996 128.557C28.232 130.974 27.1864 133.589 26.3318 136.015C26.2672 135.48 26.2007 134.946 26.1389 134.412ZM41.6093 175.106C42.6154 175.694 43.304 176.703 44.0207 177.673C43.061 176.972 42.2093 176.158 41.6093 175.106ZM48.256 193.615C50.053 194.991 50.1253 197.889 50.7282 200.143C49.2216 198.358 48.6148 195.938 48.256 193.615ZM54.8892 179.744C54.3896 181.702 53.7125 183.554 52.8251 185.358C52.8058 184.915 52.7904 184.472 52.7682 184.028C53.2572 182.727 54.1668 180.931 54.8892 179.744ZM74.675 115.405C72.8 116.751 70.514 117.933 68.2541 118.118C68.3717 117.919 68.4817 117.719 68.5849 117.523C68.6534 117.394 68.5791 117.252 68.4682 117.188C70.5487 116.772 72.6283 116.033 74.675 115.405ZM75.4785 109.02C74.3047 110.936 72.8993 112.607 71.2171 114.101C70.2632 114.95 69.2099 115.681 68.1865 116.444C67.7322 116.628 67.2847 116.814 66.8526 116.994C66.649 117.079 66.6461 117.431 66.8902 117.43C66.6597 117.605 66.4368 117.79 66.2198 117.987C66.0732 117.953 65.9256 117.913 65.7809 117.868C65.9237 117.581 66.0751 117.296 66.1822 116.993C67.4805 115.86 68.5318 114.356 69.2359 112.704C70.8892 110.718 72.8675 109.13 75.4785 109.02ZM68.691 104.725C69.2031 104.168 69.7211 108.145 69.697 107.783C69.8041 109.304 69.2562 110.86 68.6727 112.23C68.146 113.465 67.3802 114.487 66.5439 115.456C66.5632 115.301 66.6018 115.148 66.6085 114.992C66.6278 114.63 66.1205 114.399 65.8803 114.687C65.806 114.777 65.7308 114.869 65.6546 114.959C65.6652 114.663 65.6816 114.369 65.6594 114.067C65.6507 113.951 65.6025 113.868 65.5388 113.803C65.6382 112.812 65.6372 111.803 65.5128 110.815C66.1021 108.532 67.1718 106.374 68.691 104.725ZM56.4817 112.587C56.1181 111.393 56.3515 111.161 57.5389 111.394C58.3366 111.55 59.0812 112.093 59.7033 112.591C60.1798 112.973 60.581 113.416 60.9582 113.879C61.29 114.629 61.6777 115.391 62.1513 116.063C62.2487 116.756 62.4011 117.432 62.5796 118.101C59.8123 117.356 57.3585 115.46 56.4817 112.587ZM61.1135 112.765C60.3988 111.076 59.9377 109.269 59.7322 107.589C59.6483 106.907 59.603 104.229 61.2408 105.07C62.7985 105.874 63.7949 107.244 64.3862 108.862C64.6524 109.591 64.7797 110.351 64.8463 111.122C64.61 112.287 64.499 113.465 64.5135 114.629C64.4228 114.827 64.3389 115.03 64.2695 115.239C64.146 114.662 63.9724 114.093 63.7168 113.536C63.5866 113.256 63.0947 113.385 63.1313 113.697C63.2596 114.797 63.5239 115.866 63.7689 116.939C63.4641 116.622 63.1776 116.283 62.9056 115.925C62.9066 115.904 62.9181 115.886 62.9124 115.862C62.6953 114.808 62.0202 113.695 61.1135 112.765ZM63.1738 118.712C63.2635 118.707 63.3561 118.713 63.4458 118.704C63.4679 118.702 63.4795 118.686 63.4969 118.679C63.6329 119.114 63.7583 119.553 63.8933 119.988C63.8412 120.155 63.7872 120.321 63.7351 120.487C63.5316 119.899 63.3416 119.308 63.1738 118.712ZM62.188 127.853C62.2237 127.828 62.2603 127.801 62.2922 127.78C62.4378 127.687 62.4262 127.529 62.3452 127.426C63.1959 126.381 64.2637 125.314 65.4877 124.811C64.6486 126.178 63.4274 127.079 62.1562 127.97C62.1658 127.932 62.1774 127.892 62.188 127.853ZM58.1919 130.814C58.895 131.987 59.1236 133.264 59.2461 134.576C58.7851 133.353 58.1938 132.135 58.1919 130.814ZM55.5008 139.361C56.3573 140.887 56.4489 142.657 56.5512 144.407C55.7477 142.875 55.1005 140.935 55.5008 139.361ZM55.2452 160.123C56.2136 157.582 57.2003 155.047 58.5922 152.669C61.5321 147.647 65.4704 143.306 67.9907 138.025C68.0968 137.801 67.7901 137.614 67.6589 137.829C64.6466 142.803 61.29 147.519 58.1948 152.436C57.1579 154.084 56.3669 155.832 55.6551 157.61C55.9329 155.976 56.2213 154.342 56.5261 152.712C59.794 143.468 66.0038 134.979 75.1593 131.633C75.1593 131.633 72.283 138.281 71.8412 139.061C69.9931 142.324 67.8624 145.423 65.6893 148.47C62.0182 153.621 58.5189 158.851 54.6549 163.837C54.841 162.595 55.0446 161.36 55.2452 160.123ZM52.2377 205.252C53.4444 203.09 53.9874 200.231 55.9445 198.743C55.6522 201.731 53.8282 204.022 52.1027 206.359C52.1499 205.99 52.1953 205.622 52.2377 205.252ZM35.9696 135.865C36.5483 134.264 37.019 132.663 37.8669 131.198C37.8958 132.929 36.7586 134.492 35.9783 136.093C35.9754 136.018 35.9735 135.942 35.9696 135.865ZM40.7991 166.912C39.4516 164.889 37.8437 163.023 36.2522 161.222C33.9306 158.592 30.8479 156.881 28.5522 154.259C28.3969 154.084 28.1577 154.338 28.3005 154.516C30.2797 156.982 33.0393 158.552 35.1488 160.888C36.4615 162.341 37.6682 163.867 38.8575 165.407C37.5794 164.535 36.2156 163.777 34.9163 163.037C29.4213 159.911 26.2875 155.992 22.6212 150.909C21.3384 149.131 18.7881 147.445 22.9819 148.503C26.3251 149.347 29.3923 152.061 31.8954 154.286C36.0342 157.966 38.952 162.168 41.6141 166.847C41.8148 167.358 42.0173 167.869 42.2228 168.378C41.7926 167.848 41.3103 167.367 40.7991 166.912ZM42.0193 165.042C41.7801 159.881 40.8811 154.777 41.32 149.578C41.3344 149.411 41.0856 149.418 41.0672 149.578C40.5512 154.025 40.7538 158.491 41.238 162.931C40.7702 161.615 40.3226 160.293 39.9136 158.957C39.9522 158.906 39.9763 158.842 39.9599 158.762C38.8488 153.582 38.3993 148.758 39.5491 143.548C40.1818 140.679 41.1753 137.949 41.9759 135.152C42.1504 138.85 43.0648 142.708 43.0359 146.285C42.9799 152.801 42.5903 159.27 42.2903 165.771C42.1948 165.53 42.1109 165.284 42.0193 165.042ZM49.998 142.417C50.5276 144.678 49.3691 146.637 48.447 148.66C48.1046 146.556 48.8145 144.135 49.998 142.417ZM45.5129 114.382C45.4164 115.167 45.2245 115.923 44.938 116.689C44.6901 117.354 44.3429 117.981 44.0371 118.624C44.0255 118.545 44.0149 118.467 44.0053 118.388C44.1606 116.998 44.6776 115.536 45.5129 114.382ZM43.3118 120.55C44.6525 130.568 46.2459 140.566 47.7149 150.576C47.7111 150.592 47.7053 150.605 47.7014 150.621C47.6792 150.699 47.7091 150.768 47.7516 150.825C48.313 154.662 48.8589 158.501 49.3595 162.343C48.5454 160.867 47.3127 159.591 45.8456 159.037C45.6354 158.957 45.3913 159.162 45.401 159.381C45.4994 161.848 47.2529 164.21 49.6527 164.694C50.052 167.854 50.4292 171.015 50.7533 174.184C51.2616 179.153 51.5075 184.029 51.5143 188.852C49.6083 181.008 45.3238 173.425 42.4687 166.247C42.4668 166.241 42.4639 166.235 42.462 166.229C42.5469 166.233 42.6327 166.193 42.6568 166.094C43.742 161.557 43.6117 156.842 43.6657 152.2C43.7255 147.017 44.0284 141.823 43.1603 136.684C43.2578 135.394 43.0282 134.217 42.4967 133.143C42.6945 132.314 42.871 131.48 42.9973 130.626C43.0648 130.174 42.4118 129.966 42.3048 130.433C42.1649 131.046 42.0723 131.668 42.0144 132.299L42.0125 132.296C41.7579 133.543 41.4502 134.774 41.0894 135.993C40.2426 139.091 39.1767 142.085 38.5054 145.238C37.9248 147.972 38.0395 150.839 38.4543 153.65C37.1859 148.439 36.368 143.12 36.0477 137.77C36.7962 136.65 37.3296 135.251 37.836 134.049C38.3607 132.806 38.8237 131.408 38.4456 130.062C38.3521 129.728 37.9527 129.719 37.7723 129.972C36.9698 131.098 36.3631 132.406 35.9127 133.757C35.8886 131.94 35.9127 130.122 36.0092 128.304C36.3767 121.383 37.973 114.715 40.6593 108.537C40.7798 109.04 40.9033 109.541 41.0132 110.051C41.0557 110.255 41.3952 110.212 41.3759 110C41.3074 109.204 41.1984 108.416 41.075 107.631C41.2158 107.323 41.3547 107.014 41.5003 106.709C42.082 111.328 42.6964 115.944 43.3118 120.55ZM49.3421 164.103C47.7043 163.451 46.4678 161.741 46.1803 159.993C47.7178 160.852 48.529 162.532 49.3421 164.103ZM49.401 81.9892C47.9985 76.339 47.8818 71.1329 47.44 65.385C47.3503 64.2202 47.2626 63.9737 46.8999 63.2509C47.5461 64.5351 48.9042 65.6843 49.8572 66.6897C54.5198 71.6102 53.9276 78.3528 52.312 84.4225C52.283 84.5301 52.3351 84.5976 52.4036 84.6338C52.202 85.1991 52.0101 85.7693 51.795 86.3268C52.9081 80.9896 52.0978 74.6167 50.0694 69.793C50.0048 69.6385 49.7791 69.7519 49.8118 69.9016C50.5555 73.223 51.3561 76.4104 51.5616 79.8316C51.7265 82.5789 51.2404 85.2519 51.1323 87.9777C50.8054 88.766 50.4485 89.524 50.0974 90.2908C50.4774 87.4388 50.1215 84.8969 49.401 81.9892ZM67.7448 71.7031C68.1923 73.1066 67.3512 74.291 66.6268 75.4872C66.4503 74.16 66.9278 72.7506 67.7448 71.7031ZM74.9316 73.2758C75.0493 73.3814 74.8274 73.4753 74.6577 73.577C74.2969 73.7932 73.9497 73.8861 73.5321 73.8793C72.9051 73.8685 72.2878 73.715 71.6666 73.6123C72.0795 73.2895 72.4942 72.9687 72.9148 72.6567C73.0864 72.6733 73.2562 72.6909 73.4105 72.7183C73.9063 72.8054 74.54 72.9276 74.9316 73.2758ZM78.5284 67.9201C78.4252 67.9005 78.3365 67.9152 78.2583 67.9426C76.7556 66.4168 76.3254 64.3532 76.2453 62.2533C76.2038 61.1432 76.3466 60.0234 76.5415 58.9339C76.607 58.5915 76.6852 58.2531 76.7758 57.9157C76.8038 57.8013 76.7575 57.5499 76.7064 57.3348C76.7305 57.3612 76.7421 57.3964 76.7739 57.415C76.9494 57.8287 77.1578 58.2258 77.398 58.6052C77.6295 59.0062 77.97 59.2947 78.3095 59.5872C78.1841 62.3413 78.404 65.1395 78.5352 67.922C78.5333 67.9211 78.5303 67.9211 78.5284 67.9201ZM87.3116 62.9712C88.5646 62.3521 90.0625 61.8807 91.4534 62.2201C93.4674 62.713 92.1575 64.3541 91.2335 65.03C88.8163 66.7963 85.942 67.434 83.1621 68.3044C83.0927 68.1724 82.9663 68.0795 82.7811 68.103C82.3432 68.1577 81.9053 68.2037 81.4684 68.2526C82.1493 67.8389 82.7445 67.3039 83.1563 66.5714C83.3 66.3132 83.1293 65.9845 82.8622 65.9317C83.0994 65.6901 83.3531 65.4593 83.6232 65.2393C83.7939 65.1111 83.9579 64.9791 84.1228 64.8471C85.1694 64.0803 86.3336 63.4543 87.3116 62.9712ZM83.4023 61.1755C83.9299 60.1701 84.5974 59.2586 85.3931 58.4595C85.6767 58.1749 88.7353 56.4702 88.5559 57.2966C87.6193 61.6254 84.3697 63.736 81.2205 66.1811C81.8812 64.4852 82.5564 62.7824 83.4023 61.1755ZM78.9403 67.078C78.8814 63.4338 78.6345 59.7926 79.2046 56.1729C79.2133 56.122 80.1344 52.516 80.6717 53.2886C81.4626 54.431 82.0259 55.6584 82.4551 56.9866C83.2065 59.3153 82.321 61.4288 81.2697 63.4338C81.1501 63.3722 81.0025 63.379 80.8867 63.5062C80.0476 64.4402 79.4023 65.6862 79.0888 66.9733C79.0396 67.0085 78.9914 67.0447 78.9403 67.078ZM79.6791 68.1157C79.6521 68.0453 79.5885 68.0061 79.5161 68.0013C79.5277 67.9367 79.5354 67.8721 79.5489 67.8066C80.1334 67.6932 80.7035 67.5328 81.2648 67.345C80.7864 67.6775 80.2424 67.924 79.6791 68.1157ZM90.7936 77.2574C86.5525 76.962 83.383 73.537 81.1086 70.0532C81.2379 70.0727 81.368 70.0884 81.4963 70.105C82.8795 71.4997 85.1501 72.3115 87.4843 72.5266C88.852 73.979 89.9419 75.4549 90.7936 77.2574ZM87.1052 71.5623C85.3266 71.3168 83.7891 70.6527 82.2998 69.7539C82.3095 69.6639 82.3027 69.571 82.2651 69.4849C83.4554 69.2522 84.6716 68.8091 85.8349 68.3328C88.8211 68.0081 92.2501 68.3905 93.6526 70.5539C94.2622 71.4948 87.6309 71.6356 87.1052 71.5623Z" fill="#5B5853"/>
<path d="M66.4337 142.435C64.7187 144.195 63.4079 146.432 62.2254 148.578C62.1318 148.745 62.3787 148.89 62.48 148.727C63.7754 146.639 65.555 144.817 66.6864 142.631C66.7694 142.47 66.5649 142.299 66.4337 142.435Z" fill="#5B5853"/>
<path d="M26.8924 151.69C26.7439 151.564 26.5317 151.776 26.6783 151.906C27.8512 152.932 28.9469 154.055 30.1526 155.04C30.2906 155.152 30.4594 154.982 30.3465 154.843C29.3598 153.623 28.0711 152.705 26.8924 151.69Z" fill="#5B5853"/>
<path d="M40.3072 122.761C40.5638 125.02 41.5601 128.158 43.8124 129.145C43.8731 129.213 43.9204 129.298 43.9898 129.358C44.0911 129.448 44.3043 129.401 44.2869 129.232C44.285 129.214 44.2782 129.195 44.2763 129.178C44.3477 129.075 44.3573 128.921 44.2242 128.853C44.2184 128.849 44.2127 128.844 44.2069 128.84C44.0005 127.792 43.4458 126.729 43.0427 125.767C42.5295 124.544 41.892 123.39 40.8859 122.516C40.6892 122.346 40.2705 122.433 40.3072 122.761ZM42.5044 126.397C42.6945 126.872 42.8633 127.429 43.0812 127.954C42.0627 126.874 41.4483 125.298 41.1531 123.822C41.7376 124.591 42.1379 125.48 42.5044 126.397Z" fill="#5B5853"/>
<path d="M14.468 63.4876C13.0935 62.2357 11.3062 61.5883 9.73689 60.6318C9.52083 60.4997 9.32696 60.8391 9.54013 60.9731C11.0921 61.9443 12.7395 62.76 14.3195 63.6842C14.4371 63.7527 14.5751 63.5835 14.468 63.4876Z" fill="#5B5853"/>
<path d="M46.156 21.1356C45.613 21.5571 44.985 21.9552 44.2954 22.0471C43.9443 22.0941 43.924 22.5948 44.2954 22.6163C45.0391 22.6604 45.6313 22.4696 46.2708 22.0902C46.755 21.8036 47.5035 21.3195 47.6231 20.7297C47.654 20.5781 47.5575 20.4285 47.3955 20.4265C46.8871 20.4226 46.5331 20.8422 46.156 21.1356Z" fill="#5B5853"/>
<path d="M16.3642 48.7564C16.5147 48.6009 16.3932 48.3887 16.2051 48.3662C15.8087 48.3192 15.4267 48.417 15.0235 48.3417C14.576 48.2586 14.1506 47.9906 13.8043 47.7011C13.5921 47.5241 13.3105 47.7979 13.4986 48.0102C14.1226 48.7124 15.5067 49.6523 16.3642 48.7564Z" fill="#5B5853"/>
<path d="M79.8124 71.0479C79.3735 70.7828 79.0118 70.3926 78.7919 69.927C78.6752 69.6796 78.2585 69.8566 78.3549 70.1128C78.5594 70.6615 78.8237 71.1378 79.2751 71.5163C79.6696 71.8498 80.2995 72.29 80.8329 72.1149C80.9621 72.0728 81.0499 71.9105 80.9669 71.7843C80.7075 71.3931 80.2011 71.2816 79.8124 71.0479Z" fill="#5B5853"/>
<path d="M19.8817 54.698C19.8654 54.8584 20.0959 54.9044 20.1682 54.7772C21.0566 53.2065 21.2176 51.1957 20.8453 49.4469C20.8 49.2367 20.5309 49.1897 20.3901 49.3247C19.3657 50.3105 18.8719 52.3732 19.4766 53.7043C19.5818 53.94 19.9792 53.7708 19.8895 53.5283C19.521 52.5356 19.7641 51.1233 20.3843 50.1951C20.4817 51.7297 20.039 53.1635 19.8817 54.698Z" fill="#5B5853"/>
<path d="M41.7731 29.5447C41.7963 29.7413 42.05 29.7403 42.0741 29.5447C42.1107 29.2562 42.1503 28.8562 42.1715 28.4053C42.2718 28.3545 42.3335 28.2273 42.2342 28.1197C42.2168 28.1011 42.2014 28.0826 42.185 28.064C42.2313 26.2546 41.94 23.8789 40.0996 24.1156C39.9714 24.1323 39.844 24.2173 39.8527 24.366C39.9395 25.8448 40.7276 27.0576 41.7066 28.0972C41.7297 28.6909 41.7336 29.223 41.7731 29.5447ZM40.3755 24.6213C41.3188 24.7435 41.5831 26.1363 41.6738 27.4605C41.016 26.6302 40.4912 25.6844 40.3755 24.6213Z" fill="#5B5853"/>
</svg>
