<svg width="144" height="133" viewBox="0 0 144 133" fill="none" xmlns="http://www.w3.org/2000/svg">
<path d="M7.31663 88.5474C8.64764 88.7804 9.98893 88.9241 11.3137 89.1886C12.635 89.4527 13.9565 89.7152 15.28 89.9604C15.3218 89.9678 15.3646 89.9745 15.4064 89.982C17.5081 89.0855 19.4761 87.9139 21.2231 86.4382C21.4721 86.2283 21.8303 86.5658 21.5881 86.8C20.2123 88.1314 18.6735 89.2967 17.0172 90.2586C19.1041 90.6217 21.1979 90.9541 23.3027 91.1921C23.7386 91.2416 24.177 91.2765 24.6147 91.3184C28.2169 88.6668 30.6772 84.8546 33.8233 81.7261C37.2539 78.3143 41.6299 76.2112 45.4963 73.3767C46.5553 72.601 47.5718 71.7638 48.5022 70.8356C49.4559 69.8858 50.1928 68.7924 51.058 67.7723C51.1235 67.6953 51.1945 67.6844 51.2636 67.6967C51.315 67.6513 51.3806 67.6336 51.4469 67.6404C51.5494 67.5372 51.7535 67.6409 51.7134 67.7992C51.7023 67.8423 51.6853 67.8839 51.6742 67.9271C52.0481 68.8909 51.8482 70.1987 51.7455 71.1859C51.6266 72.3281 51.3887 73.4521 51.0547 74.5493C50.3459 76.8697 49.2239 79.0648 47.7948 81.0224C44.6789 85.2919 40.1992 88.316 35.285 90.1619C33.8172 90.7135 32.3132 91.1643 30.7879 91.5272C30.6276 91.5653 30.4626 91.6055 30.2996 91.6441C33.1947 91.6912 36.0908 91.5484 38.9515 91.1011C43.9972 90.3112 48.8421 88.6873 53.4108 86.4688C53.5303 85.4121 53.8105 84.3435 54.0031 83.3101C54.2275 82.1061 54.452 80.9022 54.6764 79.6982C55.1427 77.2 55.619 74.7064 56.2027 72.2322C56.2471 72.044 56.5678 72.0801 56.5448 72.2795C56.302 74.3881 55.9806 76.4841 55.6445 78.5793C55.868 78.2959 56.0947 78.0146 56.3091 77.7276C56.7375 77.1552 57.1675 76.5847 57.6 76.0153C58.4482 74.9009 59.2745 73.7725 60.134 72.6663C60.2239 72.5513 60.4142 72.6987 60.3364 72.8213C59.5898 74.0067 58.8102 75.1683 58.0513 76.3462C57.6776 76.9267 57.3017 77.5043 56.9223 78.0815C56.5335 78.6724 56.1864 79.3021 55.7669 79.8721C55.671 80.0013 55.5406 80.0515 55.4103 80.0565C55.2355 81.1242 55.0625 82.1922 54.8878 83.2599C54.745 84.1336 54.6531 85.0575 54.4915 85.9508C57.4779 84.4231 60.3374 82.6369 63.0398 80.6426C64.1661 79.812 65.2576 78.9373 66.3282 78.0384C66.4707 77.7552 66.6189 77.4753 66.7646 77.1943C66.8928 76.5976 66.9602 75.9914 66.9879 75.3822C67.0487 74.0862 66.9367 72.7868 66.7529 71.5052C66.3541 68.7215 65.6526 65.942 65.8336 63.1094C65.9852 60.7264 66.7576 58.4587 67.5989 56.2424C68.0306 55.1068 68.4799 53.9776 68.874 52.8281C69.2808 51.6435 69.5361 50.4292 69.8905 49.2315C69.9628 48.9899 70.2433 48.9517 70.4146 49.0673C70.4274 49.0322 70.4545 49.0092 70.4775 48.9831C70.5219 48.8323 70.7599 48.7701 70.8571 48.932C72.0027 50.8378 72.6512 53.133 73.1027 55.2939C73.5651 57.5118 73.7498 59.7734 73.6912 62.0374C73.5847 66.179 72.5743 70.2423 70.7138 73.9443C70.6832 74.0061 70.6458 74.0654 70.6144 74.1262C72.5645 72.2053 74.411 70.1775 76.1454 68.0574C76.169 66.7519 76.2923 65.4282 76.3891 64.1303C76.4983 62.6726 76.643 61.2164 76.7728 59.7611C76.7892 59.581 77.0553 59.5778 77.0573 59.7635C77.0711 61.2206 77.1012 62.6787 77.0931 64.1358C77.0884 65.0438 77.0892 65.9645 77.071 66.8831C77.3262 66.5589 77.5879 66.239 77.8384 65.9108C78.3238 64.9731 78.9997 64.1139 79.5323 63.206C79.591 63.1048 79.6415 62.9991 79.6995 62.897C79.6915 62.8159 79.7021 62.7309 79.7499 62.6415C80.0141 62.1494 80.2343 61.6453 80.4183 61.1308C80.4557 60.8825 80.4906 60.6331 80.5152 60.3825C80.6242 59.2358 80.6243 58.0738 80.5068 56.927C80.2565 54.5019 79.4772 52.1168 78.2436 50.0153C77.0734 48.0214 75.443 46.361 74.1468 44.4544C72.8147 42.4966 72.0656 40.3109 72.0364 37.9323C72.0066 35.5135 72.5053 32.8553 73.4293 30.5719C73.4474 30.1969 73.4825 29.8255 73.5521 29.4642C73.5835 29.305 73.8551 29.2989 73.8794 29.4654C73.89 29.532 73.8963 29.5989 73.9042 29.666C74.0226 29.5909 74.1853 29.5853 74.2496 29.7373C74.7766 30.9653 75.1342 32.1982 75.8245 33.3624C76.518 34.5304 77.3394 35.6157 78.1443 36.7077C79.7693 38.9127 81.1557 41.2069 82.0739 43.7989C83.8574 48.8312 83.9589 54.3461 82.2933 59.4225C84.5552 55.7816 86.5694 51.9937 88.3566 48.0967C88.5265 47.3952 88.6264 46.696 88.6973 45.9995C88.6504 45.9383 88.6058 45.8722 88.6002 45.7844C88.5163 44.4673 88.3137 43.3944 87.6292 42.2396C86.9701 41.1287 86.1238 40.1459 85.3019 39.1547C83.8721 37.4321 82.6649 35.6299 81.8349 33.5411C80.2489 29.5515 80.0211 25.0237 81.1193 20.8783C81.7032 18.6741 82.6861 16.0848 84.3527 14.4683C84.3909 14.4317 84.4343 14.4254 84.4756 14.4145C84.4778 14.4113 84.4791 14.4071 84.482 14.4048C84.6046 14.2404 84.9596 14.2588 84.9279 14.526C84.9027 14.7365 84.8628 14.9462 84.8248 15.1543C84.9301 15.4269 84.9746 15.743 85.0486 16.0216C85.2177 16.6543 85.3994 17.2833 85.591 17.909C86.002 19.2526 86.4464 20.5852 86.9 21.9137C87.8005 24.5463 88.7431 27.1689 89.4438 29.8647C90.0717 32.2777 90.5026 34.7611 90.5555 37.2583C90.6027 39.4509 90.3829 41.8208 89.5631 43.8888C89.5676 44.4224 89.5548 44.9558 89.5127 45.4857C91.0035 42.0206 92.3443 38.4901 93.5542 34.9229C91.4702 31.0595 91.5648 26.1091 92.4949 21.9485C93.5714 17.1316 95.9258 12.7584 98.2682 8.45878C99.652 5.92021 101.07 3.40301 102.258 0.765179C102.45 0.337933 103.157 0.457982 103.25 0.895445C105.201 10.0985 103.469 20.0937 98.9248 28.2816C97.747 30.4023 96.3505 32.4247 94.8142 34.308C93.4953 38.4036 92.0166 42.4573 90.3422 46.4256C90.5988 46.0441 90.855 45.666 91.0888 45.2933C91.8046 44.1495 92.5186 43.0056 93.2358 41.8638C94.6886 39.5501 96.1445 37.2385 97.603 34.9281C98.9562 32.7823 100.342 30.6376 102.026 28.7322C103.586 26.9657 105.396 25.4327 107.265 24.0068C108.337 23.1891 109.428 22.3935 110.504 21.5789C111.313 20.9676 112.145 20.3809 112.964 19.7814C113.443 19.1173 113.935 18.4607 114.412 17.7963C114.51 17.6596 114.675 17.6882 114.764 17.7795C114.788 17.7902 114.797 17.8085 114.809 17.8317C114.813 17.8409 114.82 17.8461 114.823 17.8551C114.824 17.8631 114.835 17.867 114.834 17.8756C114.774 18.44 114.536 18.8445 114.299 19.3633C113.999 20.0202 113.749 20.6987 113.531 21.3868C113.138 22.6279 112.848 23.8983 112.592 25.1736C112.075 27.7625 111.708 30.3986 110.889 32.9171C110.048 35.5052 108.666 37.7688 106.65 39.6107C104.346 41.7154 101.581 43.3226 98.9156 44.9188C95.6094 46.8999 92.2195 48.7381 88.7609 50.4403C88.6797 50.4797 88.6019 50.4899 88.5271 50.4882C87.143 53.4518 85.6498 56.3645 83.9824 59.1795C83.2107 60.4831 82.3897 61.7619 81.5468 63.0267C81.8497 62.9006 82.1474 62.7739 82.4243 62.6308C83.0375 62.3149 83.6375 61.9766 84.2331 61.6308C84.24 61.6237 84.2385 61.614 84.2454 61.6069C84.6545 61.2326 85.1902 61.0515 85.6622 60.7663C86.1996 60.4417 86.7071 60.0674 87.1891 59.6649C88.0636 58.9341 88.8467 58.1118 89.6443 57.2998C91.3963 55.5171 93.279 54.0135 95.6212 53.0777C97.9471 52.1487 100.508 51.8409 102.988 52.1745C105.259 52.4795 107.702 53.2731 109.446 54.8168C109.591 54.8867 109.653 55.0977 109.48 55.2258C108.54 55.9194 107.614 56.4134 106.504 56.8017C105.377 57.1958 104.213 57.4577 103.042 57.6787C100.655 58.1284 98.2643 58.5108 95.9007 59.0808C93.4619 59.6684 91.0533 60.3787 88.6868 61.2072C87.4596 61.6368 86.2419 62.0963 85.04 62.5933C84.4199 62.8491 83.81 63.1297 83.1972 63.4047C82.3554 63.8536 81.3941 64.4158 80.4352 64.6639C77.891 68.2974 75.0536 71.7403 71.9436 74.9026C72.1964 74.8412 72.4481 74.7805 72.6965 74.7195C72.9718 74.6511 73.2525 74.6034 73.5291 74.5387C74.1884 74.0565 75.0718 73.7309 75.7505 73.4209C76.7764 72.9541 77.8312 72.5472 78.9061 72.2071C81.0179 71.54 83.2081 71.1372 85.4162 70.9855C89.6841 70.692 93.9759 71.4212 97.9195 73.0762C99.9955 73.9476 102.172 75.0439 103.834 76.5886C103.933 76.6383 104.036 76.6798 104.132 76.7328C104.398 76.8785 104.217 77.2809 103.933 77.2114C103.836 77.1881 103.742 77.1502 103.645 77.1242C102.83 77.909 101.463 78.2466 100.418 78.4865C99.1904 78.768 97.928 78.9131 96.6698 78.955C93.9626 79.0464 91.2516 78.6644 88.606 78.1166C85.918 77.5587 83.2673 76.8291 80.5764 76.2814C79.237 76.0082 77.8858 75.7615 76.5212 75.6613C75.54 75.5898 74.5508 75.6245 73.5817 75.509C73.4865 75.5407 73.3935 75.577 73.2948 75.5943C73.1533 75.6207 73.0492 75.5642 72.9796 75.4804C72.2008 75.6996 71.4292 75.9554 70.6519 76.1766C69.4868 77.305 68.281 78.386 67.0461 79.4322C67.0416 79.4404 67.0387 79.4505 67.0335 79.4578C66.972 79.5535 66.8888 79.61 66.8005 79.6425C66.6241 79.7902 66.4535 79.9473 66.2755 80.0932C65.961 80.3504 65.6368 80.5934 65.3154 80.8419C69.0623 80.301 72.872 80.0539 76.6061 80.7692C78.532 81.138 80.3576 81.7723 82.096 82.6786C82.9281 83.1136 83.7233 83.6183 84.4683 84.1896C85.1467 84.7104 86.1404 85.3905 86.4623 86.2081C86.4946 86.2902 86.4636 86.3555 86.4133 86.4063C86.4146 86.4177 86.4246 86.4285 86.4242 86.4397C86.6705 86.6145 86.9142 86.7899 87.1686 86.963C87.2267 87.0028 87.176 87.0945 87.1131 87.0585C86.8487 86.9043 86.5571 86.7748 86.275 86.6377C85.4629 87.0926 84.4786 87.2062 83.5681 87.3223C82.5028 87.4579 81.4255 87.5172 80.3539 87.4439C78.3777 87.3071 76.4922 86.7017 74.6715 85.9496C72.8135 85.1818 71.0159 84.2677 69.1115 83.6148C68.1429 83.2834 67.1497 83.0058 66.1351 82.8546C65.6358 82.7804 65.1309 82.7404 64.626 82.7299C64.2566 82.723 63.8623 82.7889 63.4931 82.7506C63.1804 82.8033 62.8687 82.8553 62.5546 82.9122C59.5265 85.0648 56.3079 86.9359 52.9477 88.5023C53.3695 88.5005 53.7884 88.501 54.1812 88.4862C55.4312 88.4399 56.6827 88.4111 57.9343 88.4198C60.4197 88.4387 62.9048 88.5812 65.3544 89.0236C69.6649 89.8021 73.9232 91.5901 76.9363 94.8605C78.4408 96.4941 79.7709 98.5675 80.1497 100.792C80.1661 100.809 80.1834 100.825 80.1988 100.842C80.3049 100.957 80.2531 101.088 80.1567 101.154C80.0681 101.4 79.7151 101.463 79.6048 101.151C79.5976 101.13 79.5878 101.11 79.5806 101.089C77.9078 101.636 75.8424 101.343 74.1944 100.982C72.17 100.538 70.2377 99.7343 68.4138 98.7614C64.5365 96.6917 61.1046 93.8798 57.1674 91.9138C55.1432 90.903 53.1024 90.3223 50.919 89.9359C50.3866 89.9598 49.8459 90.0184 49.3049 90.0648C47.0315 90.9318 44.7045 91.6603 42.3162 92.1953C39.582 92.8062 36.832 93.147 34.0774 93.2869C35.2668 94.0367 36.4987 94.6903 37.7555 95.2867C38.6529 95.42 39.5413 95.7369 40.4242 95.9286C41.4531 96.1528 42.4904 96.3345 43.5304 96.5C45.6531 96.8393 47.7872 97.1102 49.8961 97.5306C53.845 98.3178 57.5151 99.8367 60.6346 102.42C61.4629 103.106 62.2339 103.858 62.9427 104.667C63.6052 105.424 64.4162 106.283 64.742 107.248C64.779 107.357 64.731 107.441 64.6601 107.497C64.6825 107.521 64.7076 107.545 64.7299 107.571C64.7845 107.634 64.715 107.746 64.6355 107.695C64.5585 107.645 64.4825 107.594 64.4065 107.544C64.3719 107.533 64.3343 107.527 64.3059 107.501C64.3019 107.498 64.2989 107.495 64.2959 107.491C63.4538 107.843 62.4956 107.881 61.5969 107.955C60.495 108.046 59.3891 108.111 58.2835 108.121C56.1622 108.14 54.0027 107.916 51.9713 107.284C48.0537 106.067 45.2882 103.164 42.4777 100.335C41.6725 99.5238 40.85 98.7267 39.9781 97.9875C39.0752 97.223 38.072 96.6489 37.1285 95.9494C35.561 95.2073 34.0371 94.3745 32.5962 93.3963C32.5752 93.3817 32.5652 93.3631 32.5471 93.3462C28.5443 93.4404 24.5336 93.1129 20.5453 92.5616C21.376 92.8509 22.2045 93.1435 23.0452 93.4061C24.2164 93.7705 25.3919 94.1284 26.573 94.4599C27.2033 94.6364 27.8392 94.7943 28.4694 94.9708C28.9806 95.1152 29.5318 95.2373 29.9469 95.5796C30.0814 95.6901 30.005 95.9286 29.8449 95.965C28.7713 96.2025 27.3734 95.5837 26.3448 95.2967C25.8216 95.1509 25.3077 94.9775 24.7874 94.8216C25.4803 95.4512 26.1188 96.1521 26.7511 96.8314C27.7204 97.8728 28.6735 98.927 29.6166 99.9924C31.4509 102.066 33.3168 104.161 34.843 106.474C34.9172 106.585 34.756 106.699 34.6631 106.613C32.6089 104.724 30.7861 102.58 28.9166 100.51C27.993 99.4869 27.0685 98.4646 26.1459 97.4409C25.2944 96.495 24.3867 95.5531 23.6862 94.4844C23.3603 94.3806 23.0289 94.2935 22.7035 94.1845C20.7745 93.534 18.8452 92.8399 16.9798 92.0155C14.9731 91.6748 12.9735 91.2957 10.9868 90.8877C9.62539 90.6084 8.29937 90.1965 6.94911 89.8663C6.07989 89.6623 6.45769 88.3976 7.31663 88.5474ZM103.11 8.91275C103.083 7.03864 102.901 5.18505 102.603 3.34319C100.64 12.7683 98.5404 22.1618 95.7378 31.3801C95.7056 31.4852 95.6709 31.5892 95.639 31.6927C100.505 25.2327 103.229 16.9652 103.11 8.91275ZM93.9522 33.7546C95.5001 29.0793 96.8542 24.3405 98.0921 19.5736C99.3495 14.7366 100.355 9.83048 101.656 5.00629C101.753 4.64476 101.841 4.27859 101.931 3.9153C98.062 11.4504 92.7031 18.6461 92.4907 27.3832C92.4347 29.7076 92.9045 31.8994 93.7041 34.0404C93.7899 33.9458 93.8691 33.8487 93.9522 33.7546ZM108.878 23.8238C106.995 25.3013 105.102 26.7915 103.437 28.5163C101.67 30.3451 100.239 32.4479 98.8767 34.5866C97.4229 36.8714 95.9928 39.1703 94.552 41.4637C93.9169 42.4747 93.2779 43.4827 92.6403 44.4926C93.0467 44.0736 93.4554 43.6574 93.8506 43.2301C95.6445 41.2876 97.4164 39.3252 99.1567 37.3348C102.652 33.3391 105.991 29.2286 109.176 24.9809C109.985 23.9003 110.767 22.7991 111.562 21.7081C110.677 22.4245 109.775 23.1208 108.878 23.8238ZM97.2404 44.8603C99.9842 43.2688 102.811 41.66 105.283 39.6592C107.515 37.8536 109.131 35.6327 110.075 32.9206C110.922 30.489 111.311 27.9339 111.815 25.4182C112.099 23.9999 112.413 22.5842 112.872 21.2114C112.939 21.0118 113.009 20.7935 113.083 20.5694C110.715 24.0413 108.208 27.4177 105.614 30.725C102.318 34.9267 98.9632 39.078 95.3722 43.0339C94.3781 44.1298 93.3729 45.2157 92.3577 46.2908C91.5795 47.1155 90.7986 47.9564 89.9865 48.758C92.439 47.524 94.8654 46.2374 97.2404 44.8603ZM89.3536 41.1706C89.6057 39.7277 89.7479 38.2782 89.6784 36.7528C89.5653 34.2486 89.0718 31.7728 88.4025 29.3629C87.6755 26.7442 86.7472 24.1868 85.8755 21.6141C85.4545 20.3722 85.046 19.1282 84.6892 17.8667C84.6013 17.5569 84.525 17.2441 84.4425 16.9332C84.3734 17.2518 84.3103 17.5721 84.2659 17.8962C84.1068 19.0545 84.086 20.2298 84.1612 21.396C84.3214 23.8848 84.9461 26.3113 85.7094 28.6763C87.0387 32.7913 88.7581 36.8704 89.3536 41.1706ZM83.268 21.8825C83.1544 20.5733 83.1588 19.2534 83.3277 17.9498C83.3633 17.6795 83.4062 17.3988 83.4561 17.1171C83.3785 17.2615 83.2896 17.3975 83.2177 17.5451C82.7239 18.5551 82.3307 19.6132 82.0254 20.6955C81.4332 22.7985 81.2067 24.9926 81.3319 27.1733C81.4567 29.3357 81.9388 31.4957 82.7803 33.4927C83.6822 35.6307 85.0183 37.3947 86.4854 39.1721C87.1967 40.0338 88.0391 41.0588 88.6521 42.1687C87.8852 35.3715 83.864 28.7262 83.268 21.8825ZM102.456 52.8352C99.8974 52.6075 97.3037 53.0961 94.9938 54.2186C93.0467 55.1643 91.5242 56.5667 90.0304 58.0743C90.2113 57.9637 90.3901 57.8485 90.5717 57.7388C94.1655 55.5905 98.0249 53.9625 102.253 53.7237C103.965 53.627 105.599 53.7914 107.212 54.1667C105.704 53.5056 104.165 52.9873 102.456 52.8352ZM87.9387 60.5729C90.3443 59.715 92.7941 58.9798 95.2752 58.3727C97.6471 57.7914 100.045 57.3864 102.447 56.9541C104.657 56.5561 106.909 56.0166 108.913 54.9634C108.857 54.936 108.8 54.9077 108.744 54.8803C106.155 54.3687 103.398 54.2374 100.802 54.6108C98.1437 54.9927 95.6789 55.9866 93.3286 57.2629C91.4634 58.2764 89.6873 59.4379 87.9041 60.5863C87.9133 60.5821 87.9261 60.5767 87.9387 60.5729ZM82.033 56.4884C82.0353 56.6864 82.0225 56.8809 82.0162 57.0779C82.3952 55.5094 82.6292 53.9059 82.6685 52.2912C82.7355 49.5631 82.3184 46.8252 81.4293 44.2444C80.5406 41.668 79.1725 39.3812 77.5681 37.1942C76.7178 36.0351 75.842 34.8852 75.1183 33.6397C74.7505 33.0084 74.3649 32.2975 74.0998 31.5613C74.1461 32.0431 74.2002 32.5249 74.2875 33.0054C74.5103 34.2357 74.8309 35.4417 75.2261 36.6275C76.0229 39.0191 77.0883 41.318 78.1713 43.5919C80.112 47.6704 81.983 51.8915 82.033 56.4884ZM81.0976 55.5529C80.976 53.7175 80.5866 51.8852 80.0305 50.1695C78.5706 45.6693 76.1814 41.5451 74.6782 37.0651C74.2183 35.6932 73.7442 34.1342 73.5299 32.5817C73.1287 34.2521 72.7334 35.9101 72.7362 37.6804C72.7405 40.2739 73.611 42.5181 75.1216 44.5966C76.4789 46.4641 78.0773 48.1452 79.1986 50.1779C80.1213 51.8497 80.744 53.6751 81.0976 55.5529ZM96.5891 73.3877C94.2036 72.5041 91.6939 71.9485 89.155 71.7737C86.4183 71.5855 83.6709 71.8352 81.0097 72.5007C79.6177 72.8485 78.2489 73.3045 76.9311 73.8699C78.9277 73.544 80.9393 73.3139 82.9596 73.2128C87.56 72.9821 92.1928 73.3675 96.6925 74.3551C97.9744 74.6365 99.2428 74.9816 100.496 75.3702C100.591 75.3995 100.687 75.4298 100.782 75.459C99.4429 74.6746 98.0842 73.9419 96.5891 73.3877ZM80.0327 75.2726C82.6871 75.7822 85.2947 76.4929 87.93 77.0847C90.584 77.6805 93.2866 78.1269 96.013 78.1187C97.3758 78.1141 98.737 77.9953 100.069 77.7041C100.704 77.5649 101.334 77.3903 101.952 77.1891C102.247 77.0925 102.538 76.9789 102.832 76.8875C102.15 76.6649 101.472 76.4264 100.789 76.2151C99.6968 75.8772 98.5927 75.5798 97.4795 75.3162C95.2428 74.7878 92.9811 74.3854 90.693 74.1507C86.1744 73.6887 81.5972 73.8167 77.1181 74.5805C76.8854 74.6198 76.6549 74.6699 76.4227 74.7119C77.6319 74.8603 78.8382 75.0423 80.0327 75.2726ZM70.1358 72.9238C71.2828 70.6401 72.1126 68.1847 72.6019 65.6761C73.1469 62.8812 73.1893 59.996 72.7972 57.1774C72.5618 55.49 72.1135 53.9044 71.5941 52.3314C72.0521 55.3789 72.0725 58.5344 71.8522 61.5575C71.5499 65.7043 70.7569 69.8172 69.3271 73.7258C69.0715 74.4235 68.7757 75.1062 68.4817 75.7891C69.0833 74.8639 69.6406 73.9083 70.1358 72.9238ZM68.7383 72.4139C69.5576 69.9965 70.2062 67.5194 70.6303 65.0015C71.0615 62.4374 71.2348 59.8295 71.1884 57.2302C71.1458 54.7795 70.8306 52.373 70.487 49.9563C70.2262 52.1464 69.2145 54.329 68.4611 56.3568C67.5837 58.7187 66.7596 61.1399 66.7199 63.6857C66.674 66.5408 67.4479 69.319 67.7995 72.1339C67.8966 72.9142 67.9599 73.7011 67.9735 74.4883C68.2451 73.8028 68.5018 73.1122 68.7383 72.4139ZM84.0525 84.7425C83.3214 84.2025 82.5397 83.7307 81.728 83.3233C80.0287 82.4703 78.1326 81.9185 76.2637 81.592C73.8954 81.1773 71.4971 81.158 69.1063 81.3452C71.0559 81.3579 73.0044 81.5307 74.9246 81.8667C77.1502 82.2571 79.3269 82.8752 81.4262 83.7109C82.4287 84.1107 83.4016 84.5715 84.3485 85.0903C84.5108 85.1787 84.6621 85.2789 84.8174 85.3744C84.5663 85.1581 84.319 84.9388 84.0525 84.7425ZM68.5074 82.4197C70.3825 83.0178 72.1598 83.8807 73.9552 84.6778C75.8294 85.5093 77.7746 86.2845 79.8264 86.5285C80.8919 86.6551 81.9699 86.6577 83.0386 86.5678C83.8222 86.5024 84.6208 86.3002 85.4147 86.2282C84.9896 86.0406 84.5623 85.8562 84.1526 85.6704C83.1173 85.1998 82.0616 84.7703 80.9939 84.377C79.0306 83.6537 76.9954 83.1076 74.9353 82.739C72.83 82.3625 70.6898 82.1901 68.5519 82.2158C68.326 82.2184 68.1052 82.2373 67.8819 82.2472C68.0911 82.3063 68.3015 82.355 68.5074 82.4197ZM76.6039 95.7096C75.2078 94.132 73.4912 92.8868 71.6121 91.9467C67.5302 89.9065 62.8604 89.2973 58.3474 89.2698C57.6928 89.2656 57.0394 89.2746 56.3859 89.2914C58.0062 89.4856 59.6161 89.763 61.2042 90.1451C65.7721 91.2442 70.1635 93.1312 74.0981 95.7006C75.8896 96.8709 77.521 98.2135 79.0418 99.6983C78.428 98.2564 77.6717 96.9165 76.6039 95.7096ZM57.6035 91.1698C60.0382 92.397 62.2817 93.9523 64.5538 95.449C66.8727 96.9772 69.2518 98.475 71.8688 99.4437C73.1727 99.9262 74.5316 100.295 75.9155 100.455C76.9909 100.578 78.0428 100.475 79.1043 100.455C72.3817 94.6644 64.0253 90.7645 55.1295 90.0487C55.9833 90.3868 56.8141 90.7728 57.6035 91.1698ZM61.9425 104.708C61.118 103.845 60.2221 103.042 59.2645 102.329C57.2167 100.806 54.9219 99.7627 52.4724 99.0703C49.9588 98.3601 47.3738 97.997 44.7951 97.6164C44.0321 97.503 43.2697 97.3844 42.5083 97.2573C47.9003 99.2224 53.539 100.634 58.6609 103.263C60.1139 104.009 61.5889 104.843 62.8949 105.865C62.591 105.465 62.2845 105.064 61.9425 104.708ZM41.9182 98.5435C43.3149 99.8659 44.6305 101.273 46.052 102.57C47.5554 103.942 49.2057 105.18 51.1035 105.951C53.0803 106.754 55.1957 107.059 57.3158 107.149C58.5413 107.201 59.7668 107.187 60.9913 107.128C61.8277 107.088 62.7178 106.946 63.5724 106.998C62.0742 106.002 60.591 104.998 58.9809 104.173C56.9292 103.122 54.796 102.247 52.6259 101.474C48.7017 100.074 44.6753 98.9622 40.7784 97.4842C41.1745 97.8401 41.5554 98.2002 41.9182 98.5435ZM33.7491 89.8024C36.2257 88.9631 38.6186 87.8529 40.813 86.4254C44.8758 83.7834 48.1958 79.9564 49.882 75.3807C50.3185 74.196 50.6311 72.9752 50.842 71.7305C50.9452 71.1161 51.0029 70.4957 51.0391 69.8736C50.4288 71.4694 49.6357 73.0039 48.7804 74.4738C47.5678 76.5566 46.1456 78.515 44.5748 80.3429C41.3647 84.0781 37.5194 87.205 33.1646 89.5162C32.3768 89.9348 31.5687 90.31 30.753 90.6678C31.7628 90.4169 32.7648 90.1346 33.7491 89.8024ZM28.4793 90.528C29.6004 90.1044 30.6956 89.6186 31.7729 89.0924C33.9091 88.0483 35.9481 86.8049 37.8598 85.3891C41.7566 82.5024 45.1189 78.973 47.7194 74.8747C48.715 73.3061 49.5347 71.6613 50.3231 69.9947C49.3478 71.2286 48.0789 72.3128 46.9367 73.2278C45.0958 74.7014 43.0992 75.955 41.1163 77.2258C38.9536 78.6126 36.7988 80.0291 34.9286 81.8024C33.2627 83.3825 31.8156 85.1716 30.3292 86.917C28.9831 88.4966 27.5872 90.0312 26 91.36C26.8222 91.0734 27.6668 90.8348 28.4793 90.528Z" fill="#5B5853"/>
</svg>
