<svg width="202" height="251" viewBox="0 0 202 251" fill="none" xmlns="http://www.w3.org/2000/svg">
<path d="M53.9882 1.52322C54.1369 1.5442 54.2793 1.59839 54.4084 1.68408C54.7008 1.62405 55.0086 1.65338 55.279 1.83061C60.5369 2.72994 65.1956 7.09004 68.3386 11.0288C72.9552 16.811 76.5142 23.6123 79.1235 30.5166C84.1257 43.754 85.7342 58.579 83.2486 72.5747C89.3911 63.8085 98.1356 57.0244 108.223 53.109C115.9 50.1301 124.162 48.9103 132.37 49.5539C133.036 49.6078 133.36 50.3319 133.309 50.9072C132.118 64.5999 130.077 78.4794 124.474 91.1515C119.182 103.119 110.433 113.581 98.6198 119.516C92.147 122.769 85.0196 124.345 77.7811 123.832C77.045 123.78 76.7734 123.214 76.8417 122.649C73.7006 124.897 70.4235 126.961 66.9815 128.555C65.8915 136.717 64.5516 144.846 62.9669 152.922C62.6292 154.644 62.268 156.364 61.9022 158.084C65.4722 152.195 69.891 146.818 74.9842 142.23C78.8914 138.709 83.1901 135.639 87.7889 133.091C88.3666 132.769 89.4049 132.99 89.3653 133.839C88.3582 155.349 79.1244 176.011 63.653 191.039C59.2887 195.276 54.4929 199.033 49.3078 202.211C49.2814 202.228 49.2537 202.23 49.2269 202.242C45.0981 210.654 40.0815 218.535 34.1349 225.806C30.7279 229.973 27.0622 233.912 23.1348 237.592C22.9614 237.755 22.7749 237.903 22.599 238.064C22.5454 238.113 22.4947 238.169 22.4411 238.218C27.477 236.237 32.5272 234.284 37.52 232.191C44.0817 229.442 50.5771 226.532 57.0021 223.465C62.611 220.788 68.1559 217.971 73.6526 215.064C75.3583 212.755 77.3095 210.581 79.0901 208.35C81.2708 205.617 83.4398 202.882 85.5377 200.084C87.9587 196.855 90.3149 193.582 92.6261 190.275C87.5358 180.112 87.0435 167.418 89.9567 156.559C93.0854 144.889 100.347 134.716 110.223 127.775C115.87 123.808 122.292 120.965 129.038 119.511C129.763 119.354 130.552 119.574 130.814 120.362C134.236 130.683 134.53 141.977 131.591 152.457C128.505 163.464 121.951 173.184 113.014 180.298C107.978 184.307 102.23 187.39 96.116 189.393C93.7773 192.805 91.3738 196.172 88.8614 199.444C86.4156 202.631 83.897 205.762 81.3174 208.838C80.2403 210.122 79.1364 211.443 77.9976 212.74C83.8291 209.578 89.5991 206.305 95.2865 202.896C105.658 196.681 115.761 190.026 125.598 182.997C127.079 170.192 132.97 157.801 140.781 147.674C149.664 136.161 161.695 127.297 175.242 122.039C180.565 119.973 186.113 118.53 191.748 117.633C191.829 117.598 191.904 117.554 191.982 117.521C192.125 117.456 192.25 117.496 192.376 117.523C194.853 117.149 197.345 116.85 199.846 116.704C200.724 116.323 201.701 117.163 201.332 118.08C201.33 118.155 201.359 118.222 201.344 118.303C196.037 144.994 177.8 167.74 152.889 178.704C145.402 181.998 137.442 184.154 129.329 185.157C128.735 185.232 128.335 184.959 128.103 184.571C113.293 195.175 97.8234 204.854 81.8048 213.515C87.9684 212.839 94.1168 212.15 100.261 211.394C100.267 211.336 100.271 211.275 100.308 211.22C100.822 210.492 101.426 209.821 102.057 209.172C102.976 207.57 104.177 206.095 105.373 204.756C107.285 202.613 109.415 200.66 111.693 198.914C116.384 195.314 121.736 192.576 127.309 190.631C139.135 186.503 151.832 186.178 164.184 187.462C171.542 188.228 178.831 189.537 186.093 190.922C186.358 190.971 186.547 191.098 186.692 191.252C187.165 190.907 188.068 191.328 187.919 192.026C185.33 204.139 171.571 210.136 161.329 214.35C148.509 219.625 134.654 222.948 120.732 221.483C113.621 220.735 106.589 218.672 100.386 215.081C99.9802 214.846 99.7867 214.494 99.7241 214.123C92.8374 215.06 85.9114 215.901 78.984 216.301C78.9399 216.303 78.9164 216.275 78.8744 216.274C76.9054 217.458 74.8033 218.489 72.8168 219.56C70.261 220.943 67.6828 222.287 65.0957 223.61C60.135 226.148 55.098 228.541 50.042 230.881C51.7201 231.296 53.3969 231.724 55.0812 232.106C55.4467 231.855 55.9448 231.804 56.4569 232.1C57.6 230.5 59.326 229.158 60.8649 228.056C62.8276 226.654 64.9275 225.451 67.1123 224.434C71.6361 222.33 76.5815 221.126 81.5708 220.968C91.301 220.658 100.588 224.232 109.248 228.31C111.876 229.547 114.479 230.835 117.087 232.111C118.485 232.797 119.883 233.479 121.281 234.165C122.738 234.878 124.361 235.478 125.62 236.513C125.869 236.72 125.961 237.005 125.946 237.29C126.276 237.534 126.411 238.085 125.986 238.346C121.19 241.297 115.958 243.777 110.758 245.92C105.892 247.927 100.859 249.531 95.6418 250.298C90.8343 251.007 85.8692 250.977 81.12 249.89C76.4351 248.818 72.0652 246.755 68.0133 244.206C65.7396 242.773 63.5539 241.208 61.4367 239.555C59.4777 238.025 57.3735 236.485 55.5844 234.73C52.4847 234.077 49.4005 233.365 46.3278 232.578C41.2914 234.878 36.2398 237.14 31.1528 239.322C28.3807 240.509 25.5905 241.651 22.7968 242.782C19.8753 243.964 16.8593 245.507 13.7965 246.248C13.5301 246.313 13.2877 246.235 13.0687 246.109C12.4404 246.538 11.7953 246.937 11.1239 247.253C10.6823 247.462 10.3041 246.902 10.4942 246.518C10.4366 246.3 10.454 246.063 10.6887 245.883C12.7973 244.248 14.8113 242.523 16.7839 240.754C16.8246 240.566 16.9271 240.391 17.1628 240.297C17.2324 240.269 17.2999 240.244 17.3696 240.217C27.7413 230.782 36.2184 219.558 42.7169 207.019C43.9268 204.686 45.0467 202.313 46.125 199.918C45.3299 196.311 44.82 192.617 44.0177 189.008C43.9283 189.023 43.8339 189.034 43.7369 189.018C34.6833 187.494 26.4297 181.765 20.8468 174.611C15.1027 167.25 12.1695 157.896 12.4764 148.578C12.6198 144.173 13.4463 139.827 14.9457 135.681C14.9478 135.478 14.9288 135.275 14.9401 135.071C14.9567 134.8 15.1344 134.657 15.3453 134.572C16.1111 132.647 17.1858 130.662 19.5188 130.585C21.7012 130.516 24.0231 132.142 25.7973 133.238C34.1713 138.412 40.8274 146.187 44.4763 155.35C48.4052 165.219 48.5914 176.253 45.3611 186.334C46.1801 189.748 47.0109 193.338 47.4282 196.913C49.4368 192.184 51.2394 187.369 52.8232 182.479C53.6284 177.481 55.0346 172.584 56.9556 167.889C57.7902 164.529 58.5774 161.16 59.2865 157.778C60.5735 151.628 61.7118 145.432 62.7144 139.204C62.5566 139.06 62.4164 138.88 62.3239 138.637C60.7125 134.417 58.8109 130.306 56.6652 126.325C36.3647 124.753 17.5663 111.024 7.46256 93.7702C5.92541 91.1456 4.56223 88.4138 3.38316 85.6089C2.74529 84.0876 2.1611 82.5426 1.63563 80.9781C1.24882 79.8267 0.766532 78.6005 0.607056 77.365C0.533628 77.2019 0.514734 77.0243 0.571011 76.8537C0.562278 76.7101 0.537166 76.5658 0.540191 76.4234C0.568316 75.5266 1.74515 74.862 2.35499 75.7083C4.4244 74.7271 6.7517 74.1641 8.94615 73.6998C11.8099 73.0958 14.7782 72.8895 17.701 72.9437C23.6678 73.0547 29.6237 74.3962 35.0691 76.8312C46.4853 81.9406 54.9085 92.1349 58.3654 104.108C60.3089 110.84 60.6824 117.966 59.3052 124.846C59.2956 124.893 59.2659 124.924 59.2518 124.972C60.8131 127.881 62.252 130.85 63.5369 133.892C65.5588 120.116 66.8205 106.205 67.1271 92.2905C64.5922 90.4534 62.3452 88.2074 60.0917 86.0412C57.5749 83.6226 55.1836 81.0781 52.9038 78.43C48.3993 73.2008 44.4088 67.4902 41.682 61.1232C39.0624 55.007 37.8778 48.4231 38.1939 41.7753C38.4956 35.4478 39.9945 29.2736 41.9687 23.276C44.4605 15.7138 47.5636 8.13859 51.514 1.2104C52.1944 0.0660692 53.7848 0.515348 53.9882 1.52322ZM119.089 126.17C119.056 126.113 119.027 126.055 119.009 125.989C112.012 129.314 105.795 134.201 101.003 140.372C94.1295 149.218 90.6819 160.414 90.941 171.582C91.0501 176.222 91.9056 180.701 93.164 185.106C91.0745 177.333 91.4358 168.673 93.2116 160.974C95.376 151.598 100.047 142.809 106.678 135.832C110.259 132.061 114.436 128.563 119.089 126.17ZM94.7794 186.922L94.7882 186.916C94.1776 177.473 95.9276 167.949 98.999 159.036C102.254 149.593 107.1 140.859 113.5 133.185C114.514 131.967 115.591 130.811 116.676 129.661C114.006 131.542 111.439 133.525 109.096 135.873C105.742 139.236 102.775 143.051 100.385 147.157C95.7243 155.158 93.3154 164.408 93.3185 173.655C93.3248 178.142 93.9761 182.528 94.7794 186.922ZM126.478 124.776C126.747 124.138 126.982 123.485 127.27 122.855C127.111 122.898 126.958 122.959 126.802 123.004C126.752 123.064 126.718 123.131 126.647 123.186C111.53 135.1 101.072 152.626 97.1784 171.423C96.1709 176.275 95.6632 181.243 95.3915 186.194C95.5103 186.02 95.6266 185.843 95.7454 185.669C96.276 181.696 97.7543 177.698 98.981 173.922C100.403 169.546 102.034 165.236 103.856 161.009C107.392 152.799 111.743 144.956 116.729 137.539C119.626 133.227 122.75 129.068 126.055 125.06C126.185 124.908 126.329 124.827 126.478 124.776ZM97.4079 183.222C97.6141 182.911 97.8326 182.607 98.0363 182.294C105.86 170.21 112.717 157.49 118.545 144.331C120.173 140.658 121.718 136.95 123.18 133.208C123.545 132.28 123.889 131.346 124.235 130.415C114.313 143.119 106.442 157.443 100.841 172.546C99.9406 174.973 99.1143 177.424 98.3577 179.898C98.0198 180.994 97.7235 182.112 97.4079 183.222ZM121.245 167.666C127.378 159.194 130.698 148.794 130.823 138.35C130.881 133.405 130.209 128.504 128.893 123.753C128.154 126.74 127.079 129.594 125.972 132.485C124.657 135.91 123.276 139.307 121.825 142.675C118.926 149.414 115.753 156.037 112.322 162.522C108.185 170.344 103.646 177.998 98.7657 185.421C107.71 181.703 115.537 175.548 121.245 167.666ZM181.903 122.679C173.902 125.048 166.277 128.658 159.403 133.457C148.352 141.174 139.641 151.735 133.78 163.844C131.416 168.73 129.671 173.866 128.221 179.088C128.293 179.088 128.349 179.113 128.416 179.139C129.424 174.837 131.324 170.546 133.276 166.758C135.849 161.759 138.959 157.083 142.569 152.769C146.262 148.35 150.625 144.298 155.035 140.601C160.264 136.219 165.932 132.274 171.734 128.695C175.059 126.651 178.453 124.612 181.903 122.679ZM178.749 128.789C181.741 126.932 184.797 125.176 187.92 123.551C190.38 122.268 192.949 120.802 195.616 119.886C193.333 120.144 191.066 120.536 188.817 120.989C184.203 123.397 179.521 125.676 175.015 128.292C169.258 131.636 163.652 135.215 158.409 139.325C149.278 146.483 141.216 155.239 135.454 165.364C133.93 168.045 132.59 170.837 131.461 173.705C131.022 174.82 130.679 175.958 130.326 177.093C131.022 175.996 131.766 174.934 132.426 173.922C134.114 171.342 135.884 168.821 137.73 166.352C141.478 161.348 145.544 156.581 149.892 152.091C158.509 143.191 168.222 135.326 178.749 128.789ZM192.753 122.888C191.659 123.401 190.564 123.911 189.509 124.459C186.852 125.836 184.233 127.29 181.661 128.821C176.441 131.928 171.41 135.358 166.611 139.082C156.924 146.597 148.19 155.341 140.651 165.007C138.591 167.645 136.625 170.352 134.753 173.124C133.769 174.583 132.807 176.056 131.86 177.542C131.54 178.048 131.231 178.58 130.917 179.112C131.61 178.6 132.289 178.068 132.982 177.556C133.868 176.097 134.782 174.665 135.842 173.273C137.556 171.021 139.423 168.892 141.354 166.829C145.215 162.711 149.425 158.937 153.722 155.279C162.698 147.634 172.201 140.695 181.313 133.227C184.004 131.023 186.658 128.767 189.208 126.399C190.423 125.268 191.585 124.076 192.753 122.888ZM134.467 176.432C144.909 168.592 155.045 160.35 164.743 151.609C170.768 146.179 176.635 140.575 182.345 134.812C182.637 134.517 182.916 134.211 183.207 133.916C179.185 137.232 175.068 140.426 170.922 143.584C161.688 150.614 152.343 157.327 144.13 165.582C140.746 168.98 137.466 172.629 134.467 176.432ZM191.82 137.907C194.187 133.121 196.073 128.124 197.458 122.98C193.976 127.016 190.194 130.829 186.481 134.615C181.369 139.826 176.124 144.91 170.758 149.859C160.071 159.715 148.913 169.057 137.314 177.82C135.442 179.237 133.539 180.613 131.643 181.997C157.473 177.951 180.194 161.409 191.82 137.907ZM115.35 198.533C113.099 200.011 111.003 201.708 109.042 203.554C110.465 202.578 111.915 201.646 113.411 200.79C118.231 198.037 123.408 195.845 128.693 194.168C139.42 190.766 150.775 189.843 161.977 190.038C164.19 190.075 166.403 190.2 168.614 190.316C150.257 187.816 131.307 188.066 115.35 198.533ZM136.964 219.176C144.027 218.262 150.916 216.321 157.576 213.828C163.433 211.637 169.33 209.161 174.621 205.793C179.453 202.718 183.433 198.86 185.67 193.681C159.122 203.246 131.28 209.719 103.36 213.64C113.626 219.12 125.462 220.662 136.964 219.176ZM107.668 210.437C112.214 209.821 116.757 209.174 121.294 208.406C135.487 206.011 149.566 202.95 163.473 199.24C170.705 197.311 177.908 195.264 185.08 193.124C185.028 193.115 184.974 193.104 184.922 193.095C184.887 193.1 184.852 193.097 184.815 193.1C184.789 193.121 184.778 193.15 184.739 193.156C174.615 195.568 164.253 197.092 154.071 199.268C143.868 201.447 133.73 203.907 123.628 206.52C120.861 207.234 118.095 207.94 115.324 208.642C113.889 209.008 112.453 209.368 111.007 209.686C110.048 209.897 109.079 210.018 108.113 210.146C107.969 210.243 107.817 210.339 107.668 210.437ZM110.682 208.521C111.663 208.155 112.654 207.801 113.687 207.515C116.154 206.83 118.622 206.149 121.104 205.527C126.267 204.235 131.445 203.001 136.64 201.846C146.688 199.606 156.754 197.432 166.87 195.517C170.927 194.747 175.009 193.948 179.107 193.323C178.896 193.327 178.684 193.326 178.477 193.329C175.712 193.397 172.947 193.457 170.184 193.569C164.665 193.791 159.148 194.18 153.66 194.842C142.624 196.173 131.546 198.893 121.279 203.184C118.375 204.398 115.533 205.756 112.78 207.279C112.063 207.677 111.373 208.098 110.682 208.521ZM103.475 211C103.494 210.982 103.502 210.962 103.521 210.944C107.768 207.414 113.004 204.759 118.004 202.472C123.125 200.126 128.452 198.25 133.899 196.831C144.75 194.003 156.034 192.826 167.215 192.318C168.047 192.279 168.881 192.28 169.712 192.249C168.009 192.141 166.306 192.016 164.603 191.955C159.187 191.76 153.762 191.812 148.361 192.247C137.172 193.149 125.843 195.635 115.869 200.928C113.164 202.362 110.559 203.985 108.094 205.797C106.723 206.804 105.446 207.918 104.167 209.025C103.592 209.75 103.008 210.464 102.392 211.15C102.751 211.098 103.114 211.045 103.475 211ZM67.3329 240.681C71.1468 243.374 75.2915 245.719 79.7764 247.094C89.2405 249.997 99.4341 248.24 108.526 244.858C113.389 243.049 117.961 240.631 122.651 238.466C122.504 238.484 122.355 238.489 122.208 238.507C114.711 242.189 105.953 243.812 97.667 244.223C89.0516 244.652 80.3757 243.582 72.1429 240.996C69.8734 240.282 67.6386 239.465 65.4489 238.532C64.8547 238.278 64.1694 238.02 63.4723 237.737C64.7462 238.737 66.0117 239.748 67.3329 240.681ZM65.2771 236.689C67.2034 237.545 69.1728 238.313 71.1688 238.992C75.1706 240.353 79.3096 241.339 83.484 242.005C91.7617 243.324 100.268 243.222 108.512 241.69C112.205 241.006 115.778 239.942 119.332 238.777C101.241 240.528 82.7719 239.463 64.8811 236.489C65.0131 236.556 65.1485 236.634 65.2771 236.689ZM107.481 237.942C111.632 237.911 115.788 237.787 119.939 237.619C112.804 235.393 105.624 233.489 98.1857 232.482C89.7992 231.345 81.2899 231.163 72.8601 231.933C70.4749 232.15 68.0906 232.427 65.7221 232.773C64.5756 232.938 63.4364 233.157 62.3005 233.387C62.1474 233.418 61.9884 233.461 61.831 233.496C76.8529 236.47 92.1175 238.051 107.481 237.942ZM63.3054 228.857C61.484 230.001 59.8491 231.521 58.0725 232.745C58.424 232.819 58.7747 232.884 59.1283 232.956C60.4943 232.022 62.8351 232.028 64.3974 231.777C66.6022 231.423 68.804 231.063 71.0272 230.831C75.3026 230.384 79.6034 230.183 83.9014 230.227C92.463 230.32 101.033 231.349 109.353 233.377C113.749 234.448 118.099 235.775 122.268 237.531C122.391 237.526 122.517 237.524 122.642 237.516C120.939 236.787 119.283 235.785 117.69 235.005C115.465 233.914 113.241 232.821 111.012 231.74C106.854 229.725 102.651 227.774 98.2936 226.224C89.2184 222.996 79.6659 222.115 70.4595 225.393C67.9558 226.287 65.556 227.446 63.3054 228.857ZM17.0837 138.356C17.2809 139.721 17.421 141.098 17.6311 142.452C18.0514 145.187 18.5544 147.908 19.1782 150.602C20.3453 155.625 21.9613 160.569 24.1728 165.231C26.2278 169.562 28.8569 173.659 32.0289 177.26C34.615 180.196 37.59 182.632 40.8035 184.78C40.0977 184.003 39.4492 183.168 38.789 182.331C37.2686 180.41 35.8329 178.423 34.4542 176.399C31.7131 172.376 29.2416 168.171 27.0367 163.83C22.7868 155.464 19.4572 146.578 17.3825 137.416C17.2716 137.724 17.185 138.044 17.0837 138.356ZM28.8197 138.955C27.0625 137.541 25.2045 136.27 23.2489 135.151C22.3906 134.661 21.514 134.126 20.593 133.763C19.8917 133.485 19.418 133.573 19.0559 133.861C22.194 136.773 24.647 140.604 26.9922 144.103C29.8354 148.347 32.4153 152.765 34.7374 157.314C38.5979 164.876 41.6529 172.84 43.9478 181.018C47.0784 165.473 41.3155 149.024 28.8197 138.955ZM42.9725 184.917C41.9793 181.184 40.8678 177.481 39.5395 173.849C36.135 164.535 31.6546 155.619 26.1951 147.34C24.6763 145.038 23.0725 142.797 21.4271 140.585C20.7883 139.728 20.1348 138.888 19.4901 138.042C21.4169 146.617 24.1895 154.973 28.1192 162.853C30.2787 167.182 32.7317 171.363 35.4429 175.365C36.7635 177.316 38.1495 179.219 39.5879 181.084C40.6819 182.502 41.9146 183.835 42.8501 185.352C42.8905 185.211 42.9279 185.063 42.9725 184.917ZM23.2311 166.469C20.7585 161.604 18.9878 156.425 17.6317 151.148C16.9547 148.508 16.3867 145.839 15.8969 143.158C15.8888 143.121 15.8828 143.082 15.8748 143.046C15.5778 144.606 15.3687 146.183 15.2788 147.766C14.8008 156.073 17.0354 164.503 21.7486 171.371C26.8312 178.779 34.1832 183.68 42.4776 186.726C33.9318 182.782 27.4013 174.68 23.2311 166.469ZM50.6386 197.38C50.9028 197.591 51.0844 197.89 51.0714 198.25C67.325 187.241 79.3503 170.319 84.5661 151.392C85.8087 146.888 86.6341 142.255 87.0564 137.596C85.7606 139.806 84.3677 141.974 83.0463 144.159C81.3594 146.944 79.6749 149.731 77.988 152.516C74.7216 157.916 71.4379 163.305 68.1568 168.696C64.8757 174.087 61.5996 179.483 58.3231 184.874C56.6316 187.659 54.9324 190.438 53.2165 193.212C52.3667 194.587 51.5174 195.991 50.6386 197.38ZM54.5686 185.664C53.9738 187.301 53.558 189.184 52.8836 190.866C54.3082 188.464 55.7425 186.066 57.1818 183.672C60.4314 178.268 63.6831 172.86 66.9302 167.454C70.1773 162.047 73.4219 156.638 76.6836 151.239C78.5332 148.176 80.3432 145.062 82.1827 141.965C82.1764 141.973 82.1676 141.978 82.1613 141.986C80.6863 143.498 79.2496 145.046 77.8537 146.633C75.062 149.805 72.4342 153.114 69.9965 156.563C64.994 163.646 60.8721 171.233 57.2778 179.108C56.2913 181.264 55.3741 183.439 54.5686 185.664ZM57.6505 175.315C58.6549 173.101 59.7199 170.913 60.8706 168.77C65.0131 161.055 69.9661 153.765 75.5672 147.033C77.1333 145.149 78.7553 143.316 80.4328 141.528C81.354 140.545 82.3127 139.415 83.3447 138.396C73.6318 145.208 65.6497 154.498 60.3281 165.125C59.5103 168.541 58.6094 171.939 57.6505 175.315ZM7.39939 85.0785C8.653 86.91 9.96359 88.7036 11.3308 90.4546C14.1207 94.0282 17.1424 97.4148 20.3731 100.595C26.8369 106.959 34.1032 112.539 41.9163 117.141C44.6761 118.769 47.5304 120.236 50.4118 121.644C49.8205 121.171 49.2287 120.694 48.6378 120.225C46.3419 118.403 44.0627 116.56 41.7981 114.7C37.0423 110.796 32.3489 106.812 27.7208 102.754C23.1663 98.7616 18.6708 94.7029 14.2604 90.557C11.468 87.9314 8.57788 85.3056 5.80967 82.5892C6.34602 83.4215 6.85725 84.284 7.39939 85.0785ZM48.752 91.1638C41.8272 82.1051 31.1154 76.6338 19.818 75.6443C16.6462 75.3667 13.4778 75.4497 10.3206 75.853C8.73045 76.0557 7.1864 76.4031 5.64661 76.7711C7.30668 77.3932 8.94537 78.2105 10.4385 78.8902C13.1377 80.118 15.7673 81.5224 18.3319 83.005C23.4192 85.944 28.2707 89.301 32.8166 93.0266C41.9963 100.546 49.9237 109.495 56.1742 119.588C56.4839 120.087 56.7714 120.598 57.0703 121.106C58.2625 110.52 55.2338 99.6424 48.752 91.1638ZM18.877 85.9277C16.1447 84.2209 13.3343 82.6495 10.4603 81.1958C8.98674 80.4515 7.5115 79.7143 6.01246 79.0212C5.50605 78.7847 4.99337 78.5556 4.48321 78.3287C6.12962 79.9278 7.72789 81.5849 9.36046 83.1853C11.4542 85.236 13.5651 87.2713 15.6906 89.2888C20.0847 93.4595 24.5211 97.5842 29.0317 101.63C33.5422 105.676 38.1156 109.645 42.75 113.547C44.9936 115.432 47.2477 117.305 49.5165 119.16C51.3743 120.679 53.3071 122.127 54.9957 123.83C55.1003 123.878 55.2054 123.931 55.31 123.979C46.5065 108.584 33.9055 95.3137 18.877 85.9277ZM53.7882 124.115C37.2422 117.983 22.5607 106.724 11.2673 93.2946C9.88695 91.6519 8.58454 89.9461 7.30391 88.2242C7.66501 88.9751 8.01521 89.734 8.40734 90.468C10.9503 95.2385 14.0488 99.724 17.6522 103.755C24.2914 111.175 32.6468 116.972 41.8576 120.731C46.0524 122.44 50.407 123.715 54.8148 124.762C54.4609 124.562 54.1254 124.335 53.7882 124.115ZM115.68 53.3899C110.763 55.4999 105.931 57.5134 101.561 60.6689C97.1998 63.8189 93.3689 67.6596 90.147 71.9626C83.9232 80.2823 79.8511 90.6754 78.1119 100.889C77.3156 105.558 76.9254 110.313 76.7878 115.055C76.9806 116.148 77.162 117.244 77.3942 118.336C76.7494 113.17 77.2841 107.718 78.192 102.647C79.2114 96.9483 81.0601 91.5284 83.4452 86.2676C88.5939 74.9097 97.2583 65.4947 107.918 59.0502C110.998 57.1895 114.218 55.5949 117.553 54.2482C119.492 53.4655 121.483 52.7129 123.505 52.0971C120.87 52.3372 118.252 52.7784 115.68 53.3899ZM118.793 57.2104C120.312 56.0666 121.858 54.8643 123.445 53.7304C122.038 54.1535 120.638 54.5945 119.258 55.1245C116.288 56.267 113.42 57.7191 110.676 59.3295C105.28 62.495 100.323 66.4205 96.0454 70.9901C88.1804 79.3893 82.5966 89.6028 80.0029 100.817C78.8696 105.718 78.5451 110.578 78.4098 115.518C80.0216 106.66 83.4616 98.1029 87.8781 90.3043C93.6684 80.0831 101.804 71.3628 110.672 63.7357C113.304 61.4699 116.019 59.2986 118.793 57.2104ZM123.711 56.281C122.916 56.8236 122.127 57.3704 121.36 57.9406C118.945 59.7298 116.57 61.578 114.254 63.4928C109.559 67.3751 105.111 71.5485 101.01 76.0551C93.7498 84.0272 87.1558 93.2713 83.1628 103.338C81.5055 107.515 80.3024 111.843 79.4463 116.245C81.4127 112.162 84.0036 108.333 86.4454 104.53C89.3487 100.005 92.3604 95.5449 95.4923 91.1759C101.694 82.5228 108.242 74.0842 115.15 65.982C117.108 63.6862 119.09 61.4138 121.104 59.164C121.967 58.2005 122.839 57.2407 123.711 56.281ZM122.984 59.6279C121.218 61.589 119.473 63.5715 117.748 65.5707C114.299 69.5665 110.904 73.6155 107.62 77.7474C101.051 86.011 94.8769 94.5892 88.9656 103.338C85.6732 108.209 82.7654 113.458 79.0995 118.045C79.0979 118.052 79.0983 118.057 79.0966 118.064C79.7143 117.596 80.34 117.139 80.9493 116.656C85.8065 112.784 90.3956 108.584 94.6876 104.094C103.214 95.1695 110.625 85.1245 116.556 74.2963C118.174 71.3431 119.686 68.3323 121.082 65.2672C122.083 63.0728 122.9 60.572 124.115 58.3925C123.734 58.8054 123.356 59.2159 122.984 59.6279ZM88.1415 117.821C86.7613 118.777 85.3588 119.694 83.9214 120.56C83.4384 120.849 82.9518 121.174 82.4584 121.477C93.5959 120.877 103.977 114.917 111.536 106.826C120.401 97.339 125.249 84.952 127.942 72.4155C129.172 66.695 129.958 60.8927 130.556 55.0707C130.169 56.9351 129.578 58.7975 129.077 60.5585C128.293 63.3124 127.396 66.0372 126.382 68.7149C124.264 74.3207 121.639 79.7274 118.597 84.8913C112.609 95.059 104.917 104.194 95.9265 111.835C93.4303 113.958 90.8339 115.955 88.1415 117.821ZM79.9007 121.517C80.5223 120.767 81.3564 120.372 82.2484 119.825C83.4729 119.072 84.6809 118.292 85.8809 117.502C88.3489 115.876 90.7415 114.14 93.0545 112.3C97.6326 108.657 101.873 104.615 105.739 100.223C113.468 91.4434 119.69 81.3842 124.007 70.5119C125.217 67.4595 126.284 64.3484 127.179 61.1882C127.451 60.2289 127.671 59.2396 127.876 58.2469C127.753 58.4471 127.629 58.6427 127.506 58.8429C127.238 59.2685 126.937 59.6578 126.631 60.0566C126.474 60.2624 126.312 60.4778 126.098 60.6283C125.984 60.7088 125.852 60.7352 125.722 60.7637C125.206 62.1977 124.539 63.5922 123.949 64.9307C122.657 67.8556 121.264 70.7389 119.77 73.5687C116.89 79.0248 113.647 84.2938 110.086 89.3295C102.782 99.6554 94.0117 108.957 84.216 116.953C82.3506 118.474 80.4303 120.004 78.4556 121.477C78.9401 121.504 79.42 121.506 79.9007 121.517ZM69.8591 95.3176C69.7717 97.6522 69.666 99.9885 69.5295 102.321C69.0573 110.415 68.269 118.491 67.24 126.533C70.2519 124.322 73.3476 122.236 76.3861 120.06C72.8262 111.277 72.707 101.086 74.8747 91.6708C73.5806 93.0008 72.1288 94.1872 70.4577 95.145C70.2569 95.264 70.0538 95.3087 69.8591 95.3176ZM75.977 98.7957C75.5468 102.823 75.7044 106.809 76.1695 110.773C76.6998 91.616 83.5619 72.4382 99.2637 60.4815C99.6354 60.1975 100.026 59.9209 100.412 59.6402C97.9391 61.1344 95.5796 62.8251 93.3814 64.722C88.3837 69.0355 84.3861 74.2844 81.4598 80.0849C80.7933 82.1268 79.9752 84.1154 78.9653 85.9963C77.4767 90.1087 76.4452 94.4041 75.977 98.7957ZM69.9446 92.415C73.4516 90.095 75.8979 86.7125 77.6237 82.9458C77.8132 82.4809 77.9955 82.0144 78.1905 81.5583C78.2498 81.42 78.3288 81.2938 78.3906 81.1576C78.9686 79.6642 79.4448 78.1292 79.8367 76.5881C81.5762 69.7486 82.0866 62.5376 81.7335 55.5055C81.0154 41.2397 76.4259 27.1089 68.3796 15.2888C66.4583 12.465 64.2758 9.7612 61.6661 7.54689C60.1207 6.23177 58.4783 5.27504 56.7382 4.51844C59.8603 11.5284 61.8418 19.0924 63.6253 26.5306C65.594 34.7315 67.0844 43.0472 68.1279 51.4141C69.8238 65.0037 70.3278 78.7213 69.9446 92.415ZM57.6812 16.9514C58.3729 23.3696 59.0735 29.7823 59.9473 36.1811C61.4132 46.9046 63.0653 57.6036 64.9034 68.2736C65.4052 71.1817 65.9187 74.091 66.4456 76.9943C66.6515 78.1277 66.912 79.2979 67.159 80.474C67.0288 72.911 66.606 65.3567 65.8349 57.8375C64.8761 48.5056 63.3951 39.218 61.2827 30.0757C60.2594 25.6447 58.9986 21.2896 57.6812 16.9514ZM67.1949 88.2741C67.1998 87.6775 67.1862 87.0826 67.189 86.4885C67.1831 86.4751 67.1668 86.4743 67.1604 86.4563C66.1432 84.1136 65.8777 81.3417 65.4118 78.8425C64.9284 76.2308 64.4563 73.6157 63.9955 70.9972C63.0399 65.5702 62.1301 60.1342 61.2706 54.6888C59.5815 43.9932 58.127 33.2663 56.7161 22.533C56.0793 17.7024 55.474 12.8597 54.9635 8.0103C54.8145 7.51196 54.6589 7.01657 54.5125 6.52032C52.7604 28.4556 54.9834 50.5933 61.3511 71.6807C62.2772 74.7446 63.3111 77.7657 64.3681 80.7847C65.2087 83.1812 66.2575 85.5885 66.9828 88.0471C67.0552 88.1242 67.1251 88.1991 67.1949 88.2741ZM41.0185 39.1537C40.3246 45.646 41.056 52.1396 43.3389 58.2665C45.6649 64.5058 49.3711 70.1382 53.5446 75.289C55.4341 77.6221 57.4594 79.8376 59.5039 82.0351C57.9849 80.1539 56.6096 78.1662 55.3829 76.1994C52.191 71.0869 49.8489 65.4989 48.2795 59.6823C45.1653 48.1377 45.1751 36.0089 46.93 24.2404C47.4235 20.9432 48.0539 17.6659 48.7894 14.4159C48.9938 13.5118 49.1969 12.5939 49.4043 11.6709C45.4044 20.441 42.0442 29.554 41.0185 39.1537ZM50.7753 13.4378C50.1314 16.1716 49.5614 18.924 49.0789 21.6892C48.0897 27.3871 47.4777 33.1591 47.4421 38.9446C47.3663 50.6651 49.7177 62.3698 55.2309 72.7718C56.7147 75.5738 58.4296 78.2562 60.3749 80.7634C61.6478 82.4022 63.0551 83.9095 64.4801 85.406C64.062 84.3693 63.6713 83.3255 63.2735 82.3056C62.2042 79.5788 61.2736 76.7925 60.3914 73.9993C58.6282 68.4268 57.1457 62.7674 55.9418 57.0493C53.5229 45.5699 52.2546 33.8684 52.1339 22.1385C52.075 16.5132 52.3427 10.8946 52.8355 5.29208C52.2991 8.02971 51.4158 10.7184 50.7753 13.4378Z" fill="#5B5853"/>
</svg>
