<svg width="60" height="58" viewBox="0 0 60 58" fill="none" xmlns="http://www.w3.org/2000/svg">
<path fill-rule="evenodd" clip-rule="evenodd" d="M29.8242 0.00138764C31.6289 -0.00991452 32.543 0.0465963 33.8086 0.216129C34.7109 0.351755 35.8125 0.532589 36.2695 0.623006C36.7266 0.724726 37.5352 0.916863 38.0859 1.06379C38.6367 1.21072 39.5625 1.49327 40.1367 1.68541C40.7109 1.88885 41.9062 2.37484 42.7734 2.78172C43.6406 3.17729 44.8594 3.79891 45.4688 4.14928C46.0781 4.49965 47.2148 5.24559 47.9883 5.7994C48.8203 6.39841 50.1211 7.51732 51.1641 8.51191C52.1953 9.51781 53.332 10.7497 53.918 11.5183C54.4688 12.2303 55.1719 13.2023 55.4766 13.6657C55.7812 14.1291 56.4141 15.248 56.8828 16.1522C57.3516 17.0563 57.9492 18.4013 58.2305 19.1472C58.5 19.8932 58.875 21.0912 59.0625 21.8033C59.25 22.5153 59.4609 23.4082 59.5195 23.7811C59.5898 24.1541 59.7305 25.0131 59.8242 25.7025C59.9297 26.4145 60 27.7595 60 28.8671C60 29.9408 59.918 31.3875 59.8242 32.1447C59.7188 32.8907 59.5312 34.0096 59.4023 34.6312C59.2734 35.2528 59.0039 36.2926 58.8164 36.9482C58.6172 37.6037 58.2188 38.7226 57.9375 39.4346C57.6445 40.1467 57.0469 41.4012 56.6133 42.2037C56.1797 43.0061 55.4883 44.1589 55.0898 44.7466C54.6797 45.3344 54 46.2498 53.5781 46.781C53.1562 47.3122 52.043 48.4764 51.1055 49.3805C50.1328 50.3186 48.7852 51.4714 47.9883 52.0478C47.2148 52.6016 46.0781 53.3476 45.4688 53.6979C44.8594 54.0483 43.6992 54.6473 42.8906 55.0203C42.082 55.3933 40.8984 55.8793 40.2539 56.1053C39.6094 56.3314 38.6367 56.6365 38.0859 56.7834C37.5352 56.9304 36.6914 57.1225 36.2109 57.2242C35.7305 57.3259 34.6172 57.5068 33.75 57.6311C32.6133 57.8006 31.5703 57.8571 30 57.8571C28.4062 57.8571 27.375 57.7893 26.1328 57.6198C25.1953 57.4842 23.6484 57.1903 22.6758 56.953C21.7148 56.7156 20.3906 56.3427 19.7461 56.1166C19.1016 55.8793 17.7891 55.3255 16.8164 54.8621C15.8555 54.41 14.6602 53.7884 14.1797 53.4945C13.6992 53.2007 12.6914 52.5225 11.9531 51.9913C11.1562 51.4262 9.87891 50.3299 8.83594 49.3353C7.80469 48.3294 6.66797 47.0975 6.08203 46.3289C5.53125 45.6169 4.82812 44.6449 4.52344 44.1815C4.21875 43.7181 3.58594 42.5992 3.11719 41.6951C2.64844 40.7909 2.05078 39.4459 1.76953 38.7C1.5 37.954 1.125 36.756 0.9375 36.044C0.75 35.3319 0.539062 34.4391 0.480469 34.0661C0.410156 33.6931 0.269531 32.8342 0.175781 32.1447C0.0703125 31.4327 0 30.0877 0 28.9801C0 27.9064 0.0820312 26.4597 0.175781 25.7025C0.28125 24.9566 0.492188 23.7133 0.65625 22.9335C0.820312 22.1536 1.21875 20.7635 1.53516 19.8254C1.86328 18.8986 2.50781 17.3728 2.97656 16.4347C3.44531 15.508 4.10156 14.3099 4.45312 13.7787C4.79297 13.2475 5.51953 12.2303 6.08203 11.5183C6.63281 10.8063 7.69922 9.61952 8.4375 8.87358C9.17578 8.13894 10.3008 7.12175 10.9336 6.61315C11.5781 6.11586 12.7031 5.3021 13.4531 4.81611C14.2148 4.33011 15.4805 3.60678 16.2891 3.2112C17.0977 2.81563 18.293 2.28442 18.9609 2.03578C19.6172 1.77583 20.7539 1.40286 21.4805 1.18811C22.1953 0.984676 23.3672 0.702122 24.082 0.566496C24.7969 0.43087 25.8516 0.261337 26.4258 0.17092C27 0.0918049 28.5352 0.0126898 29.8242 0.00138764ZM24.7266 3.2225C23.8594 3.39204 22.5703 3.69719 21.8555 3.92324C21.1406 4.13798 20.0156 4.54486 19.3359 4.81611C18.6562 5.09866 17.8125 5.48293 17.4609 5.66377C17.1094 5.85591 16.4062 6.24018 15.9023 6.53404C15.3984 6.81659 14.4258 7.44951 13.7578 7.9355C13.0898 8.41019 11.8945 9.40479 11.1211 10.1394C10.3359 10.8628 9.36328 11.8687 8.94141 12.366C8.53125 12.8632 7.88672 13.6996 7.51172 14.2308C7.13672 14.762 6.5625 15.6549 6.23438 16.2087C5.90625 16.7625 5.37891 17.8136 5.0625 18.5256C4.74609 19.2377 4.28906 20.4131 4.05469 21.1251C3.83203 21.8372 3.50391 23.0578 3.35156 23.8376C3.1875 24.6175 3 25.8042 2.94141 26.4937C2.87109 27.1831 2.8125 28.2681 2.8125 28.9236C2.8125 29.5791 2.87109 30.6641 2.94141 31.3536C3 32.043 3.1875 33.2297 3.35156 34.0096C3.50391 34.7894 3.83203 36.0101 4.05469 36.7221C4.28906 37.4341 4.72266 38.5531 5.00391 39.2086C5.29688 39.8641 5.82422 40.9039 6.17578 41.5255C6.53906 42.1471 7.04297 42.9609 7.30078 43.3339C7.55859 43.7068 8.09766 44.4189 8.48438 44.9162C8.87109 45.4135 9.92578 46.5324 10.8281 47.4139C11.7422 48.2842 12.9023 49.3014 13.418 49.6744C13.9336 50.0473 14.6719 50.5672 15.0586 50.8159C15.4453 51.0645 16.3125 51.5618 16.9922 51.9122C17.6719 52.2739 18.75 52.7825 19.3945 53.0537C20.0391 53.3137 21.1758 53.7206 21.9141 53.9353C22.6523 54.1613 23.918 54.4665 24.7266 54.6247C25.5352 54.783 26.7656 54.9638 27.4805 55.0203C28.1953 55.0881 29.3203 55.1446 30 55.1446C30.6797 55.1446 31.8047 55.0881 32.5195 55.0203C33.2344 54.9638 34.4648 54.783 35.2734 54.6247C36.082 54.4778 37.3477 54.1613 38.0859 53.9466C38.8242 53.7206 39.9844 53.3137 40.6641 53.0311C41.3438 52.7486 42.5039 52.1948 43.2422 51.7992C43.9805 51.3923 45.0469 50.7481 45.6094 50.3638C46.1719 49.9795 47.0039 49.3579 47.4727 48.985C47.9297 48.612 48.8672 47.753 49.5586 47.0636C50.2383 46.3741 51.1289 45.4135 51.5156 44.9162C51.9023 44.4189 52.4414 43.7068 52.6992 43.3339C52.957 42.9609 53.4609 42.1471 53.8125 41.5255C54.1758 40.9039 54.7031 39.8641 54.9961 39.2086C55.2891 38.5531 55.7109 37.4341 55.9453 36.7221C56.168 36.0101 56.4961 34.7894 56.6484 34.0096C56.8125 33.2297 57 32.043 57.0586 31.3536C57.1289 30.6641 57.1875 29.5791 57.1875 28.9236C57.1875 28.2681 57.1289 27.1831 57.0586 26.4937C57 25.8042 56.8125 24.6175 56.6484 23.8376C56.4961 23.0578 56.168 21.8372 55.9453 21.1251C55.7109 20.4131 55.2891 19.2942 54.9961 18.6386C54.7031 17.9831 54.1289 16.8642 53.7188 16.1522C53.2969 15.4401 52.6289 14.4116 52.2305 13.8691C51.832 13.3266 51.1875 12.5242 50.8008 12.0721C50.4141 11.6313 49.5234 10.7271 48.8086 10.0603C48.0938 9.40478 47.0977 8.54582 46.582 8.17285C46.0664 7.79988 45.3281 7.27998 44.9414 7.03133C44.5547 6.78268 43.7109 6.29669 43.0664 5.94632C42.4219 5.60726 41.3438 5.09866 40.6641 4.81611C39.9844 4.54486 38.8242 4.12668 38.0859 3.90063C37.3477 3.68589 36.082 3.36943 35.2734 3.2225C34.4648 3.06427 33.2344 2.88344 32.5195 2.82693C31.8047 2.75911 30.5742 2.71391 29.7656 2.71391C28.957 2.72521 27.8555 2.77042 27.3047 2.82693C26.7539 2.88344 25.5938 3.06427 24.7266 3.2225ZM29.918 11.5296C31.1016 11.5183 31.8398 11.5748 32.7305 11.7556C33.3867 11.88 34.4062 12.1625 34.9805 12.3886C35.5547 12.6033 36.3516 12.965 36.7383 13.1797C37.125 13.3944 37.8047 13.8352 38.25 14.163C38.6953 14.4795 39.4922 15.1802 40.0078 15.7227C40.5352 16.2539 41.2383 17.1242 41.5664 17.6441C41.9062 18.1527 42.3633 19.0116 42.5859 19.5428C42.8203 20.074 43.1016 20.8878 43.2305 21.3512C43.3594 21.8146 43.5234 22.7526 43.5938 23.4421C43.6992 24.3914 43.6992 24.9113 43.5938 25.646C43.5234 26.1772 43.3242 27.0362 43.1719 27.5674C43.0078 28.0986 42.6445 29.0592 42.3516 29.7148C42.0586 30.3703 41.4727 31.5118 41.0508 32.2578C40.6289 33.0037 39.9375 34.1452 39.5156 34.8007C39.082 35.4563 38.2617 36.6543 37.6875 37.4567C37.1133 38.2592 36.0117 39.7398 35.2383 40.7344C34.4648 41.729 33.1758 43.3452 32.3555 44.3398C31.5469 45.323 30.7852 46.182 30.6797 46.2272C30.5625 46.2837 30.2578 46.3289 30 46.3289C29.7422 46.3289 29.4258 46.2611 29.2852 46.1933C29.1562 46.1142 28.3125 45.1535 27.4336 44.0685C26.543 42.9835 25.2891 41.4012 24.6445 40.5648C24 39.7285 23.0156 38.4061 22.4531 37.6263C21.8906 36.8464 20.9766 35.5015 20.4141 34.6312C19.8633 33.7609 19.0547 32.3821 18.6211 31.5796C18.1875 30.7772 17.6133 29.6017 17.3672 28.9801C17.1094 28.3585 16.793 27.4204 16.6641 26.8892C16.5234 26.358 16.3828 25.6234 16.3477 25.2504C16.3008 24.8774 16.3359 24.0411 16.4062 23.3856C16.4883 22.73 16.6523 21.8146 16.7695 21.3512C16.8984 20.8878 17.1797 20.074 17.4141 19.5428C17.6367 19.0116 18.0938 18.1527 18.4336 17.6441C18.7617 17.1242 19.4648 16.2652 19.9805 15.7227C20.4961 15.1915 21.3398 14.4568 21.8555 14.0839C22.3711 13.7109 23.2383 13.2023 23.7891 12.9311C24.3398 12.6711 25.1016 12.3433 25.4883 12.2077C25.875 12.0721 26.6719 11.8687 27.2461 11.7443C27.9727 11.5974 28.8047 11.5296 29.918 11.5296ZM25.6055 15.0785C25.2188 15.248 24.5273 15.621 24.082 15.9035C23.6367 16.1861 22.957 16.6947 22.5703 17.045C22.1953 17.3954 21.6562 17.9605 21.3867 18.2996C21.1055 18.6386 20.6719 19.3055 20.4141 19.7689C20.1562 20.2323 19.8047 21.0347 19.6406 21.5546C19.4766 22.0632 19.2773 22.9787 19.207 23.589C19.125 24.3801 19.125 24.9113 19.2188 25.4765C19.2891 25.9059 19.5117 26.731 19.6992 27.2848C19.8984 27.8386 20.4141 28.9914 20.8477 29.8278C21.2812 30.6641 22.0312 31.9639 22.5 32.7098C22.9688 33.4558 23.8242 34.7555 24.4219 35.5919C25.0078 36.4282 26.4375 38.327 27.5977 39.8189C28.7578 41.2995 29.7773 42.5992 29.8477 42.7009C29.9297 42.8027 30.0117 42.8592 30.0352 42.8253C30.0586 42.7914 30.5508 42.181 31.1367 41.469C31.7109 40.757 32.7188 39.4798 33.3633 38.6435C34.0078 37.8071 35.0391 36.4056 35.6484 35.5354C36.2578 34.6651 37.1836 33.2863 37.6875 32.4838C38.1797 31.6813 38.9297 30.3477 39.3281 29.5452C39.7266 28.7315 40.1953 27.6578 40.3594 27.1492C40.5234 26.6293 40.7227 25.872 40.793 25.4539C40.875 24.8887 40.875 24.3801 40.7812 23.5551C40.6992 22.9335 40.5117 22.018 40.3477 21.5207C40.1836 21.0234 39.8438 20.2323 39.5859 19.7689C39.3281 19.3055 38.8945 18.6386 38.6133 18.2996C38.3438 17.9605 37.8047 17.3954 37.4297 17.045C37.043 16.706 36.3984 16.1974 35.9766 15.9261C35.5547 15.6549 34.875 15.2819 34.4531 15.1011C34.0312 14.9202 33.1875 14.649 32.5781 14.5021C31.6758 14.276 31.1719 14.2308 29.9414 14.2308C28.7344 14.2421 28.1953 14.2986 27.3633 14.5134C26.7891 14.6603 25.9922 14.9089 25.6055 15.0785ZM29.918 16.6156C30.3516 16.6043 31.0898 16.6721 31.5586 16.7625C32.0156 16.8529 32.6953 17.0337 33.0469 17.1694C33.3984 17.305 34.0078 17.5989 34.3945 17.8249C34.7812 18.0509 35.4375 18.5708 35.8594 18.9777C36.2812 19.3846 36.8555 20.074 37.125 20.5035C37.3945 20.9443 37.7578 21.7015 37.9219 22.1988C38.1328 22.8091 38.25 23.4647 38.2852 24.2332C38.332 25.0696 38.2969 25.6008 38.1562 26.2676C38.0391 26.7649 37.7109 27.6578 37.418 28.2455C36.9609 29.1497 36.7266 29.4661 35.8711 30.2799C35.1328 30.9919 34.6172 31.3762 33.9258 31.7152C33.4102 31.9752 32.5664 32.2917 32.0508 32.4273C31.4258 32.578 30.7422 32.6533 30 32.6533C29.2578 32.6533 28.5742 32.578 27.9492 32.4273C27.4336 32.2917 26.5898 31.9752 26.0742 31.7152C25.3828 31.3762 24.8672 30.9919 24.1289 30.2799C23.2734 29.4661 23.0391 29.1497 22.582 28.2455C22.2891 27.6578 21.9609 26.7649 21.8438 26.2676C21.7031 25.6008 21.668 25.0696 21.7148 24.2332C21.75 23.476 21.8789 22.8091 22.0781 22.1988C22.2422 21.7015 22.5703 20.9669 22.8164 20.5713C23.0625 20.1644 23.6367 19.475 24.082 19.0342C24.5391 18.5934 25.2188 18.0509 25.6055 17.8249C25.9922 17.5989 26.6016 17.305 26.9531 17.1694C27.3047 17.0337 27.9375 16.8529 28.3594 16.7738C28.7812 16.6947 29.4727 16.6156 29.918 16.6156ZM27.1406 20.1079C26.7656 20.3227 26.2383 20.7409 25.9688 21.0234C25.7109 21.306 25.3477 21.792 25.1719 22.0971C24.9961 22.4023 24.7734 22.9561 24.6797 23.329C24.5742 23.702 24.4922 24.3123 24.4922 24.6853C24.4922 25.0583 24.5625 25.6234 24.6445 25.9285C24.7383 26.245 24.9844 26.8214 25.207 27.217C25.4297 27.6126 25.875 28.1777 26.1914 28.4602C26.5195 28.7541 27.0117 29.1271 27.3047 29.2966C27.5977 29.4548 28.1484 29.6696 28.5352 29.7713C28.9219 29.8617 29.5781 29.9408 30 29.9408C30.4219 29.9408 31.0781 29.8617 31.4648 29.7713C31.8516 29.6696 32.4023 29.4548 32.6953 29.2966C32.9883 29.1271 33.4922 28.7541 33.8086 28.4602C34.1367 28.1777 34.5703 27.6126 34.793 27.217C35.0156 26.8214 35.2617 26.245 35.3555 25.9285C35.4375 25.6234 35.5078 25.0583 35.5078 24.6853C35.5078 24.3123 35.4258 23.702 35.3203 23.329C35.2266 22.9561 35.0039 22.4023 34.8281 22.0971C34.6523 21.792 34.2891 21.306 34.0312 21.0234C33.7617 20.7409 33.2344 20.3227 32.8594 20.1079C32.4844 19.8932 31.8281 19.6219 31.4062 19.5202C30.9844 19.4185 30.3516 19.3281 30 19.3281C29.6484 19.3281 29.0156 19.4185 28.5938 19.5202C28.1719 19.6219 27.5156 19.8932 27.1406 20.1079Z" fill="#5B5853"/>
</svg>
