<?xml version="1.0" standalone="no"?>
<!DOCTYPE svg PUBLIC "-//W3C//DTD SVG 20010904//EN"
 "http://www.w3.org/TR/2001/REC-SVG-20010904/DTD/svg10.dtd">
<svg version="1.0" xmlns="http://www.w3.org/2000/svg"
 width="526.000000pt" height="526.000000pt" viewBox="0 0 526.000000 526.000000"
 preserveAspectRatio="xMidYMid meet">
<metadata>
Created by potrace 1.14, written by Peter Selinger 2001-2017
</metadata>
<g transform="translate(0.000000,526.000000) scale(0.100000,-0.100000)"
fill="#000000" stroke="none">
<path d="M4382 5245 c-55 -40 -109 -175 -121 -309 -10 -103 -37 -169 -95 -234
-45 -50 -82 -125 -97 -199 l-12 -61 -122 63 c-658 338 -1413 362 -2094 66
-607 -263 -1097 -792 -1321 -1426 -161 -458 -178 -975 -46 -1455 74 -272 214
-561 378 -783 28 -37 49 -69 47 -71 -2 -1 -64 -15 -138 -30 -156 -32 -359 -96
-486 -155 -125 -58 -255 -134 -255 -148 0 -21 26 -15 98 21 202 100 494 184
754 216 l98 12 93 -93 c345 -349 788 -557 1347 -636 154 -22 584 -24 730 -5
290 39 453 91 822 261 408 188 683 256 1088 269 171 6 195 9 198 24 5 25 -66
32 -254 25 -276 -11 -509 -50 -739 -124 -60 -20 -218 -82 -350 -138 -328 -140
-464 -182 -715 -217 -125 -17 -580 -17 -720 0 -536 67 -956 249 -1269 549
l-96 92 95 1 c268 1 549 -49 881 -155 333 -107 539 -140 889 -139 273 1 364
10 588 60 862 192 1486 781 1641 1549 121 599 -57 1276 -468 1778 l-61 75 0
95 0 94 73 6 c179 16 287 89 287 195 0 47 -48 129 -94 163 -36 25 -45 39 -55
82 -14 64 -72 171 -94 175 -15 3 -14 -3 4 -45 14 -30 24 -80 28 -134 l6 -87
45 -34 c53 -40 90 -92 90 -125 0 -66 -115 -117 -260 -115 -46 0 -90 -4 -97
-10 -9 -7 -13 -39 -13 -100 0 -117 -25 -348 -55 -511 -67 -365 -182 -691 -379
-1072 -215 -417 -430 -747 -643 -987 -146 -164 -216 -252 -265 -334 -84 -143
-150 -331 -165 -474 -8 -81 11 -79 26 2 30 156 114 349 211 487 45 63 289 330
311 339 8 4 87 -208 134 -365 49 -158 107 -402 101 -419 -7 -18 -228 -87 -378
-119 -178 -38 -351 -55 -546 -55 -198 0 -317 11 -487 45 -142 29 -526 141
-536 156 -20 32 -43 184 -43 284 0 115 10 194 23 179 4 -5 20 -45 36 -89 54
-153 194 -419 212 -401 3 3 -13 47 -36 97 -52 111 -114 299 -131 395 -12 70
-12 72 16 120 15 27 40 68 56 91 44 66 118 217 153 317 30 83 34 88 41 62 4
-16 4 -83 1 -150 -6 -130 -35 -262 -81 -375 -14 -36 -26 -72 -26 -80 0 -15
159 -501 166 -510 27 -31 2 128 -57 357 l-39 153 24 47 c69 137 108 438 75
581 -15 68 -12 71 73 53 107 -23 453 -22 574 1 75 14 209 50 271 74 7 3 -7
-32 -31 -78 -103 -196 -175 -409 -241 -713 -53 -247 -82 -507 -54 -479 5 5 48
158 94 339 93 366 133 503 229 773 36 102 66 191 66 198 0 10 -10 12 -37 8
-250 -34 -471 -47 -743 -43 l-235 3 -3 68 c-2 37 -7 67 -12 67 -4 0 -13 -24
-19 -53 -46 -216 -191 -490 -369 -697 l-82 -95 0 -101 c0 -113 19 -239 50
-328 11 -33 18 -61 16 -63 -1 -2 -26 2 -54 8 l-52 11 -54 96 c-30 53 -70 135
-90 182 -33 82 -76 227 -76 259 0 8 16 52 35 97 71 165 97 331 76 489 -15 111
-37 179 -105 321 -69 144 -81 194 -80 329 2 126 19 213 73 373 41 120 38 161
-4 65 -93 -209 -135 -415 -116 -565 11 -80 25 -125 85 -268 53 -129 69 -200
68 -320 0 -141 -29 -261 -93 -388 -58 -112 -58 -112 -2 -262 41 -111 96 -220
158 -315 25 -37 43 -70 40 -73 -2 -2 -48 1 -102 9 -56 7 -194 13 -321 14
l-222 0 -71 95 c-218 292 -364 633 -430 1005 -31 175 -34 567 -6 740 23 138
66 313 107 430 45 129 177 393 254 509 380 568 969 932 1649 1021 153 20 441
20 594 0 291 -38 580 -137 828 -282 117 -69 108 -52 95 -178 -30 -274 -130
-502 -284 -642 -120 -110 -201 -123 -665 -104 -505 21 -926 25 -1054 11 -340
-37 -600 -165 -711 -349 -68 -113 -111 -284 -104 -415 4 -84 24 -83 31 1 15
159 90 333 181 426 69 68 145 112 264 153 211 72 394 84 961 63 212 -8 499
-14 636 -14 273 0 328 8 427 62 165 90 310 310 374 567 20 81 27 141 34 306 5
113 14 229 20 258 8 34 32 84 72 143 73 110 85 146 92 274 6 106 31 200 70
257 28 43 47 42 69 -4 22 -48 31 -48 24 -2 -11 66 -50 90 -95 59z m372 -1632
c181 -274 296 -562 342 -863 22 -141 21 -401 0 -544 -80 -519 -364 -955 -812
-1245 -116 -75 -230 -138 -238 -131 -11 12 -46 193 -55 291 -11 124 -2 226 32
364 39 155 55 255 72 445 19 219 46 341 92 423 74 130 218 427 270 556 86 215
168 530 188 726 7 70 14 105 20 105 2 0 42 -57 89 -127z m-729 -1640 c-10
-157 -32 -316 -64 -471 -16 -75 -32 -167 -36 -204 -8 -83 7 -218 44 -376 l27
-121 -29 -12 c-37 -16 -41 -9 -56 90 -28 180 -110 466 -190 659 l-30 73 117
157 c64 87 140 192 167 235 28 42 52 77 54 77 2 0 0 -48 -4 -107z"/>
<path d="M4686 5101 c-54 -36 -130 -150 -112 -168 3 -4 34 21 67 56 44 45 64
60 72 52 13 -13 15 -106 4 -179 -11 -72 11 -67 36 8 31 93 22 216 -17 242 -15
11 -17 10 -50 -11z"/>
</g>
</svg>
