<svg width="291" height="512" viewBox="0 0 291 512" fill="none" xmlns="http://www.w3.org/2000/svg">
<path fill-rule="evenodd" clip-rule="evenodd" d="M229.102 0.0257713C269.82 -0.0742432 271.821 0.0257713 276.123 2.02606C278.624 3.12622 281.925 5.22653 283.426 6.72674C285.026 8.22696 287.327 11.2274 288.428 13.4277C290.529 17.3283 290.629 18.6285 290.929 59.4344C291.129 89.6388 290.929 102.541 290.029 105.441C289.428 107.641 287.628 111.242 286.127 113.442C284.526 115.743 281.125 118.743 272.621 123.444L242.107 123.944C216.496 124.344 211.094 124.744 209.093 126.044C207.692 126.944 206.292 129.044 205.791 131.045C205.391 132.945 205.091 143.147 205.091 172.951L270.62 173.451L275.422 176.251C278.023 177.752 281.525 180.852 283.126 183.252C284.826 185.553 286.627 189.053 287.127 190.953C287.728 192.954 288.028 213.157 287.928 239.46C287.628 279.766 287.428 284.867 285.927 287.968C284.926 289.868 282.725 292.968 280.925 294.869C279.124 296.769 275.622 299.269 273.121 300.369C268.919 302.37 266.718 302.47 205.091 302.97V396.283C205.091 475.695 204.891 490.197 203.59 494.497C202.79 497.298 200.689 501.298 198.888 503.399C197.087 505.599 193.386 508.399 190.585 509.7C185.582 512 185.582 512 138.561 512C91.5406 512 91.5406 512 86.5384 509.7C83.8372 508.399 80.0355 505.599 78.2347 503.399C76.4339 501.298 74.333 497.298 73.5326 494.497C72.2321 490.197 72.032 475.695 72.032 302.97L45.2201 302.67C24.5109 302.47 17.8079 302.07 15.5069 300.969C13.9062 300.169 10.9048 298.369 9.004 296.969C7.10315 295.469 4.30191 291.868 0 283.467V237.66C0 201.955 0.300133 191.253 1.30058 188.653C2.10093 186.953 4.20186 183.652 6.10271 181.552C8.00355 179.352 11.8052 176.551 14.5064 175.251C19.3086 173.051 20.4091 172.951 71.5317 172.951L72.132 143.747C72.6322 122.944 73.3325 111.642 74.5331 104.941C75.4335 99.7402 77.6344 91.139 79.2352 85.9382C80.9359 80.7375 83.8372 73.0364 85.738 68.9358C87.6389 64.8352 91.7407 57.6341 94.8421 52.9334C97.9435 48.2328 104.546 40.3316 109.549 35.4309C114.551 30.4302 121.754 24.3293 125.556 21.7289C129.457 19.2286 136.861 15.0279 142.063 12.5276C147.265 10.1272 155.669 6.82676 160.571 5.42655C165.473 4.02635 173.377 2.22609 178.079 1.42597C184.182 0.525844 198.688 0.125786 229.102 0.0257713V0.0257713ZM175.778 33.3306C172.076 34.2307 165.573 36.331 161.272 37.9313C157.07 39.6315 150.367 42.832 146.565 45.1323C142.763 47.4326 136.461 52.3334 132.659 55.9339C128.957 59.5344 123.455 66.0353 120.553 70.436C117.552 74.8366 113.55 82.4377 111.549 87.4384C109.549 92.3391 107.048 100.74 105.847 105.941C104.046 114.342 103.746 119.643 103.446 151.448C103.146 171.251 102.746 188.953 102.546 190.653C102.245 192.554 100.445 195.654 98.2436 198.054C96.1427 200.355 93.0413 202.455 91.0404 203.055C89.1396 203.555 74.6331 203.955 58.7261 203.955H30.0133V271.965L92.7411 272.465C98.0435 276.466 100.345 279.266 101.245 281.267C102.946 284.667 103.046 291.768 103.046 383.481V481.996H174.077C174.077 291.768 174.177 284.667 175.778 281.267C176.778 279.266 179.079 276.466 180.98 275.066L184.382 272.465L257.114 271.965V203.955C204.791 203.955 187.983 203.555 186.083 203.055C184.082 202.455 180.98 200.355 178.779 198.054C176.778 195.754 174.778 192.454 174.477 190.653C174.177 188.953 174.077 173.451 174.277 156.448C174.678 131.345 174.978 124.544 176.378 120.443C177.179 117.643 179.48 113.242 181.28 110.442C183.081 107.741 186.783 103.841 189.584 101.741C192.285 99.7402 197.488 97.0398 201.089 95.7396C207.092 93.7394 209.693 93.5393 233.804 93.2393L260.115 92.9392V30.9303C229.502 30.9303 216.496 30.7302 211.594 30.5302C206.592 30.2301 198.088 30.4302 192.585 30.9303C187.083 31.4303 179.58 32.4305 175.778 33.3306Z" fill="white"/>
</svg>
