<svg width="457" height="512" viewBox="0 0 457 512" fill="none" xmlns="http://www.w3.org/2000/svg">
<path fill-rule="evenodd" clip-rule="evenodd" d="M63.0192 0.058528C74.3226 0.258662 76.3232 0.658928 83.5254 3.4608C87.9268 5.262 94.4288 8.8644 98.0298 11.4661C101.631 14.1679 106.733 19.2713 109.433 22.7737C112.034 26.276 115.235 31.1793 116.535 33.681C117.836 36.1826 119.536 40.6856 120.437 43.6876C121.337 46.6896 122.337 52.7937 122.637 57.1966C123.037 62.7003 122.737 67.6036 121.637 72.707C120.737 76.8097 118.136 84.0145 115.835 88.7177C112.734 95.0219 109.833 99.1246 104.632 104.328C99.2302 109.732 95.4291 112.433 89.0271 115.636C84.3257 117.937 77.1235 120.439 73.0222 121.339C67.7206 122.44 63.1192 122.74 57.0174 122.34C52.0158 121.94 45.6139 120.639 41.5126 119.238C37.6115 117.837 32.1098 115.235 29.1089 113.434C26.208 111.733 21.4065 107.93 18.6057 105.229C15.7048 102.427 11.6035 97.5235 9.50289 94.2213C7.40225 90.9191 4.6014 85.3154 3.20097 81.713C1.3004 76.7097 0.600183 72.6069 0.200061 64.2013C-0.10003 57.4968 0.200061 51.0926 1.0003 47.6903C1.60049 44.6883 4.00122 38.3841 6.20189 33.681C9.40286 26.9765 11.9036 23.5742 17.9055 17.5702C23.4071 12.0665 27.6084 8.96447 33.0101 6.26267C37.1113 4.26133 42.813 1.9598 45.5139 1.15926C49.0149 0.158595 54.3165 -0.141605 63.0192 0.058528V0.058528ZM43.0131 36.4828C41.1125 38.0839 38.0116 41.286 36.211 43.4875C34.5105 45.789 32.6099 49.3914 32.0097 51.4928C31.5096 53.4942 31.0094 58.0972 31.0094 61.6996C31.0094 67.1032 31.5096 69.3047 34.2104 74.6083C36.011 78.2107 39.1119 82.4135 41.0125 83.9145C42.9131 85.5155 46.5142 87.717 49.0149 88.9178C52.416 90.6189 55.4169 91.1193 61.0186 91.2193C67.1204 91.2193 69.5212 90.719 74.0225 88.5175C77.0235 87.1166 81.3248 83.9145 83.4254 81.5129C85.6261 79.2113 88.3269 75.2087 89.4272 72.707C90.9277 69.4048 91.5279 66.2026 91.5279 60.699C91.4278 54.9952 90.9277 52.0932 89.2272 48.691C88.0268 46.1893 85.8261 42.5869 84.2256 40.6856C82.7252 38.7844 78.5239 35.6823 74.9228 33.8811C69.4211 31.0792 67.5206 30.679 61.5187 30.679C57.6175 30.779 52.7161 31.3794 50.5154 32.18C48.3147 32.9805 44.9137 34.9818 43.0131 36.4828V36.4828ZM61.5187 150.859C104.232 150.759 107.833 150.959 111.534 152.66C113.735 153.661 116.535 155.562 117.736 156.863C118.936 158.164 120.337 160.466 120.937 162.067C121.737 163.968 122.037 215.902 122.037 331.88C122.037 496.99 122.037 498.991 120.037 502.994C118.936 505.195 116.535 507.997 114.735 509.298C111.534 511.5 111.434 511.5 63.0192 511.8C36.3111 511.9 13.5041 511.8 12.2037 511.5C11.0034 511.199 8.40256 509.498 6.30192 507.797C4.30131 505.996 2.10064 502.994 1.3004 501.293C0.200061 498.591 0 468.471 0 165.269L2.3007 160.866C3.50107 158.464 5.80177 155.562 7.50228 154.361C9.10277 153.261 11.6035 152.06 13.004 151.66C14.4044 151.259 36.211 150.859 61.5187 150.859ZM31.0094 480.979H91.0277V181.78H31.0094V480.979ZM218.567 150.759C262.08 150.759 265.881 150.959 269.582 152.66C271.783 153.661 274.384 155.362 275.284 156.363C276.284 157.363 277.685 160.065 278.485 162.267C279.385 164.468 279.985 167.971 280.085 170.072C280.085 172.073 280.285 173.774 280.585 173.774C280.886 173.774 283.886 172.674 287.287 171.273C290.789 169.872 296.99 167.87 301.092 166.77C305.193 165.669 313.095 164.368 318.597 163.768C324.099 163.167 331.701 162.967 335.602 163.267C339.503 163.568 346.405 164.568 351.107 165.469C355.808 166.269 362.71 168.071 366.612 169.472C370.513 170.872 377.215 173.874 381.616 176.176C386.018 178.377 393.02 182.78 397.121 185.882C401.222 188.985 408.925 195.889 414.126 201.393C419.328 206.796 426.63 215.802 430.331 221.306C434.032 226.81 439.034 235.616 441.534 240.819C443.935 246.023 447.236 253.928 448.637 258.331C450.137 262.734 452.238 270.139 453.238 274.842C454.238 279.545 455.639 290.152 456.139 298.357C456.839 307.764 457.139 348.791 456.939 407.43C456.639 499.492 456.639 501.593 454.638 504.795C453.538 506.596 451.237 508.998 449.637 509.999C446.836 511.8 444.035 511.9 398.821 512C358.409 512 350.607 511.8 348.106 510.499C346.506 509.698 344.105 507.497 340.604 502.494L339.603 293.354L337.403 288.851C336.202 286.349 333.502 282.547 331.401 280.446C329.3 278.244 325.099 275.342 322.098 273.941C317.997 272.04 314.996 271.339 310.094 271.339C305.193 271.339 302.292 272.04 298.091 273.941C295.09 275.442 290.889 278.344 288.788 280.446C286.687 282.647 283.986 286.349 280.585 293.354L280.085 397.424C279.585 501.493 279.585 501.493 277.484 504.995C276.284 506.897 273.683 509.298 271.683 510.299C268.382 511.8 263.68 512 218.767 512C170.152 512 169.552 512 166.051 509.799C164.15 508.698 161.749 506.696 160.849 505.596C159.949 504.395 158.748 501.593 158.148 499.292C157.348 496.29 157.048 444.255 157.048 331.68C157.048 232.814 157.448 166.67 158.048 164.268C158.548 162.067 159.849 159.165 160.849 157.764C161.849 156.363 164.65 154.261 167.151 152.961C171.552 150.759 171.752 150.759 218.567 150.759ZM188.057 480.979H249.076C249.076 324.075 249.476 292.153 250.176 288.651C250.776 285.749 253.177 279.345 255.578 274.341C258.779 267.537 261.48 263.734 266.381 258.831C269.982 255.229 275.284 250.826 278.185 249.125C281.186 247.323 286.087 245.022 289.088 243.921C292.089 242.82 297.691 241.42 301.592 240.819C305.593 240.119 311.395 239.919 315.096 240.319C318.697 240.719 324.499 241.92 328.1 243.021C331.701 244.121 337.503 246.723 341.104 248.824C344.705 250.926 350.507 255.729 354.108 259.432C357.709 263.234 362.01 269.038 363.811 272.34C365.611 275.642 367.912 281.947 369.112 286.349C371.113 294.155 371.113 296.756 371.113 387.717V480.979H426.13C425.53 293.054 425.43 292.253 423.229 282.347C422.029 276.843 419.228 267.837 417.127 262.333C414.926 256.83 410.625 248.024 407.424 242.82C403.123 235.816 398.521 230.212 389.619 221.306C380.716 212.4 375.714 208.197 370.113 205.095C366.011 202.794 359.209 199.792 355.108 198.391C351.007 197.09 343.805 195.389 339.103 194.788C334.402 194.088 327.7 193.888 324.099 194.188C320.498 194.588 314.496 195.589 310.595 196.389C306.693 197.29 299.491 199.892 294.59 202.193C289.688 204.595 282.486 208.798 278.585 211.8C274.684 214.702 270.582 217.504 269.382 217.904C268.082 218.404 265.581 218.804 263.88 218.804C262.08 218.804 258.779 217.804 256.678 216.503C254.578 215.302 251.977 212.7 250.976 210.799C249.376 207.897 249.076 205.095 249.076 194.588V181.78H188.057V480.979Z" fill="#EBC19C"/>
</svg>
