<svg width="111" height="111" viewBox="0 0 111 111" fill="none" xmlns="http://www.w3.org/2000/svg">
<path d="M47.1693 14.3639C47.106 14.3732 47.0697 14.3462 47.0604 14.2829C47.034 14.1035 47.0279 13.9157 47.0421 13.7196C47.0669 13.5219 47.1155 13.4123 47.1878 13.3909C47.6835 13.2424 48.1799 13.0992 48.6771 12.9613C49.1728 12.8129 49.67 12.675 50.1688 12.5476C50.2004 12.543 50.2284 12.5496 50.2526 12.5676C50.2858 12.5735 50.3047 12.5923 50.3094 12.6239C50.3389 12.8245 50.3405 13.0183 50.3141 13.2055C50.2968 13.3805 50.2263 13.4879 50.1028 13.5277C49.6388 13.6715 49.1643 13.8168 48.6792 13.9637C48.203 14.0985 47.6998 14.2319 47.1693 14.3639Z" fill="#5B5853"/>
<path d="M34.1797 22.284C34.0935 22.3264 34.0147 22.3473 33.9431 22.3469C33.8858 22.3512 33.8431 22.3247 33.8148 22.2673C33.7772 22.1907 33.7824 22.1287 33.8304 22.0813C33.8737 22.0244 33.941 21.9557 34.0321 21.8752C34.1569 21.7663 34.2698 21.6454 34.3709 21.5125C34.472 21.3796 34.4754 21.2175 34.3813 21.026L32.8637 17.9389C32.7366 17.6804 32.5996 17.4744 32.4528 17.3208C32.3155 17.1624 32.106 17.1109 31.8241 17.1663C31.7764 17.1659 31.7335 17.1633 31.6954 17.1582C31.6526 17.1436 31.617 17.1076 31.5888 17.0502C31.537 16.9449 31.5519 16.8663 31.6333 16.8144C31.926 16.5635 32.147 16.3241 32.2965 16.0961C32.4459 15.8681 32.5834 15.6282 32.7092 15.3762C32.7285 15.3429 32.7454 15.3168 32.7598 15.2978C32.7791 15.2645 32.8031 15.2408 32.8318 15.2267C32.851 15.2173 32.87 15.2198 32.889 15.2343C32.9176 15.244 32.9389 15.2632 32.953 15.2919C32.986 15.3589 33.0399 15.5048 33.1147 15.7295C33.1943 15.94 33.2671 16.1122 33.333 16.2462C33.3518 16.2845 33.3707 16.3228 33.3895 16.3611C33.4132 16.3851 33.4322 16.3995 33.4464 16.4044C33.6262 15.9238 33.8627 15.5103 34.156 15.1641C34.4589 14.8131 34.8353 14.527 35.2852 14.3059C35.7543 14.0753 36.2361 14.0761 36.7306 14.3084C37.2252 14.5407 37.6113 14.9393 37.889 15.5041L39.3925 18.5625C39.4866 18.7539 39.6172 18.8502 39.7841 18.8513C39.9464 18.8429 40.1111 18.8273 40.2782 18.8046C40.3689 18.7956 40.4571 18.7938 40.543 18.7992C40.6337 18.7902 40.6978 18.8241 40.7355 18.9007C40.7637 18.9581 40.7467 19.0081 40.6844 19.0506C40.6268 19.1027 40.5693 19.1428 40.5118 19.1711C40.3204 19.2652 40.1673 19.3285 40.0526 19.3612C39.9426 19.4034 39.8374 19.4432 39.7369 19.4807C39.6365 19.5182 39.5001 19.5793 39.3278 19.664C39.1651 19.744 39.0335 19.8147 38.9329 19.876C38.8323 19.9373 38.7269 20.001 38.6167 20.0671C38.5208 20.138 38.3772 20.2205 38.1857 20.3146C38.1379 20.3381 38.0709 20.3592 37.9849 20.3777C37.9132 20.401 37.8633 20.384 37.835 20.3266C37.7974 20.25 37.805 20.1809 37.8579 20.1192C37.9156 20.0433 37.9758 19.9721 38.0382 19.9057C38.1583 19.7873 38.2712 19.6664 38.377 19.5431C38.478 19.4102 38.4815 19.248 38.3874 19.0566L36.905 16.0413C36.698 15.6201 36.4183 15.3534 36.066 15.2413C35.7187 15.115 35.3464 15.1435 34.9492 15.3268C34.6046 15.4963 34.3313 15.7019 34.1293 15.9439C33.9226 16.1762 33.7588 16.4232 33.6377 16.6847C33.6183 16.7418 33.6154 16.8086 33.6292 16.885C33.6383 16.9519 33.657 17.014 33.6852 17.0715L35.3864 20.5319C35.4806 20.7233 35.6111 20.8196 35.778 20.8208C35.945 20.8219 36.1097 20.8063 36.2721 20.774C36.5205 20.7232 36.6682 20.7457 36.7153 20.8414C36.7435 20.8988 36.7384 20.9489 36.7 20.9915C36.6662 21.0438 36.6015 21.0934 36.5058 21.1405C36.3143 21.2346 36.1564 21.3003 36.0322 21.3377C35.9222 21.3799 35.8169 21.4197 35.7165 21.4572C35.6161 21.4947 35.4797 21.5558 35.3074 21.6405C35.1447 21.7205 35.013 21.7911 34.9124 21.8525C34.8214 21.9091 34.7208 21.9705 34.6107 22.0365C34.5148 22.1074 34.3711 22.1899 34.1797 22.284Z" fill="#5B5853"/>
<path d="M30.1467 25.7659C29.6959 26.1413 29.2103 26.3583 28.69 26.4169C28.1696 26.4755 27.6479 26.3824 27.125 26.1378C26.5951 25.8849 26.1084 25.4921 25.6647 24.9594C25.2688 24.484 25.017 23.9649 24.9093 23.4022C24.8029 22.8245 24.8311 22.2666 24.9938 21.7285C25.1565 21.1905 25.4509 20.744 25.8772 20.389C26.205 20.116 26.5506 19.9392 26.9139 19.8588C27.2772 19.7783 27.6275 19.7989 27.9648 19.9206C28.3035 20.0272 28.5991 20.2322 28.8517 20.5354C29.0633 20.7895 29.0461 21.019 28.8002 21.2238L26.206 23.3842C26.0913 23.4797 26.0366 23.5808 26.042 23.6873C26.0488 23.7788 26.1273 23.9147 26.2775 24.0951C26.6051 24.4885 26.9916 24.7775 27.4367 24.962C27.8751 25.1383 28.3196 25.2054 28.7703 25.1632C29.2142 25.1128 29.6082 24.9443 29.9525 24.6576C30.1984 24.4528 30.3821 24.2234 30.5038 23.9694C30.6268 23.7004 30.6911 23.4109 30.6966 23.1009C30.6953 23.0326 30.6994 22.9875 30.709 22.9657C30.7117 22.9356 30.7254 22.9104 30.75 22.8899C30.8155 22.8353 30.8824 22.849 30.9507 22.9309C31.0804 23.0867 31.15 23.3202 31.1594 23.6316C31.1662 23.8897 31.1313 24.1478 31.0547 24.4059C30.9781 24.664 30.8613 24.9071 30.7042 25.1351C30.5539 25.3713 30.3681 25.5816 30.1467 25.7659ZM25.9132 22.9826L27.032 22.0508C27.2288 21.887 27.3934 21.743 27.5259 21.6187C27.6584 21.4945 27.78 21.3655 27.8907 21.2317C27.9248 21.1893 27.9289 21.1443 27.903 21.0965C27.8784 21.0336 27.832 20.9612 27.7638 20.8793C27.5658 20.6416 27.292 20.5295 26.9424 20.543C26.5941 20.5415 26.2766 20.6603 25.9897 20.8992C25.8012 21.0562 25.6604 21.2705 25.5675 21.5423C25.4677 21.8058 25.4246 22.0708 25.4381 22.3371C25.4517 22.6034 25.5268 22.8185 25.6633 22.9825C25.7315 23.0644 25.8148 23.0645 25.9132 22.9826Z" fill="#5B5853"/>
<path d="M23.5659 32.4553C23.4981 32.5376 23.4349 32.5891 23.3762 32.61C23.3259 32.6375 23.276 32.631 23.2266 32.5903C23.1607 32.536 23.1399 32.4774 23.1642 32.4144C23.1802 32.3447 23.2131 32.2544 23.2631 32.1435C23.3508 31.9532 23.3882 31.7904 23.3751 31.6553C23.3606 31.5052 23.2958 31.3826 23.1805 31.2876L20.5258 29.0999C20.3036 28.9167 20.083 28.7902 19.8641 28.7204C19.6452 28.6506 19.4304 28.7016 19.2196 28.8735C19.1843 28.8996 19.1399 28.9115 19.0867 28.909C19.0334 28.9066 18.9903 28.8918 18.9574 28.8647C18.875 28.7968 18.8562 28.7191 18.9008 28.6314C19.0113 28.3632 19.0998 28.0629 19.1663 27.7306C19.2313 27.3834 19.2769 27.11 19.3031 26.9105C19.3109 26.8339 19.3208 26.7799 19.333 26.7484C19.3436 26.702 19.3558 26.6705 19.3693 26.654C19.4032 26.6129 19.449 26.616 19.5066 26.6635C19.5313 26.6839 19.5897 26.7388 19.6817 26.8285C19.7804 26.9099 19.8923 27.009 20.0172 27.1257C20.1489 27.2343 20.2772 27.3469 20.4022 27.4637C20.4186 27.4773 20.4336 27.4758 20.4472 27.4594C20.3911 27.192 20.3658 26.9292 20.3712 26.6711C20.3834 26.4047 20.4203 26.1586 20.4819 25.933C20.5502 25.699 20.6489 25.5039 20.7778 25.3475C20.9202 25.1746 21.0726 25.0652 21.2349 25.0192C21.4039 24.9651 21.5461 24.9854 21.6613 25.0804C21.7436 25.1483 21.8138 25.2476 21.8719 25.3784C21.9368 25.5009 21.9757 25.6298 21.9887 25.7649C22.0018 25.9001 21.9744 26.0088 21.9065 26.0911C21.8658 26.1405 21.8135 26.1872 21.7496 26.2313C21.6774 26.2685 21.5977 26.3065 21.5105 26.3452C21.4315 26.3907 21.3526 26.4362 21.2736 26.4817C21.1946 26.5272 21.128 26.5829 21.0737 26.6488C20.9109 26.8463 20.8215 27.0974 20.8054 27.4021C20.7961 27.6985 20.9972 28.0163 21.4088 28.3555L23.903 30.411C24.01 30.4991 24.148 30.5161 24.3171 30.4619C24.4779 30.401 24.6761 30.2947 24.9115 30.1432C25.0108 30.073 25.0932 30.0234 25.1586 29.9944C25.224 29.9653 25.2855 29.9745 25.3431 30.022C25.4336 30.0966 25.4111 30.2163 25.2754 30.3809C25.0719 30.6279 24.9035 30.807 24.7703 30.9184C24.6521 31.0283 24.5048 31.1902 24.3284 31.4043C24.2131 31.5442 24.1222 31.6628 24.0558 31.7602C23.9962 31.8493 23.9298 31.9466 23.8567 32.0521C23.7985 32.1563 23.7016 32.2906 23.5659 32.4553Z" fill="#5B5853"/>
<path d="M18.4587 41.5737C18.3621 41.7639 18.2615 41.8325 18.1569 41.7794C18.0713 41.736 18.0507 41.5879 18.0952 41.3354C18.12 41.1686 18.1258 41.004 18.1125 40.8418C18.104 40.67 18.007 40.531 17.8216 40.425L10.6736 36.797C10.4168 36.6667 10.1715 36.596 9.93784 36.5851C9.69465 36.5693 9.49127 36.6754 9.3277 36.9034C9.26523 36.9794 9.17692 36.9884 9.06278 36.9304C8.97718 36.887 8.93942 36.82 8.94951 36.7294C8.96953 36.5721 8.99688 36.3886 9.03153 36.1789C9.07101 35.9597 9.10815 35.7334 9.14295 35.4998C9.16824 35.2615 9.18621 35.0493 9.19687 34.8633C9.19716 34.8156 9.20213 34.7822 9.21178 34.7632C9.22627 34.7347 9.24785 34.7157 9.27653 34.7064C9.30521 34.697 9.33381 34.6995 9.36235 34.714C9.41942 34.743 9.49302 34.7983 9.58317 34.8799C9.67814 34.9521 9.84921 35.0628 10.0964 35.2122C10.3435 35.3615 10.7239 35.5666 11.2376 35.8273L13.7201 37.0873C13.8723 37.1645 13.9841 37.2153 14.0555 37.2396C14.1317 37.2543 14.2128 37.2596 14.2987 37.2553C14.2618 37.0452 14.2323 36.797 14.2101 36.5106C14.1833 36.2099 14.1876 35.8951 14.223 35.5662C14.2584 35.2372 14.3509 34.9253 14.5005 34.6305C14.7371 34.1644 15.1181 33.8733 15.6435 33.7572C16.1643 33.6268 16.7052 33.704 17.2664 33.9888L20.2626 35.5095C20.4528 35.6061 20.6269 35.6166 20.7848 35.5413C20.9331 35.4611 21.0673 35.3617 21.1873 35.2432C21.2689 35.153 21.3432 35.0891 21.4103 35.0513C21.4678 35.0087 21.525 35.0019 21.5821 35.0309C21.6867 35.084 21.6908 35.2056 21.5942 35.3959C21.4977 35.5861 21.4133 35.7287 21.3412 35.8237C21.2834 35.914 21.2256 36.0043 21.1678 36.0946C21.1149 36.1753 21.045 36.3013 20.9581 36.4725C20.876 36.6342 20.8156 36.7651 20.7768 36.865C20.738 36.9649 20.6969 37.0696 20.6533 37.1791C20.624 37.2839 20.5611 37.4314 20.4646 37.6216C20.368 37.8118 20.2674 37.8804 20.1628 37.8273C20.0962 37.7935 20.0679 37.7433 20.0778 37.6765C20.0783 37.605 20.086 37.5072 20.1011 37.3833C20.1259 37.2165 20.1245 37.0543 20.0968 36.8967C20.0597 36.7343 19.9459 36.6048 19.7557 36.5082L16.8451 35.031C16.6073 34.9103 16.3571 34.873 16.0945 34.9191C15.8272 34.9509 15.5857 35.0377 15.3702 35.1795C15.1547 35.3213 14.9938 35.4969 14.8876 35.7061C14.7959 35.8869 14.7182 36.1106 14.6546 36.3773C14.5815 36.6393 14.5634 36.8634 14.6005 37.0496C14.6469 37.2646 14.7222 37.4344 14.8264 37.559C14.9354 37.6742 15.1373 37.8066 15.4322 37.9563L18.3285 39.4263C18.5236 39.5133 18.6857 39.5238 18.8149 39.4578C18.9489 39.3823 19.0759 39.2853 19.1959 39.1667C19.2775 39.0766 19.3494 39.0174 19.4116 38.9891C19.4691 38.9465 19.5264 38.9397 19.5835 38.9687C19.6881 39.0218 19.6921 39.1435 19.5956 39.3337C19.499 39.5239 19.4171 39.6618 19.3498 39.7473C19.292 39.8375 19.2367 39.9231 19.1837 40.0039C19.1307 40.0846 19.0608 40.2106 18.9739 40.3818C18.8918 40.5435 18.829 40.6791 18.7854 40.7886C18.7467 40.8885 18.7031 40.998 18.6546 41.1169C18.6206 41.2312 18.5552 41.3835 18.4587 41.5737Z" fill="#5B5853"/>
<path d="M16.9249 48.3505C16.8806 48.5373 16.7623 48.7121 16.5702 48.8747C16.3805 49.027 16.1659 49.146 15.9263 49.2316C15.6891 49.3068 15.4772 49.3222 15.2904 49.2779C14.9583 49.199 14.7198 49.0491 14.5749 48.8283C14.43 48.6075 14.3253 48.2867 14.2609 47.8657L13.9842 46.1226C13.9505 45.8953 13.9062 45.7587 13.8513 45.7128C13.7989 45.6565 13.6702 45.5985 13.4651 45.5388L12.4762 45.271C12.2088 45.1965 11.9569 45.2189 11.7202 45.3381C11.4861 45.4469 11.3332 45.6518 11.2618 45.9528C11.2248 46.1085 11.2137 46.2703 11.2287 46.4383C11.2436 46.6063 11.2802 46.752 11.3386 46.8755C11.3653 46.9477 11.4177 47.004 11.4958 47.0444C11.5739 47.0849 11.6596 47.1162 11.753 47.1384C11.7946 47.1483 11.8413 47.1594 11.8931 47.1717C11.9475 47.1737 11.9954 47.1796 12.0369 47.1894C12.0888 47.2017 12.1455 47.2865 12.2068 47.4436C12.2603 47.5878 12.3036 47.7516 12.3368 47.9349C12.3621 48.1054 12.3624 48.2425 12.3377 48.3463C12.3254 48.3981 12.3052 48.4372 12.277 48.4634C12.2385 48.4871 12.1985 48.4941 12.157 48.4842C11.9909 48.4448 11.8268 48.351 11.6647 48.2028C11.4946 48.0418 11.35 47.843 11.2308 47.6064C11.0695 47.3159 10.9392 47.0109 10.8397 46.6912C10.7402 46.3716 10.6758 46.0658 10.6465 45.7737C10.6172 45.4817 10.6272 45.2319 10.6765 45.0244C10.7652 44.6508 10.9729 44.3767 11.2994 44.2021C11.618 44.0146 11.9732 43.973 12.3651 44.077L16.0827 45.0423C16.2982 45.1045 16.4857 45.0997 16.6452 45.0279C16.8073 44.9458 16.908 44.8217 16.9475 44.6557C17.0091 44.3962 16.9976 44.1907 16.913 44.039C16.8735 43.9748 16.8574 43.9272 16.8648 43.896C16.8771 43.8441 16.9025 43.8063 16.9411 43.7826C16.9796 43.7588 17.0248 43.7531 17.0767 43.7655C17.1909 43.7926 17.2915 43.8768 17.3785 44.0181C17.5051 44.2235 17.5917 44.436 17.6382 44.6553C17.6976 44.8668 17.7076 45.0555 17.6682 45.2216C17.5548 45.699 17.195 46.0137 16.5888 46.1657L16.5777 46.2124C16.7765 46.6214 16.9012 46.9964 16.9518 47.3373C17.0128 47.6807 17.0038 48.0184 16.9249 48.3505ZM16.3515 47.4414C16.4008 47.2338 16.4116 47.05 16.3838 46.8899C16.3457 46.7274 16.2831 46.5755 16.1961 46.4342C16.1565 46.37 16.0989 46.3124 16.0233 46.2616C15.9398 46.1979 15.8006 46.1374 15.6059 46.0802L14.8505 45.8679C14.7388 45.8304 14.6546 45.8159 14.5978 45.8243C14.5409 45.8327 14.5051 45.8681 14.4904 45.9303C14.4854 45.9511 14.482 45.9887 14.48 46.043C14.4781 46.0974 14.4828 46.1697 14.4942 46.2602C14.5608 46.857 14.6771 47.2903 14.8433 47.56C15.0015 47.8169 15.1689 47.9663 15.3453 48.0082C15.6151 48.0723 15.8412 48.0437 16.0234 47.9226C16.1978 47.7886 16.3071 47.6282 16.3515 47.4414Z" fill="#5B5853"/>
<path d="M16.0633 55.936C16.0582 56.0426 16.0384 56.1217 16.0039 56.1734C15.98 56.2257 15.9361 56.2503 15.8722 56.2472C15.7869 56.2431 15.7299 56.2084 15.701 56.1429C15.6726 56.0668 15.6503 55.9749 15.6341 55.8674C15.5926 55.6198 15.5264 55.4404 15.4356 55.3293C15.3342 55.2176 15.1769 55.1567 14.9639 55.1464L10.457 54.9303C10.4519 55.0369 10.446 55.1594 10.4394 55.2979C10.4221 55.4359 10.404 55.5899 10.3852 55.7599C10.373 55.7913 10.3334 55.8375 10.2665 55.8983C10.2 55.9485 10.1401 55.9724 10.0868 55.9698C10.0655 55.9688 10.0503 55.952 10.0412 55.9196C10.0214 55.8866 10.0064 55.8645 9.9963 55.8533C9.9096 55.657 9.83229 55.4877 9.76435 55.3457C9.69641 55.2036 9.62898 55.0508 9.56206 54.8874C8.63513 54.843 7.86804 54.6941 7.26082 54.4407C6.6541 54.1767 6.1783 53.8549 5.83342 53.4752C5.48854 53.0956 5.25122 52.6998 5.12147 52.2878C4.98107 51.8752 4.91929 51.4932 4.93615 51.1416C4.96476 50.5449 5.07653 50.1071 5.27144 49.8281C5.46636 49.5492 5.70233 49.4163 5.97934 49.4296C6.19243 49.4398 6.34969 49.5007 6.45113 49.6124C6.55257 49.724 6.59971 49.8545 6.59256 50.0036C6.58796 50.0995 6.54633 50.1883 6.46766 50.2699C6.3895 50.3409 6.29992 50.4274 6.19892 50.5294C6.05378 50.6612 5.91775 50.8256 5.79084 51.0224C5.65328 51.2187 5.57607 51.4926 5.55922 51.8442C5.53521 52.345 5.7337 52.771 6.15469 53.1222C6.5762 53.4628 7.23976 53.6548 8.14539 53.6982L9.55177 53.7657C9.6157 53.7687 9.65909 53.7548 9.68193 53.7238C9.70528 53.6822 9.71798 53.6401 9.72002 53.5975L9.81581 51.5998C9.81836 51.5465 9.83664 51.4994 9.87065 51.4583C9.90466 51.4172 9.94829 51.3979 10.0016 51.4005C10.0761 51.4041 10.1555 51.4185 10.2398 51.4439C10.3245 51.4587 10.398 51.4836 10.4604 51.5186C10.5441 51.5546 10.5845 51.6046 10.5814 51.6686L10.4933 53.5065C10.4871 53.6343 10.5044 53.7206 10.5449 53.7652C10.5754 53.7987 10.6225 53.817 10.6865 53.8201L15.0175 54.0277C15.2306 54.0379 15.3937 53.9764 15.5069 53.843C15.6094 53.709 15.6976 53.4303 15.7713 53.0067C15.815 52.7631 15.9061 52.6447 16.0446 52.6513C16.1085 52.6544 16.1499 52.6831 16.1686 52.7374C16.198 52.7922 16.2102 52.8729 16.2051 52.9794C16.1897 53.299 16.1602 53.5806 16.1165 53.8241C16.0834 54.0682 16.0603 54.3287 16.047 54.6057C16.0383 54.7868 16.0365 54.9362 16.0415 55.054C16.0466 55.1717 16.0513 55.2947 16.0559 55.4231C16.071 55.5519 16.0735 55.7229 16.0633 55.936Z" fill="#5B5853"/>
<path d="M16.6947 62.5729C16.7075 62.6788 16.7012 62.7601 16.6759 62.8169C16.6611 62.8724 16.622 62.904 16.5584 62.9117C16.4737 62.922 16.4169 62.8966 16.3881 62.8356C16.3486 62.776 16.3059 62.6898 16.26 62.5772C16.1827 62.3824 16.0906 62.2431 15.9838 62.1593C15.8651 62.0663 15.7316 62.0287 15.5833 62.0467L12.1683 62.4604C11.8824 62.495 11.6387 62.5675 11.4372 62.6779C11.2356 62.7882 11.1244 62.979 11.1036 63.2501C11.0981 63.2938 11.0761 63.334 11.0376 63.3709C10.9991 63.4078 10.9587 63.4289 10.9163 63.434C10.8104 63.4468 10.7411 63.4069 10.7084 63.3141C10.5903 63.0491 10.4339 62.7779 10.2392 62.5006C10.0325 62.2141 9.86601 61.9925 9.73959 61.8359C9.68954 61.7775 9.65729 61.733 9.64285 61.7026C9.61654 61.6628 9.60211 61.6323 9.59954 61.6111C9.59313 61.5582 9.62698 61.5272 9.70111 61.5182C9.73288 61.5144 9.81294 61.51 9.94129 61.5052C10.0684 61.4898 10.2173 61.4772 10.388 61.4672C10.5574 61.4467 10.7275 61.4315 10.8982 61.4216C10.9194 61.419 10.9287 61.4071 10.9261 61.3859C10.6938 61.2422 10.486 61.0793 10.3028 60.8973C10.1183 60.7048 9.9656 60.5084 9.84464 60.3082C9.7224 60.0973 9.64909 59.8913 9.62472 59.6901C9.59778 59.4678 9.62363 59.282 9.70226 59.1328C9.7796 58.973 9.8924 58.8841 10.0406 58.8661C10.1465 58.8533 10.2669 58.871 10.4016 58.9191C10.5351 58.9567 10.6553 59.0173 10.7621 59.1011C10.869 59.1848 10.9288 59.2797 10.9417 59.3856C10.9493 59.4491 10.9471 59.5192 10.9349 59.5959C10.9121 59.6739 10.8847 59.7578 10.8526 59.8476C10.8311 59.9362 10.8096 60.0247 10.7881 60.1133C10.7665 60.2019 10.7609 60.2885 10.7712 60.3732C10.802 60.6274 10.9221 60.8653 11.1316 61.0871C11.3399 61.2982 11.7087 61.3717 12.2382 61.3076L15.4467 60.9189C15.5844 60.9023 15.6919 60.814 15.7692 60.6542C15.836 60.4957 15.8957 60.279 15.9484 60.004C15.966 59.8836 15.9869 59.7898 16.0109 59.7224C16.035 59.655 16.0841 59.6168 16.1582 59.6079C16.2747 59.5937 16.3458 59.6926 16.3714 59.9044C16.4099 60.222 16.4235 60.4675 16.4123 60.6408C16.4104 60.8022 16.4261 61.0206 16.4594 61.2959C16.4812 61.4759 16.5045 61.6235 16.5292 61.7387C16.5526 61.8433 16.5773 61.9585 16.6033 62.0843C16.6386 62.1982 16.669 62.3611 16.6947 62.5729Z" fill="#5B5853"/>
<path d="M18.2259 67.5676C18.4036 68.1267 18.4214 68.6583 18.2793 69.1623C18.1373 69.6663 17.8544 70.1144 17.4305 70.5065C16.9965 70.9018 16.4492 71.2045 15.7884 71.4144C15.1988 71.6018 14.6231 71.6392 14.0613 71.5267C13.4861 71.4073 12.9801 71.1708 12.5431 70.8171C12.1062 70.4635 11.8037 70.0224 11.6358 69.4938C11.5066 69.0871 11.4732 68.7004 11.5357 68.3336C11.5982 67.9668 11.7494 67.6501 11.9893 67.3836C12.2158 67.1102 12.5172 66.9137 12.8933 66.7942C13.2084 66.6941 13.4145 66.7965 13.5114 67.1015L14.5337 70.3189C14.5789 70.4613 14.6519 70.55 14.7526 70.5851C14.8399 70.6134 14.9954 70.5919 15.2191 70.5209C15.707 70.3658 16.1204 70.117 16.4592 69.7743C16.7878 69.4348 17.0176 69.0484 17.1485 68.6151C17.2693 68.185 17.2618 67.7565 17.1262 67.3295C17.0292 67.0245 16.8861 66.7678 16.6968 66.5594C16.494 66.344 16.2501 66.1752 15.9651 66.0532C15.9014 66.0286 15.8612 66.0078 15.8446 65.9907C15.8178 65.9769 15.7995 65.9547 15.7898 65.9242C15.764 65.8429 15.8019 65.786 15.9036 65.7537C16.0967 65.6924 16.3393 65.716 16.6312 65.8247C16.8728 65.9158 17.0987 66.0455 17.3089 66.2138C17.519 66.382 17.7 66.5819 17.852 66.8135C18.014 67.0418 18.1387 67.2932 18.2259 67.5676ZM14.0513 70.4386L13.6104 69.051C13.5329 68.807 13.4616 68.6002 13.3965 68.4307C13.3314 68.2611 13.2578 68.0998 13.1756 67.9468C13.1493 67.8992 13.1091 67.8784 13.055 67.8844C12.9876 67.8835 12.903 67.8991 12.8014 67.9314C12.5066 68.0251 12.2995 68.2364 12.1802 68.5653C12.0474 68.8873 12.0376 69.2262 12.1507 69.582C12.2249 69.8158 12.3704 70.027 12.587 70.2156C12.7935 70.4074 13.0226 70.5473 13.2743 70.6352C13.5261 70.723 13.7537 70.7347 13.957 70.6701C14.0586 70.6378 14.0901 70.5606 14.0513 70.4386Z" fill="#5B5853"/>
<path d="M24.246 79.5111C24.3061 79.5993 24.3379 79.6744 24.3415 79.7365C24.3539 79.7926 24.3336 79.8386 24.2807 79.8747C24.2102 79.9227 24.1481 79.9263 24.0945 79.8854C24.032 79.8505 23.9545 79.7936 23.862 79.7147C23.7038 79.5772 23.558 79.4958 23.4246 79.4706C23.2764 79.4425 23.1406 79.4705 23.0172 79.5545L20.1742 81.4914C19.9362 81.6535 19.7531 81.8299 19.6248 82.0205C19.4966 82.2112 19.4855 82.4317 19.5915 82.6821C19.6067 82.7234 19.6057 82.7693 19.5885 82.8197C19.5712 82.8702 19.545 82.9074 19.5097 82.9315C19.4216 82.9915 19.3417 82.9879 19.27 82.9206C19.0433 82.7394 18.7798 82.5705 18.4794 82.4137C18.1642 82.2542 17.9144 82.1339 17.7302 82.0529C17.6589 82.024 17.6098 81.9994 17.583 81.9789C17.5414 81.9557 17.5145 81.9352 17.5025 81.9176C17.4725 81.8735 17.4883 81.8305 17.55 81.7884C17.5765 81.7704 17.6456 81.7298 17.7574 81.6665C17.8632 81.5945 17.9896 81.5148 18.1366 81.4275C18.2777 81.3314 18.4217 81.2397 18.5688 81.1525C18.5864 81.1405 18.5892 81.1256 18.5772 81.108C18.3048 81.0871 18.0454 81.0379 17.7991 80.9605C17.5468 80.8743 17.3209 80.77 17.1214 80.6478C16.916 80.5167 16.7562 80.3674 16.6421 80.1999C16.516 80.0148 16.4535 79.8379 16.4548 79.6693C16.45 79.4918 16.5094 79.361 16.6328 79.277C16.721 79.2169 16.8359 79.1773 16.9778 79.1581C17.1136 79.1301 17.2482 79.1288 17.3816 79.1541C17.5149 79.1793 17.6117 79.2361 17.6717 79.3242C17.7078 79.3771 17.738 79.4404 17.7624 79.5141C17.778 79.5939 17.7922 79.681 17.805 79.7755C17.8266 79.8641 17.8482 79.9526 17.8698 80.0412C17.8914 80.1297 17.9262 80.2092 17.9742 80.2798C18.1184 80.4913 18.3344 80.6474 18.6224 80.7481C18.9044 80.8399 19.2658 80.7357 19.7065 80.4354L22.3776 78.6157C22.4922 78.5376 22.5471 78.4099 22.5424 78.2324C22.5288 78.0609 22.4822 77.841 22.4026 77.5726C22.363 77.4576 22.3384 77.3646 22.3288 77.2937C22.3192 77.2228 22.3453 77.1663 22.407 77.1243C22.5039 77.0582 22.6125 77.1134 22.7326 77.2897C22.9128 77.5541 23.0377 77.7659 23.1073 77.9249C23.1798 78.0692 23.2941 78.2559 23.4502 78.4851C23.5523 78.635 23.6408 78.7554 23.7157 78.8463C23.7846 78.9285 23.8594 79.0194 23.9403 79.1192C24.024 79.2042 24.1259 79.3348 24.246 79.5111Z" fill="#5B5853"/>
<path d="M31.5719 86.9649C31.7275 87.1108 31.7652 87.2265 31.685 87.3121C31.6193 87.3821 31.4715 87.3605 31.2414 87.2472C31.0882 87.1767 30.9318 87.1251 30.7723 87.0925C30.605 87.0526 30.4445 87.1069 30.2908 87.2552L24.8084 93.1032C24.6114 93.3133 24.475 93.529 24.3991 93.7503C24.3159 93.9794 24.3609 94.2043 24.5341 94.4251C24.5895 94.5063 24.5735 94.5936 24.4859 94.687C24.4203 94.7571 24.3454 94.7746 24.2612 94.7396C24.1158 94.6763 23.9473 94.5988 23.7557 94.5068C23.5562 94.4076 23.3493 94.3086 23.1348 94.2099C22.913 94.119 22.7144 94.0424 22.5388 93.9801C22.4931 93.9665 22.4624 93.9524 22.4469 93.9378C22.4235 93.9159 22.4114 93.8899 22.4104 93.8597C22.4094 93.8296 22.4199 93.8028 22.4418 93.7795C22.4855 93.7328 22.5592 93.6776 22.6628 93.6139C22.7586 93.5429 22.9128 93.4096 23.1253 93.2141C23.3379 93.0186 23.6411 92.7107 24.0351 92.2905L25.9391 90.2595C26.0559 90.135 26.1359 90.0418 26.1792 89.98C26.2147 89.911 26.2424 89.8346 26.2623 89.751C26.0503 89.7276 25.8037 89.6865 25.5226 89.6277C25.2264 89.5693 24.9253 89.4772 24.6194 89.3512C24.3135 89.2252 24.0399 89.0492 23.7987 88.823C23.4174 88.4655 23.2445 88.0183 23.28 87.4814C23.3004 86.9449 23.5258 86.4471 23.9563 85.988L26.2543 83.5368C26.4002 83.3811 26.459 83.217 26.4308 83.0443C26.3953 82.8795 26.3375 82.7229 26.2572 82.5745C26.1935 82.4709 26.1529 82.3817 26.1354 82.3068C26.1106 82.2397 26.12 82.1828 26.1638 82.1361C26.2441 82.0505 26.362 82.0806 26.5176 82.2265C26.6733 82.3724 26.7866 82.4933 26.8576 82.5891C26.9281 82.6698 26.9987 82.7506 27.0692 82.8313C27.1319 82.9047 27.2333 83.0071 27.3734 83.1384C27.5057 83.2625 27.6144 83.3571 27.6995 83.4222C27.7846 83.4874 27.8736 83.5562 27.9665 83.6287C28.0589 83.6861 28.1829 83.7877 28.3386 83.9336C28.4942 84.0795 28.5319 84.1953 28.4517 84.2809C28.4006 84.3354 28.3444 84.3485 28.2831 84.3203C28.2146 84.2999 28.1229 84.2651 28.0081 84.216C27.8549 84.1454 27.6988 84.1014 27.5397 84.0839C27.3734 84.0742 27.2173 84.1471 27.0714 84.3028L24.839 86.684C24.6566 86.8785 24.5508 87.1083 24.5216 87.3734C24.4774 87.639 24.4932 87.895 24.5691 88.1416C24.6449 88.3882 24.7685 88.5917 24.9397 88.7522C25.0875 88.8908 25.2806 89.028 25.5189 89.1637C25.7499 89.3072 25.9601 89.3872 26.1492 89.4037C26.3686 89.4193 26.5527 89.3945 26.7015 89.3293C26.8426 89.2568 27.0262 89.1 27.2523 88.8587L29.4737 86.4892C29.6119 86.3263 29.6673 86.1736 29.6401 86.0311C29.6051 85.8813 29.5474 85.7322 29.4672 85.5838C29.4035 85.4803 29.3667 85.3947 29.357 85.327C29.3322 85.2599 29.3417 85.203 29.3855 85.1563C29.4657 85.0707 29.5837 85.1009 29.7393 85.2468C29.8949 85.3927 30.0044 85.5099 30.0676 85.5984C30.1381 85.6792 30.2047 85.7563 30.2675 85.8297C30.3302 85.9031 30.4316 86.0055 30.5717 86.1368C30.704 86.2609 30.8166 86.3591 30.9095 86.4316C30.9946 86.4967 31.0875 86.5692 31.1882 86.649C31.2883 86.7136 31.4163 86.8189 31.5719 86.9649Z" fill="#5B5853"/>
<path d="M36.1687 89.4738C36.6781 89.7648 37.0513 90.1438 37.2881 90.6108C37.525 91.0778 37.6203 91.5991 37.5741 92.1746C37.5226 92.7594 37.3248 93.3528 36.9809 93.9548C36.674 94.492 36.2758 94.9095 35.7863 95.2072C35.2823 95.5089 34.7498 95.6777 34.1888 95.7135C33.6279 95.7492 33.1066 95.6296 32.625 95.3544C32.2545 95.1428 31.968 94.8809 31.7656 94.5686C31.5631 94.2564 31.4599 93.921 31.4559 93.5625C31.4373 93.2079 31.5259 92.8593 31.7217 92.5166C31.8857 92.2295 32.1066 92.1653 32.3845 92.324L35.3159 93.9987C35.4455 94.0728 35.5593 94.0886 35.6572 94.0463C35.7406 94.0079 35.8404 93.8868 35.9568 93.6831C36.2108 93.2385 36.3464 92.7754 36.3635 92.2938C36.3754 91.8215 36.2827 91.3816 36.0855 90.9741C35.8831 90.5759 35.5873 90.2657 35.1983 90.0435C34.9205 89.8847 34.6413 89.7928 34.3608 89.7677C34.0658 89.7466 33.7721 89.7876 33.4797 89.8909C33.4162 89.916 33.3725 89.9279 33.3487 89.9266C33.3196 89.9345 33.2912 89.9306 33.2634 89.9147C33.1893 89.8724 33.1787 89.8049 33.2316 89.7123C33.3321 89.5363 33.5266 89.3894 33.815 89.2716C34.0545 89.175 34.3085 89.1174 34.5771 89.0989C34.8456 89.0803 35.1142 89.1048 35.3828 89.1722C35.6567 89.2304 35.9187 89.3309 36.1687 89.4738ZM35.042 94.4135L33.7778 93.6912C33.5555 93.5643 33.363 93.4604 33.2003 93.3797C33.0375 93.299 32.8741 93.2303 32.71 93.1734C32.6584 93.1562 32.6148 93.1681 32.5791 93.2091C32.5288 93.2541 32.4772 93.3229 32.4243 93.4155C32.2709 93.6841 32.2616 93.9798 32.3966 94.3026C32.517 94.6294 32.7393 94.8854 33.0635 95.0706C33.2765 95.1923 33.5266 95.2491 33.8137 95.2412C34.0955 95.2425 34.3588 95.1902 34.6035 95.0843C34.8483 94.9784 35.0236 94.8329 35.1294 94.6476C35.1823 94.555 35.1532 94.477 35.042 94.4135Z" fill="#5B5853"/>
<path d="M53.3255 95.1742C53.4088 95.1925 53.4795 95.2189 53.5374 95.2535C53.5953 95.2881 53.6163 95.3418 53.6003 95.4147C53.5843 95.4877 53.5416 95.5329 53.4722 95.5504C53.3924 95.5657 53.297 95.5775 53.186 95.5859C53.0287 95.606 52.8702 95.6313 52.7107 95.6617C52.5384 95.7004 52.4294 95.8239 52.3836 96.0323L51.6461 99.3923C51.5844 99.6736 51.5619 99.9253 51.5787 100.147C51.5931 100.38 51.7313 100.547 51.993 100.648C52.0324 100.667 52.0643 100.696 52.0887 100.734C52.1026 100.77 52.1028 100.819 52.089 100.882C52.0662 100.986 52.0108 101.039 51.9229 101.042C51.6255 101.053 51.3855 101.077 51.2028 101.113C51.0178 101.16 50.8525 101.217 50.7069 101.283C50.5486 101.357 50.3631 101.431 50.1504 101.505C50.1273 101.511 50.1042 101.516 50.0811 101.522C50.0556 101.539 50.0273 101.543 49.9961 101.536C49.9335 101.523 49.9103 101.479 49.9263 101.406C49.9423 101.333 49.9911 101.186 50.0727 100.963C50.1415 100.749 50.192 100.569 50.224 100.423C50.2468 100.319 50.2502 100.254 50.2339 100.229L50.2026 100.222C49.9127 100.399 49.5498 100.559 49.114 100.704C48.6655 100.857 48.1391 100.867 47.5348 100.734C47.1598 100.652 46.8655 100.5 46.652 100.278C46.4363 100.067 46.2885 99.7452 46.2087 99.3127L46.1619 99.3024C45.7621 99.5313 45.3258 99.7031 44.8529 99.8177C44.38 99.9323 43.8883 99.9336 43.3778 99.8216C43.034 99.7461 42.7703 99.579 42.5869 99.3203C42.4034 99.0617 42.291 98.753 42.2495 98.3945C42.1977 98.0336 42.2118 97.6709 42.2918 97.3062L43.0225 93.9775C43.0682 93.7691 43.0262 93.6125 42.8963 93.5075C42.7642 93.413 42.6257 93.3225 42.4808 93.2361C42.3835 93.182 42.307 93.1325 42.2514 93.0875C42.1853 93.0402 42.1603 92.9801 42.1763 92.9072C42.19 92.8447 42.2252 92.8087 42.2819 92.7993C42.3304 92.7772 42.412 92.7787 42.5266 92.8039C42.7349 92.8496 42.8941 92.8955 43.0042 92.9415C43.1165 92.9771 43.2236 93.0115 43.3255 93.0448C43.417 93.0758 43.5565 93.1119 43.744 93.153C43.9211 93.1919 44.0681 93.2187 44.185 93.2334C44.3019 93.2482 44.424 93.2641 44.5513 93.2811C44.6809 93.2877 44.8499 93.3139 45.0583 93.3596C45.1521 93.3802 45.2268 93.413 45.2824 93.4579C45.3299 93.4902 45.3468 93.5376 45.3331 93.6001C45.3148 93.6835 45.271 93.7339 45.2016 93.7514C45.1218 93.7667 45.0275 93.7733 44.9188 93.7713C44.7429 93.7763 44.5793 93.8005 44.4278 93.8437C44.266 93.8846 44.1622 94.0092 44.1164 94.2176L43.3961 97.4995C43.3412 97.7495 43.347 97.9965 43.4136 98.2405C43.4779 98.4948 43.5878 98.7155 43.7433 98.9026C43.8989 99.0896 44.0912 99.2083 44.3204 99.2586C44.5809 99.3157 44.8326 99.3382 45.0755 99.326C45.308 99.3115 45.5404 99.2479 45.7727 99.135C46.1147 98.9699 46.3429 98.6268 46.4572 98.1059L47.1639 94.8865C47.2096 94.6782 47.1624 94.5204 47.0221 94.4131C46.8818 94.3059 46.7381 94.2143 46.591 94.1383C46.4914 94.0946 46.4149 94.045 46.3615 93.9896C46.2954 93.9424 46.2704 93.8823 46.2864 93.8094C46.3001 93.7468 46.3353 93.7109 46.392 93.7015C46.451 93.6817 46.5325 93.6832 46.6367 93.7061C46.8451 93.7518 47.0095 93.7988 47.1299 93.8471C47.2423 93.8827 47.3546 93.9182 47.4669 93.9538C47.5688 93.9871 47.7135 94.0243 47.9011 94.0655C48.0782 94.1044 48.2252 94.1312 48.3421 94.1459C48.459 94.1606 48.5811 94.1765 48.7084 94.1935C48.838 94.2001 49.007 94.2263 49.2153 94.2721C49.2987 94.2904 49.3682 94.322 49.4238 94.367C49.4818 94.4015 49.5039 94.4501 49.4902 94.5126C49.4719 94.5959 49.424 94.64 49.3465 94.6448C49.2562 94.6578 49.166 94.6708 49.0758 94.6837C48.9081 94.7015 48.7445 94.7257 48.5849 94.7561C48.4126 94.7948 48.3036 94.9183 48.2578 95.1266L47.5375 98.4085C47.4826 98.6586 47.4884 98.9056 47.555 99.1495C47.6193 99.4039 47.7292 99.6246 47.8847 99.8116C48.0403 99.9986 48.2326 100.117 48.4618 100.168C48.7223 100.225 48.974 100.247 49.2169 100.235C49.4494 100.221 49.6818 100.157 49.9141 100.044C50.2411 99.8975 50.4641 99.5533 50.583 99.0115L51.2897 95.7921C51.3354 95.5838 51.2933 95.4271 51.1635 95.3221C51.0314 95.2276 50.8929 95.1372 50.748 95.0508C50.6715 95.0012 50.6002 94.9528 50.5342 94.9055C50.4554 94.8664 50.4252 94.8052 50.4435 94.7218C50.4572 94.6593 50.4976 94.6245 50.5647 94.6174C50.6236 94.5976 50.7 94.5979 50.7938 94.6185C51.0021 94.6643 51.1665 94.7113 51.287 94.7595C51.3993 94.7951 51.5064 94.8295 51.6083 94.8628C51.7102 94.8961 51.8549 94.9333 52.0425 94.9745C52.2196 95.0134 52.3666 95.0402 52.4835 95.0549C52.59 95.0674 52.7068 95.0821 52.8342 95.0991C52.9533 95.1035 53.1171 95.1285 53.3255 95.1742Z" fill="#5B5853"/>
<path d="M63.9356 96.5793C63.9988 96.5691 64.0355 96.5956 64.0457 96.6588C64.0746 96.8378 64.0833 97.0255 64.0718 97.2218C64.0497 97.4199 64.0027 97.5301 63.9307 97.5526C63.4372 97.7079 62.9428 97.858 62.4475 98.0028C61.954 98.1581 61.4587 98.303 60.9618 98.4372C60.9302 98.4423 60.9022 98.4361 60.8777 98.4184C60.8444 98.413 60.8252 98.3945 60.8201 98.3629C60.7878 98.1628 60.7835 97.969 60.8072 97.7815C60.8222 97.6062 60.8911 97.4978 61.0141 97.4563C61.476 97.3061 61.9485 97.1542 62.4315 97.0005C62.9057 96.8591 63.4071 96.7187 63.9356 96.5793Z" fill="#5B5853"/>
<path d="M76.8134 88.4791C76.8989 88.4356 76.9775 88.4135 77.049 88.413C77.1062 88.4079 77.1494 88.4338 77.1784 88.4908C77.2171 88.5669 77.2128 88.6289 77.1654 88.677C77.1229 88.7345 77.0566 88.8042 76.9666 88.8859C76.8433 88.9965 76.7321 89.1189 76.6329 89.2532C76.5337 89.3875 76.5325 89.5497 76.6292 89.7398L78.1897 92.8055C78.3204 93.0622 78.4602 93.2663 78.6092 93.4179C78.7486 93.5743 78.9589 93.6229 79.2399 93.5636C79.2876 93.5633 79.3306 93.5654 79.3688 93.5698C79.4118 93.5839 79.4478 93.6194 79.4769 93.6764C79.5301 93.781 79.5163 93.8598 79.4356 93.9128C79.1465 94.1677 78.9288 94.4102 78.7825 94.6403C78.6363 94.8703 78.5021 95.1122 78.3799 95.3659C78.3611 95.3994 78.3445 95.4257 78.3304 95.4449C78.3115 95.4785 78.2879 95.5025 78.2593 95.517C78.2403 95.5267 78.2212 95.5244 78.202 95.5103C78.1734 95.5009 78.1517 95.482 78.1372 95.4535C78.1034 95.3869 78.0475 95.2418 77.9695 95.0182C77.8869 94.8089 77.8117 94.6377 77.744 94.5046C77.7247 94.4666 77.7053 94.4286 77.6859 94.3905C77.6619 94.3669 77.6427 94.3527 77.6284 94.348C77.4554 94.8311 77.2246 95.2478 76.9361 95.5981C76.6382 95.9532 76.2658 96.2445 75.819 96.4719C75.3532 96.709 74.8714 96.7149 74.3737 96.4895C73.8759 96.2641 73.4843 95.871 73.1988 95.3101L71.6528 92.2729C71.5561 92.0828 71.4242 91.9884 71.2573 91.9896C71.0951 92.0003 70.9307 92.0181 70.7639 92.0432C70.6733 92.0534 70.5851 92.0564 70.4992 92.0523C70.4086 92.0624 70.344 92.0295 70.3053 91.9535C70.2763 91.8964 70.2926 91.8462 70.3543 91.8029C70.4112 91.75 70.4681 91.709 70.5252 91.68C70.7153 91.5832 70.8675 91.5177 70.9817 91.4835C71.0911 91.4398 71.1958 91.3985 71.2957 91.3596C71.3956 91.3207 71.5311 91.2577 71.7022 91.1706C71.8638 91.0884 71.9944 91.0159 72.0942 90.9531C72.1939 90.8904 72.2984 90.8252 72.4076 90.7577C72.5025 90.6854 72.645 90.6009 72.8351 90.5042C72.8826 90.48 72.9493 90.458 73.035 90.4383C73.1064 90.414 73.1566 90.4303 73.1856 90.4873C73.2243 90.5634 73.2177 90.6326 73.1656 90.695C73.1089 90.7717 73.0498 90.8437 72.9883 90.9109C72.8699 91.031 72.7587 91.1535 72.6546 91.2783C72.5554 91.4125 72.5542 91.5747 72.651 91.7649L74.1752 94.7593C74.3881 95.1775 74.6714 95.4402 75.0252 95.5474C75.3743 95.6689 75.7462 95.6353 76.1408 95.4464C76.483 95.2722 76.7534 95.0627 76.952 94.818C77.1554 94.5828 77.3158 94.3336 77.4332 94.0704C77.4519 94.013 77.4538 93.9462 77.4389 93.87C77.4289 93.8032 77.4094 93.7414 77.3803 93.6843L75.6311 90.2479C75.5343 90.0578 75.4025 89.9633 75.2355 89.9645C75.0686 89.9657 74.9041 89.9836 74.7422 90.0182C74.4945 90.0724 74.3465 90.052 74.2981 89.957C74.269 89.8999 74.2735 89.8498 74.3113 89.8066C74.3443 89.7539 74.4084 89.7033 74.5034 89.655C74.6935 89.5582 74.8505 89.4903 74.9742 89.4512C75.0836 89.4075 75.1883 89.3662 75.2882 89.3273C75.3881 89.2884 75.5236 89.2254 75.6947 89.1383C75.8563 89.0561 75.987 88.9836 76.0867 88.9208C76.1769 88.863 76.2766 88.8002 76.3859 88.7326C76.4807 88.6604 76.6233 88.5759 76.8134 88.4791Z" fill="#5B5853"/>
<path d="M80.7978 84.9415C81.2433 84.5598 81.7259 84.3361 82.2454 84.2703C82.7649 84.2045 83.2878 84.2902 83.8141 84.5276C84.3474 84.773 84.8396 85.159 85.2907 85.6855C85.6931 86.1554 85.9522 86.6709 86.0677 87.232C86.1821 87.8082 86.1617 88.3665 86.0065 88.9067C85.8513 89.447 85.5631 89.8975 85.1418 90.2584C84.8178 90.536 84.4747 90.7175 84.1126 90.803C83.7504 90.8885 83.3998 90.8728 83.0609 90.7559C82.7208 90.6539 82.4223 90.4531 82.1656 90.1534C81.9504 89.9023 81.9644 89.6726 82.2074 89.4644L84.7713 87.2681C84.8847 87.171 84.938 87.0692 84.931 86.9627C84.923 86.8713 84.8426 86.7365 84.6899 86.5583C84.3568 86.1694 83.9665 85.8859 83.5188 85.7076C83.078 85.5374 82.6326 85.4765 82.1825 85.525C81.7394 85.5815 81.3477 85.7555 81.0075 86.047C80.7645 86.2552 80.5839 86.4871 80.4658 86.7428C80.3466 87.0135 80.2863 87.3038 80.2851 87.6139C80.2874 87.6822 80.2839 87.7273 80.2746 87.7493C80.2723 87.7793 80.259 87.8048 80.2347 87.8256C80.1699 87.8811 80.1028 87.8684 80.0334 87.7874C79.9015 87.6335 79.8287 87.4009 79.8149 87.0897C79.8046 86.8317 79.8359 86.5731 79.9089 86.3139C79.9818 86.0548 80.0953 85.8101 80.2492 85.58C80.3962 85.3417 80.5791 85.1288 80.7978 84.9415ZM85.0697 87.6656L83.9639 88.6128C83.7695 88.7794 83.6069 88.9257 83.4761 89.0518C83.3454 89.1778 83.2256 89.3085 83.1168 89.4439C83.0832 89.4867 83.0797 89.5318 83.1063 89.5792C83.1318 89.6417 83.1792 89.7135 83.2486 89.7945C83.4498 90.0294 83.7252 90.1376 84.0746 90.1192C84.4228 90.1159 84.7387 89.9927 85.0222 89.7499C85.2085 89.5903 85.3463 89.3739 85.4354 89.1009C85.5316 88.836 85.571 88.5705 85.5537 88.3044C85.5364 88.0383 85.4584 87.8242 85.3196 87.6622C85.2502 87.5812 85.1669 87.5823 85.0697 87.6656Z" fill="#5B5853"/>
<path d="M87.2848 78.1611C87.3515 78.0778 87.414 78.0254 87.4723 78.0038C87.5223 77.9755 87.5723 77.9813 87.6222 78.0213C87.6888 78.0747 87.7104 78.133 87.6871 78.1963C87.672 78.2662 87.6403 78.357 87.592 78.4686C87.5069 78.6601 87.4718 78.8234 87.4867 78.9583C87.5033 79.1082 87.5699 79.2299 87.6864 79.3232L90.3713 81.4738C90.5961 81.6539 90.8184 81.7773 91.0383 81.844C91.2581 81.9108 91.4722 81.8568 91.6805 81.682C91.7155 81.6554 91.7597 81.6429 91.813 81.6446C91.8663 81.6463 91.9096 81.6605 91.9429 81.6871C92.0262 81.7538 92.0461 81.8313 92.0027 81.9196C91.896 82.1894 91.8117 82.4908 91.7498 82.824C91.6896 83.1721 91.6478 83.4461 91.6244 83.646C91.6177 83.7226 91.6085 83.7768 91.5968 83.8084C91.5868 83.855 91.5751 83.8867 91.5618 83.9033C91.5284 83.945 91.4826 83.9424 91.4243 83.8958C91.3994 83.8757 91.3403 83.8216 91.247 83.7332C91.1471 83.6532 91.0339 83.5557 90.9074 83.4407C90.7742 83.334 90.6443 83.2231 90.5178 83.1081C90.5011 83.0948 90.4861 83.0964 90.4728 83.1131C90.5326 83.3796 90.5616 83.642 90.5598 83.9002C90.5513 84.1668 90.5178 84.4133 90.4594 84.6398C90.3943 84.8747 90.2983 85.0712 90.1716 85.2294C90.0316 85.4042 89.8808 85.5157 89.7192 85.5639C89.5509 85.6205 89.4085 85.602 89.2919 85.5087C89.2087 85.442 89.1371 85.3437 89.0772 85.2137C89.0106 85.0921 88.9699 84.9638 88.955 84.8288C88.9401 84.6939 88.966 84.5848 89.0326 84.5015C89.0727 84.4516 89.1243 84.4041 89.1877 84.3592C89.2593 84.3209 89.3385 84.2818 89.4251 84.2419C89.5034 84.1953 89.5818 84.1487 89.6601 84.1021C89.7384 84.0555 89.8042 83.9989 89.8576 83.9323C90.0176 83.7325 90.1036 83.4802 90.1154 83.1753C90.1206 82.8788 89.915 82.5638 89.4988 82.2304L86.9762 80.2099C86.868 80.1232 86.7297 80.1081 86.5615 80.1647C86.4015 80.2279 86.2049 80.3369 85.9715 80.4916C85.8732 80.5632 85.7916 80.614 85.7266 80.6439C85.6616 80.6739 85.6 80.6655 85.5417 80.6188C85.4501 80.5455 85.471 80.4255 85.6044 80.259C85.8044 80.0093 85.9703 79.8278 86.1019 79.7146C86.2186 79.6031 86.3637 79.4391 86.537 79.2226C86.6504 79.0811 86.7396 78.9612 86.8046 78.8629C86.863 78.773 86.928 78.6748 86.9997 78.5682C87.0564 78.4633 87.1514 78.3276 87.2848 78.1611Z" fill="#5B5853"/>
<path d="M92.2645 68.9724C92.3584 68.7809 92.4581 68.7109 92.5634 68.7626C92.6496 68.8048 92.6722 68.9525 92.6313 69.2057C92.6088 69.3728 92.6053 69.5374 92.6209 69.6995C92.6318 69.8712 92.7307 70.0087 92.9175 70.1122L100.115 73.6403C100.374 73.767 100.62 73.8343 100.854 73.8419C101.097 73.8543 101.299 73.7454 101.46 73.5152C101.521 73.4383 101.609 73.4281 101.724 73.4844C101.81 73.5267 101.849 73.5932 101.84 73.6839C101.822 73.8414 101.798 74.0253 101.766 74.2355C101.729 74.4552 101.695 74.682 101.664 74.916C101.642 75.1547 101.627 75.3671 101.619 75.5533C101.619 75.601 101.615 75.6344 101.605 75.6535C101.591 75.6823 101.57 75.7015 101.541 75.7113C101.513 75.7211 101.484 75.7189 101.456 75.7048C101.398 75.6766 101.324 75.6224 101.232 75.542C101.136 75.4712 100.964 75.3628 100.715 75.2169C100.465 75.071 100.082 74.8713 99.565 74.6178L97.0651 73.3925C96.9119 73.3174 96.7994 73.2682 96.7276 73.2449C96.6512 73.2312 96.5701 73.227 96.4843 73.2325C96.5241 73.4421 96.557 73.6899 96.5832 73.9759C96.6142 74.2762 96.6143 74.591 96.5835 74.9204C96.5527 75.2498 96.4645 75.563 96.319 75.8599C96.0889 76.3292 95.712 76.6256 95.1883 76.749C94.6694 76.8867 94.1274 76.817 93.5623 76.54L90.5452 75.0612C90.3537 74.9673 90.1795 74.9591 90.0227 75.0367C89.8754 75.1189 89.7427 75.2202 89.6243 75.3404C89.544 75.4316 89.4705 75.4966 89.4041 75.5353C89.3472 75.5787 89.29 75.5863 89.2325 75.5581C89.1271 75.5065 89.1214 75.3849 89.2153 75.1933C89.3092 75.0018 89.3916 74.858 89.4623 74.762C89.5189 74.671 89.5754 74.5799 89.6319 74.4888C89.6838 74.4073 89.7519 74.2803 89.8364 74.1079C89.9162 73.9451 89.9748 73.8135 90.0122 73.713C90.0496 73.6125 90.0893 73.5072 90.1313 73.3972C90.1591 73.292 90.22 73.1437 90.3139 72.9521C90.4078 72.7605 90.5074 72.6906 90.6128 72.7422C90.6798 72.7751 90.7088 72.8249 90.6998 72.8918C90.7004 72.9633 90.694 73.0612 90.6807 73.1853C90.6581 73.3525 90.6618 73.5146 90.6917 73.6718C90.7311 73.8337 90.8466 73.9616 91.0382 74.0555L93.969 75.4921C94.2085 75.6094 94.4592 75.6432 94.7212 75.5935C94.988 75.558 95.2282 75.4678 95.4417 75.323C95.6553 75.1782 95.8137 75.0005 95.917 74.7897C96.0062 74.6078 96.0807 74.383 96.1406 74.1153C96.2101 73.8524 96.225 73.6281 96.1854 73.4424C96.136 73.2281 96.0583 73.0593 95.9524 72.9361C95.8418 72.8225 95.638 72.693 95.3411 72.5474L92.4246 71.1179C92.2283 71.0336 92.0661 71.0253 91.9378 71.0931C91.8049 71.1705 91.6792 71.2693 91.5609 71.3895C91.4805 71.4807 91.4095 71.5409 91.3477 71.57C91.2908 71.6134 91.2336 71.621 91.1761 71.5929C91.0708 71.5412 91.065 71.4196 91.1589 71.2281C91.2528 71.0365 91.3328 70.8975 91.3989 70.8111C91.4554 70.7201 91.5096 70.6338 91.5615 70.5522C91.6133 70.4707 91.6815 70.3438 91.766 70.1714C91.8458 70.0086 91.9067 69.8721 91.9488 69.7621C91.9861 69.6616 92.0282 69.5515 92.075 69.4319C92.1074 69.3172 92.1706 69.164 92.2645 68.9724Z" fill="#5B5853"/>
<path d="M93.7036 62.1749C93.7454 61.9875 93.8612 61.8112 94.051 61.6458C94.2385 61.4909 94.4515 61.369 94.6899 61.2801C94.926 61.2015 95.1377 61.1832 95.3251 61.2249C95.6583 61.2992 95.8988 61.4457 96.0468 61.6644C96.1947 61.8832 96.3039 62.2026 96.3742 62.6226L96.675 64.3617C96.7119 64.5885 96.7581 64.7245 96.8136 64.7696C96.8668 64.8252 96.9964 64.8814 97.2023 64.9382L98.1948 65.1922C98.4631 65.263 98.7148 65.2371 98.9497 65.1146C99.1824 65.0025 99.3323 64.7955 99.3996 64.4936C99.4344 64.3374 99.4432 64.1754 99.4259 64.0077C99.4087 63.8399 99.37 63.6947 99.3099 63.572C99.2822 63.5003 99.229 63.4447 99.1504 63.4053C99.0717 63.3659 98.9856 63.3358 98.8919 63.3149C98.8502 63.3056 98.8034 63.2952 98.7513 63.2836C98.6969 63.2824 98.6489 63.2771 98.6073 63.2679C98.5552 63.2563 98.4974 63.1723 98.4339 63.0161C98.3784 62.8726 98.3329 62.7095 98.2971 62.5266C98.2694 62.3565 98.2672 62.2194 98.2904 62.1153C98.302 62.0633 98.3217 62.024 98.3495 61.9974C98.3877 61.9731 98.4276 61.9656 98.4693 61.9749C98.6358 62.012 98.8012 62.1035 98.9654 62.2494C99.1377 62.408 99.2851 62.6048 99.4076 62.8397C99.5729 63.1279 99.7074 63.4311 99.8114 63.7493C99.9153 64.0676 99.984 64.3725 100.017 64.664C100.051 64.9556 100.044 65.2055 99.9978 65.4137C99.9142 65.7885 99.7104 66.0655 99.3864 66.2446C99.0704 66.4365 98.7158 66.4831 98.3224 66.3845L94.5918 65.4711C94.3755 65.412 94.1881 65.4194 94.0295 65.4933C93.8686 65.5777 93.7696 65.7031 93.7325 65.8697C93.6745 66.13 93.6888 66.3354 93.7755 66.4858C93.816 66.5495 93.8327 66.5969 93.8258 66.6282C93.8142 66.6802 93.7893 66.7184 93.7511 66.7427C93.7129 66.7669 93.6677 66.7733 93.6157 66.7617C93.5012 66.7361 93.3994 66.6533 93.3104 66.5133C93.181 66.3096 93.0914 66.0984 93.0418 65.8797C92.9795 65.6691 92.9669 65.4805 93.004 65.3139C93.1107 64.835 93.4661 64.5153 94.0701 64.3549L94.0806 64.308C93.8761 63.9018 93.7461 63.5286 93.6908 63.1884C93.6251 62.8459 93.6293 62.5081 93.7036 62.1749ZM94.2896 63.076C94.2432 63.2842 94.235 63.4682 94.265 63.6279C94.3054 63.7899 94.3701 63.9409 94.4591 64.0809C94.4995 64.1446 94.5579 64.2013 94.6342 64.2511C94.7187 64.3136 94.8586 64.3722 95.0541 64.4267L95.8124 64.6284C95.9246 64.6644 96.009 64.6777 96.0657 64.6685C96.1224 64.6593 96.1577 64.6234 96.1716 64.561C96.1763 64.5402 96.1792 64.5026 96.1804 64.4482C96.1816 64.3938 96.1758 64.3215 96.1632 64.2312C96.0883 63.6354 95.966 63.2037 95.7961 62.9364C95.6343 62.6817 95.4648 62.5347 95.2879 62.4952C95.0172 62.4349 94.7915 62.4666 94.611 62.5903C94.4385 62.7267 94.3314 62.8886 94.2896 63.076Z" fill="#5B5853"/>
<path d="M94.4596 54.5782C94.4632 54.4716 94.4819 54.3922 94.5157 54.3399C94.5388 54.2874 94.5824 54.2622 94.6463 54.2643C94.7316 54.2672 94.7892 54.3012 94.819 54.3663C94.8484 54.442 94.872 54.5335 94.8897 54.6408C94.9346 54.8878 95.0033 55.0663 95.0956 55.1761C95.1986 55.2864 95.3567 55.3451 95.5699 55.3524L100.079 55.5057C100.083 55.3991 100.087 55.2765 100.092 55.1379C100.107 54.9997 100.123 54.8455 100.14 54.6752C100.151 54.6436 100.19 54.5969 100.256 54.5351C100.322 54.484 100.382 54.4594 100.435 54.4612C100.456 54.4619 100.472 54.4784 100.481 54.5108C100.502 54.5435 100.517 54.5653 100.527 54.5764C100.617 54.7715 100.696 54.9397 100.766 55.0808C100.836 55.2219 100.906 55.3737 100.975 55.5361C101.902 55.5677 102.671 55.7059 103.282 55.9508C103.892 56.2063 104.373 56.5215 104.723 56.8963C105.073 57.2711 105.316 57.6635 105.451 58.0737C105.597 58.4842 105.664 58.8654 105.652 59.2172C105.632 59.8142 105.526 60.2535 105.335 60.5352C105.144 60.8169 104.91 60.953 104.633 60.9436C104.42 60.9363 104.262 60.8776 104.159 60.7674C104.056 60.6571 104.007 60.5274 104.012 60.3781C104.015 60.2822 104.056 60.1928 104.133 60.1101C104.21 60.038 104.299 59.9503 104.398 59.847C104.542 59.7131 104.675 59.5469 104.799 59.3483C104.934 59.1501 105.008 58.8751 105.02 58.5233C105.037 58.0223 104.832 57.5991 104.406 57.2537C103.98 56.9191 103.314 56.7363 102.408 56.7055L101.001 56.6577C100.937 56.6555 100.894 56.67 100.871 56.7013C100.848 56.7432 100.836 56.7855 100.835 56.8281L100.767 58.827C100.765 58.8803 100.747 58.9277 100.714 58.9692C100.681 59.0108 100.637 59.0307 100.584 59.0289C100.509 59.0263 100.43 59.0129 100.345 58.9887C100.26 58.9752 100.186 58.9513 100.123 58.9171C100.039 58.8823 99.9982 58.8328 100 58.7689L100.063 56.9299C100.067 56.802 100.049 56.716 100.008 56.6719C99.9767 56.6389 99.9293 56.6212 99.8653 56.6191L95.5318 56.4717C95.3186 56.4645 95.1564 56.5283 95.045 56.6633C94.9444 56.7986 94.8602 57.0786 94.7924 57.5032C94.752 57.7473 94.6626 57.867 94.524 57.8623C94.46 57.8601 94.4183 57.832 94.3988 57.778C94.3686 57.7236 94.3554 57.6431 94.359 57.5365C94.3699 57.2167 94.3954 56.9347 94.4358 56.6906C94.4654 56.4461 94.485 56.1853 94.4944 55.9081C94.5006 55.7269 94.5003 55.5775 94.4936 55.4598C94.4869 55.3422 94.4805 55.2193 94.4741 55.091C94.4572 54.9623 94.4523 54.7914 94.4596 54.5782Z" fill="#5B5853"/>
<path d="M93.7358 47.9508C93.7215 47.8451 93.7266 47.7636 93.7512 47.7065C93.7652 47.6508 93.8039 47.6186 93.8673 47.61C93.9519 47.5986 94.009 47.6232 94.0387 47.6837C94.079 47.7429 94.1229 47.8284 94.1703 47.9404C94.2503 48.1341 94.3444 48.2721 94.4524 48.3543C94.5724 48.4457 94.7064 48.4814 94.8543 48.4614L98.2633 48.0002C98.5487 47.9616 98.7914 47.8857 98.9913 47.7726C99.1913 47.6594 99.2998 47.4671 99.3169 47.1957C99.3218 47.152 99.3432 47.1114 99.3812 47.074C99.4192 47.0366 99.4593 47.015 99.5016 47.0093C99.6073 46.995 99.6772 47.034 99.7112 47.1262C99.8329 47.3896 99.9931 47.6586 100.192 47.9331C100.402 48.2167 100.572 48.436 100.7 48.5908C100.751 48.6485 100.784 48.6925 100.799 48.7228C100.826 48.7622 100.841 48.7925 100.844 48.8136C100.851 48.8665 100.817 48.8979 100.743 48.9079C100.712 48.9122 100.632 48.9177 100.503 48.9243C100.377 48.9414 100.228 48.9561 100.057 48.9685C99.8882 48.9913 99.7183 49.0089 99.5478 49.0212C99.5266 49.0241 99.5175 49.0361 99.5204 49.0572C99.7546 49.1978 99.9646 49.3577 100.15 49.5371C100.338 49.7271 100.493 49.9213 100.617 50.1199C100.742 50.329 100.818 50.5339 100.845 50.7348C100.875 50.9567 100.852 51.1429 100.775 51.2932C100.7 51.454 100.589 51.5445 100.441 51.5645C100.335 51.5788 100.215 51.5628 100.079 51.5165C99.9451 51.4808 99.8241 51.4219 99.7161 51.3396C99.6081 51.2573 99.5469 51.1634 99.5326 51.0577C99.5241 50.9942 99.5253 50.9241 99.5365 50.8472C99.5582 50.769 99.5844 50.6847 99.6153 50.5944C99.6356 50.5055 99.6558 50.4167 99.6761 50.3278C99.6964 50.239 99.7008 50.1523 99.6893 50.0677C99.655 49.814 99.5316 49.5778 99.319 49.359C99.1078 49.1507 98.738 49.0824 98.2095 49.1539L95.0066 49.5872C94.8692 49.6057 94.763 49.6955 94.6879 49.8563C94.6233 50.0157 94.5666 50.2333 94.5178 50.509C94.5018 50.6296 94.4823 50.7237 94.4592 50.7914C94.436 50.8591 94.3875 50.898 94.3135 50.908C94.1972 50.9237 94.1248 50.8259 94.0962 50.6145C94.0533 50.2974 94.0362 50.0521 94.0451 49.8787C94.0447 49.7173 94.026 49.4992 93.9888 49.2243C93.9645 49.0446 93.9392 48.8974 93.9129 48.7825C93.888 48.6782 93.8617 48.5634 93.834 48.438C93.7971 48.3246 93.7644 48.1622 93.7358 47.9508Z" fill="#5B5853"/>
<path d="M92.1354 42.9778C91.95 42.4212 91.9248 41.89 92.0598 41.384C92.1948 40.8781 92.4714 40.4261 92.8898 40.0282C93.3182 39.6268 93.8613 39.3166 94.5191 39.0975C95.1061 38.9019 95.6812 38.8565 96.2445 38.9611C96.8213 39.0725 97.3306 39.302 97.7724 39.6495C98.2142 39.997 98.5228 40.4339 98.6981 40.9601C98.833 41.3649 98.8717 41.7511 98.8143 42.1188C98.7569 42.4864 98.6101 42.8052 98.3739 43.075C98.1513 43.3515 97.8527 43.5522 97.4783 43.6769C97.1646 43.7814 96.9571 43.6819 96.856 43.3783L95.7889 40.1754C95.7417 40.0337 95.6675 39.946 95.5663 39.9122C95.4787 39.8852 95.3235 39.9088 95.1009 39.983C94.6151 40.1448 94.2052 40.3994 93.8712 40.7468C93.5474 41.0908 93.323 41.4804 93.1981 41.9155C93.0833 42.3472 93.0968 42.7756 93.2384 43.2006C93.3395 43.5042 93.4862 43.7589 93.6784 43.9647C93.8842 44.1772 94.1304 44.3426 94.4171 44.4607C94.4811 44.4843 94.5216 44.5045 94.5385 44.5214C94.5655 44.5349 94.584 44.5568 94.5941 44.5872C94.6211 44.6681 94.584 44.7255 94.4828 44.7592C94.2905 44.8233 94.0476 44.803 93.7542 44.6984C93.5114 44.6106 93.2837 44.4841 93.0712 44.3188C92.8587 44.1535 92.6749 43.9561 92.5198 43.7267C92.3546 43.5007 92.2264 43.251 92.1354 42.9778ZM96.2696 40.049L96.7298 41.4303C96.8107 41.6732 96.8849 41.879 96.9523 42.0476C97.0198 42.2163 97.0956 42.3765 97.1799 42.5283C97.2069 42.5756 97.2474 42.5958 97.3014 42.5891C97.3688 42.5891 97.4532 42.5722 97.5544 42.5385C97.8478 42.4407 98.0519 42.2266 98.1667 41.896C98.2949 41.5722 98.3 41.2333 98.182 40.8791C98.1045 40.6463 97.9561 40.4371 97.7369 40.2516C97.5278 40.0627 97.2967 39.926 97.0438 39.8416C96.7908 39.7573 96.5631 39.7488 96.3607 39.8162C96.2595 39.8499 96.2292 39.9275 96.2696 40.049Z" fill="#5B5853"/>
<path d="M85.9496 31.1193C85.8883 31.032 85.8555 30.9573 85.851 30.8953C85.8379 30.8393 85.8575 30.793 85.9098 30.7562C85.9797 30.7072 86.0417 30.7028 86.096 30.7429C86.1589 30.7769 86.2372 30.8327 86.3308 30.9104C86.4909 31.0456 86.6378 31.125 86.7715 31.1484C86.9201 31.1744 87.0555 31.1445 87.1777 31.0588L89.9934 29.0825C90.2292 28.9171 90.4098 28.7382 90.5354 28.5457C90.661 28.3533 90.669 28.1327 90.5595 27.8838C90.5437 27.8427 90.5441 27.7968 90.5606 27.7461C90.5772 27.6954 90.6029 27.6578 90.6378 27.6333C90.7251 27.572 90.8051 27.5746 90.8777 27.6409C91.1069 27.8189 91.3727 27.9841 91.6753 28.1367C91.9927 28.2918 92.2441 28.4086 92.4294 28.487C92.5011 28.5149 92.5505 28.5389 92.5776 28.5589C92.6196 28.5816 92.6467 28.6017 92.659 28.6191C92.6896 28.6628 92.6744 28.7061 92.6132 28.7489C92.5871 28.7673 92.5185 28.8089 92.4076 28.8737C92.3028 28.9473 92.1775 29.0287 92.0317 29.118C91.892 29.216 91.7493 29.3097 91.6035 29.399C91.586 29.4113 91.5834 29.4262 91.5956 29.4436C91.8683 29.4608 92.1283 29.5063 92.3757 29.5803C92.6292 29.663 92.8566 29.7641 93.0577 29.8835C93.265 30.0117 93.4268 30.1588 93.5432 30.3246C93.6719 30.508 93.7368 30.684 93.7379 30.8526C93.7451 31.03 93.6876 31.1616 93.5654 31.2474C93.4781 31.3087 93.3636 31.3499 93.2221 31.371C93.0867 31.4009 92.9521 31.4041 92.8184 31.3807C92.6847 31.3573 92.5872 31.3019 92.5259 31.2146C92.4891 31.1622 92.458 31.0994 92.4326 31.026C92.4159 30.9465 92.4005 30.8596 92.3864 30.7652C92.3635 30.677 92.3407 30.5887 92.3179 30.5005C92.2951 30.4123 92.2591 30.3332 92.2101 30.2634C92.063 30.0539 91.8448 29.9008 91.5555 29.8041C91.2722 29.7162 90.9123 29.8255 90.4758 30.1319L87.8303 31.9886C87.7168 32.0683 87.6637 32.1968 87.6709 32.3742C87.6869 32.5454 87.7365 32.7647 87.8199 33.032C87.8611 33.1464 87.887 33.239 87.8975 33.3098C87.9081 33.3805 87.8828 33.4374 87.8217 33.4803C87.7257 33.5477 87.6164 33.4941 87.4938 33.3194C87.31 33.0575 87.1821 32.8475 87.1103 32.6894C87.0358 32.5462 86.919 32.3611 86.7596 32.1341C86.6555 31.9857 86.5653 31.8665 86.4892 31.7766C86.4192 31.6954 86.343 31.6055 86.2608 31.5069C86.1759 31.4231 86.0722 31.2939 85.9496 31.1193Z" fill="#5B5853"/>
<path d="M78.5207 23.7682C78.363 23.6245 78.3237 23.5093 78.4028 23.4226C78.4675 23.3517 78.6156 23.3712 78.8472 23.4813C79.0014 23.5497 79.1584 23.5991 79.3184 23.6295C79.4862 23.667 79.646 23.6105 79.7976 23.4601L85.1981 17.5363C85.3921 17.3235 85.5255 17.1059 85.5983 16.8836C85.6783 16.6534 85.6302 16.4291 85.454 16.2107C85.3974 16.1303 85.4122 16.0428 85.4985 15.9482C85.5631 15.8772 85.6378 15.8587 85.7224 15.8925C85.8687 15.9537 86.0383 16.0289 86.2312 16.1182C86.4319 16.2146 86.6402 16.3107 86.8561 16.4064C87.0791 16.4943 87.2788 16.5681 87.4552 16.6279C87.5011 16.6409 87.532 16.6546 87.5477 16.6689C87.5714 16.6905 87.5839 16.7163 87.5853 16.7465C87.5867 16.7766 87.5766 16.8035 87.5551 16.8272C87.5119 16.8745 87.439 16.9307 87.3363 16.9958C87.2415 17.0682 87.0892 17.2036 86.8794 17.402C86.6696 17.6005 86.3707 17.9125 85.9826 18.3382L84.107 20.3955C83.992 20.5217 83.9133 20.6159 83.8709 20.6783C83.8364 20.7478 83.8097 20.8246 83.7909 20.9085C84.0033 20.9289 84.2504 20.9665 84.5323 21.0215C84.8293 21.0757 85.1316 21.1637 85.4393 21.2853C85.7469 21.407 86.0229 21.5793 86.2673 21.802C86.6535 22.1542 86.8326 22.5989 86.8046 23.1363C86.7917 23.673 86.5732 24.1739 86.1492 24.639L83.8855 27.122C83.7418 27.2796 83.6852 27.4446 83.7158 27.6168C83.7536 27.7812 83.8137 27.937 83.896 28.0842C83.9611 28.1869 84.003 28.2755 84.0215 28.3502C84.0473 28.417 84.0386 28.474 83.9955 28.5213C83.9164 28.608 83.7981 28.5795 83.6404 28.4358C83.4828 28.292 83.3678 28.1728 83.2954 28.0779C83.2238 27.9982 83.1522 27.9184 83.0805 27.8387C83.0168 27.7661 82.9139 27.6652 82.772 27.5358C82.638 27.4137 82.528 27.3206 82.442 27.2566C82.356 27.1926 82.2661 27.1251 82.1722 27.0539C82.079 26.9978 81.9535 26.8979 81.7959 26.7542C81.6382 26.6104 81.5989 26.4952 81.678 26.4085C81.7283 26.3533 81.7843 26.3394 81.8459 26.3668C81.9148 26.3862 82.007 26.4197 82.1224 26.4673C82.2766 26.5356 82.4333 26.5775 82.5926 26.5928C82.759 26.6002 82.9141 26.5251 83.0578 26.3674L85.2568 23.9553C85.4365 23.7583 85.5391 23.527 85.5646 23.2616C85.6051 22.9954 85.5857 22.7396 85.5064 22.4941C85.4271 22.2486 85.3008 22.0468 85.1274 21.8887C84.9776 21.7522 84.7826 21.6177 84.5424 21.4853C84.3094 21.3451 84.0982 21.268 83.9088 21.2541C83.6893 21.2416 83.5056 21.269 83.3577 21.3362C83.2177 21.4106 83.0363 21.57 82.8135 21.8144L80.6253 24.2146C80.4894 24.3795 80.4361 24.533 80.4653 24.6751C80.5024 24.8244 80.5621 24.9726 80.6444 25.1198C80.7096 25.2225 80.7475 25.3076 80.7582 25.3751C80.7839 25.4418 80.7752 25.4989 80.7321 25.5461C80.653 25.6329 80.5347 25.6043 80.377 25.4606C80.2194 25.3169 80.1083 25.2012 80.0439 25.1136C79.9722 25.0338 79.9045 24.9577 79.8408 24.8851C79.777 24.8126 79.6742 24.7116 79.5323 24.5823C79.3983 24.4601 79.2844 24.3634 79.1905 24.2923C79.1045 24.2283 79.0106 24.1571 78.9088 24.0788C78.8077 24.0155 78.6783 23.912 78.5207 23.7682Z" fill="#5B5853"/>
<path d="M73.889 21.3236C73.3756 21.0397 72.9973 20.6659 72.7539 20.2022C72.5106 19.7386 72.408 19.2187 72.4462 18.6426C72.4896 18.0571 72.679 17.461 73.0146 16.8543C73.3139 16.3128 73.7063 15.8899 74.1916 15.5854C74.6914 15.2767 75.2215 15.1005 75.7819 15.0569C76.3423 15.0133 76.8652 15.1257 77.3506 15.3942C77.724 15.6006 78.0141 15.8585 78.2208 16.1679C78.4276 16.4773 78.5355 16.8112 78.5445 17.1696C78.568 17.5239 78.4843 17.8737 78.2933 18.2191C78.1333 18.5085 77.9133 18.5757 77.6332 18.4209L74.6788 16.7872C74.5481 16.715 74.4341 16.7007 74.3368 16.7444C74.254 16.7839 74.1559 16.9064 74.0423 17.1117C73.7945 17.5598 73.6654 18.0247 73.655 18.5065C73.6497 18.979 73.7485 19.4175 73.9513 19.8222C74.1593 20.2176 74.4594 20.5236 74.8514 20.7404C75.1314 20.8953 75.4119 20.9833 75.6927 21.0045C75.988 21.0215 76.2811 20.9764 76.572 20.8691C76.6352 20.8431 76.6786 20.8306 76.7025 20.8315C76.7315 20.8232 76.76 20.8268 76.788 20.8423C76.8626 20.8835 76.8742 20.9509 76.8226 21.0442C76.7245 21.2216 76.5321 21.3711 76.2453 21.4929C76.0072 21.5929 75.7541 21.654 75.4858 21.6763C75.2175 21.6985 74.9486 21.6778 74.6791 21.6141C74.4044 21.5598 74.1411 21.4629 73.889 21.3236ZM74.9468 16.3687L76.221 17.0732C76.445 17.1971 76.639 17.2983 76.8028 17.3767C76.9667 17.4551 77.131 17.5216 77.2959 17.5762C77.3477 17.5926 77.3912 17.5801 77.4263 17.5386C77.476 17.4929 77.5266 17.4234 77.5782 17.3301C77.7279 17.0594 77.733 16.7636 77.5936 16.4427C77.4686 16.1176 77.2427 15.8647 76.916 15.6841C76.7013 15.5654 76.4505 15.512 76.1635 15.5239C75.8817 15.5266 75.6192 15.5825 75.376 15.6918C75.1327 15.8011 74.9595 15.949 74.8562 16.1357C74.8046 16.2291 74.8348 16.3067 74.9468 16.3687Z" fill="#5B5853"/>
<path d="M56.6545 15.8626C56.5709 15.8454 56.4999 15.82 56.4415 15.7862C56.3831 15.7525 56.3614 15.6991 56.3764 15.6259C56.3914 15.5528 56.4334 15.5069 56.5026 15.4884C56.5821 15.4721 56.6774 15.4589 56.7883 15.449C56.9453 15.4267 57.1034 15.3992 57.2625 15.3665C57.4342 15.3255 57.5415 15.2005 57.5843 14.9915L58.275 11.6216C58.3328 11.3394 58.3518 11.0874 58.3319 10.8656C58.3142 10.6333 58.1738 10.4684 57.9107 10.3709C57.871 10.3519 57.8387 10.3235 57.8138 10.2858C57.7993 10.2501 57.7985 10.201 57.8114 10.1383C57.8328 10.0338 57.8874 9.97965 57.9753 9.97588C58.2724 9.96056 58.5121 9.93346 58.6943 9.89458C58.8786 9.84524 59.0431 9.78641 59.1878 9.71806C59.345 9.64141 59.5295 9.56488 59.7411 9.48849C59.7642 9.48232 59.7872 9.47615 59.8103 9.46999C59.8354 9.45337 59.8637 9.44828 59.895 9.4547C59.9577 9.46755 59.9816 9.51055 59.9666 9.58369C59.9516 9.65684 59.9049 9.80515 59.8264 10.0286C59.7606 10.2438 59.7126 10.4245 59.6826 10.5708C59.6612 10.6753 59.6588 10.7401 59.6754 10.7653L59.7068 10.7717C59.9942 10.5911 60.3548 10.4254 60.7886 10.2748C61.2349 10.1158 61.7611 10.0985 62.3672 10.2227C62.7434 10.2998 63.0397 10.4476 63.2563 10.6662C63.4749 10.8744 63.6272 11.1941 63.713 11.6254L63.76 11.6351C64.1565 11.4006 64.5904 11.2227 65.0616 11.1015C65.5329 10.9804 66.0245 10.9722 66.5365 11.0772C66.8814 11.1478 67.1473 11.3112 67.3344 11.5673C67.5214 11.8234 67.6382 12.1305 67.6846 12.4884C67.7414 12.8485 67.7324 13.2114 67.6574 13.5771L66.9732 16.9157C66.9304 17.1247 66.9746 17.2808 67.1059 17.3839C67.2393 17.4766 67.3791 17.5651 67.5251 17.6495C67.6232 17.7023 67.7004 17.7507 67.7566 17.7949C67.8234 17.8413 67.8492 17.901 67.8342 17.9742C67.8214 18.0369 67.7867 18.0733 67.7302 18.0835C67.6819 18.1063 67.6003 18.1059 67.4854 18.0823C67.2764 18.0395 67.1166 17.9959 67.0059 17.9514C66.8931 17.9174 66.7855 17.8845 66.6832 17.8526C66.5913 17.8229 66.4513 17.7887 66.2632 17.7502C66.0856 17.7138 65.9382 17.689 65.8211 17.6759C65.704 17.6628 65.5817 17.6486 65.4542 17.6334C65.3245 17.6286 65.1552 17.6048 64.9462 17.5619C64.8521 17.5426 64.777 17.5109 64.7207 17.4667C64.6727 17.4351 64.6552 17.388 64.668 17.3253C64.6852 17.2417 64.7283 17.1906 64.7974 17.1721C64.877 17.1558 64.9712 17.1478 65.0799 17.1484C65.2557 17.1408 65.419 17.1144 65.5698 17.0691C65.7311 17.0259 65.8332 16.8999 65.876 16.6909L66.5506 13.3993C66.602 13.1485 66.5927 12.9016 66.5227 12.6586C66.4549 12.4052 66.3419 12.186 66.1838 12.0012C66.0257 11.8163 65.8317 11.7004 65.6018 11.6532C65.3406 11.5997 65.0886 11.5807 64.8459 11.5963C64.6136 11.614 64.3821 11.6809 64.1515 11.797C63.8118 11.9669 63.5884 12.3131 63.4813 12.8356L62.8195 16.0645C62.7767 16.2734 62.8262 16.4306 62.9679 16.5358C63.1097 16.6411 63.2546 16.7307 63.4028 16.8046C63.503 16.8469 63.5802 16.8954 63.6343 16.9501C63.701 16.9964 63.7269 17.0562 63.7119 17.1293C63.6991 17.192 63.6644 17.2284 63.6078 17.2386C63.5492 17.2593 63.4676 17.2589 63.3631 17.2375C63.1541 17.1946 62.989 17.1499 62.8679 17.1033C62.7551 17.0693 62.6423 17.0353 62.5295 17.0013C62.4272 16.9694 62.282 16.9342 62.0939 16.8957C61.9162 16.8593 61.7689 16.8345 61.6518 16.8214C61.5347 16.8083 61.4124 16.7941 61.2848 16.7789C61.1552 16.7741 60.9858 16.7503 60.7768 16.7074C60.6933 16.6903 60.6233 16.6596 60.567 16.6154C60.5086 16.5817 60.4858 16.5335 60.4987 16.4708C60.5158 16.3872 60.5631 16.3424 60.6405 16.3365C60.7306 16.3223 60.8206 16.3081 60.9106 16.2939C61.0781 16.2737 61.2413 16.2473 61.4005 16.2146C61.5722 16.1736 61.6795 16.0486 61.7223 15.8396L62.3969 12.548C62.4483 12.2972 62.4391 12.0503 62.3691 11.8073C62.3013 11.5539 62.1883 11.3347 62.0302 11.1499C61.8721 10.9651 61.6781 10.8491 61.4482 10.802C61.1869 10.7484 60.935 10.7294 60.6922 10.745C60.4599 10.7627 60.2285 10.8296 59.9978 10.9457C59.6728 11.0969 59.4547 11.4441 59.3433 11.9875L58.6815 15.2164C58.6387 15.4254 58.6829 15.5814 58.8142 15.6846C58.9477 15.7772 59.0874 15.8658 59.2335 15.9501C59.3106 15.9986 59.3826 16.046 59.4493 16.0924C59.5286 16.1304 59.5597 16.1912 59.5426 16.2748C59.5297 16.3375 59.4898 16.3729 59.4228 16.3809C59.3642 16.4016 59.2878 16.4022 59.1938 16.383C58.9848 16.3401 58.8197 16.2954 58.6986 16.2488C58.5858 16.2148 58.4782 16.1819 58.3759 16.15C58.2735 16.1182 58.1283 16.0829 57.9402 16.0444C57.7626 16.008 57.6152 15.9832 57.4981 15.9701C57.3915 15.9592 57.2744 15.9461 57.1469 15.9308C57.0276 15.9281 56.8635 15.9054 56.6545 15.8626Z" fill="#5B5853"/>
</svg>
