<svg width="512" height="512" viewBox="0 0 512 512" fill="none" xmlns="http://www.w3.org/2000/svg">
<path fill-rule="evenodd" clip-rule="evenodd" d="M395.887 0.125993L405.896 2.83061C411.402 4.23301 418.809 6.53694 422.413 7.93933C426.016 9.24156 432.022 11.9462 435.926 13.8494C439.83 15.8528 447.237 20.2604 452.442 23.7664C457.947 27.4727 466.155 34.2843 471.961 40.1944C477.867 46.0043 484.673 54.2184 488.377 59.7278C491.88 64.9367 496.285 72.4495 498.287 76.256C500.188 80.0625 502.891 86.1729 504.192 89.7791C505.594 93.3852 507.896 100.998 512 117.326V394.8L509.297 405.318C507.896 411.128 505.594 418.741 504.192 422.347C502.891 425.953 500.188 431.963 498.287 435.87C496.285 439.777 491.88 447.189 488.377 452.398C484.673 457.908 477.867 466.122 471.961 471.932C466.155 477.842 457.947 484.653 452.442 488.36C447.237 491.866 439.83 496.273 435.926 498.277C432.022 500.18 426.016 502.884 422.413 504.187C418.809 505.589 411.202 507.893 394.886 512H117.615L107.105 509.295C101.299 507.893 93.6915 505.589 90.088 504.187C86.4845 502.884 80.3785 500.18 76.5748 498.277C72.7711 496.273 65.2637 491.866 60.0587 488.36C54.5533 484.653 46.3453 477.742 40.5396 471.932C34.4336 465.821 27.8272 458.008 23.8233 451.897C20.1196 446.388 15.1148 437.573 12.6123 432.364C10.1099 427.155 7.00684 418.741 5.50538 413.832C4.10401 408.924 2.30225 401.01 1.50147 396.302C0.200196 389.09 0 367.453 0 256.063C0 144.673 0.200196 123.036 1.50147 115.824C2.30225 111.116 4.10401 103.302 5.50538 98.2936C7.00684 93.2851 10.1099 84.9709 12.6123 79.762C15.1148 74.5531 20.1196 65.738 23.8233 60.2286C27.8272 54.1182 34.4336 46.2047 40.5396 40.1944C46.5455 34.084 54.4532 27.4727 60.5591 23.4658C66.0645 19.7595 74.8731 14.751 80.0782 12.2467C85.2833 9.74241 93.5914 6.63711 98.5963 5.13454C103.601 3.73215 111.008 1.92907 115.112 1.1277C121.318 0.0258218 146.843 -0.17452 395.887 0.125993V0.125993ZM111.609 33.6833C107.205 34.7852 100.198 37.2894 96.0938 38.9924C91.9898 40.7954 84.5826 44.9024 79.5777 48.1079C73.9722 51.7141 67.1656 57.524 61.5601 63.1336C56.2549 68.643 50.2491 76.0556 47.0459 81.3647C44.043 86.2731 40.0391 94.0864 38.1372 98.7945C36.2354 103.503 33.833 111.316 32.732 116.324C30.73 125.039 30.6299 128.746 30.3296 246.046C30.0293 323.278 30.3296 371.46 30.9302 379.774C31.5308 386.886 32.9322 396.403 34.0332 400.81C35.2344 405.218 37.5367 411.929 39.1382 415.836C40.7398 419.742 44.7437 427.155 48.147 432.364C51.5503 437.673 57.8565 445.486 62.461 449.994C66.8653 454.502 74.5728 460.813 79.5777 464.018C84.5826 467.224 91.9898 471.331 96.0938 473.033C100.198 474.837 107.205 477.241 111.609 478.443C116.013 479.545 125.422 480.947 132.63 481.548C140.938 482.149 188.884 482.45 266.26 482.149C371.263 481.849 387.779 481.548 393.885 480.246C397.788 479.344 404.695 477.341 409.4 475.838C414.104 474.236 421.712 470.73 426.416 468.025C431.121 465.32 437.627 461.013 440.931 458.408C444.234 455.804 449.639 450.796 452.842 447.29C456.145 443.784 461.25 437.072 464.353 432.364C467.356 427.656 471.36 420.444 473.062 416.337C474.864 412.23 477.266 405.218 478.467 400.81C479.568 396.403 480.97 387.588 481.47 381.277C481.971 374.766 482.471 320.072 482.471 256.063C482.471 192.054 481.971 137.36 481.47 130.849C480.97 124.538 479.568 115.723 478.367 111.316C477.266 106.908 474.964 100.097 473.362 96.2902C471.761 92.4837 467.857 85.2714 464.654 80.2628C461.451 75.2543 456.145 68.3425 452.842 64.8365C449.639 61.3305 444.234 56.3219 440.931 53.7175C437.627 51.1131 431.321 46.9059 426.917 44.4016C422.513 41.7971 415.806 38.5917 411.902 37.0891C407.998 35.6867 400.791 33.483 395.887 32.3811C387.078 30.3776 384.576 30.2775 262.757 30.0771C194.49 29.977 134.331 30.2775 129.126 30.7783C123.921 31.179 116.013 32.4812 111.609 33.6833V33.6833ZM399.69 65.8382C403.894 65.738 408.699 66.5394 412.403 67.7414C415.706 68.8433 419.61 70.5462 421.111 71.4478C422.713 72.3493 425.916 74.9538 428.318 77.1575C430.621 79.4615 433.724 82.9674 435.025 84.9709C436.326 87.0745 438.328 91.482 439.429 94.7876C440.63 98.2936 441.431 103.503 441.431 107.309C441.431 111.015 440.63 116.525 439.429 120.031C438.328 123.537 435.926 128.545 434.024 131.35C432.122 134.055 428.619 137.961 426.216 139.865C423.814 141.768 419.41 144.472 416.407 145.875C411.602 148.079 409.6 148.379 399.891 148.379C389.681 148.379 388.379 148.179 382.373 145.274C378.77 143.571 374.065 140.666 371.963 138.763C369.861 136.859 366.858 133.554 365.357 131.35C363.855 129.146 361.653 124.639 360.352 121.333C358.55 116.324 358.25 113.82 358.55 105.806C358.85 98.3938 359.451 95.0881 361.453 90.7808C362.854 87.7757 365.457 83.3681 367.359 80.964C369.261 78.5599 373.064 75.0539 375.867 73.1507C378.57 71.2474 383.575 68.8433 386.878 67.7414C390.281 66.7397 395.887 65.8382 399.59 65.8382H399.69ZM389.681 104.003C389.18 105.806 389.18 108.611 389.681 110.314C390.081 112.017 391.282 114.121 392.283 115.022C393.184 116.024 395.386 117.226 396.988 117.627C398.589 118.127 401.492 118.127 403.194 117.627C405.296 117.126 407.198 115.623 408.499 113.52C409.6 111.817 410.501 108.812 410.501 107.008C410.501 104.705 409.6 102.901 406.997 100.297C404.395 97.6926 402.593 96.791 400.191 96.791C398.489 96.791 395.486 97.6926 393.684 98.7945C391.682 100.097 390.181 102 389.681 104.003ZM259.353 116.324C271.665 116.525 280.374 117.226 285.379 118.328C289.483 119.229 296.89 121.333 301.895 123.036C306.8 124.739 314.307 127.744 318.411 129.847C322.515 131.951 330.222 136.459 335.428 139.965C341.133 143.771 349.241 150.583 355.447 156.894C362.054 163.405 368.56 171.218 372.664 177.429C376.368 182.938 381.172 191.252 383.374 195.96C385.577 200.668 388.479 208.081 389.981 212.489C391.382 216.896 393.284 224.108 394.285 228.516C395.586 234.526 395.987 241.338 395.987 256.063C395.987 270.788 395.586 277.6 394.285 283.61C393.284 288.018 391.382 295.23 389.981 299.637C388.479 304.045 385.577 311.458 383.374 316.166C381.172 320.874 376.368 329.188 372.664 334.697C368.56 340.908 362.054 348.721 355.447 355.232C348.941 361.844 341.133 368.355 334.927 372.462C329.422 376.168 321.114 380.976 316.409 383.18C311.704 385.384 304.297 388.289 299.893 389.791C295.489 391.194 288.282 393.097 283.877 394.099C277.871 395.401 271.065 395.802 256.35 395.802C241.636 395.802 234.829 395.401 228.823 394.099C224.419 393.097 217.212 391.194 212.808 389.791C208.404 388.289 200.996 385.384 196.292 383.18C191.587 380.976 183.279 376.168 177.774 372.462C171.568 368.355 163.76 361.844 157.254 355.232C150.647 348.721 144.141 340.908 140.037 334.697C136.333 329.188 131.528 320.874 129.326 316.166C127.124 311.458 124.221 304.045 122.72 299.637C121.318 295.23 119.417 288.018 118.416 283.61C117.114 277.6 116.714 270.788 116.714 256.063C116.714 240.937 117.114 234.626 118.516 228.015C119.517 223.307 121.519 216.095 122.82 211.988C124.221 207.881 127.124 200.668 129.326 195.96C131.528 191.252 136.233 183.138 139.636 177.93C143.14 172.721 149.746 164.407 154.351 159.498C158.955 154.59 166.362 147.878 170.767 144.573C175.171 141.367 181.677 136.859 185.281 134.756C188.884 132.652 195.791 129.146 200.796 126.943C205.701 124.839 213.408 122.034 217.813 120.832C222.217 119.63 229.224 117.927 233.328 117.226C238.433 116.324 246.841 116.024 259.353 116.324ZM229.824 149.681C225.42 150.883 218.013 153.388 213.308 155.391C208.604 157.395 200.496 161.802 195.291 165.308C189.785 169.014 182.378 175.225 177.774 180.033C173.369 184.641 167.764 191.353 165.462 194.959C163.059 198.565 159.656 204.675 157.754 208.482C155.952 212.288 153.55 218.198 152.449 221.504C151.348 224.81 149.646 231.12 148.745 235.528C147.744 240.436 147.144 248.35 147.144 256.063C147.144 263.776 147.744 271.69 148.745 276.598C149.646 281.006 151.348 287.316 152.449 290.622C153.55 293.928 155.952 299.738 157.754 303.644C159.656 307.551 163.059 313.561 165.462 317.167C167.764 320.773 173.369 327.485 177.774 332.093C182.378 336.901 189.785 343.112 195.291 346.818C200.496 350.324 208.604 354.731 213.308 356.735C218.013 358.738 225.42 361.243 229.824 362.344C234.229 363.547 242.136 364.749 247.342 365.149C252.547 365.45 260.855 365.45 265.86 365.149C270.764 364.749 279.373 363.246 284.878 361.743C290.384 360.341 298.492 357.336 302.896 355.232C307.3 353.129 313.806 349.422 317.41 347.018C321.013 344.714 328.221 338.504 333.426 333.195C338.731 327.986 344.937 320.773 347.239 317.167C349.641 313.561 353.045 307.551 354.947 303.644C356.748 299.738 359.151 293.928 360.252 290.622C361.353 287.316 363.055 281.006 363.955 276.598C364.956 271.69 365.557 263.776 365.557 256.063C365.557 248.35 364.956 240.436 363.955 235.528C363.055 231.12 361.353 224.81 360.252 221.504C359.151 218.198 356.748 212.288 354.947 208.482C353.045 204.675 349.641 198.565 347.339 194.959C344.937 191.353 338.731 184.14 333.526 178.831C328.221 173.622 321.013 167.412 317.41 165.008C313.806 162.704 307.3 159.097 302.896 156.894C298.492 154.79 290.584 151.885 285.379 150.483C280.174 148.98 272.466 147.578 268.362 147.277C264.258 146.977 259.754 146.676 258.352 146.576C256.951 146.476 251.746 146.676 246.841 146.977C241.836 147.377 234.229 148.579 229.824 149.681V149.681Z" fill="white"/>
</svg>
