<svg width="60" height="60" viewBox="0 0 60 60" fill="none" xmlns="http://www.w3.org/2000/svg">
<path fill-rule="evenodd" clip-rule="evenodd" d="M29.8242 0.00143903C31.6289 -0.0102817 32.543 0.0483221 33.8086 0.224133C34.7109 0.364783 35.8125 0.552315 36.2695 0.646081C36.7266 0.751568 37.5352 0.95082 38.0859 1.10319C38.6367 1.25556 39.5625 1.54858 40.1367 1.74783C40.7109 1.95881 41.9062 2.4628 42.7734 2.88475C43.6406 3.29497 44.8594 3.93961 45.4688 4.30296C46.0781 4.6663 47.2148 5.43987 47.9883 6.01419C48.8203 6.63539 50.1211 7.79574 51.1641 8.82717C52.1953 9.87032 53.332 11.1479 53.918 11.9449C54.4688 12.6833 55.1719 13.6913 55.4766 14.1718C55.7812 14.6524 56.4141 15.8127 56.8828 16.7504C57.3516 17.6881 57.9492 19.0828 58.2305 19.8564C58.5 20.63 58.875 21.8724 59.0625 22.6108C59.25 23.3492 59.4609 24.2751 59.5195 24.6619C59.5898 25.0487 59.7305 25.9395 59.8242 26.6544C59.9297 27.3929 60 28.7993 60 29.9363C60 31.038 59.918 32.5265 59.8242 33.2767C59.7305 34.0151 59.5898 34.941 59.5195 35.3278C59.4609 35.7146 59.25 36.6405 59.0625 37.3789C58.875 38.1173 58.5 39.3597 58.2305 40.1333C57.9492 40.9069 57.3516 42.3017 56.8828 43.2393C56.4141 44.177 55.7812 45.3373 55.4766 45.8179C55.1719 46.2984 54.4688 47.3064 53.918 48.0448C53.332 48.8418 52.1953 50.1194 51.1641 51.1625C50.1211 52.194 48.8203 53.3543 47.9883 53.9755C47.2148 54.5498 46.0781 55.3234 45.4688 55.6868C44.8594 56.0501 43.6992 56.6713 42.8906 57.0581C42.082 57.4449 40.8984 57.9489 40.2539 58.1833C39.6094 58.4177 38.6367 58.7342 38.0859 58.8865C37.5352 59.0389 36.6914 59.2382 36.2109 59.3436C35.7305 59.4491 34.6172 59.6367 33.75 59.7656C32.6133 59.9414 31.5703 60 30 60C28.4062 60 27.375 59.9297 26.1328 59.7539C25.1953 59.6132 23.6367 59.3085 22.6758 59.0623C21.7031 58.8162 20.3906 58.4294 19.7461 58.195C19.1016 57.9489 17.7773 57.3745 16.8164 56.894C15.8438 56.4252 14.6602 55.7805 14.1797 55.4758C13.6992 55.171 12.6914 54.4678 11.9531 53.9169C11.1562 53.3309 9.87891 52.194 8.83594 51.1625C7.80469 50.1194 6.66797 48.8418 6.08203 48.0448C5.53125 47.3064 4.82812 46.2984 4.52344 45.8179C4.21875 45.3373 3.55078 44.0949 3.04688 43.0635C2.53125 42.0321 1.88672 40.4732 1.59375 39.6059C1.30078 38.7385 0.925781 37.4493 0.773438 36.7343C0.609375 36.0193 0.375 34.6949 0.246094 33.7807C0.0703125 32.6086 0 31.4951 0 30.0886C0 28.94 0.0820312 27.4515 0.175781 26.6544C0.28125 25.8809 0.492188 24.5916 0.65625 23.7829C0.820312 22.9741 1.21875 21.5325 1.53516 20.5596C1.88672 19.5048 2.50781 18.0045 3.09375 16.809C3.64453 15.719 4.48828 14.207 5.00391 13.4451C5.50781 12.695 6.35156 11.5698 6.86719 10.9252C7.39453 10.2923 8.44922 9.16707 9.22266 8.42866C9.98438 7.69026 11.2148 6.62367 11.9531 6.07279C12.6914 5.52192 13.7344 4.79523 14.2734 4.45533C14.8008 4.12715 15.8086 3.56455 16.5234 3.21293C17.2383 2.8613 18.3398 2.35731 18.9844 2.09945C19.6289 1.8416 20.7539 1.45481 21.4805 1.23212C22.1953 1.02114 23.3672 0.728126 24.082 0.587477C24.7969 0.446828 25.8516 0.271016 26.4258 0.17725C27 0.0952051 28.5352 0.0131598 29.8242 0.00143903ZM24.7266 3.34186C23.8594 3.51767 22.5703 3.83413 21.8555 4.06854C21.1406 4.29124 20.0156 4.71318 19.3359 4.99448C18.6562 5.2875 17.8125 5.68601 17.4609 5.87354C17.1094 6.07279 16.4062 6.4713 15.9023 6.77604C15.3984 7.06906 14.4258 7.72542 13.7578 8.22941C13.0898 8.72168 11.8945 9.75311 11.1211 10.515C10.3359 11.2651 9.36328 12.3082 8.94141 12.8239C8.53125 13.3397 7.88672 14.207 7.51172 14.7579C7.13672 15.3087 6.5625 16.2347 6.23438 16.809C5.90625 17.3833 5.37891 18.4734 5.0625 19.2118C4.74609 19.9502 4.28906 21.1691 4.05469 21.9075C3.83203 22.6459 3.50391 23.9118 3.35156 24.7205C3.1875 25.5292 3 26.7599 2.94141 27.4749C2.87109 28.1899 2.8125 29.3151 2.8125 29.9949C2.8125 30.6747 2.87109 31.7999 2.94141 32.5148C3 33.2298 3.1875 34.4605 3.35156 35.2692C3.50391 36.0779 3.83203 37.3438 4.05469 38.0822C4.28906 38.8206 4.72266 39.9809 5.00391 40.6608C5.29688 41.3406 5.82422 42.4189 6.17578 43.0635C6.53906 43.7081 7.04297 44.552 7.30078 44.9388C7.55859 45.3256 8.09766 46.064 8.48438 46.5797C8.87109 47.0954 9.92578 48.2558 10.8281 49.17C11.7422 50.0725 12.9023 51.1274 13.418 51.5142C13.9336 51.901 14.6719 52.4401 15.0586 52.698C15.4453 52.9558 16.3125 53.4715 16.9922 53.8349C17.6719 54.2099 18.75 54.7374 19.3945 55.0187C20.0391 55.2883 21.1758 55.7102 21.9141 55.9329C22.6523 56.1673 23.918 56.4838 24.7266 56.6479C25.5352 56.812 26.7656 56.9995 27.4805 57.0581C28.1953 57.1284 29.3203 57.187 30 57.187C30.6797 57.187 31.8047 57.1284 32.5195 57.0581C33.2344 56.9995 34.4648 56.812 35.2734 56.6479C36.082 56.4955 37.3477 56.1673 38.0859 55.9446C38.8242 55.7102 39.9844 55.2883 40.6641 54.9952C41.3438 54.7022 42.5039 54.1279 43.2422 53.7177C43.9805 53.2957 45.0469 52.6276 45.6094 52.2291C46.1719 51.8306 47.0039 51.186 47.4727 50.7992C47.9297 50.4124 48.8672 49.5216 49.5586 48.8067C50.2383 48.0917 51.1289 47.0954 51.5156 46.5797C51.9023 46.064 52.4414 45.3256 52.6992 44.9388C52.957 44.552 53.4609 43.7081 53.8125 43.0635C54.1758 42.4189 54.7031 41.3406 54.9961 40.6608C55.2891 39.9809 55.7109 38.8206 55.9453 38.0822C56.168 37.3438 56.4961 36.0779 56.6484 35.2692C56.8125 34.4605 57 33.2298 57.0586 32.5148C57.1289 31.7999 57.1875 30.6747 57.1875 29.9949C57.1875 29.3151 57.1289 28.1899 57.0586 27.4749C57 26.7599 56.8125 25.5292 56.6484 24.7205C56.4961 23.9118 56.168 22.6459 55.9453 21.9075C55.7109 21.1691 55.2891 20.0088 54.9961 19.329C54.7031 18.6492 54.1289 17.4888 53.7188 16.7504C53.2969 16.012 52.6289 14.9454 52.2305 14.3828C51.832 13.8202 51.1875 12.988 50.8008 12.5192C50.4141 12.0621 49.5234 11.1244 48.8086 10.4329C48.0938 9.75311 47.0977 8.86233 46.582 8.47555C46.0664 8.08876 45.3281 7.54961 44.9414 7.29175C44.5547 7.03389 43.7109 6.5299 43.0664 6.16656C42.4219 5.81494 41.3438 5.2875 40.6641 4.99448C39.9844 4.71318 38.8242 4.27952 38.0859 4.0451C37.3477 3.82241 36.082 3.49422 35.2734 3.34186C34.4648 3.17776 33.2344 2.99023 32.5195 2.93163C31.8047 2.8613 30.5742 2.81442 29.7656 2.81442C28.957 2.82614 27.8555 2.87302 27.3047 2.93163C26.7539 2.99023 25.5938 3.17776 24.7266 3.34186ZM44.8242 17.7467L45.4102 18.0397C45.7383 18.2038 46.1953 18.532 46.4414 18.7664C46.6758 19.0125 46.9805 19.4227 47.1094 19.6806C47.2383 19.9384 47.3906 20.501 47.4609 20.9347C47.5195 21.4035 47.5781 25.2128 47.5781 29.9949C47.5781 34.7769 47.5195 38.5862 47.4609 39.055C47.3906 39.4887 47.2383 40.0513 47.1094 40.3091C46.9805 40.567 46.6758 40.9772 46.4297 41.2233C46.1953 41.4578 45.7266 41.7859 44.8242 42.2431H15.1758L14.6016 41.95C14.2852 41.7859 13.8164 41.4578 13.5703 41.2233C13.3242 40.9772 13.0195 40.567 12.8906 40.3091C12.7617 40.0513 12.6094 39.4887 12.5391 39.055C12.4805 38.5862 12.4219 34.7769 12.4219 29.9949C12.4219 25.2128 12.4805 21.4035 12.5391 20.9347C12.6094 20.501 12.7617 19.9384 12.8906 19.6806C13.0195 19.4227 13.3242 19.0125 13.5703 18.7664C13.8047 18.532 14.2148 18.2272 14.4727 18.11C14.7305 17.9811 15.0938 17.8404 15.293 17.7935C15.4922 17.7467 22.207 17.7232 44.8242 17.7467ZM23.8242 26.0684C27.1758 29.0338 29.9531 31.46 30 31.46C30.0469 31.46 32.8359 29.0338 36.1875 26.0684C39.5273 23.1031 42.2578 20.6417 42.2344 20.5831C42.2109 20.5362 36.7031 20.501 30 20.501C23.3086 20.501 17.8008 20.5362 17.7773 20.5831C17.7539 20.6417 20.4727 23.1031 23.8242 26.0684ZM15.3633 30.1003C15.3516 36.2655 15.3867 37.836 15.4922 37.7657C15.5742 37.7188 17.6719 36.1014 20.1562 34.1792C22.6406 32.2452 24.6797 30.6629 24.6914 30.6512C24.7148 30.6395 22.7344 28.8697 20.3086 26.713C17.8711 24.5564 15.7734 22.6928 15.6328 22.5756L15.3867 22.3646L15.3633 30.1003ZM35.2852 30.6278C39.8555 34.1792 41.9531 35.8084 42.8789 36.535L44.5781 37.8595C44.625 31.7999 44.625 28.3188 44.6133 26.2091L44.5781 22.3764L35.2852 30.6278ZM18.1875 39.348C18.1758 39.4301 21.832 39.477 30 39.477C38.1094 39.477 41.8242 39.4301 41.8008 39.348C41.7891 39.2777 39.8555 37.7306 37.5 35.8904C35.1445 34.062 33.1992 32.55 33.1641 32.55C33.1289 32.55 32.6016 32.9837 31.9922 33.5345C31.3828 34.0737 30.7617 34.5777 30.6094 34.648C30.4688 34.7183 30.1875 34.7887 30 34.7887C29.8008 34.7887 29.5312 34.7183 29.3789 34.648C29.2383 34.5777 28.6172 34.0737 28.0078 33.5345C27.3984 32.9837 26.8711 32.55 26.8359 32.55C26.8008 32.5617 24.8555 34.062 22.5 35.8904C20.1445 37.7306 18.2109 39.2777 18.1875 39.348Z" fill="#5B5853"/>
</svg>
