<svg width="104" height="187" viewBox="0 0 104 187" fill="none" xmlns="http://www.w3.org/2000/svg">
<path d="M3.3347 8.97445C5.3045 8.05982 7.35502 9.08929 9.07055 10.0691C10.9723 11.1571 12.8092 12.3553 14.5884 13.6333C21.8387 18.8426 28.1062 25.3675 33.118 32.7785C38.7743 41.1432 42.7814 50.587 44.7702 60.5218C44.9102 61.2232 44.2889 61.6534 43.7519 61.6014C43.9712 62.1384 44.2068 62.6667 44.4161 63.2086C45.426 65.8161 46.324 68.4692 47.0617 71.1691C47.3599 72.2587 47.6483 73.3748 47.9099 74.4989C48.2087 64.3206 49.8594 54.1374 52.8239 44.3866C52.4143 43.9109 52.2823 43.2742 52.1025 42.6442C51.8415 41.73 51.5918 40.813 51.3213 39.9019C50.8043 38.1588 50.2355 36.4323 49.6437 34.713C44.9996 29.5623 39.4778 25.0185 35.6141 19.2131C32.0861 13.9108 30.3763 7.07963 33.387 1.10941C33.569 0.748627 34.1221 0.64122 34.4409 0.859116C44.1193 7.47477 49.8397 19.1097 49.6255 30.8583C49.9607 31.7666 50.3193 32.666 50.6332 33.5819C51.2925 35.507 51.9037 37.4477 52.4688 39.4028C52.7525 40.3797 53.0336 41.3596 53.2829 42.3464C53.3126 42.4627 53.3427 42.5773 53.3724 42.6936C53.6248 41.9101 53.8658 41.122 54.1343 40.3458C58.5608 27.5559 65.0664 15.2393 74.0574 5.11131C74.4794 4.63631 75.2994 5.30294 74.9187 5.82166C67.7126 15.6819 61.4773 26.2333 57.2076 37.7209C56.0146 40.9322 54.9728 44.1968 54.0578 47.4965C54.9812 45.8265 56.0129 44.2104 57.0913 42.6304C57.039 42.55 57.0116 42.454 57.0363 42.3487C58.3853 36.6211 61.8248 31.0899 65.469 26.562C68.7752 22.4534 72.8233 18.2349 77.6569 15.98C79.8032 14.9793 82.1823 14.3665 84.554 14.6303C86.2744 14.8208 88.7152 15.7317 88.5209 17.8947C88.4066 19.1748 87.2415 19.9925 86.3529 20.7528C84.9755 21.9313 83.5961 23.1112 82.2187 24.2897C79.6421 26.493 77.0651 28.6979 74.4885 30.9012C68.7352 35.8219 62.9836 40.743 57.2303 45.6636C57.026 45.8382 56.8018 45.8772 56.5938 45.8394C55.3174 47.841 54.1125 49.879 52.9173 51.9283C51.2512 58.9978 50.228 66.214 49.9443 73.4829C49.6853 80.114 50.052 86.6833 50.7389 93.2218C51.5087 90.3758 52.5064 87.5669 53.5272 84.8334C53.5548 84.761 53.5874 84.6898 53.615 84.6173C53.5645 84.6055 53.5245 84.5639 53.4767 84.5402C53.5375 84.2873 53.6068 84.0364 53.636 83.7744C53.6722 83.4369 53.6738 82.9891 53.5695 82.6672C53.5231 82.5237 53.4806 82.3631 53.4302 82.2061C53.5491 70.4622 59.0885 58.9111 67.6711 51.0252C69.887 48.9886 72.3211 47.1822 74.9192 45.6705C76.3266 44.8503 80.7909 41.749 81.6162 44.7436C81.9782 46.0543 81.0341 47.4023 80.4265 48.4738C79.4586 50.1818 78.4644 51.8729 77.4449 53.5509C75.3664 56.9695 73.1774 60.321 70.9001 63.6088C66.0872 70.5597 60.7998 77.1685 55.1284 83.4276C55.067 83.5835 54.9943 83.735 54.9347 83.8914C53.4226 87.799 52.2899 91.8024 51.03 95.7868C52.3091 106.637 54.4007 117.409 56.0909 128.226C56.8227 126.707 57.7128 125.241 58.5114 123.778C59.3931 122.165 60.2893 120.558 61.1825 118.949C61.7388 117.876 62.2923 116.801 62.8617 115.733C63.6946 114.169 64.4655 112.399 65.541 110.976C65.2917 107.806 65.6065 104.572 66.1687 101.459C66.8568 97.6548 67.9967 93.9399 69.5452 90.4011C72.5453 83.5483 76.9681 77.1336 82.6527 72.2633C84.0687 71.0489 85.5584 69.9218 87.107 68.8854C88.6068 67.8825 90.2379 66.7364 91.9603 66.1655C93.4093 65.6848 94.9312 66.1086 95.5988 67.557C96.2629 68.9974 95.8925 70.6891 95.5768 72.1695C93.8868 80.1172 90.5159 87.7277 85.8915 94.3892C80.7826 101.748 74.1628 107.852 66.5088 112.425C66.508 112.428 66.509 112.432 66.5078 112.437C66.5014 112.685 66.2938 112.828 66.0836 112.845C65.434 113.922 64.778 114.994 64.1377 116.076C63.4034 117.317 62.6954 118.575 61.975 119.825C61.7771 120.223 61.5809 120.622 61.3833 121.018C59.7381 124.332 58.0963 127.646 56.4882 130.976C57.0853 135.023 57.5947 139.08 57.9862 143.148L57.9901 143.154C58.0743 143.288 58.07 143.413 58.0236 143.52C58.1102 144.435 58.23 145.345 58.302 146.262C58.4676 148.398 58.5789 150.553 58.6617 152.717C59.2819 151.356 60.0106 150.04 60.7116 148.728C61.7912 146.71 62.9195 144.718 64.0931 142.753C65.1086 141.055 66.1706 139.385 67.2513 137.727C71.3116 123.507 80.4985 110.053 93.0181 102.083C95.9034 100.247 99.5132 98.8556 102.741 100.605C103.109 100.804 103.122 101.258 102.969 101.594C95.869 117.129 83.783 130.196 68.9849 138.553C68.6982 138.715 68.4315 138.655 68.2374 138.496C67.5282 139.577 66.8038 140.646 66.1221 141.745C64.8024 143.871 63.5369 146.031 62.3185 148.218C61.1081 150.386 60.0713 152.686 58.7255 154.771C58.9805 165.341 58.0452 176.06 54.4793 186.004C54.3469 186.373 53.7954 186.215 53.8973 185.832C57.092 173.895 57.7695 161.677 56.8102 149.398C56.614 146.898 56.3517 144.408 56.0562 141.922C53.5819 138.241 50.9841 134.648 48.2769 131.142C48.2646 131.126 48.2505 131.11 48.2385 131.093C40.4967 121.073 31.8283 111.785 22.3422 103.419C18.5222 100.05 14.6002 96.8216 10.6133 93.6583C10.5997 93.6479 10.6033 93.6327 10.5918 93.621C10.0795 96.2547 12.7202 99.3222 14.1327 101.188C16.3413 104.105 18.6889 106.928 21.1459 109.634C26.1728 115.169 31.8176 120.084 37.8667 124.456C39.576 125.69 41.3182 126.875 43.0954 128.009C44.868 129.141 46.7402 130.15 48.4019 131.436C48.6816 131.654 48.515 132.199 48.125 132.058C44.4681 130.73 41.0566 128.254 37.8652 126.06C34.6326 123.836 31.5373 121.421 28.566 118.855C22.4479 113.569 16.8334 107.688 12.0068 101.181C10.0416 98.5314 7.28425 94.4722 9.77041 91.2565C9.99418 90.9682 10.3758 90.7347 10.7549 90.8771C18.6297 93.8626 26.0054 98.0634 32.5777 103.353C35.7733 105.924 38.7834 108.727 41.5556 111.757C43.924 114.347 46.1703 117.125 47.7713 120.275C49.4367 123.554 50.2695 127.14 49.5967 130.803C51.7734 133.719 53.8157 136.731 55.8006 139.783C54.6483 130.802 52.9917 121.895 51.4952 112.964C50.2672 105.631 49.1318 98.2508 48.4597 90.8357C47.3378 89.4604 46.2593 88.0594 45.1433 86.689C41.9527 87.0853 38.5421 86.4909 35.4456 85.7924C31.9454 85.0033 28.5517 83.8195 25.3033 82.295C18.8801 79.2812 13.0582 74.904 8.41126 69.5142C7.27716 68.1988 6.21528 66.8177 5.22499 65.3889C4.26125 63.9985 3.07735 62.4474 2.53716 60.819C2.49443 60.7965 2.44884 60.7786 2.4078 60.7565C2.03884 60.5556 2.11569 60.1505 2.36165 59.9193C2.30144 58.8459 2.79585 57.8482 3.92162 57.4498C5.42697 56.9178 7.25901 57.536 8.73521 57.8666C17.0603 59.7312 25.0639 63.0784 32.2552 67.6807C38.1137 71.4301 46.5567 77.0347 46.1802 85.0509C46.1675 85.3257 46.0526 85.5284 45.8877 85.6637C46.7963 86.8565 47.6425 88.0957 48.3371 89.4053C48.0649 86.09 47.9282 82.7651 47.8835 79.4348C47.2762 77.0361 46.8398 74.5984 46.1618 72.2136C45.4599 69.748 44.6586 67.3128 43.7347 64.9226C43.3004 63.7993 42.8365 62.6889 42.3542 61.5885C33.1017 57.2575 24.7939 51.2418 17.6185 43.9472C14.067 40.3353 10.8219 36.4311 7.9041 32.2825C5.20681 28.4453 2.74545 24.3514 1.40921 19.8087C0.468015 16.5648 -0.574827 10.7892 3.3347 8.97445ZM35.6474 3.69006C35.6924 3.75614 35.7357 3.82184 35.7811 3.88623C36.3266 4.66261 36.8538 5.44903 37.3673 6.2484C38.4664 7.95719 39.5242 9.69041 40.5404 11.4497C42.6071 15.0266 44.4984 18.7077 46.2105 22.4706C46.8446 23.8646 47.4294 25.2794 48.0121 26.6954C47.1568 17.7515 42.6237 9.32656 35.6474 3.69006ZM48.1509 30.65C47.1599 28.0451 46.118 25.4606 44.9629 22.9266C43.3338 19.348 41.5411 15.8459 39.5918 12.4363C38.5839 10.6717 37.5328 8.93294 36.44 7.22023C35.9298 6.42165 35.4114 5.62827 34.8988 4.83269C34.6238 4.40454 34.3005 3.97766 34.0227 3.53094C32.1211 9.08273 34.397 15.1876 37.7091 19.7707C40.7431 23.9698 44.7317 27.3468 48.1247 31.2264C48.1338 31.035 48.1451 30.8422 48.1509 30.65ZM83.1119 21.4331C84.172 20.5246 85.3033 19.6614 86.3041 18.6871C86.5662 18.4328 86.6904 18.2055 86.7639 17.9897C84.2553 19.7195 81.5233 21.1498 79.0037 22.8734C76.2065 24.7885 73.5167 26.8524 70.9747 29.0979C66.7059 32.8686 62.8434 37.1215 59.4521 41.7157C67.3379 34.9559 75.224 28.1943 83.1119 21.4331ZM61.7506 36.4431C66.1415 31.1002 71.2927 26.3525 76.9416 22.388C79.8564 20.3425 83.0944 18.1917 86.4911 17.0046C86.0264 16.5823 85.1917 16.3281 84.5274 16.2499C82.3727 16.001 80.2128 16.5503 78.271 17.4822C73.7972 19.6276 70.0281 23.3897 66.8737 27.168C64.9656 29.454 63.2595 31.9253 61.7492 34.4943C60.6909 36.2923 59.8156 38.1672 58.9412 40.0458C59.8592 38.8173 60.7943 37.6071 61.7506 36.4431ZM101.273 101.853C98.1315 104.86 94.7837 107.633 91.6208 110.619C88.3525 113.705 85.2066 116.93 82.204 120.28C77.6007 125.414 73.3595 130.869 69.4898 136.583C83.2484 128.49 94.3458 116.3 101.273 101.853ZM69.0045 135.13C69.8789 133.845 70.7457 132.554 71.6566 131.295C76.9734 123.96 82.9088 117.058 89.4399 110.794C92.9841 107.393 96.6378 104.049 100.749 101.356C98.1713 100.734 95.3765 102.175 93.2417 103.591C90.3142 105.531 87.5867 107.824 85.0621 110.269C80.0057 115.166 75.7278 120.885 72.4757 127.143C71.1352 129.723 69.9833 132.394 69.0045 135.13ZM40.6394 113.221C35.3539 107.414 29.2046 102.43 22.4626 98.4383C18.8713 96.3121 15.112 94.4872 11.2367 92.9454C25.4015 102.785 37.7948 115.361 48.2807 129.079C48.6467 122.995 44.5249 117.488 40.6394 113.221ZM92.6947 77.3685C93.0404 76.2697 94.6911 71.6471 94.443 69.1261C93.6924 71.0982 92.2135 72.8786 91.0429 74.5948C89.7347 76.5119 88.3866 78.4018 87.0678 80.311C84.3865 84.1946 81.7569 88.1153 79.1795 92.0715C75.3436 97.9601 71.556 103.878 67.8845 109.869C79.5823 102.45 88.5314 90.6143 92.6947 77.3685ZM69.0496 105.18C73.9049 96.9821 79.0312 88.9716 84.4072 81.109C85.8922 78.9374 87.3729 76.7613 88.9126 74.6294C90.4003 72.5678 91.9438 69.9331 94.0122 68.4214C94.0937 68.3615 94.191 68.3484 94.2869 68.3564C94.0894 67.8173 93.7282 67.4766 93.1249 67.4647C91.5771 67.4329 89.6748 68.9638 88.4105 69.7725C86.8934 70.7428 85.4376 71.808 84.0507 72.9592C78.658 77.4317 74.1905 82.9809 71.1758 89.3409C69.4906 92.8944 68.2291 96.6651 67.4573 100.523C66.8606 103.503 66.6838 106.473 66.5909 109.472C67.4151 108.044 68.208 106.598 69.0496 105.18ZM75.532 47.1706C73.0887 48.5751 70.8061 50.243 68.71 52.1319C64.5857 55.8468 61.2002 60.3635 58.7611 65.3631C56.2534 70.5044 54.8453 76.1194 54.5532 81.8196C54.6711 81.6877 54.7886 81.5574 54.9049 81.425C55.9179 78.9532 56.985 76.5011 58.1667 74.1063C61.7688 66.7919 66.0187 59.8385 71.0335 53.4152C72.3673 51.7084 73.749 50.0398 75.1775 48.4143C75.7438 47.7704 76.3157 47.0956 76.9044 46.4319C76.4431 46.6718 75.9834 46.9122 75.532 47.1706ZM78.4013 48.8037C78.7735 48.1467 79.1519 47.493 79.5084 46.827C79.6604 46.5417 79.9508 46.1507 79.9803 45.8116C79.9981 45.606 79.9843 45.4827 79.9524 45.391C78.9966 46.53 77.8781 47.5593 76.8825 48.6478C75.5604 50.0919 74.2774 51.5739 73.0322 53.0845C70.4809 56.1757 68.0975 59.4082 65.8869 62.7529C62.4373 67.9698 59.4494 73.447 56.9228 79.1557C65.0506 69.7779 72.2644 59.6183 78.4013 48.8037ZM33.7797 70.7257C27.5031 66.339 20.5484 62.9608 13.2266 60.7499C11.3786 60.1926 9.5101 59.7075 7.62335 59.3007C6.84489 59.1332 6.04093 58.9077 5.24149 58.8983C4.25765 58.8871 3.93334 59.3849 4.0609 60.0941C7.49575 61.0563 10.8437 62.5503 14.1147 63.9169C17.7291 65.4265 21.3063 67.0421 24.78 68.8576C31.0762 72.1483 37.0874 76.1951 42.0886 81.2931C42.9012 82.1211 43.6951 82.9985 44.4695 83.8982C44.0483 78.0331 38.1618 73.7878 33.7797 70.7257ZM42.1168 83.2338C39.6661 80.7449 37.0085 78.4801 34.1762 76.4452C28.0393 72.0392 21.2385 68.6485 14.302 65.7245C11.2327 64.4301 8.00884 63.356 4.95278 61.9822C6.32523 64.4378 8.12709 66.7446 9.94644 68.8243C14.1452 73.6217 19.2732 77.5537 24.9459 80.4244C28.187 82.0636 31.6187 83.3513 35.1362 84.2485C38.1994 85.0288 41.3173 85.2787 44.4105 85.7935C43.6734 84.9168 42.9238 84.0551 42.1168 83.2338ZM18.0511 18.637C14.8519 15.9517 11.3964 13.5488 7.78424 11.459C7.3114 11.1853 6.81334 10.9435 6.31835 10.7723C7.96177 12.1368 9.3787 13.8697 10.8112 15.3839C12.8584 17.5455 14.8903 19.7196 16.8944 21.9213C20.8967 26.3198 24.7728 30.8321 28.3952 35.5558C33.964 42.8192 38.8878 50.5842 42.6288 58.9531C39.1203 43.2299 30.3232 28.9401 18.0511 18.637ZM2.79221 18.454C3.85399 22.7641 6.0593 26.6835 8.50502 30.3346C11.1672 34.3069 14.1723 38.0511 17.4374 41.5352C24.4476 49.0116 32.754 55.2618 41.7196 60.1818C40.3038 57.0977 38.735 54.0906 37.0313 51.1507C31.41 41.4498 24.3298 32.7129 16.8599 24.4121C14.6699 21.9787 12.4397 19.5808 10.1929 17.2005C8.23637 15.13 5.86636 13.0794 4.38515 10.5948C3.64812 10.7596 3.01386 11.2603 2.6179 12.3311C1.89443 14.2863 2.31022 16.5005 2.79221 18.454Z" fill="#5B5853"/>
</svg>
