<svg width="60" height="60" viewBox="0 0 60 60" fill="none" xmlns="http://www.w3.org/2000/svg">
<path fill-rule="evenodd" clip-rule="evenodd" d="M29.8242 0.00143903C31.6289 -0.0102817 32.543 0.0483221 33.8086 0.224133C34.7109 0.364783 35.8125 0.552315 36.2695 0.646081C36.7266 0.751568 37.5352 0.95082 38.0859 1.10319C38.6367 1.25556 39.5625 1.54858 40.1367 1.74783C40.7109 1.95881 41.9062 2.4628 42.7734 2.88475C43.6406 3.29497 44.8594 3.93961 45.4688 4.30296C46.0781 4.6663 47.2148 5.43987 47.9883 6.01419C48.8203 6.63539 50.1211 7.79574 51.1641 8.82717C52.1953 9.87032 53.332 11.1479 53.918 11.9449C54.4688 12.6833 55.1719 13.6913 55.4766 14.1718C55.7812 14.6524 56.4141 15.8127 56.8828 16.7504C57.3516 17.6881 57.9492 19.0828 58.2305 19.8564C58.5 20.63 58.875 21.8724 59.0625 22.6108C59.25 23.3492 59.4609 24.2751 59.5195 24.6619C59.5898 25.0487 59.7305 25.9395 59.8242 26.6544C59.9297 27.3929 60 28.7876 60 29.9363C60 31.0497 59.918 32.55 59.8242 33.3353C59.7188 34.1088 59.5312 35.2692 59.4023 35.9138C59.2734 36.5585 59.0039 37.6368 58.8164 38.3166C58.6172 38.9964 58.2188 40.1568 57.9375 40.8952C57.6445 41.6336 57.0469 42.9346 56.6133 43.7668C56.1797 44.5989 55.4883 45.7944 55.0898 46.4039C54.6797 47.0134 54 47.9628 53.5781 48.5137C53.1562 49.0645 52.043 50.2718 51.1055 51.2094C50.1328 52.1823 48.7852 53.3778 47.9883 53.9755C47.2148 54.5498 46.0781 55.3234 45.4688 55.6868C44.8594 56.0501 43.6992 56.6713 42.8906 57.0581C42.082 57.4449 40.8984 57.9489 40.2539 58.1833C39.6094 58.4177 38.6367 58.7342 38.0859 58.8865C37.5352 59.0389 36.6914 59.2382 36.2109 59.3436C35.7305 59.4491 34.6172 59.6367 33.75 59.7656C32.6133 59.9414 31.5703 60 30 60C28.4062 60 27.375 59.9297 26.1328 59.7539C25.1953 59.6132 23.6484 59.3085 22.6758 59.0623C21.7148 58.8162 20.3906 58.4294 19.7461 58.195C19.1016 57.9489 17.7891 57.3745 16.8164 56.894C15.8555 56.4252 14.6602 55.7805 14.1797 55.4758C13.6992 55.171 12.6914 54.4678 11.9531 53.9169C11.1562 53.3309 9.87891 52.194 8.83594 51.1625C7.80469 50.1194 6.66797 48.8418 6.08203 48.0448C5.53125 47.3064 4.82812 46.2984 4.52344 45.8179C4.21875 45.3373 3.58594 44.177 3.11719 43.2393C2.64844 42.3017 2.05078 40.9069 1.76953 40.1333C1.5 39.3597 1.125 38.1173 0.9375 37.3789C0.75 36.6405 0.539062 35.7146 0.480469 35.3278C0.410156 34.941 0.269531 34.0502 0.175781 33.3353C0.0703125 32.5969 0 31.2021 0 30.0535C0 28.94 0.0820312 27.4397 0.175781 26.6544C0.28125 25.8809 0.492188 24.5916 0.65625 23.7829C0.820312 22.9741 1.21875 21.5325 1.53516 20.5596C1.88672 19.5048 2.50781 18.0045 3.09375 16.809C3.64453 15.719 4.48828 14.207 5.00391 13.4451C5.50781 12.695 6.35156 11.5698 6.86719 10.9252C7.39453 10.2923 8.44922 9.16707 9.22266 8.42866C9.98438 7.69026 11.2148 6.62367 11.9531 6.07279C12.6914 5.52192 13.7344 4.79523 14.2734 4.45533C14.8008 4.12715 15.8086 3.56455 16.5234 3.21293C17.2383 2.8613 18.3398 2.35731 18.9844 2.09945C19.6289 1.8416 20.7539 1.45481 21.4805 1.23212C22.1953 1.02114 23.3672 0.728126 24.082 0.587477C24.7969 0.446828 25.8516 0.271016 26.4258 0.17725C27 0.0952051 28.5352 0.0131598 29.8242 0.00143903ZM24.7266 3.34186C23.8594 3.51767 22.5703 3.83413 21.8555 4.06854C21.1406 4.29124 20.0156 4.71318 19.3359 4.99448C18.6562 5.2875 17.8125 5.68601 17.4609 5.87354C17.1094 6.07279 16.4062 6.4713 15.9023 6.77604C15.3984 7.06906 14.4258 7.72542 13.7578 8.22941C13.0898 8.72168 11.8945 9.75311 11.1211 10.515C10.3359 11.2651 9.36328 12.3082 8.94141 12.8239C8.53125 13.3397 7.88672 14.207 7.51172 14.7579C7.13672 15.3087 6.5625 16.2347 6.23438 16.809C5.90625 17.3833 5.37891 18.4734 5.0625 19.2118C4.74609 19.9502 4.28906 21.1691 4.05469 21.9075C3.83203 22.6459 3.50391 23.9118 3.35156 24.7205C3.1875 25.5292 3 26.7599 2.94141 27.4749C2.87109 28.1899 2.8125 29.3151 2.8125 29.9949C2.8125 30.6747 2.87109 31.7999 2.94141 32.5148C3 33.2298 3.1875 34.4605 3.35156 35.2692C3.50391 36.0779 3.83203 37.3438 4.05469 38.0822C4.28906 38.8206 4.72266 39.9809 5.00391 40.6608C5.29688 41.3406 5.82422 42.4189 6.17578 43.0635C6.53906 43.7081 7.04297 44.552 7.30078 44.9388C7.55859 45.3256 8.09766 46.064 8.48438 46.5797C8.87109 47.0954 9.92578 48.2558 10.8281 49.17C11.7422 50.0725 12.9023 51.1274 13.418 51.5142C13.9336 51.901 14.6719 52.4401 15.0586 52.698C15.4453 52.9558 16.3125 53.4715 16.9922 53.8349C17.6719 54.2099 18.75 54.7374 19.3945 55.0187C20.0391 55.2883 21.1758 55.7102 21.9141 55.9329C22.6523 56.1673 23.918 56.4838 24.7266 56.6479C25.5352 56.812 26.7656 56.9995 27.4805 57.0581C28.1953 57.1284 29.3203 57.187 30 57.187C30.6797 57.187 31.8047 57.1284 32.5195 57.0581C33.2344 56.9995 34.4648 56.812 35.2734 56.6479C36.082 56.4955 37.3477 56.1673 38.0859 55.9446C38.8242 55.7102 39.9844 55.2883 40.6641 54.9952C41.3438 54.7022 42.5039 54.1279 43.2422 53.7177C43.9805 53.2957 45.0469 52.6276 45.6094 52.2291C46.1719 51.8306 47.0039 51.186 47.4727 50.7992C47.9297 50.4124 48.8672 49.5216 49.5586 48.8067C50.2383 48.0917 51.1289 47.0954 51.5156 46.5797C51.9023 46.064 52.4414 45.3256 52.6992 44.9388C52.957 44.552 53.4609 43.7081 53.8125 43.0635C54.1758 42.4189 54.7031 41.3406 54.9961 40.6608C55.2891 39.9809 55.7109 38.8206 55.9453 38.0822C56.168 37.3438 56.4961 36.0779 56.6484 35.2692C56.8125 34.4605 57 33.2298 57.0586 32.5148C57.1289 31.7999 57.1875 30.6747 57.1875 29.9949C57.1875 29.3151 57.1289 28.1899 57.0586 27.4749C57 26.7599 56.8125 25.5292 56.6484 24.7205C56.4961 23.9118 56.168 22.6459 55.9453 21.9075C55.7109 21.1691 55.2891 20.0088 54.9961 19.329C54.7031 18.6492 54.1289 17.4888 53.7188 16.7504C53.2969 16.012 52.6289 14.9454 52.2305 14.3828C51.832 13.8202 51.1875 12.988 50.8008 12.5192C50.4141 12.0621 49.5234 11.1244 48.8086 10.4329C48.0938 9.75311 47.0977 8.86233 46.582 8.47555C46.0664 8.08876 45.3281 7.54961 44.9414 7.29175C44.5547 7.03389 43.7109 6.5299 43.0664 6.16656C42.4219 5.81494 41.3438 5.2875 40.6641 4.99448C39.9844 4.71318 38.8242 4.27952 38.0859 4.0451C37.3477 3.82241 36.082 3.49422 35.2734 3.34186C34.4648 3.17776 33.2344 2.99023 32.5195 2.93163C31.8047 2.8613 30.5742 2.81442 29.7656 2.81442C28.957 2.82614 27.8555 2.87302 27.3047 2.93163C26.7539 2.99023 25.5938 3.17776 24.7266 3.34186ZM20.6836 12.8826C21.0703 12.8826 21.6562 12.9763 21.9727 13.0818C22.3008 13.199 22.7812 13.5038 23.0508 13.7616C23.3789 14.0663 24.082 15.1564 25.1016 16.9262C25.957 18.4147 26.7422 19.8798 26.8594 20.208C26.9766 20.5245 27.0703 20.9816 27.0703 21.2043C27.0703 21.427 26.9883 21.8724 26.8945 22.2006C26.8008 22.517 26.5781 22.9976 26.3906 23.2437C26.2148 23.4898 25.6992 23.9469 25.2539 24.2517C24.6211 24.6736 24.3867 24.9081 24.2344 25.2831C24.1172 25.5527 24.0234 25.9278 24.0234 26.127C24.0234 26.3263 24.082 26.6193 24.1523 26.7951C24.2227 26.9826 24.7852 27.7562 25.4062 28.5298C26.0273 29.3033 27.3281 30.7333 28.3008 31.6944C29.2617 32.6672 30.6914 33.9682 31.4648 34.5894C32.2383 35.2106 33.0117 35.7732 33.1992 35.8435C33.375 35.9138 33.6797 35.9724 33.8672 35.9724C34.0547 35.9724 34.4414 35.8787 34.7109 35.7615C35.0859 35.6091 35.3203 35.3747 35.7656 34.7066C36.0703 34.2495 36.5273 33.7338 36.7734 33.5697C37.0078 33.4056 37.4766 33.1946 37.793 33.1009C38.1211 33.0071 38.5664 32.925 38.7891 32.925C39.0117 32.925 39.4688 33.0188 39.7852 33.136C40.1133 33.2532 41.5898 34.0385 43.0664 34.8941C44.8359 35.9138 45.9258 36.6171 46.2305 36.9453C46.4883 37.2148 46.793 37.6954 46.9102 38.0236C47.0156 38.34 47.1094 38.9144 47.1094 39.2777C47.1094 39.8051 46.9805 40.274 46.5703 41.3288C46.2773 42.0907 45.7969 43.2159 45.4922 43.8254C45.1523 44.5169 44.7539 45.1381 44.4141 45.478C44.1211 45.771 43.5586 46.1812 43.1602 46.3805C42.75 46.5915 42.0703 46.8376 41.6367 46.9431C41.0273 47.0837 40.4883 47.1189 39.3164 47.072C38.3672 47.0251 37.4648 46.9196 36.9141 46.7673C36.4336 46.6383 35.5547 46.3688 34.9805 46.1695C34.4062 45.9703 33.2695 45.4663 32.4609 45.0678C31.6523 44.6692 30.457 44.0012 29.7891 43.5909C29.1211 43.169 28.0195 42.4071 27.3281 41.9031C26.6367 41.3992 25.5469 40.5201 24.9023 39.9692C24.2578 39.4183 23.1211 38.3635 22.3828 37.6134C21.6328 36.8749 20.5781 35.738 20.0273 35.0934C19.4766 34.4487 18.7148 33.4994 18.3164 32.9837C17.9297 32.4679 17.2969 31.5654 16.9219 30.9911C16.5352 30.4168 15.9492 29.4557 15.6211 28.8814C15.293 28.3071 14.8359 27.428 14.625 26.9475C14.4023 26.4669 14.0859 25.6933 13.9102 25.248C13.7344 24.8026 13.4648 23.9235 13.2891 23.314C13.0664 22.4819 12.9727 21.8138 12.9258 20.6769C12.8789 19.5165 12.9141 18.9656 13.0547 18.3561C13.1602 17.9225 13.4062 17.2427 13.6172 16.8324C13.8164 16.4339 14.2266 15.8596 14.5195 15.5666C14.8711 15.2267 15.457 14.8399 16.1719 14.4883C16.7812 14.1953 17.8945 13.7147 18.6328 13.4217C19.6875 12.9998 20.1328 12.8943 20.6836 12.8826ZM17.1211 17.1372C16.7461 17.3247 16.3945 17.5943 16.2539 17.8287C16.1133 18.0397 15.9375 18.4499 15.8555 18.7429C15.7734 19.0359 15.7031 19.704 15.7031 20.2432C15.7031 20.7706 15.7852 21.5911 15.8789 22.0599C15.9844 22.517 16.1953 23.3023 16.3594 23.7829C16.5234 24.2634 16.9922 25.3417 17.4023 26.1856C17.8125 27.0295 18.4805 28.2367 18.8906 28.8814C19.3008 29.526 20.1211 30.6864 20.707 31.46C21.293 32.2335 22.3828 33.5228 23.1094 34.3315C23.8477 35.1403 25.1016 36.371 25.8867 37.0859C26.6836 37.8009 27.832 38.762 28.4531 39.2425C29.0859 39.7231 30.1172 40.4498 30.7617 40.8717C31.4062 41.2937 32.4609 41.9149 33.1055 42.2548C33.75 42.5947 34.7578 43.0635 35.332 43.2979C35.9062 43.5323 36.9141 43.8488 37.5586 44.0129C38.3203 44.2004 39.0703 44.2942 39.7266 44.2942C40.2773 44.2942 40.957 44.2239 41.25 44.1418C41.543 44.0598 41.9531 43.8722 42.1641 43.7316C42.375 43.5792 42.6797 43.1807 42.8789 42.8056C43.0664 42.4306 43.4531 41.5281 43.7578 40.8131C44.0508 40.0864 44.2969 39.3715 44.2969 39.2308C44.3086 39.0784 44.2383 38.9026 44.1562 38.8206C44.0742 38.7503 42.8438 38.0236 41.4258 37.2148C40.0078 36.3944 38.8008 35.738 38.7305 35.738C38.6602 35.738 38.5312 35.7966 38.4375 35.8787C38.332 35.9607 38.0391 36.3475 37.793 36.7226C37.5234 37.1211 37.0547 37.6016 36.6797 37.8712C36.3281 38.1173 35.7773 38.4104 35.4492 38.5276C35.0625 38.6565 34.5 38.7268 33.8086 38.7268C32.8711 38.7268 32.6719 38.6799 31.9922 38.3635C31.5703 38.1642 30.75 37.6251 30.1758 37.1562C29.6016 36.6991 28.5234 35.7732 27.7852 35.1168C27.0586 34.4605 25.875 33.2884 25.1602 32.5148C24.457 31.7413 23.4492 30.5809 22.9336 29.9363C22.418 29.2916 21.832 28.4243 21.6328 28.0023C21.3164 27.3225 21.2695 27.1233 21.2695 26.1856C21.2695 25.4941 21.3398 24.9315 21.4688 24.5447C21.5859 24.2165 21.8789 23.6656 22.125 23.314C22.3945 22.939 22.875 22.4701 23.2734 22.2006C23.6484 21.9544 24.0352 21.6614 24.1172 21.5559C24.1992 21.4621 24.2578 21.3332 24.2578 21.2629C24.2578 21.1926 23.6016 19.9853 22.7812 18.5671C21.9727 17.1489 21.2461 15.9182 21.1758 15.8362C21.0938 15.7541 20.9062 15.6838 20.7422 15.6955C20.5781 15.6955 19.8398 15.9534 19.1016 16.2698C18.3633 16.5746 17.4727 16.9731 17.1211 17.1372Z" fill="#5B5853"/>
</svg>
